# MagicaVoxel @ Ephtracy

# group
g One

# material
mtllib One.mtl
usemtl palette

# normals
vn -1 0 0
vn 1 0 0
vn 0 0 1
vn 0 0 -1
vn 0 -1 0
vn 0 1 0

# texcoords
vt 0.958984 0.5
vt 0.994141 0.5

# verts
v -3 15 -19
v -3 15 -20
v -3 18 -19
v -3 18 -20
v -3 21 -19
v -3 21 -20
v -3 24 -19
v -3 24 -20
v -2 16 -18
v -2 16 -19
v -2 17 -18
v -2 17 -19
v -2 22 -18
v -2 22 -19
v -2 23 -18
v -2 23 -19
v -1 18 -19
v -1 18 -20
v -1 21 -19
v -1 21 -20
v -1 24 -19
v -1 24 -20
v -1 25 -19
v -1 25 -20
v 0 17 -18
v 0 17 -19
v 0 22 -18
v 0 22 -19
v 0 23 -18
v 0 23 -19
v 0 24 -18
v 0 24 -19
v 2 17 -18
v 2 17 -19
v 2 24 -18
v 2 24 -19
v 3 18 -19
v 3 18 -20
v 3 25 -19
v 3 25 -20
v 4 16 -18
v 4 16 -19
v 4 17 -18
v 4 17 -19
v 5 15 -19
v 5 15 -20
v 5 18 -19
v 5 18 -20
v -2 16 -18
v -2 17 -18
v -2 22 -18
v -2 23 -18
v 0 17 -18
v 0 22 -18
v 0 23 -18
v 0 24 -18
v 2 17 -18
v 2 24 -18
v 4 16 -18
v 4 17 -18
v -3 15 -19
v -3 18 -19
v -3 21 -19
v -3 24 -19
v -2 16 -19
v -2 17 -19
v -2 22 -19
v -2 23 -19
v -1 18 -19
v -1 21 -19
v -1 24 -19
v -1 25 -19
v 0 17 -19
v 0 22 -19
v 0 23 -19
v 0 24 -19
v 2 17 -19
v 2 24 -19
v 3 18 -19
v 3 25 -19
v 4 16 -19
v 4 17 -19
v 5 15 -19
v 5 18 -19
v -3 15 -20
v -3 18 -20
v -3 21 -20
v -3 24 -20
v -1 18 -20
v -1 21 -20
v -1 24 -20
v -1 25 -20
v 3 18 -20
v 3 25 -20
v 5 15 -20
v 5 18 -20
v -3 15 -19
v 5 15 -19
v -3 15 -20
v 5 15 -20
v -2 16 -18
v 4 16 -18
v -2 16 -19
v 4 16 -19
v -3 21 -19
v -1 21 -19
v -3 21 -20
v -1 21 -20
v -2 22 -18
v 0 22 -18
v -2 22 -19
v 0 22 -19
v -2 17 -18
v 0 17 -18
v 2 17 -18
v 4 17 -18
v -2 17 -19
v 0 17 -19
v 2 17 -19
v 4 17 -19
v -3 18 -19
v -1 18 -19
v 3 18 -19
v 5 18 -19
v -3 18 -20
v -1 18 -20
v 3 18 -20
v 5 18 -20
v -2 23 -18
v 0 23 -18
v -2 23 -19
v 0 23 -19
v 0 24 -18
v 2 24 -18
v -3 24 -19
v -1 24 -19
v 0 24 -19
v 2 24 -19
v -3 24 -20
v -1 24 -20
v -1 25 -19
v 3 25 -19
v -1 25 -20
v 3 25 -20

# faces
f 3/2/1 2/2/1 1/2/1
f 4/2/1 2/2/1 3/2/1
f 7/2/1 6/2/1 5/2/1
f 8/2/1 6/2/1 7/2/1
f 11/1/1 10/1/1 9/1/1
f 12/1/1 10/1/1 11/1/1
f 15/1/1 14/1/1 13/1/1
f 16/1/1 14/1/1 15/1/1
f 19/2/1 18/2/1 17/2/1
f 20/2/1 18/2/1 19/2/1
f 23/2/1 22/2/1 21/2/1
f 24/2/1 22/2/1 23/2/1
f 27/1/1 26/1/1 25/1/1
f 28/1/1 26/1/1 27/1/1
f 31/1/1 30/1/1 29/1/1
f 32/1/1 30/1/1 31/1/1
f 33/1/2 34/1/2 35/1/2
f 35/1/2 34/1/2 36/1/2
f 37/2/2 38/2/2 39/2/2
f 39/2/2 38/2/2 40/2/2
f 41/1/2 42/1/2 43/1/2
f 43/1/2 42/1/2 44/1/2
f 45/2/2 46/2/2 47/2/2
f 47/2/2 46/2/2 48/2/2
f 53/1/3 50/1/3 49/1/3
f 54/1/3 52/1/3 51/1/3
f 55/1/3 52/1/3 54/1/3
f 57/1/3 53/1/3 49/1/3
f 57/1/3 56/1/3 55/1/3
f 57/1/3 55/1/3 54/1/3
f 57/1/3 54/1/3 53/1/3
f 58/1/3 56/1/3 57/1/3
f 59/1/3 57/1/3 49/1/3
f 60/1/3 57/1/3 59/1/3
f 65/2/3 62/2/3 61/2/3
f 66/2/3 62/2/3 65/2/3
f 67/2/3 64/2/3 63/2/3
f 68/2/3 64/2/3 67/2/3
f 69/2/3 62/2/3 66/2/3
f 70/2/3 67/2/3 63/2/3
f 71/2/3 64/2/3 68/2/3
f 73/2/3 70/2/3 69/2/3
f 73/2/3 69/2/3 66/2/3
f 74/2/3 67/2/3 70/2/3
f 74/2/3 70/2/3 73/2/3
f 75/2/3 72/2/3 71/2/3
f 75/2/3 71/2/3 68/2/3
f 76/2/3 72/2/3 75/2/3
f 78/2/3 72/2/3 76/2/3
f 79/2/3 78/2/3 77/2/3
f 80/2/3 72/2/3 78/2/3
f 80/2/3 78/2/3 79/2/3
f 81/2/3 65/2/3 61/2/3
f 82/2/3 79/2/3 77/2/3
f 83/2/3 81/2/3 61/2/3
f 83/2/3 82/2/3 81/2/3
f 84/2/3 79/2/3 82/2/3
f 84/2/3 82/2/3 83/2/3
f 85/2/4 86/2/4 89/2/4
f 87/2/4 88/2/4 90/2/4
f 90/2/4 88/2/4 91/2/4
f 85/2/4 89/2/4 93/2/4
f 91/2/4 92/2/4 93/2/4
f 90/2/4 91/2/4 93/2/4
f 89/2/4 90/2/4 93/2/4
f 93/2/4 92/2/4 94/2/4
f 85/2/4 93/2/4 95/2/4
f 95/2/4 93/2/4 96/2/4
f 99/2/5 98/2/5 97/2/5
f 100/2/5 98/2/5 99/2/5
f 103/1/5 102/1/5 101/1/5
f 104/1/5 102/1/5 103/1/5
f 107/2/5 106/2/5 105/2/5
f 108/2/5 106/2/5 107/2/5
f 111/1/5 110/1/5 109/1/5
f 112/1/5 110/1/5 111/1/5
f 113/1/6 114/1/6 117/1/6
f 117/1/6 114/1/6 118/1/6
f 115/1/6 116/1/6 119/1/6
f 119/1/6 116/1/6 120/1/6
f 121/2/6 122/2/6 125/2/6
f 125/2/6 122/2/6 126/2/6
f 123/2/6 124/2/6 127/2/6
f 127/2/6 124/2/6 128/2/6
f 129/1/6 130/1/6 131/1/6
f 131/1/6 130/1/6 132/1/6
f 133/1/6 134/1/6 137/1/6
f 137/1/6 134/1/6 138/1/6
f 135/2/6 136/2/6 139/2/6
f 139/2/6 136/2/6 140/2/6
f 141/2/6 142/2/6 143/2/6
f 143/2/6 142/2/6 144/2/6
