# MagicaVoxel @ Ephtracy

# group
g Two

# material
mtllib Two.mtl
usemtl palette

# normals
vn -1 0 0
vn 1 0 0
vn 0 0 1
vn 0 0 -1
vn 0 -1 0
vn 0 1 0

# texcoords
vt 0.958984 0.5
vt 0.994141 0.5

# verts
v -3 13 -19
v -3 13 -20
v -3 18 -19
v -3 18 -20
v -3 19 -19
v -3 19 -20
v -3 22 -19
v -3 22 -20
v -2 12 -19
v -2 12 -20
v -2 13 -19
v -2 13 -20
v -2 14 -18
v -2 14 -19
v -2 17 -18
v -2 17 -19
v -2 18 -19
v -2 18 -20
v -2 19 -19
v -2 19 -20
v -2 20 -18
v -2 20 -19
v -2 21 -18
v -2 21 -19
v -2 22 -19
v -2 22 -20
v -2 23 -19
v -2 23 -20
v -1 13 -18
v -1 13 -19
v -1 14 -18
v -1 14 -19
v -1 17 -18
v -1 17 -19
v -1 18 -18
v -1 18 -19
v -1 21 -18
v -1 21 -19
v -1 22 -18
v -1 22 -19
v 3 19 -19
v 3 19 -20
v 3 20 -19
v 3 20 -20
v 4 18 -18
v 4 18 -19
v 4 21 -18
v 4 21 -19
v -1 14 -18
v -1 14 -19
v -1 17 -18
v -1 17 -19
v -1 20 -18
v -1 20 -19
v -1 21 -18
v -1 21 -19
v 0 15 -19
v 0 15 -20
v 0 16 -19
v 0 16 -20
v 0 19 -19
v 0 19 -20
v 0 20 -19
v 0 20 -20
v 4 17 -18
v 4 17 -19
v 4 18 -18
v 4 18 -19
v 4 21 -18
v 4 21 -19
v 4 22 -18
v 4 22 -19
v 5 13 -18
v 5 13 -19
v 5 14 -18
v 5 14 -19
v 5 18 -18
v 5 18 -19
v 5 21 -18
v 5 21 -19
v 5 22 -19
v 5 22 -20
v 5 23 -19
v 5 23 -20
v 6 12 -19
v 6 12 -20
v 6 15 -19
v 6 15 -20
v 6 16 -19
v 6 16 -20
v 6 22 -19
v 6 22 -20
v -2 14 -18
v -2 17 -18
v -2 20 -18
v -2 21 -18
v -1 13 -18
v -1 14 -18
v -1 17 -18
v -1 18 -18
v -1 20 -18
v -1 21 -18
v -1 22 -18
v 4 17 -18
v 4 18 -18
v 4 21 -18
v 4 22 -18
v 5 13 -18
v 5 14 -18
v 5 18 -18
v 5 21 -18
v -3 13 -19
v -3 18 -19
v -3 19 -19
v -3 22 -19
v -2 12 -19
v -2 13 -19
v -2 14 -19
v -2 17 -19
v -2 18 -19
v -2 19 -19
v -2 20 -19
v -2 21 -19
v -2 22 -19
v -2 23 -19
v -1 13 -19
v -1 14 -19
v -1 17 -19
v -1 18 -19
v -1 20 -19
v -1 21 -19
v -1 22 -19
v 0 15 -19
v 0 16 -19
v 0 19 -19
v 0 20 -19
v 3 19 -19
v 3 20 -19
v 4 17 -19
v 4 18 -19
v 4 21 -19
v 4 22 -19
v 5 13 -19
v 5 14 -19
v 5 18 -19
v 5 21 -19
v 5 22 -19
v 5 23 -19
v 6 12 -19
v 6 15 -19
v 6 16 -19
v 6 22 -19
v -3 13 -20
v -3 18 -20
v -3 19 -20
v -3 22 -20
v -2 12 -20
v -2 13 -20
v -2 18 -20
v -2 19 -20
v -2 22 -20
v -2 23 -20
v 0 15 -20
v 0 16 -20
v 0 19 -20
v 0 20 -20
v 3 19 -20
v 3 20 -20
v 5 22 -20
v 5 23 -20
v 6 12 -20
v 6 15 -20
v 6 16 -20
v 6 22 -20
v -2 12 -19
v 6 12 -19
v -2 12 -20
v 6 12 -20
v -1 13 -18
v 5 13 -18
v -3 13 -19
v -2 13 -19
v -1 13 -19
v 5 13 -19
v -3 13 -20
v -2 13 -20
v -2 14 -18
v -1 14 -18
v -2 14 -19
v -1 14 -19
v 0 16 -19
v 6 16 -19
v 0 16 -20
v 6 16 -20
v -1 17 -18
v 4 17 -18
v -1 17 -19
v 4 17 -19
v 4 18 -18
v 5 18 -18
v 4 18 -19
v 5 18 -19
v -3 19 -19
v -2 19 -19
v -3 19 -20
v -2 19 -20
v -2 20 -18
v -1 20 -18
v -2 20 -19
v -1 20 -19
v 0 20 -19
v 3 20 -19
v 0 20 -20
v 3 20 -20
v -1 21 -18
v 4 21 -18
v -1 21 -19
v 4 21 -19
v -1 14 -18
v 5 14 -18
v -1 14 -19
v 5 14 -19
v 0 15 -19
v 6 15 -19
v 0 15 -20
v 6 15 -20
v -2 17 -18
v -1 17 -18
v -2 17 -19
v -1 17 -19
v -1 18 -18
v 4 18 -18
v -3 18 -19
v -2 18 -19
v -1 18 -19
v 4 18 -19
v -3 18 -20
v -2 18 -20
v 0 19 -19
v 3 19 -19
v 0 19 -20
v 3 19 -20
v -2 21 -18
v -1 21 -18
v 4 21 -18
v 5 21 -18
v -2 21 -19
v -1 21 -19
v 4 21 -19
v 5 21 -19
v -1 22 -18
v 4 22 -18
v -3 22 -19
v -2 22 -19
v -1 22 -19
v 4 22 -19
v 5 22 -19
v 6 22 -19
v -3 22 -20
v -2 22 -20
v 5 22 -20
v 6 22 -20
v -2 23 -19
v 5 23 -19
v -2 23 -20
v 5 23 -20

# faces
f 3/2/1 2/2/1 1/2/1
f 4/2/1 2/2/1 3/2/1
f 7/2/1 6/2/1 5/2/1
f 8/2/1 6/2/1 7/2/1
f 11/2/1 10/2/1 9/2/1
f 12/2/1 10/2/1 11/2/1
f 15/1/1 14/1/1 13/1/1
f 16/1/1 14/1/1 15/1/1
f 19/2/1 18/2/1 17/2/1
f 20/2/1 18/2/1 19/2/1
f 23/1/1 22/1/1 21/1/1
f 24/1/1 22/1/1 23/1/1
f 27/2/1 26/2/1 25/2/1
f 28/2/1 26/2/1 27/2/1
f 31/1/1 30/1/1 29/1/1
f 32/1/1 30/1/1 31/1/1
f 35/1/1 34/1/1 33/1/1
f 36/1/1 34/1/1 35/1/1
f 39/1/1 38/1/1 37/1/1
f 40/1/1 38/1/1 39/1/1
f 43/2/1 42/2/1 41/2/1
f 44/2/1 42/2/1 43/2/1
f 47/1/1 46/1/1 45/1/1
f 48/1/1 46/1/1 47/1/1
f 49/1/2 50/1/2 51/1/2
f 51/1/2 50/1/2 52/1/2
f 53/1/2 54/1/2 55/1/2
f 55/1/2 54/1/2 56/1/2
f 57/2/2 58/2/2 59/2/2
f 59/2/2 58/2/2 60/2/2
f 61/2/2 62/2/2 63/2/2
f 63/2/2 62/2/2 64/2/2
f 65/1/2 66/1/2 67/1/2
f 67/1/2 66/1/2 68/1/2
f 69/1/2 70/1/2 71/1/2
f 71/1/2 70/1/2 72/1/2
f 73/1/2 74/1/2 75/1/2
f 75/1/2 74/1/2 76/1/2
f 77/1/2 78/1/2 79/1/2
f 79/1/2 78/1/2 80/1/2
f 81/2/2 82/2/2 83/2/2
f 83/2/2 82/2/2 84/2/2
f 85/2/2 86/2/2 87/2/2
f 87/2/2 86/2/2 88/2/2
f 89/2/2 90/2/2 91/2/2
f 91/2/2 90/2/2 92/2/2
f 98/1/3 94/1/3 93/1/3
f 99/1/3 94/1/3 98/1/3
f 101/1/3 96/1/3 95/1/3
f 102/1/3 96/1/3 101/1/3
f 104/1/3 100/1/3 99/1/3
f 105/1/3 100/1/3 104/1/3
f 106/1/3 103/1/3 102/1/3
f 107/1/3 103/1/3 106/1/3
f 108/1/3 98/1/3 97/1/3
f 109/1/3 98/1/3 108/1/3
f 110/1/3 106/1/3 105/1/3
f 111/1/3 106/1/3 110/1/3
f 117/2/3 113/2/3 112/2/3
f 118/2/3 113/2/3 117/2/3
f 119/2/3 113/2/3 118/2/3
f 120/2/3 113/2/3 119/2/3
f 121/2/3 115/2/3 114/2/3
f 122/2/3 115/2/3 121/2/3
f 123/2/3 115/2/3 122/2/3
f 124/2/3 115/2/3 123/2/3
f 126/2/3 117/2/3 116/2/3
f 126/2/3 118/2/3 117/2/3
f 127/2/3 118/2/3 126/2/3
f 128/2/3 120/2/3 119/2/3
f 128/2/3 122/2/3 121/2/3
f 128/2/3 121/2/3 120/2/3
f 129/2/3 122/2/3 128/2/3
f 130/2/3 122/2/3 129/2/3
f 131/2/3 125/2/3 124/2/3
f 131/2/3 124/2/3 123/2/3
f 132/2/3 125/2/3 131/2/3
f 133/2/3 128/2/3 127/2/3
f 134/2/3 128/2/3 133/2/3
f 135/2/3 130/2/3 129/2/3
f 135/2/3 131/2/3 130/2/3
f 136/2/3 131/2/3 135/2/3
f 137/2/3 135/2/3 129/2/3
f 138/2/3 131/2/3 136/2/3
f 139/2/3 128/2/3 134/2/3
f 140/2/3 138/2/3 137/2/3
f 140/2/3 137/2/3 129/2/3
f 141/2/3 131/2/3 138/2/3
f 141/2/3 138/2/3 140/2/3
f 142/2/3 125/2/3 132/2/3
f 143/2/3 126/2/3 116/2/3
f 144/2/3 133/2/3 127/2/3
f 145/2/3 140/2/3 139/2/3
f 146/2/3 142/2/3 141/2/3
f 147/2/3 125/2/3 142/2/3
f 147/2/3 142/2/3 146/2/3
f 148/2/3 125/2/3 147/2/3
f 149/2/3 144/2/3 143/2/3
f 149/2/3 143/2/3 116/2/3
f 150/2/3 133/2/3 144/2/3
f 150/2/3 144/2/3 149/2/3
f 151/2/3 145/2/3 139/2/3
f 151/2/3 139/2/3 134/2/3
f 151/2/3 146/2/3 145/2/3
f 151/2/3 147/2/3 146/2/3
f 152/2/3 147/2/3 151/2/3
f 153/2/4 154/2/4 158/2/4
f 158/2/4 154/2/4 159/2/4
f 155/2/4 156/2/4 160/2/4
f 160/2/4 156/2/4 161/2/4
f 158/2/4 159/2/4 163/2/4
f 161/2/4 162/2/4 163/2/4
f 160/2/4 161/2/4 163/2/4
f 159/2/4 160/2/4 163/2/4
f 157/2/4 158/2/4 163/2/4
f 163/2/4 162/2/4 164/2/4
f 164/2/4 162/2/4 165/2/4
f 165/2/4 162/2/4 166/2/4
f 164/2/4 165/2/4 167/2/4
f 166/2/4 162/2/4 168/2/4
f 168/2/4 162/2/4 169/2/4
f 167/2/4 168/2/4 169/2/4
f 169/2/4 162/2/4 170/2/4
f 157/2/4 163/2/4 171/2/4
f 171/2/4 163/2/4 172/2/4
f 164/2/4 167/2/4 173/2/4
f 167/2/4 169/2/4 173/2/4
f 173/2/4 169/2/4 174/2/4
f 177/2/5 176/2/5 175/2/5
f 178/2/5 176/2/5 177/2/5
f 183/1/5 180/1/5 179/1/5
f 184/1/5 180/1/5 183/1/5
f 185/2/5 182/2/5 181/2/5
f 186/2/5 182/2/5 185/2/5
f 189/1/5 188/1/5 187/1/5
f 190/1/5 188/1/5 189/1/5
f 193/2/5 192/2/5 191/2/5
f 194/2/5 192/2/5 193/2/5
f 197/1/5 196/1/5 195/1/5
f 198/1/5 196/1/5 197/1/5
f 201/1/5 200/1/5 199/1/5
f 202/1/5 200/1/5 201/1/5
f 205/2/5 204/2/5 203/2/5
f 206/2/5 204/2/5 205/2/5
f 209/1/5 208/1/5 207/1/5
f 210/1/5 208/1/5 209/1/5
f 213/2/5 212/2/5 211/2/5
f 214/2/5 212/2/5 213/2/5
f 217/1/5 216/1/5 215/1/5
f 218/1/5 216/1/5 217/1/5
f 219/1/6 220/1/6 221/1/6
f 221/1/6 220/1/6 222/1/6
f 223/2/6 224/2/6 225/2/6
f 225/2/6 224/2/6 226/2/6
f 227/1/6 228/1/6 229/1/6
f 229/1/6 228/1/6 230/1/6
f 231/1/6 232/1/6 235/1/6
f 235/1/6 232/1/6 236/1/6
f 233/2/6 234/2/6 237/2/6
f 237/2/6 234/2/6 238/2/6
f 239/2/6 240/2/6 241/2/6
f 241/2/6 240/2/6 242/2/6
f 243/1/6 244/1/6 247/1/6
f 247/1/6 244/1/6 248/1/6
f 245/1/6 246/1/6 249/1/6
f 249/1/6 246/1/6 250/1/6
f 251/1/6 252/1/6 255/1/6
f 255/1/6 252/1/6 256/1/6
f 253/2/6 254/2/6 259/2/6
f 259/2/6 254/2/6 260/2/6
f 257/2/6 258/2/6 261/2/6
f 261/2/6 258/2/6 262/2/6
f 263/2/6 264/2/6 265/2/6
f 265/2/6 264/2/6 266/2/6
