# MagicaVoxel @ Ephtracy

# group
g Four

# material
mtllib Four.mtl
usemtl palette

# normals
vn -1 0 0
vn 1 0 0
vn 0 0 1
vn 0 0 -1
vn 0 -1 0
vn 0 1 0

# texcoords
vt 0.958984 0.5
vt 0.994141 0.5

# verts
v 3 14 -19
v 3 14 -20
v 3 18 -19
v 3 18 -20
v 4 15 -18
v 4 15 -19
v 4 17 -18
v 4 17 -19
v 4 18 -19
v 4 18 -20
v 4 19 -19
v 4 19 -20
v 5 17 -18
v 5 17 -19
v 5 18 -18
v 5 18 -19
v 5 19 -19
v 5 19 -20
v 5 20 -19
v 5 20 -20
v 6 18 -18
v 6 18 -19
v 6 19 -18
v 6 19 -19
v 6 20 -19
v 6 20 -20
v 6 21 -19
v 6 21 -20
v 7 19 -18
v 7 19 -19
v 7 20 -18
v 7 20 -19
v 7 21 -19
v 7 21 -20
v 7 22 -19
v 7 22 -20
v 8 20 -18
v 8 20 -19
v 8 21 -18
v 8 21 -19
v 8 22 -19
v 8 22 -20
v 8 23 -19
v 8 23 -20
v 9 21 -18
v 9 21 -19
v 9 22 -18
v 9 22 -19
v 10 13 -19
v 10 13 -20
v 10 14 -19
v 10 14 -20
v 10 17 -19
v 10 17 -20
v 10 19 -19
v 10 19 -20
v 11 14 -18
v 11 14 -19
v 11 15 -18
v 11 15 -19
v 11 16 -18
v 11 16 -19
v 11 21 -18
v 11 21 -19
v 5 16 -18
v 5 16 -19
v 5 17 -18
v 5 17 -19
v 6 17 -18
v 6 17 -19
v 6 18 -18
v 6 18 -19
v 7 18 -18
v 7 18 -19
v 7 19 -18
v 7 19 -19
v 8 17 -19
v 8 17 -20
v 8 18 -19
v 8 18 -20
v 8 19 -18
v 8 19 -19
v 8 20 -18
v 8 20 -19
v 9 18 -19
v 9 18 -20
v 9 19 -19
v 9 19 -20
v 9 20 -18
v 9 20 -19
v 9 21 -18
v 9 21 -19
v 12 14 -18
v 12 14 -19
v 12 15 -18
v 12 15 -19
v 12 16 -18
v 12 16 -19
v 12 22 -18
v 12 22 -19
v 13 13 -19
v 13 13 -20
v 13 14 -19
v 13 14 -20
v 13 15 -18
v 13 15 -19
v 13 16 -18
v 13 16 -19
v 13 17 -19
v 13 17 -20
v 13 23 -19
v 13 23 -20
v 14 14 -19
v 14 14 -20
v 14 17 -19
v 14 17 -20
v 4 15 -18
v 4 17 -18
v 5 16 -18
v 5 17 -18
v 5 18 -18
v 6 17 -18
v 6 18 -18
v 6 19 -18
v 7 18 -18
v 7 19 -18
v 7 20 -18
v 8 19 -18
v 8 20 -18
v 8 21 -18
v 9 20 -18
v 9 21 -18
v 9 22 -18
v 11 14 -18
v 11 15 -18
v 11 16 -18
v 11 21 -18
v 12 14 -18
v 12 15 -18
v 12 16 -18
v 12 22 -18
v 13 15 -18
v 13 16 -18
v 3 14 -19
v 3 18 -19
v 4 15 -19
v 4 17 -19
v 4 18 -19
v 4 19 -19
v 5 16 -19
v 5 17 -19
v 5 18 -19
v 5 19 -19
v 5 20 -19
v 6 17 -19
v 6 18 -19
v 6 19 -19
v 6 20 -19
v 6 21 -19
v 7 18 -19
v 7 19 -19
v 7 20 -19
v 7 21 -19
v 7 22 -19
v 8 17 -19
v 8 18 -19
v 8 19 -19
v 8 20 -19
v 8 21 -19
v 8 22 -19
v 8 23 -19
v 9 18 -19
v 9 19 -19
v 9 20 -19
v 9 21 -19
v 9 22 -19
v 10 13 -19
v 10 14 -19
v 10 17 -19
v 10 19 -19
v 11 14 -19
v 11 15 -19
v 11 16 -19
v 11 21 -19
v 12 14 -19
v 12 15 -19
v 12 16 -19
v 12 22 -19
v 13 13 -19
v 13 14 -19
v 13 15 -19
v 13 16 -19
v 13 17 -19
v 13 23 -19
v 14 14 -19
v 14 17 -19
v 3 14 -20
v 3 18 -20
v 4 18 -20
v 4 19 -20
v 5 19 -20
v 5 20 -20
v 6 20 -20
v 6 21 -20
v 7 21 -20
v 7 22 -20
v 8 17 -20
v 8 18 -20
v 8 22 -20
v 8 23 -20
v 9 18 -20
v 9 19 -20
v 10 13 -20
v 10 14 -20
v 10 17 -20
v 10 19 -20
v 13 13 -20
v 13 14 -20
v 13 17 -20
v 13 23 -20
v 14 14 -20
v 14 17 -20
v 10 13 -19
v 13 13 -19
v 10 13 -20
v 13 13 -20
v 11 14 -18
v 12 14 -18
v 3 14 -19
v 10 14 -19
v 11 14 -19
v 12 14 -19
v 13 14 -19
v 14 14 -19
v 3 14 -20
v 10 14 -20
v 13 14 -20
v 14 14 -20
v 4 15 -18
v 11 15 -18
v 12 15 -18
v 13 15 -18
v 4 15 -19
v 11 15 -19
v 12 15 -19
v 13 15 -19
v 5 17 -18
v 6 17 -18
v 5 17 -19
v 6 17 -19
v 6 18 -18
v 7 18 -18
v 6 18 -19
v 7 18 -19
v 8 18 -19
v 9 18 -19
v 8 18 -20
v 9 18 -20
v 7 19 -18
v 8 19 -18
v 7 19 -19
v 8 19 -19
v 9 19 -19
v 10 19 -19
v 9 19 -20
v 10 19 -20
v 8 20 -18
v 9 20 -18
v 8 20 -19
v 9 20 -19
v 9 21 -18
v 11 21 -18
v 9 21 -19
v 11 21 -19
v 5 16 -18
v 11 16 -18
v 12 16 -18
v 13 16 -18
v 5 16 -19
v 11 16 -19
v 12 16 -19
v 13 16 -19
v 4 17 -18
v 5 17 -18
v 4 17 -19
v 5 17 -19
v 8 17 -19
v 10 17 -19
v 13 17 -19
v 14 17 -19
v 8 17 -20
v 10 17 -20
v 13 17 -20
v 14 17 -20
v 5 18 -18
v 6 18 -18
v 3 18 -19
v 4 18 -19
v 5 18 -19
v 6 18 -19
v 3 18 -20
v 4 18 -20
v 6 19 -18
v 7 19 -18
v 4 19 -19
v 5 19 -19
v 6 19 -19
v 7 19 -19
v 4 19 -20
v 5 19 -20
v 7 20 -18
v 8 20 -18
v 5 20 -19
v 6 20 -19
v 7 20 -19
v 8 20 -19
v 5 20 -20
v 6 20 -20
v 8 21 -18
v 9 21 -18
v 6 21 -19
v 7 21 -19
v 8 21 -19
v 9 21 -19
v 6 21 -20
v 7 21 -20
v 9 22 -18
v 12 22 -18
v 7 22 -19
v 8 22 -19
v 9 22 -19
v 12 22 -19
v 7 22 -20
v 8 22 -20
v 8 23 -19
v 13 23 -19
v 8 23 -20
v 13 23 -20

# faces
f 3/2/1 2/2/1 1/2/1
f 4/2/1 2/2/1 3/2/1
f 7/1/1 6/1/1 5/1/1
f 8/1/1 6/1/1 7/1/1
f 11/2/1 10/2/1 9/2/1
f 12/2/1 10/2/1 11/2/1
f 15/1/1 14/1/1 13/1/1
f 16/1/1 14/1/1 15/1/1
f 19/2/1 18/2/1 17/2/1
f 20/2/1 18/2/1 19/2/1
f 23/1/1 22/1/1 21/1/1
f 24/1/1 22/1/1 23/1/1
f 27/2/1 26/2/1 25/2/1
f 28/2/1 26/2/1 27/2/1
f 31/1/1 30/1/1 29/1/1
f 32/1/1 30/1/1 31/1/1
f 35/2/1 34/2/1 33/2/1
f 36/2/1 34/2/1 35/2/1
f 39/1/1 38/1/1 37/1/1
f 40/1/1 38/1/1 39/1/1
f 43/2/1 42/2/1 41/2/1
f 44/2/1 42/2/1 43/2/1
f 47/1/1 46/1/1 45/1/1
f 48/1/1 46/1/1 47/1/1
f 51/2/1 50/2/1 49/2/1
f 52/2/1 50/2/1 51/2/1
f 55/2/1 54/2/1 53/2/1
f 56/2/1 54/2/1 55/2/1
f 59/1/1 58/1/1 57/1/1
f 60/1/1 58/1/1 59/1/1
f 63/1/1 62/1/1 61/1/1
f 64/1/1 62/1/1 63/1/1
f 65/1/2 66/1/2 67/1/2
f 67/1/2 66/1/2 68/1/2
f 69/1/2 70/1/2 71/1/2
f 71/1/2 70/1/2 72/1/2
f 73/1/2 74/1/2 75/1/2
f 75/1/2 74/1/2 76/1/2
f 77/2/2 78/2/2 79/2/2
f 79/2/2 78/2/2 80/2/2
f 81/1/2 82/1/2 83/1/2
f 83/1/2 82/1/2 84/1/2
f 85/2/2 86/2/2 87/2/2
f 87/2/2 86/2/2 88/2/2
f 89/1/2 90/1/2 91/1/2
f 91/1/2 90/1/2 92/1/2
f 93/1/2 94/1/2 95/1/2
f 95/1/2 94/1/2 96/1/2
f 97/1/2 98/1/2 99/1/2
f 99/1/2 98/1/2 100/1/2
f 101/2/2 102/2/2 103/2/2
f 103/2/2 102/2/2 104/2/2
f 105/1/2 106/1/2 107/1/2
f 107/1/2 106/1/2 108/1/2
f 109/2/2 110/2/2 111/2/2
f 111/2/2 110/2/2 112/2/2
f 113/2/2 114/2/2 115/2/2
f 115/2/2 114/2/2 116/2/2
f 119/1/3 118/1/3 117/1/3
f 120/1/3 118/1/3 119/1/3
f 122/1/3 121/1/3 120/1/3
f 123/1/3 121/1/3 122/1/3
f 125/1/3 124/1/3 123/1/3
f 126/1/3 124/1/3 125/1/3
f 128/1/3 127/1/3 126/1/3
f 129/1/3 127/1/3 128/1/3
f 131/1/3 130/1/3 129/1/3
f 132/1/3 130/1/3 131/1/3
f 135/1/3 119/1/3 117/1/3
f 136/1/3 119/1/3 135/1/3
f 137/1/3 133/1/3 132/1/3
f 138/1/3 136/1/3 135/1/3
f 138/1/3 137/1/3 136/1/3
f 138/1/3 135/1/3 134/1/3
f 139/1/3 137/1/3 138/1/3
f 140/1/3 137/1/3 139/1/3
f 141/1/3 133/1/3 137/1/3
f 141/1/3 137/1/3 140/1/3
f 142/1/3 140/1/3 139/1/3
f 143/1/3 140/1/3 142/1/3
f 146/2/3 145/2/3 144/2/3
f 147/2/3 145/2/3 146/2/3
f 148/2/3 145/2/3 147/2/3
f 151/2/3 149/2/3 148/2/3
f 151/2/3 148/2/3 147/2/3
f 152/2/3 149/2/3 151/2/3
f 153/2/3 149/2/3 152/2/3
f 155/2/3 151/2/3 150/2/3
f 156/2/3 154/2/3 153/2/3
f 156/2/3 153/2/3 152/2/3
f 157/2/3 154/2/3 156/2/3
f 158/2/3 154/2/3 157/2/3
f 160/2/3 156/2/3 155/2/3
f 161/2/3 159/2/3 158/2/3
f 161/2/3 158/2/3 157/2/3
f 162/2/3 159/2/3 161/2/3
f 163/2/3 159/2/3 162/2/3
f 165/2/3 155/2/3 150/2/3
f 165/2/3 160/2/3 155/2/3
f 165/2/3 161/2/3 160/2/3
f 166/2/3 161/2/3 165/2/3
f 167/2/3 161/2/3 166/2/3
f 168/2/3 164/2/3 163/2/3
f 168/2/3 163/2/3 162/2/3
f 169/2/3 164/2/3 168/2/3
f 170/2/3 164/2/3 169/2/3
f 172/2/3 167/2/3 166/2/3
f 172/2/3 168/2/3 167/2/3
f 173/2/3 168/2/3 172/2/3
f 174/2/3 168/2/3 173/2/3
f 175/2/3 171/2/3 170/2/3
f 175/2/3 170/2/3 169/2/3
f 176/2/3 171/2/3 175/2/3
f 178/2/3 146/2/3 144/2/3
f 179/2/3 165/2/3 150/2/3
f 180/2/3 175/2/3 174/2/3
f 180/2/3 174/2/3 173/2/3
f 181/2/3 146/2/3 178/2/3
f 181/2/3 178/2/3 177/2/3
f 182/2/3 146/2/3 181/2/3
f 183/2/3 179/2/3 150/2/3
f 183/2/3 180/2/3 179/2/3
f 184/2/3 175/2/3 180/2/3
f 184/2/3 180/2/3 183/2/3
f 185/2/3 181/2/3 177/2/3
f 188/2/3 171/2/3 176/2/3
f 189/2/3 186/2/3 185/2/3
f 189/2/3 185/2/3 177/2/3
f 190/2/3 186/2/3 189/2/3
f 191/2/3 186/2/3 190/2/3
f 192/2/3 188/2/3 187/2/3
f 193/2/3 188/2/3 192/2/3
f 194/2/3 171/2/3 188/2/3
f 194/2/3 188/2/3 193/2/3
f 195/2/3 191/2/3 190/2/3
f 195/2/3 193/2/3 192/2/3
f 195/2/3 192/2/3 191/2/3
f 196/2/3 193/2/3 195/2/3
f 197/2/4 198/2/4 199/2/4
f 199/2/4 200/2/4 201/2/4
f 201/2/4 202/2/4 203/2/4
f 203/2/4 204/2/4 205/2/4
f 197/2/4 199/2/4 207/2/4
f 205/2/4 206/2/4 207/2/4
f 203/2/4 205/2/4 207/2/4
f 201/2/4 203/2/4 207/2/4
f 199/2/4 201/2/4 207/2/4
f 207/2/4 206/2/4 208/2/4
f 208/2/4 206/2/4 209/2/4
f 209/2/4 210/2/4 211/2/4
f 208/2/4 209/2/4 211/2/4
f 211/2/4 210/2/4 212/2/4
f 197/2/4 207/2/4 214/2/4
f 214/2/4 207/2/4 215/2/4
f 212/2/4 210/2/4 216/2/4
f 214/2/4 215/2/4 217/2/4
f 215/2/4 216/2/4 217/2/4
f 213/2/4 214/2/4 217/2/4
f 217/2/4 216/2/4 218/2/4
f 218/2/4 216/2/4 219/2/4
f 216/2/4 210/2/4 220/2/4
f 219/2/4 216/2/4 220/2/4
f 218/2/4 219/2/4 221/2/4
f 221/2/4 219/2/4 222/2/4
f 225/2/5 224/2/5 223/2/5
f 226/2/5 224/2/5 225/2/5
f 231/1/5 228/1/5 227/1/5
f 232/1/5 228/1/5 231/1/5
f 235/2/5 230/2/5 229/2/5
f 236/2/5 230/2/5 235/2/5
f 237/2/5 234/2/5 233/2/5
f 238/2/5 234/2/5 237/2/5
f 243/1/5 240/1/5 239/1/5
f 244/1/5 240/1/5 243/1/5
f 245/1/5 242/1/5 241/1/5
f 246/1/5 242/1/5 245/1/5
f 249/1/5 248/1/5 247/1/5
f 250/1/5 248/1/5 249/1/5
f 253/1/5 252/1/5 251/1/5
f 254/1/5 252/1/5 253/1/5
f 257/2/5 256/2/5 255/2/5
f 258/2/5 256/2/5 257/2/5
f 261/1/5 260/1/5 259/1/5
f 262/1/5 260/1/5 261/1/5
f 265/2/5 264/2/5 263/2/5
f 266/2/5 264/2/5 265/2/5
f 269/1/5 268/1/5 267/1/5
f 270/1/5 268/1/5 269/1/5
f 273/1/5 272/1/5 271/1/5
f 274/1/5 272/1/5 273/1/5
f 275/1/6 276/1/6 279/1/6
f 279/1/6 276/1/6 280/1/6
f 277/1/6 278/1/6 281/1/6
f 281/1/6 278/1/6 282/1/6
f 283/1/6 284/1/6 285/1/6
f 285/1/6 284/1/6 286/1/6
f 287/2/6 288/2/6 291/2/6
f 291/2/6 288/2/6 292/2/6
f 289/2/6 290/2/6 293/2/6
f 293/2/6 290/2/6 294/2/6
f 295/1/6 296/1/6 299/1/6
f 299/1/6 296/1/6 300/1/6
f 297/2/6 298/2/6 301/2/6
f 301/2/6 298/2/6 302/2/6
f 303/1/6 304/1/6 307/1/6
f 307/1/6 304/1/6 308/1/6
f 305/2/6 306/2/6 309/2/6
f 309/2/6 306/2/6 310/2/6
f 311/1/6 312/1/6 315/1/6
f 315/1/6 312/1/6 316/1/6
f 313/2/6 314/2/6 317/2/6
f 317/2/6 314/2/6 318/2/6
f 319/1/6 320/1/6 323/1/6
f 323/1/6 320/1/6 324/1/6
f 321/2/6 322/2/6 325/2/6
f 325/2/6 322/2/6 326/2/6
f 327/1/6 328/1/6 331/1/6
f 331/1/6 328/1/6 332/1/6
f 329/2/6 330/2/6 333/2/6
f 333/2/6 330/2/6 334/2/6
f 335/2/6 336/2/6 337/2/6
f 337/2/6 336/2/6 338/2/6
