# MagicaVoxel @ Ephtracy

# group
g Six

# material
mtllib Six.mtl
usemtl palette

# normals
vn -1 0 0
vn 1 0 0
vn 0 0 1
vn 0 0 -1
vn 0 -1 0
vn 0 1 0

# texcoords
vt 0.958984 0.5
vt 0.994141 0.5

# verts
v -2 18 -19
v -2 18 -20
v -2 28 -19
v -2 28 -20
v -1 17 -19
v -1 17 -20
v -1 18 -19
v -1 18 -20
v -1 19 -18
v -1 19 -19
v -1 28 -18
v -1 28 -19
v -1 28 -20
v -1 30 -19
v -1 30 -20
v 0 18 -18
v 0 18 -19
v 0 19 -18
v 0 19 -19
v 0 28 -18
v 0 28 -19
v 0 29 -18
v 0 29 -19
v 5 20 -19
v 5 20 -20
v 5 21 -19
v 5 21 -20
v 6 19 -18
v 6 19 -19
v 6 22 -18
v 6 22 -19
v 0 19 -18
v 0 19 -19
v 0 22 -18
v 0 22 -19
v 0 23 -18
v 0 23 -19
v 0 28 -18
v 0 28 -19
v 1 20 -19
v 1 20 -20
v 1 21 -19
v 1 21 -20
v 1 24 -19
v 1 24 -20
v 1 27 -19
v 1 27 -20
v 6 18 -18
v 6 18 -19
v 6 19 -18
v 6 19 -19
v 6 22 -18
v 6 22 -19
v 6 23 -18
v 6 23 -19
v 6 28 -18
v 6 28 -19
v 6 29 -18
v 6 29 -19
v 7 17 -19
v 7 17 -20
v 7 18 -19
v 7 18 -20
v 7 19 -18
v 7 19 -19
v 7 22 -18
v 7 22 -19
v 7 23 -19
v 7 23 -20
v 7 24 -19
v 7 24 -20
v 7 27 -19
v 7 27 -20
v 7 30 -19
v 7 30 -20
v 8 18 -19
v 8 18 -20
v 8 23 -19
v 8 23 -20
v -1 19 -18
v -1 28 -18
v 0 18 -18
v 0 19 -18
v 0 22 -18
v 0 23 -18
v 0 28 -18
v 0 29 -18
v 6 18 -18
v 6 19 -18
v 6 22 -18
v 6 23 -18
v 6 28 -18
v 6 29 -18
v 7 19 -18
v 7 22 -18
v -2 18 -19
v -2 28 -19
v -1 17 -19
v -1 18 -19
v -1 19 -19
v -1 28 -19
v -1 30 -19
v 0 18 -19
v 0 19 -19
v 0 22 -19
v 0 23 -19
v 0 28 -19
v 0 29 -19
v 1 20 -19
v 1 21 -19
v 1 24 -19
v 1 27 -19
v 5 20 -19
v 5 21 -19
v 6 18 -19
v 6 19 -19
v 6 22 -19
v 6 23 -19
v 6 28 -19
v 6 29 -19
v 7 17 -19
v 7 18 -19
v 7 19 -19
v 7 22 -19
v 7 23 -19
v 7 24 -19
v 7 27 -19
v 7 30 -19
v 8 18 -19
v 8 23 -19
v -2 18 -20
v -2 28 -20
v -1 17 -20
v -1 18 -20
v -1 28 -20
v -1 30 -20
v 1 20 -20
v 1 21 -20
v 1 24 -20
v 1 27 -20
v 5 20 -20
v 5 21 -20
v 7 17 -20
v 7 18 -20
v 7 23 -20
v 7 24 -20
v 7 27 -20
v 7 30 -20
v 8 18 -20
v 8 23 -20
v -1 17 -19
v 7 17 -19
v -1 17 -20
v 7 17 -20
v 0 18 -18
v 6 18 -18
v -2 18 -19
v -1 18 -19
v 0 18 -19
v 6 18 -19
v 7 18 -19
v 8 18 -19
v -2 18 -20
v -1 18 -20
v 7 18 -20
v 8 18 -20
v -1 19 -18
v 0 19 -18
v 6 19 -18
v 7 19 -18
v -1 19 -19
v 0 19 -19
v 6 19 -19
v 7 19 -19
v 1 21 -19
v 5 21 -19
v 1 21 -20
v 5 21 -20
v 0 22 -18
v 6 22 -18
v 0 22 -19
v 6 22 -19
v 1 27 -19
v 7 27 -19
v 1 27 -20
v 7 27 -20
v 0 28 -18
v 6 28 -18
v 0 28 -19
v 6 28 -19
v 0 19 -18
v 6 19 -18
v 0 19 -19
v 6 19 -19
v 1 20 -19
v 5 20 -19
v 1 20 -20
v 5 20 -20
v 6 22 -18
v 7 22 -18
v 6 22 -19
v 7 22 -19
v 0 23 -18
v 6 23 -18
v 0 23 -19
v 6 23 -19
v 7 23 -19
v 8 23 -19
v 7 23 -20
v 8 23 -20
v 1 24 -19
v 7 24 -19
v 1 24 -20
v 7 24 -20
v -1 28 -18
v 0 28 -18
v -2 28 -19
v -1 28 -19
v 0 28 -19
v -2 28 -20
v -1 28 -20
v 0 29 -18
v 6 29 -18
v 0 29 -19
v 6 29 -19
v -1 30 -19
v 7 30 -19
v -1 30 -20
v 7 30 -20

# faces
f 3/2/1 2/2/1 1/2/1
f 4/2/1 2/2/1 3/2/1
f 7/2/1 6/2/1 5/2/1
f 8/2/1 6/2/1 7/2/1
f 11/1/1 10/1/1 9/1/1
f 12/1/1 10/1/1 11/1/1
f 14/2/1 13/2/1 12/2/1
f 15/2/1 13/2/1 14/2/1
f 18/1/1 17/1/1 16/1/1
f 19/1/1 17/1/1 18/1/1
f 22/1/1 21/1/1 20/1/1
f 23/1/1 21/1/1 22/1/1
f 26/2/1 25/2/1 24/2/1
f 27/2/1 25/2/1 26/2/1
f 30/1/1 29/1/1 28/1/1
f 31/1/1 29/1/1 30/1/1
f 32/1/2 33/1/2 34/1/2
f 34/1/2 33/1/2 35/1/2
f 36/1/2 37/1/2 38/1/2
f 38/1/2 37/1/2 39/1/2
f 40/2/2 41/2/2 42/2/2
f 42/2/2 41/2/2 43/2/2
f 44/2/2 45/2/2 46/2/2
f 46/2/2 45/2/2 47/2/2
f 48/1/2 49/1/2 50/1/2
f 50/1/2 49/1/2 51/1/2
f 52/1/2 53/1/2 54/1/2
f 54/1/2 53/1/2 55/1/2
f 56/1/2 57/1/2 58/1/2
f 58/1/2 57/1/2 59/1/2
f 60/2/2 61/2/2 62/2/2
f 62/2/2 61/2/2 63/2/2
f 64/1/2 65/1/2 66/1/2
f 66/1/2 65/1/2 67/1/2
f 68/2/2 69/2/2 70/2/2
f 70/2/2 69/2/2 71/2/2
f 72/2/2 73/2/2 74/2/2
f 74/2/2 73/2/2 75/2/2
f 76/2/2 77/2/2 78/2/2
f 78/2/2 77/2/2 79/2/2
f 83/1/3 81/1/3 80/1/3
f 84/1/3 81/1/3 83/1/3
f 85/1/3 81/1/3 84/1/3
f 86/1/3 81/1/3 85/1/3
f 88/1/3 83/1/3 82/1/3
f 89/1/3 83/1/3 88/1/3
f 90/1/3 85/1/3 84/1/3
f 91/1/3 85/1/3 90/1/3
f 92/1/3 87/1/3 86/1/3
f 93/1/3 87/1/3 92/1/3
f 94/1/3 90/1/3 89/1/3
f 95/1/3 90/1/3 94/1/3
f 99/2/3 97/2/3 96/2/3
f 100/2/3 97/2/3 99/2/3
f 101/2/3 97/2/3 100/2/3
f 103/2/3 99/2/3 98/2/3
f 103/2/3 100/2/3 99/2/3
f 104/2/3 100/2/3 103/2/3
f 107/2/3 102/2/3 101/2/3
f 108/2/3 102/2/3 107/2/3
f 109/2/3 105/2/3 104/2/3
f 110/2/3 105/2/3 109/2/3
f 111/2/3 107/2/3 106/2/3
f 112/2/3 107/2/3 111/2/3
f 113/2/3 109/2/3 104/2/3
f 114/2/3 105/2/3 110/2/3
f 115/2/3 103/2/3 98/2/3
f 116/2/3 114/2/3 113/2/3
f 116/2/3 113/2/3 104/2/3
f 117/2/3 105/2/3 114/2/3
f 117/2/3 114/2/3 116/2/3
f 118/2/3 111/2/3 106/2/3
f 119/2/3 107/2/3 112/2/3
f 120/2/3 102/2/3 108/2/3
f 121/2/3 115/2/3 98/2/3
f 121/2/3 116/2/3 115/2/3
f 122/2/3 116/2/3 121/2/3
f 123/2/3 116/2/3 122/2/3
f 124/2/3 118/2/3 117/2/3
f 125/2/3 111/2/3 118/2/3
f 125/2/3 118/2/3 124/2/3
f 126/2/3 111/2/3 125/2/3
f 127/2/3 119/2/3 112/2/3
f 127/2/3 120/2/3 119/2/3
f 128/2/3 102/2/3 120/2/3
f 128/2/3 120/2/3 127/2/3
f 129/2/3 125/2/3 124/2/3
f 129/2/3 123/2/3 122/2/3
f 129/2/3 124/2/3 123/2/3
f 130/2/3 125/2/3 129/2/3
f 131/2/4 132/2/4 134/2/4
f 134/2/4 132/2/4 135/2/4
f 133/2/4 134/2/4 137/2/4
f 135/2/4 136/2/4 137/2/4
f 134/2/4 135/2/4 137/2/4
f 137/2/4 136/2/4 138/2/4
f 138/2/4 136/2/4 139/2/4
f 139/2/4 136/2/4 140/2/4
f 133/2/4 137/2/4 141/2/4
f 138/2/4 139/2/4 142/2/4
f 133/2/4 141/2/4 143/2/4
f 141/2/4 142/2/4 143/2/4
f 143/2/4 142/2/4 144/2/4
f 142/2/4 139/2/4 145/2/4
f 144/2/4 142/2/4 145/2/4
f 145/2/4 139/2/4 146/2/4
f 140/2/4 136/2/4 147/2/4
f 147/2/4 136/2/4 148/2/4
f 144/2/4 145/2/4 149/2/4
f 149/2/4 145/2/4 150/2/4
f 153/2/5 152/2/5 151/2/5
f 154/2/5 152/2/5 153/2/5
f 159/1/5 156/1/5 155/1/5
f 160/1/5 156/1/5 159/1/5
f 163/2/5 158/2/5 157/2/5
f 164/2/5 158/2/5 163/2/5
f 165/2/5 162/2/5 161/2/5
f 166/2/5 162/2/5 165/2/5
f 171/1/5 168/1/5 167/1/5
f 172/1/5 168/1/5 171/1/5
f 173/1/5 170/1/5 169/1/5
f 174/1/5 170/1/5 173/1/5
f 177/2/5 176/2/5 175/2/5
f 178/2/5 176/2/5 177/2/5
f 181/1/5 180/1/5 179/1/5
f 182/1/5 180/1/5 181/1/5
f 185/2/5 184/2/5 183/2/5
f 186/2/5 184/2/5 185/2/5
f 189/1/5 188/1/5 187/1/5
f 190/1/5 188/1/5 189/1/5
f 191/1/6 192/1/6 193/1/6
f 193/1/6 192/1/6 194/1/6
f 195/2/6 196/2/6 197/2/6
f 197/2/6 196/2/6 198/2/6
f 199/1/6 200/1/6 201/1/6
f 201/1/6 200/1/6 202/1/6
f 203/1/6 204/1/6 205/1/6
f 205/1/6 204/1/6 206/1/6
f 207/2/6 208/2/6 209/2/6
f 209/2/6 208/2/6 210/2/6
f 211/2/6 212/2/6 213/2/6
f 213/2/6 212/2/6 214/2/6
f 215/1/6 216/1/6 218/1/6
f 218/1/6 216/1/6 219/1/6
f 217/2/6 218/2/6 220/2/6
f 220/2/6 218/2/6 221/2/6
f 222/1/6 223/1/6 224/1/6
f 224/1/6 223/1/6 225/1/6
f 226/2/6 227/2/6 228/2/6
f 228/2/6 227/2/6 229/2/6
