# MagicaVoxel @ Ephtracy

# group
g Seven

# material
mtllib Seven.mtl
usemtl palette

# normals
vn -1 0 0
vn 1 0 0
vn 0 0 1
vn 0 0 -1
vn 0 -1 0
vn 0 1 0

# texcoords
vt 0.958984 0.5
vt 0.994141 0.5

# verts
v -4 19 -19
v -4 19 -20
v -4 22 -19
v -4 22 -20
v -3 20 -18
v -3 20 -19
v -3 21 -18
v -3 21 -19
v 1 11 -19
v 1 11 -20
v 1 17 -19
v 1 17 -20
v 2 12 -18
v 2 12 -19
v 2 16 -18
v 2 16 -19
v 2 17 -19
v 2 17 -20
v 2 19 -19
v 2 19 -20
v 3 16 -18
v 3 16 -19
v 3 18 -18
v 3 18 -19
v 4 18 -18
v 4 18 -19
v 4 20 -18
v 4 20 -19
v 3 12 -18
v 3 12 -19
v 3 16 -18
v 3 16 -19
v 4 11 -19
v 4 11 -20
v 4 15 -19
v 4 15 -20
v 4 16 -18
v 4 16 -19
v 4 18 -18
v 4 18 -19
v 5 15 -19
v 5 15 -20
v 5 17 -19
v 5 17 -20
v 5 18 -18
v 5 18 -19
v 5 21 -18
v 5 21 -19
v 6 17 -19
v 6 17 -20
v 6 22 -19
v 6 22 -20
v -3 20 -18
v -3 21 -18
v 2 12 -18
v 2 16 -18
v 3 12 -18
v 3 16 -18
v 3 18 -18
v 4 16 -18
v 4 18 -18
v 4 20 -18
v 5 18 -18
v 5 21 -18
v -4 19 -19
v -4 22 -19
v -3 20 -19
v -3 21 -19
v 1 11 -19
v 1 17 -19
v 2 12 -19
v 2 16 -19
v 2 17 -19
v 2 19 -19
v 3 12 -19
v 3 16 -19
v 3 18 -19
v 4 11 -19
v 4 15 -19
v 4 16 -19
v 4 18 -19
v 4 20 -19
v 5 15 -19
v 5 17 -19
v 5 18 -19
v 5 21 -19
v 6 17 -19
v 6 22 -19
v -4 19 -20
v -4 22 -20
v 1 11 -20
v 1 17 -20
v 2 17 -20
v 2 19 -20
v 4 11 -20
v 4 15 -20
v 5 15 -20
v 5 17 -20
v 6 17 -20
v 6 22 -20
v 1 11 -19
v 4 11 -19
v 1 11 -20
v 4 11 -20
v 2 12 -18
v 3 12 -18
v 2 12 -19
v 3 12 -19
v 4 15 -19
v 5 15 -19
v 4 15 -20
v 5 15 -20
v 3 16 -18
v 4 16 -18
v 3 16 -19
v 4 16 -19
v 5 17 -19
v 6 17 -19
v 5 17 -20
v 6 17 -20
v 4 18 -18
v 5 18 -18
v 4 18 -19
v 5 18 -19
v -4 19 -19
v 2 19 -19
v -4 19 -20
v 2 19 -20
v -3 20 -18
v 4 20 -18
v -3 20 -19
v 4 20 -19
v 2 16 -18
v 3 16 -18
v 2 16 -19
v 3 16 -19
v 1 17 -19
v 2 17 -19
v 1 17 -20
v 2 17 -20
v 3 18 -18
v 4 18 -18
v 3 18 -19
v 4 18 -19
v -3 21 -18
v 5 21 -18
v -3 21 -19
v 5 21 -19
v -4 22 -19
v 6 22 -19
v -4 22 -20
v 6 22 -20

# faces
f 3/2/1 2/2/1 1/2/1
f 4/2/1 2/2/1 3/2/1
f 7/1/1 6/1/1 5/1/1
f 8/1/1 6/1/1 7/1/1
f 11/2/1 10/2/1 9/2/1
f 12/2/1 10/2/1 11/2/1
f 15/1/1 14/1/1 13/1/1
f 16/1/1 14/1/1 15/1/1
f 19/2/1 18/2/1 17/2/1
f 20/2/1 18/2/1 19/2/1
f 23/1/1 22/1/1 21/1/1
f 24/1/1 22/1/1 23/1/1
f 27/1/1 26/1/1 25/1/1
f 28/1/1 26/1/1 27/1/1
f 29/1/2 30/1/2 31/1/2
f 31/1/2 30/1/2 32/1/2
f 33/2/2 34/2/2 35/2/2
f 35/2/2 34/2/2 36/2/2
f 37/1/2 38/1/2 39/1/2
f 39/1/2 38/1/2 40/1/2
f 41/2/2 42/2/2 43/2/2
f 43/2/2 42/2/2 44/2/2
f 45/1/2 46/1/2 47/1/2
f 47/1/2 46/1/2 48/1/2
f 49/2/2 50/2/2 51/2/2
f 51/2/2 50/2/2 52/2/2
f 57/1/3 56/1/3 55/1/3
f 58/1/3 56/1/3 57/1/3
f 60/1/3 59/1/3 58/1/3
f 61/1/3 59/1/3 60/1/3
f 62/1/3 54/1/3 53/1/3
f 63/1/3 62/1/3 61/1/3
f 64/1/3 54/1/3 62/1/3
f 64/1/3 62/1/3 63/1/3
f 67/2/3 66/2/3 65/2/3
f 68/2/3 66/2/3 67/2/3
f 71/2/3 70/2/3 69/2/3
f 72/2/3 70/2/3 71/2/3
f 73/2/3 70/2/3 72/2/3
f 74/2/3 67/2/3 65/2/3
f 75/2/3 71/2/3 69/2/3
f 76/2/3 73/2/3 72/2/3
f 76/2/3 74/2/3 73/2/3
f 77/2/3 74/2/3 76/2/3
f 78/2/3 75/2/3 69/2/3
f 78/2/3 76/2/3 75/2/3
f 79/2/3 76/2/3 78/2/3
f 80/2/3 76/2/3 79/2/3
f 81/2/3 74/2/3 77/2/3
f 82/2/3 67/2/3 74/2/3
f 82/2/3 74/2/3 81/2/3
f 83/2/3 80/2/3 79/2/3
f 83/2/3 81/2/3 80/2/3
f 84/2/3 81/2/3 83/2/3
f 85/2/3 81/2/3 84/2/3
f 86/2/3 66/2/3 68/2/3
f 87/2/3 85/2/3 84/2/3
f 87/2/3 86/2/3 85/2/3
f 88/2/3 66/2/3 86/2/3
f 88/2/3 86/2/3 87/2/3
f 91/2/4 92/2/4 93/2/4
f 89/2/4 90/2/4 94/2/4
f 91/2/4 93/2/4 95/2/4
f 93/2/4 94/2/4 95/2/4
f 95/2/4 94/2/4 96/2/4
f 96/2/4 94/2/4 97/2/4
f 97/2/4 94/2/4 98/2/4
f 98/2/4 94/2/4 99/2/4
f 94/2/4 90/2/4 100/2/4
f 99/2/4 94/2/4 100/2/4
f 103/2/5 102/2/5 101/2/5
f 104/2/5 102/2/5 103/2/5
f 107/1/5 106/1/5 105/1/5
f 108/1/5 106/1/5 107/1/5
f 111/2/5 110/2/5 109/2/5
f 112/2/5 110/2/5 111/2/5
f 115/1/5 114/1/5 113/1/5
f 116/1/5 114/1/5 115/1/5
f 119/2/5 118/2/5 117/2/5
f 120/2/5 118/2/5 119/2/5
f 123/1/5 122/1/5 121/1/5
f 124/1/5 122/1/5 123/1/5
f 127/2/5 126/2/5 125/2/5
f 128/2/5 126/2/5 127/2/5
f 131/1/5 130/1/5 129/1/5
f 132/1/5 130/1/5 131/1/5
f 133/1/6 134/1/6 135/1/6
f 135/1/6 134/1/6 136/1/6
f 137/2/6 138/2/6 139/2/6
f 139/2/6 138/2/6 140/2/6
f 141/1/6 142/1/6 143/1/6
f 143/1/6 142/1/6 144/1/6
f 145/1/6 146/1/6 147/1/6
f 147/1/6 146/1/6 148/1/6
f 149/2/6 150/2/6 151/2/6
f 151/2/6 150/2/6 152/2/6
