# MagicaVoxel @ Ephtracy

# group
g Nine

# material
mtllib Nine.mtl
usemtl palette

# normals
vn -1 0 0
vn 1 0 0
vn 0 0 1
vn 0 0 -1
vn 0 -1 0
vn 0 1 0

# texcoords
vt 0.958984 0.5
vt 0.994141 0.5

# verts
v -4 17 -19
v -4 17 -20
v -4 21 -19
v -4 21 -20
v -3 12 -19
v -3 12 -20
v -3 15 -19
v -3 15 -20
v -3 16 -19
v -3 16 -20
v -3 17 -19
v -3 17 -20
v -3 18 -18
v -3 18 -19
v -3 20 -18
v -3 20 -19
v -3 21 -19
v -3 21 -20
v -3 22 -19
v -3 22 -20
v -2 13 -18
v -2 13 -19
v -2 14 -18
v -2 14 -19
v -2 17 -18
v -2 17 -19
v -2 18 -18
v -2 18 -19
v -2 20 -18
v -2 20 -19
v -2 21 -18
v -2 21 -19
v 1 15 -19
v 1 15 -20
v 1 16 -19
v 1 16 -20
v 2 14 -18
v 2 14 -19
v 2 17 -18
v 2 17 -19
v 2 18 -18
v 2 18 -19
v 2 20 -18
v 2 20 -19
v -2 18 -18
v -2 18 -19
v -2 20 -18
v -2 20 -19
v 2 13 -18
v 2 13 -19
v 2 14 -18
v 2 14 -19
v 2 20 -18
v 2 20 -19
v 2 21 -18
v 2 21 -19
v 3 12 -19
v 3 12 -20
v 3 13 -19
v 3 13 -20
v 3 14 -18
v 3 14 -19
v 3 20 -18
v 3 20 -19
v 3 21 -19
v 3 21 -20
v 3 22 -19
v 3 22 -20
v 4 13 -19
v 4 13 -20
v 4 21 -19
v 4 21 -20
v -3 18 -18
v -3 20 -18
v -2 13 -18
v -2 14 -18
v -2 17 -18
v -2 18 -18
v -2 20 -18
v -2 21 -18
v 2 13 -18
v 2 14 -18
v 2 17 -18
v 2 18 -18
v 2 20 -18
v 2 21 -18
v 3 14 -18
v 3 20 -18
v -4 17 -19
v -4 21 -19
v -3 12 -19
v -3 15 -19
v -3 16 -19
v -3 17 -19
v -3 18 -19
v -3 20 -19
v -3 21 -19
v -3 22 -19
v -2 13 -19
v -2 14 -19
v -2 17 -19
v -2 18 -19
v -2 20 -19
v -2 21 -19
v 1 15 -19
v 1 16 -19
v 2 13 -19
v 2 14 -19
v 2 17 -19
v 2 18 -19
v 2 20 -19
v 2 21 -19
v 3 12 -19
v 3 13 -19
v 3 14 -19
v 3 20 -19
v 3 21 -19
v 3 22 -19
v 4 13 -19
v 4 21 -19
v -4 17 -20
v -4 21 -20
v -3 12 -20
v -3 15 -20
v -3 16 -20
v -3 17 -20
v -3 21 -20
v -3 22 -20
v 1 15 -20
v 1 16 -20
v 3 12 -20
v 3 13 -20
v 3 21 -20
v 3 22 -20
v 4 13 -20
v 4 21 -20
v -3 12 -19
v 3 12 -19
v -3 12 -20
v 3 12 -20
v -2 13 -18
v 2 13 -18
v -2 13 -19
v 2 13 -19
v 3 13 -19
v 4 13 -19
v 3 13 -20
v 4 13 -20
v 2 14 -18
v 3 14 -18
v 2 14 -19
v 3 14 -19
v -3 16 -19
v 1 16 -19
v -3 16 -20
v 1 16 -20
v -2 17 -18
v 2 17 -18
v -4 17 -19
v -3 17 -19
v -2 17 -19
v 2 17 -19
v -4 17 -20
v -3 17 -20
v -3 18 -18
v -2 18 -18
v -3 18 -19
v -2 18 -19
v -2 20 -18
v 2 20 -18
v -2 20 -19
v 2 20 -19
v -2 14 -18
v 2 14 -18
v -2 14 -19
v 2 14 -19
v -3 15 -19
v 1 15 -19
v -3 15 -20
v 1 15 -20
v -2 18 -18
v 2 18 -18
v -2 18 -19
v 2 18 -19
v -3 20 -18
v -2 20 -18
v 2 20 -18
v 3 20 -18
v -3 20 -19
v -2 20 -19
v 2 20 -19
v 3 20 -19
v -2 21 -18
v 2 21 -18
v -4 21 -19
v -3 21 -19
v -2 21 -19
v 2 21 -19
v 3 21 -19
v 4 21 -19
v -4 21 -20
v -3 21 -20
v 3 21 -20
v 4 21 -20
v -3 22 -19
v 3 22 -19
v -3 22 -20
v 3 22 -20

# faces
f 3/2/1 2/2/1 1/2/1
f 4/2/1 2/2/1 3/2/1
f 7/2/1 6/2/1 5/2/1
f 8/2/1 6/2/1 7/2/1
f 11/2/1 10/2/1 9/2/1
f 12/2/1 10/2/1 11/2/1
f 15/1/1 14/1/1 13/1/1
f 16/1/1 14/1/1 15/1/1
f 19/2/1 18/2/1 17/2/1
f 20/2/1 18/2/1 19/2/1
f 23/1/1 22/1/1 21/1/1
f 24/1/1 22/1/1 23/1/1
f 27/1/1 26/1/1 25/1/1
f 28/1/1 26/1/1 27/1/1
f 31/1/1 30/1/1 29/1/1
f 32/1/1 30/1/1 31/1/1
f 35/2/1 34/2/1 33/2/1
f 36/2/1 34/2/1 35/2/1
f 39/1/1 38/1/1 37/1/1
f 40/1/1 38/1/1 39/1/1
f 43/1/1 42/1/1 41/1/1
f 44/1/1 42/1/1 43/1/1
f 45/1/2 46/1/2 47/1/2
f 47/1/2 46/1/2 48/1/2
f 49/1/2 50/1/2 51/1/2
f 51/1/2 50/1/2 52/1/2
f 53/1/2 54/1/2 55/1/2
f 55/1/2 54/1/2 56/1/2
f 57/2/2 58/2/2 59/2/2
f 59/2/2 58/2/2 60/2/2
f 61/1/2 62/1/2 63/1/2
f 63/1/2 62/1/2 64/1/2
f 65/2/2 66/2/2 67/2/2
f 67/2/2 66/2/2 68/2/2
f 69/2/2 70/2/2 71/2/2
f 71/2/2 70/2/2 72/2/2
f 78/1/3 74/1/3 73/1/3
f 79/1/3 74/1/3 78/1/3
f 81/1/3 76/1/3 75/1/3
f 82/1/3 76/1/3 81/1/3
f 83/1/3 78/1/3 77/1/3
f 84/1/3 78/1/3 83/1/3
f 85/1/3 80/1/3 79/1/3
f 86/1/3 80/1/3 85/1/3
f 87/1/3 84/1/3 83/1/3
f 87/1/3 85/1/3 84/1/3
f 87/1/3 83/1/3 82/1/3
f 88/1/3 85/1/3 87/1/3
f 94/2/3 90/2/3 89/2/3
f 95/2/3 90/2/3 94/2/3
f 96/2/3 90/2/3 95/2/3
f 97/2/3 90/2/3 96/2/3
f 99/2/3 92/2/3 91/2/3
f 100/2/3 92/2/3 99/2/3
f 101/2/3 94/2/3 93/2/3
f 101/2/3 95/2/3 94/2/3
f 102/2/3 95/2/3 101/2/3
f 103/2/3 98/2/3 97/2/3
f 103/2/3 97/2/3 96/2/3
f 104/2/3 98/2/3 103/2/3
f 105/2/3 92/2/3 100/2/3
f 106/2/3 101/2/3 93/2/3
f 107/2/3 99/2/3 91/2/3
f 108/2/3 105/2/3 100/2/3
f 108/2/3 106/2/3 105/2/3
f 109/2/3 101/2/3 106/2/3
f 109/2/3 106/2/3 108/2/3
f 110/2/3 103/2/3 102/2/3
f 111/2/3 103/2/3 110/2/3
f 112/2/3 98/2/3 104/2/3
f 113/2/3 107/2/3 91/2/3
f 113/2/3 108/2/3 107/2/3
f 114/2/3 108/2/3 113/2/3
f 115/2/3 108/2/3 114/2/3
f 116/2/3 112/2/3 111/2/3
f 117/2/3 98/2/3 112/2/3
f 117/2/3 112/2/3 116/2/3
f 118/2/3 98/2/3 117/2/3
f 119/2/3 115/2/3 114/2/3
f 119/2/3 116/2/3 115/2/3
f 119/2/3 117/2/3 116/2/3
f 120/2/3 117/2/3 119/2/3
f 121/2/4 122/2/4 126/2/4
f 126/2/4 122/2/4 127/2/4
f 123/2/4 124/2/4 129/2/4
f 127/2/4 128/2/4 130/2/4
f 125/2/4 126/2/4 130/2/4
f 126/2/4 127/2/4 130/2/4
f 123/2/4 129/2/4 131/2/4
f 129/2/4 130/2/4 131/2/4
f 131/2/4 130/2/4 132/2/4
f 130/2/4 128/2/4 133/2/4
f 132/2/4 130/2/4 133/2/4
f 133/2/4 128/2/4 134/2/4
f 132/2/4 133/2/4 135/2/4
f 135/2/4 133/2/4 136/2/4
f 139/2/5 138/2/5 137/2/5
f 140/2/5 138/2/5 139/2/5
f 143/1/5 142/1/5 141/1/5
f 144/1/5 142/1/5 143/1/5
f 147/2/5 146/2/5 145/2/5
f 148/2/5 146/2/5 147/2/5
f 151/1/5 150/1/5 149/1/5
f 152/1/5 150/1/5 151/1/5
f 155/2/5 154/2/5 153/2/5
f 156/2/5 154/2/5 155/2/5
f 161/1/5 158/1/5 157/1/5
f 162/1/5 158/1/5 161/1/5
f 163/2/5 160/2/5 159/2/5
f 164/2/5 160/2/5 163/2/5
f 167/1/5 166/1/5 165/1/5
f 168/1/5 166/1/5 167/1/5
f 171/1/5 170/1/5 169/1/5
f 172/1/5 170/1/5 171/1/5
f 173/1/6 174/1/6 175/1/6
f 175/1/6 174/1/6 176/1/6
f 177/2/6 178/2/6 179/2/6
f 179/2/6 178/2/6 180/2/6
f 181/1/6 182/1/6 183/1/6
f 183/1/6 182/1/6 184/1/6
f 185/1/6 186/1/6 189/1/6
f 189/1/6 186/1/6 190/1/6
f 187/1/6 188/1/6 191/1/6
f 191/1/6 188/1/6 192/1/6
f 193/1/6 194/1/6 197/1/6
f 197/1/6 194/1/6 198/1/6
f 195/2/6 196/2/6 201/2/6
f 201/2/6 196/2/6 202/2/6
f 199/2/6 200/2/6 203/2/6
f 203/2/6 200/2/6 204/2/6
f 205/2/6 206/2/6 207/2/6
f 207/2/6 206/2/6 208/2/6
