# MagicaVoxel @ Ephtracy

# group
g Player2

# material
mtllib Player2.mtl
usemtl palette

# normals
vn -1 0 0
vn 1 0 0
vn 0 0 1
vn 0 0 -1
vn 0 -1 0
vn 0 1 0

# texcoords
vt 0.0175781 0.5
vt 0.294922 0.5
vt 0.298828 0.5
vt 0.419922 0.5
vt 0.955078 0.5
vt 0.970703 0.5
vt 0.978516 0.5
vt 0.994141 0.5

# verts
v -5 18 10
v -5 18 8
v -5 23 10
v -5 23 8
v -5 25 10
v -5 25 8
v -3 13 13
v -3 13 4
v -3 18 10
v -3 18 8
v -3 23 10
v -3 23 8
v -3 25 10
v -3 25 8
v -3 27 13
v -3 27 4
v -2 27 13
v -2 27 4
v -2 32 13
v -2 32 4
v -2 37 13
v -2 37 4
v -1 0 14
v -1 0 7
v -1 1 14
v -1 1 11
v -1 3 11
v -1 3 7
v -1 6 11
v -1 6 7
v -1 8 11
v -1 8 7
v -1 13 11
v -1 13 7
v 6 0 14
v 6 0 7
v 6 1 14
v 6 1 11
v 6 3 11
v 6 3 7
v 6 6 11
v 6 6 7
v 6 8 11
v 6 8 7
v 6 13 11
v 6 13 7
v 2 0 14
v 2 0 7
v 2 1 14
v 2 1 11
v 2 3 11
v 2 3 7
v 2 6 11
v 2 6 7
v 2 8 11
v 2 8 7
v 2 13 11
v 2 13 7
v 9 0 14
v 9 0 7
v 9 1 14
v 9 1 11
v 9 3 11
v 9 3 7
v 9 6 11
v 9 6 7
v 9 8 11
v 9 8 7
v 9 13 11
v 9 13 7
v 10 27 13
v 10 27 4
v 10 32 13
v 10 32 4
v 10 37 13
v 10 37 4
v 11 13 13
v 11 13 4
v 11 18 10
v 11 18 8
v 11 23 10
v 11 23 8
v 11 25 10
v 11 25 8
v 11 27 13
v 11 27 4
v 13 18 10
v 13 18 8
v 13 23 10
v 13 23 8
v 13 25 10
v 13 25 8
v -1 0 14
v -1 1 14
v 2 0 14
v 2 1 14
v 6 0 14
v 6 1 14
v 9 0 14
v 9 1 14
v -3 13 13
v -3 27 13
v -2 27 13
v -2 32 13
v -2 37 13
v -1 15 13
v -1 24 13
v -1 32 13
v -1 34 13
v 0 15 13
v 0 24 13
v 0 31 13
v 0 33 13
v 1 31 13
v 1 33 13
v 2 29 13
v 2 30 13
v 2 33 13
v 2 34 13
v 3 15 13
v 3 24 13
v 4 16 13
v 4 23 13
v 6 29 13
v 6 30 13
v 6 33 13
v 6 34 13
v 7 31 13
v 7 33 13
v 8 16 13
v 8 23 13
v 8 31 13
v 8 33 13
v 9 15 13
v 9 24 13
v 9 32 13
v 9 34 13
v 10 27 13
v 10 32 13
v 10 37 13
v 11 13 13
v 11 27 13
v -1 1 11
v -1 3 11
v -1 6 11
v -1 8 11
v -1 13 11
v 2 1 11
v 2 3 11
v 2 6 11
v 2 8 11
v 2 13 11
v 6 1 11
v 6 3 11
v 6 6 11
v 6 8 11
v 6 13 11
v 9 1 11
v 9 3 11
v 9 6 11
v 9 8 11
v 9 13 11
v -5 18 10
v -5 23 10
v -5 25 10
v -3 18 10
v -3 23 10
v -3 25 10
v 11 18 10
v 11 23 10
v 11 25 10
v 13 18 10
v 13 23 10
v 13 25 10
v -5 18 8
v -5 23 8
v -5 25 8
v -3 18 8
v -3 23 8
v -3 25 8
v 11 18 8
v 11 23 8
v 11 25 8
v 13 18 8
v 13 23 8
v 13 25 8
v -1 0 7
v -1 3 7
v -1 6 7
v -1 8 7
v -1 13 7
v 2 0 7
v 2 3 7
v 2 6 7
v 2 8 7
v 2 13 7
v 6 0 7
v 6 3 7
v 6 6 7
v 6 8 7
v 6 13 7
v 9 0 7
v 9 3 7
v 9 6 7
v 9 8 7
v 9 13 7
v -3 13 4
v -3 27 4
v -2 27 4
v -2 32 4
v -2 37 4
v 10 27 4
v 10 32 4
v 10 37 4
v 11 13 4
v 11 27 4
v -1 0 14
v 2 0 14
v 6 0 14
v 9 0 14
v -1 0 7
v 2 0 7
v 6 0 7
v 9 0 7
v -3 13 13
v 11 13 13
v -1 13 11
v 2 13 11
v 6 13 11
v 9 13 11
v -1 13 7
v 2 13 7
v 6 13 7
v 9 13 7
v -3 13 4
v 11 13 4
v -5 18 10
v -3 18 10
v 11 18 10
v 13 18 10
v -5 18 8
v -3 18 8
v 11 18 8
v 13 18 8
v -1 1 14
v 2 1 14
v 6 1 14
v 9 1 14
v -1 1 11
v 2 1 11
v 6 1 11
v 9 1 11
v -5 25 10
v -3 25 10
v 11 25 10
v 13 25 10
v -5 25 8
v -3 25 8
v 11 25 8
v 13 25 8
v -3 27 13
v -2 27 13
v 10 27 13
v 11 27 13
v -3 27 4
v -2 27 4
v 10 27 4
v 11 27 4
v -2 37 13
v 10 37 13
v -2 37 4
v 10 37 4

# faces
f 3/2/1 2/2/1 1/2/1
f 4/2/1 2/2/1 3/2/1
f 5/8/1 4/8/1 3/8/1
f 6/8/1 4/8/1 5/8/1
f 9/1/1 8/1/1 7/1/1
f 10/1/1 8/1/1 9/1/1
f 11/1/1 9/1/1 7/1/1
f 12/1/1 8/1/1 10/1/1
f 13/1/1 11/1/1 7/1/1
f 14/1/1 8/1/1 12/1/1
f 15/1/1 13/1/1 7/1/1
f 15/1/1 14/1/1 13/1/1
f 16/1/1 8/1/1 14/1/1
f 16/1/1 14/1/1 15/1/1
f 19/2/1 18/2/1 17/2/1
f 20/2/1 18/2/1 19/2/1
f 21/3/1 20/3/1 19/3/1
f 22/3/1 20/3/1 21/3/1
f 25/8/1 24/8/1 23/8/1
f 26/8/1 24/8/1 25/8/1
f 27/8/1 24/8/1 26/8/1
f 28/8/1 24/8/1 27/8/1
f 29/1/1 28/1/1 27/1/1
f 30/1/1 28/1/1 29/1/1
f 31/2/1 30/2/1 29/2/1
f 32/2/1 30/2/1 31/2/1
f 33/8/1 32/8/1 31/8/1
f 34/8/1 32/8/1 33/8/1
f 37/8/1 36/8/1 35/8/1
f 38/8/1 36/8/1 37/8/1
f 39/8/1 36/8/1 38/8/1
f 40/8/1 36/8/1 39/8/1
f 41/1/1 40/1/1 39/1/1
f 42/1/1 40/1/1 41/1/1
f 43/2/1 42/2/1 41/2/1
f 44/2/1 42/2/1 43/2/1
f 45/8/1 44/8/1 43/8/1
f 46/8/1 44/8/1 45/8/1
f 47/8/2 48/8/2 49/8/2
f 49/8/2 48/8/2 50/8/2
f 50/8/2 48/8/2 51/8/2
f 51/8/2 48/8/2 52/8/2
f 51/1/2 52/1/2 53/1/2
f 53/1/2 52/1/2 54/1/2
f 53/2/2 54/2/2 55/2/2
f 55/2/2 54/2/2 56/2/2
f 55/8/2 56/8/2 57/8/2
f 57/8/2 56/8/2 58/8/2
f 59/8/2 60/8/2 61/8/2
f 61/8/2 60/8/2 62/8/2
f 62/8/2 60/8/2 63/8/2
f 63/8/2 60/8/2 64/8/2
f 63/1/2 64/1/2 65/1/2
f 65/1/2 64/1/2 66/1/2
f 65/2/2 66/2/2 67/2/2
f 67/2/2 66/2/2 68/2/2
f 67/8/2 68/8/2 69/8/2
f 69/8/2 68/8/2 70/8/2
f 71/2/2 72/2/2 73/2/2
f 73/2/2 72/2/2 74/2/2
f 73/3/2 74/3/2 75/3/2
f 75/3/2 74/3/2 76/3/2
f 77/1/2 78/1/2 79/1/2
f 79/1/2 78/1/2 80/1/2
f 77/1/2 79/1/2 81/1/2
f 80/1/2 78/1/2 82/1/2
f 77/1/2 81/1/2 83/1/2
f 82/1/2 78/1/2 84/1/2
f 77/1/2 83/1/2 85/1/2
f 83/1/2 84/1/2 85/1/2
f 84/1/2 78/1/2 86/1/2
f 85/1/2 84/1/2 86/1/2
f 87/2/2 88/2/2 89/2/2
f 89/2/2 88/2/2 90/2/2
f 89/8/2 90/8/2 91/8/2
f 91/8/2 90/8/2 92/8/2
f 95/8/3 94/8/3 93/8/3
f 96/8/3 94/8/3 95/8/3
f 99/8/3 98/8/3 97/8/3
f 100/8/3 98/8/3 99/8/3
f 103/1/3 102/1/3 101/1/3
f 106/1/3 103/1/3 101/1/3
f 107/1/3 103/1/3 106/1/3
f 108/3/3 105/3/3 104/3/3
f 108/2/3 104/2/3 103/2/3
f 109/3/3 105/3/3 108/3/3
f 110/8/3 107/8/3 106/8/3
f 110/1/3 106/1/3 101/1/3
f 111/1/3 103/1/3 107/1/3
f 111/8/3 107/8/3 110/8/3
f 112/2/3 109/2/3 108/2/3
f 112/2/3 108/2/3 103/2/3
f 113/2/3 109/2/3 112/2/3
f 114/2/3 112/2/3 103/2/3
f 114/5/3 113/5/3 112/5/3
f 115/2/3 109/2/3 113/2/3
f 115/5/3 113/5/3 114/5/3
f 116/2/3 114/2/3 103/2/3
f 116/2/3 115/2/3 114/2/3
f 117/2/3 115/2/3 116/2/3
f 118/2/3 109/2/3 115/2/3
f 118/2/3 115/2/3 117/2/3
f 119/3/3 105/3/3 109/3/3
f 119/2/3 109/2/3 118/2/3
f 120/1/3 110/1/3 101/1/3
f 120/1/3 111/1/3 110/1/3
f 121/1/3 103/1/3 111/1/3
f 121/1/3 111/1/3 120/1/3
f 122/8/3 121/8/3 120/8/3
f 123/8/3 121/8/3 122/8/3
f 124/5/3 117/5/3 116/5/3
f 124/2/3 116/2/3 103/2/3
f 125/2/3 118/2/3 117/2/3
f 125/5/3 117/5/3 124/5/3
f 126/3/3 119/3/3 118/3/3
f 126/2/3 118/2/3 125/2/3
f 127/3/3 105/3/3 119/3/3
f 127/3/3 119/3/3 126/3/3
f 128/2/3 126/2/3 125/2/3
f 128/2/3 125/2/3 124/2/3
f 128/2/3 127/2/3 126/2/3
f 129/2/3 127/2/3 128/2/3
f 130/8/3 122/8/3 120/8/3
f 130/1/3 123/1/3 122/1/3
f 131/8/3 121/8/3 123/8/3
f 131/1/3 123/1/3 130/1/3
f 132/5/3 129/5/3 128/5/3
f 132/2/3 128/2/3 124/2/3
f 133/2/3 127/2/3 129/2/3
f 133/5/3 129/5/3 132/5/3
f 134/1/3 120/1/3 101/1/3
f 134/8/3 130/8/3 120/8/3
f 134/8/3 131/8/3 130/8/3
f 135/8/3 121/8/3 131/8/3
f 135/8/3 131/8/3 134/8/3
f 135/1/3 103/1/3 121/1/3
f 136/2/3 133/2/3 132/2/3
f 137/3/3 105/3/3 127/3/3
f 137/2/3 133/2/3 136/2/3
f 137/2/3 127/2/3 133/2/3
f 138/2/3 136/2/3 132/2/3
f 138/2/3 124/2/3 103/2/3
f 138/1/3 135/1/3 134/1/3
f 138/2/3 132/2/3 124/2/3
f 138/1/3 103/1/3 135/1/3
f 139/3/3 137/3/3 136/3/3
f 139/2/3 136/2/3 138/2/3
f 140/3/3 105/3/3 137/3/3
f 140/3/3 137/3/3 139/3/3
f 141/1/3 138/1/3 134/1/3
f 141/1/3 134/1/3 101/1/3
f 142/1/3 138/1/3 141/1/3
f 148/8/3 144/8/3 143/8/3
f 149/1/3 145/1/3 144/1/3
f 149/8/3 144/8/3 148/8/3
f 150/2/3 146/2/3 145/2/3
f 150/1/3 145/1/3 149/1/3
f 151/8/3 147/8/3 146/8/3
f 151/2/3 146/2/3 150/2/3
f 152/8/3 147/8/3 151/8/3
f 158/8/3 154/8/3 153/8/3
f 159/1/3 155/1/3 154/1/3
f 159/8/3 154/8/3 158/8/3
f 160/2/3 156/2/3 155/2/3
f 160/1/3 155/1/3 159/1/3
f 161/8/3 157/8/3 156/8/3
f 161/2/3 156/2/3 160/2/3
f 162/8/3 157/8/3 161/8/3
f 166/2/3 164/2/3 163/2/3
f 167/8/3 165/8/3 164/8/3
f 167/2/3 164/2/3 166/2/3
f 168/8/3 165/8/3 167/8/3
f 172/2/3 170/2/3 169/2/3
f 173/8/3 171/8/3 170/8/3
f 173/2/3 170/2/3 172/2/3
f 174/8/3 171/8/3 173/8/3
f 175/2/4 176/2/4 178/2/4
f 176/8/4 177/8/4 179/8/4
f 178/2/4 176/2/4 179/2/4
f 179/8/4 177/8/4 180/8/4
f 181/2/4 182/2/4 184/2/4
f 182/8/4 183/8/4 185/8/4
f 184/2/4 182/2/4 185/2/4
f 185/8/4 183/8/4 186/8/4
f 187/8/4 188/8/4 192/8/4
f 188/1/4 189/1/4 193/1/4
f 192/8/4 188/8/4 193/8/4
f 189/2/4 190/2/4 194/2/4
f 193/1/4 189/1/4 194/1/4
f 190/8/4 191/8/4 195/8/4
f 194/2/4 190/2/4 195/2/4
f 195/8/4 191/8/4 196/8/4
f 197/8/4 198/8/4 202/8/4
f 198/1/4 199/1/4 203/1/4
f 202/8/4 198/8/4 203/8/4
f 199/2/4 200/2/4 204/2/4
f 203/1/4 199/1/4 204/1/4
f 200/8/4 201/8/4 205/8/4
f 204/2/4 200/2/4 205/2/4
f 205/8/4 201/8/4 206/8/4
f 207/1/4 208/1/4 209/1/4
f 207/1/4 209/1/4 212/1/4
f 209/2/4 210/2/4 212/2/4
f 210/3/4 211/3/4 213/3/4
f 212/2/4 210/2/4 213/2/4
f 213/3/4 211/3/4 214/3/4
f 207/1/4 212/1/4 215/1/4
f 215/1/4 212/1/4 216/1/4
f 221/8/5 218/8/5 217/8/5
f 222/8/5 218/8/5 221/8/5
f 223/8/5 220/8/5 219/8/5
f 224/8/5 220/8/5 223/8/5
f 227/1/5 226/1/5 225/1/5
f 228/1/5 226/1/5 227/1/5
f 229/1/5 226/1/5 228/1/5
f 230/1/5 226/1/5 229/1/5
f 231/1/5 227/1/5 225/1/5
f 232/1/5 229/1/5 228/1/5
f 233/1/5 229/1/5 232/1/5
f 234/1/5 226/1/5 230/1/5
f 235/1/5 233/1/5 232/1/5
f 235/1/5 234/1/5 233/1/5
f 235/1/5 231/1/5 225/1/5
f 235/1/5 232/1/5 231/1/5
f 236/1/5 226/1/5 234/1/5
f 236/1/5 234/1/5 235/1/5
f 241/2/5 238/2/5 237/2/5
f 242/2/5 238/2/5 241/2/5
f 243/2/5 240/2/5 239/2/5
f 244/2/5 240/2/5 243/2/5
f 245/8/6 246/8/6 249/8/6
f 249/8/6 246/8/6 250/8/6
f 247/8/6 248/8/6 251/8/6
f 251/8/6 248/8/6 252/8/6
f 253/8/6 254/8/6 257/8/6
f 257/8/6 254/8/6 258/8/6
f 255/8/6 256/8/6 259/8/6
f 259/8/6 256/8/6 260/8/6
f 261/1/6 262/1/6 265/1/6
f 265/1/6 262/1/6 266/1/6
f 263/1/6 264/1/6 267/1/6
f 267/1/6 264/1/6 268/1/6
f 269/3/6 270/3/6 271/3/6
f 271/3/6 270/3/6 272/3/6
