# MagicaVoxel @ Ephtracy

# group
g One

# material
mtllib One.mtl
usemtl palette

# normals
vn -1 0 0
vn 1 0 0
vn 0 0 1
vn 0 0 -1
vn 0 -1 0
vn 0 1 0

# texcoords
vt 0.958984 0.5
vt 0.994141 0.5

# verts
v -1 17 -19
v -1 17 -20
v -1 20 -19
v -1 20 -20
v -1 22 -19
v -1 22 -20
v -1 25 -19
v -1 25 -20
v 0 18 -18
v 0 18 -19
v 0 19 -18
v 0 19 -19
v 0 23 -18
v 0 23 -19
v 0 24 -18
v 0 24 -19
v 0 25 -19
v 0 25 -20
v 0 26 -19
v 0 26 -20
v 1 20 -19
v 1 20 -20
v 1 22 -19
v 1 22 -20
v 1 24 -18
v 1 24 -19
v 1 25 -18
v 1 25 -19
v 2 19 -18
v 2 19 -19
v 2 24 -18
v 2 24 -19
v 1 23 -18
v 1 23 -19
v 1 24 -18
v 1 24 -19
v 3 19 -18
v 3 19 -19
v 3 25 -18
v 3 25 -19
v 4 20 -19
v 4 20 -20
v 4 26 -19
v 4 26 -20
v 5 18 -18
v 5 18 -19
v 5 19 -18
v 5 19 -19
v 6 17 -19
v 6 17 -20
v 6 20 -19
v 6 20 -20
v 0 18 -18
v 0 19 -18
v 0 23 -18
v 0 24 -18
v 1 23 -18
v 1 24 -18
v 1 25 -18
v 2 19 -18
v 2 24 -18
v 3 19 -18
v 3 25 -18
v 5 18 -18
v 5 19 -18
v -1 17 -19
v -1 20 -19
v -1 22 -19
v -1 25 -19
v 0 18 -19
v 0 19 -19
v 0 23 -19
v 0 24 -19
v 0 25 -19
v 0 26 -19
v 1 20 -19
v 1 22 -19
v 1 23 -19
v 1 24 -19
v 1 25 -19
v 2 19 -19
v 2 24 -19
v 3 19 -19
v 3 25 -19
v 4 20 -19
v 4 26 -19
v 5 18 -19
v 5 19 -19
v 6 17 -19
v 6 20 -19
v -1 17 -20
v -1 20 -20
v -1 22 -20
v -1 25 -20
v 0 25 -20
v 0 26 -20
v 1 20 -20
v 1 22 -20
v 4 20 -20
v 4 26 -20
v 6 17 -20
v 6 20 -20
v -1 17 -19
v 6 17 -19
v -1 17 -20
v 6 17 -20
v 0 18 -18
v 5 18 -18
v 0 18 -19
v 5 18 -19
v -1 22 -19
v 1 22 -19
v -1 22 -20
v 1 22 -20
v 0 23 -18
v 1 23 -18
v 0 23 -19
v 1 23 -19
v 1 24 -18
v 2 24 -18
v 1 24 -19
v 2 24 -19
v 0 19 -18
v 2 19 -18
v 3 19 -18
v 5 19 -18
v 0 19 -19
v 2 19 -19
v 3 19 -19
v 5 19 -19
v -1 20 -19
v 1 20 -19
v 4 20 -19
v 6 20 -19
v -1 20 -20
v 1 20 -20
v 4 20 -20
v 6 20 -20
v 0 24 -18
v 1 24 -18
v 0 24 -19
v 1 24 -19
v 1 25 -18
v 3 25 -18
v -1 25 -19
v 0 25 -19
v 1 25 -19
v 3 25 -19
v -1 25 -20
v 0 25 -20
v 0 26 -19
v 4 26 -19
v 0 26 -20
v 4 26 -20

# faces
f 3/2/1 2/2/1 1/2/1
f 4/2/1 2/2/1 3/2/1
f 7/2/1 6/2/1 5/2/1
f 8/2/1 6/2/1 7/2/1
f 11/1/1 10/1/1 9/1/1
f 12/1/1 10/1/1 11/1/1
f 15/1/1 14/1/1 13/1/1
f 16/1/1 14/1/1 15/1/1
f 19/2/1 18/2/1 17/2/1
f 20/2/1 18/2/1 19/2/1
f 23/2/1 22/2/1 21/2/1
f 24/2/1 22/2/1 23/2/1
f 27/1/1 26/1/1 25/1/1
f 28/1/1 26/1/1 27/1/1
f 31/1/1 30/1/1 29/1/1
f 32/1/1 30/1/1 31/1/1
f 33/1/2 34/1/2 35/1/2
f 35/1/2 34/1/2 36/1/2
f 37/1/2 38/1/2 39/1/2
f 39/1/2 38/1/2 40/1/2
f 41/2/2 42/2/2 43/2/2
f 43/2/2 42/2/2 44/2/2
f 45/1/2 46/1/2 47/1/2
f 47/1/2 46/1/2 48/1/2
f 49/2/2 50/2/2 51/2/2
f 51/2/2 50/2/2 52/2/2
f 57/1/3 56/1/3 55/1/3
f 58/1/3 56/1/3 57/1/3
f 60/1/3 54/1/3 53/1/3
f 61/1/3 59/1/3 58/1/3
f 62/1/3 60/1/3 53/1/3
f 62/1/3 61/1/3 60/1/3
f 63/1/3 59/1/3 61/1/3
f 63/1/3 61/1/3 62/1/3
f 64/1/3 62/1/3 53/1/3
f 65/1/3 62/1/3 64/1/3
f 70/2/3 67/2/3 66/2/3
f 71/2/3 67/2/3 70/2/3
f 72/2/3 69/2/3 68/2/3
f 73/2/3 69/2/3 72/2/3
f 74/2/3 69/2/3 73/2/3
f 76/2/3 67/2/3 71/2/3
f 77/2/3 72/2/3 68/2/3
f 78/2/3 72/2/3 77/2/3
f 79/2/3 75/2/3 74/2/3
f 79/2/3 74/2/3 73/2/3
f 80/2/3 75/2/3 79/2/3
f 81/2/3 78/2/3 77/2/3
f 81/2/3 77/2/3 76/2/3
f 81/2/3 79/2/3 78/2/3
f 81/2/3 76/2/3 71/2/3
f 82/2/3 79/2/3 81/2/3
f 84/2/3 75/2/3 80/2/3
f 85/2/3 84/2/3 83/2/3
f 86/2/3 75/2/3 84/2/3
f 86/2/3 84/2/3 85/2/3
f 87/2/3 70/2/3 66/2/3
f 88/2/3 85/2/3 83/2/3
f 89/2/3 87/2/3 66/2/3
f 89/2/3 88/2/3 87/2/3
f 90/2/3 85/2/3 88/2/3
f 90/2/3 88/2/3 89/2/3
f 93/2/4 94/2/4 95/2/4
f 91/2/4 92/2/4 97/2/4
f 95/2/4 96/2/4 98/2/4
f 93/2/4 95/2/4 98/2/4
f 91/2/4 97/2/4 99/2/4
f 97/2/4 98/2/4 99/2/4
f 98/2/4 96/2/4 100/2/4
f 99/2/4 98/2/4 100/2/4
f 91/2/4 99/2/4 101/2/4
f 101/2/4 99/2/4 102/2/4
f 105/2/5 104/2/5 103/2/5
f 106/2/5 104/2/5 105/2/5
f 109/1/5 108/1/5 107/1/5
f 110/1/5 108/1/5 109/1/5
f 113/2/5 112/2/5 111/2/5
f 114/2/5 112/2/5 113/2/5
f 117/1/5 116/1/5 115/1/5
f 118/1/5 116/1/5 117/1/5
f 121/1/5 120/1/5 119/1/5
f 122/1/5 120/1/5 121/1/5
f 123/1/6 124/1/6 127/1/6
f 127/1/6 124/1/6 128/1/6
f 125/1/6 126/1/6 129/1/6
f 129/1/6 126/1/6 130/1/6
f 131/2/6 132/2/6 135/2/6
f 135/2/6 132/2/6 136/2/6
f 133/2/6 134/2/6 137/2/6
f 137/2/6 134/2/6 138/2/6
f 139/1/6 140/1/6 141/1/6
f 141/1/6 140/1/6 142/1/6
f 143/1/6 144/1/6 147/1/6
f 147/1/6 144/1/6 148/1/6
f 145/2/6 146/2/6 149/2/6
f 149/2/6 146/2/6 150/2/6
f 151/2/6 152/2/6 153/2/6
f 153/2/6 152/2/6 154/2/6
