# MagicaVoxel @ Ephtracy

# group
g Six

# material
mtllib Six.mtl
usemtl palette

# normals
vn -1 0 0
vn 1 0 0
vn 0 0 1
vn 0 0 -1
vn 0 -1 0
vn 0 1 0

# texcoords
vt 0.958984 0.5
vt 0.994141 0.5

# verts
v -1 18 -19
v -1 18 -20
v -1 24 -19
v -1 24 -20
v 0 17 -19
v 0 17 -20
v 0 18 -19
v 0 18 -20
v 0 19 -18
v 0 19 -19
v 0 23 -18
v 0 23 -19
v 0 24 -19
v 0 24 -20
v 0 25 -19
v 0 25 -20
v 1 18 -18
v 1 18 -19
v 1 19 -18
v 1 19 -19
v 1 23 -18
v 1 23 -19
v 1 24 -18
v 1 24 -19
v 1 25 -19
v 1 25 -20
v 1 26 -19
v 1 26 -20
v 2 24 -18
v 2 24 -19
v 2 25 -18
v 2 25 -19
v 4 19 -18
v 4 19 -19
v 4 21 -18
v 4 21 -19
v 1 19 -18
v 1 19 -19
v 1 21 -18
v 1 21 -19
v 1 22 -18
v 1 22 -19
v 1 23 -18
v 1 23 -19
v 2 23 -18
v 2 23 -19
v 2 24 -18
v 2 24 -19
v 4 18 -18
v 4 18 -19
v 4 19 -18
v 4 19 -19
v 4 21 -18
v 4 21 -19
v 4 22 -18
v 4 22 -19
v 4 24 -18
v 4 24 -19
v 4 25 -18
v 4 25 -19
v 5 17 -19
v 5 17 -20
v 5 18 -19
v 5 18 -20
v 5 19 -18
v 5 19 -19
v 5 21 -18
v 5 21 -19
v 5 22 -19
v 5 22 -20
v 5 26 -19
v 5 26 -20
v 6 18 -19
v 6 18 -20
v 6 22 -19
v 6 22 -20
v 0 19 -18
v 0 23 -18
v 1 18 -18
v 1 19 -18
v 1 21 -18
v 1 22 -18
v 1 23 -18
v 1 24 -18
v 2 23 -18
v 2 24 -18
v 2 25 -18
v 4 18 -18
v 4 19 -18
v 4 21 -18
v 4 22 -18
v 4 24 -18
v 4 25 -18
v 5 19 -18
v 5 21 -18
v -1 18 -19
v -1 24 -19
v 0 17 -19
v 0 18 -19
v 0 19 -19
v 0 23 -19
v 0 24 -19
v 0 25 -19
v 1 18 -19
v 1 19 -19
v 1 21 -19
v 1 22 -19
v 1 23 -19
v 1 24 -19
v 1 25 -19
v 1 26 -19
v 2 23 -19
v 2 24 -19
v 2 25 -19
v 4 18 -19
v 4 19 -19
v 4 21 -19
v 4 22 -19
v 4 24 -19
v 4 25 -19
v 5 17 -19
v 5 18 -19
v 5 19 -19
v 5 21 -19
v 5 22 -19
v 5 26 -19
v 6 18 -19
v 6 22 -19
v -1 18 -20
v -1 24 -20
v 0 17 -20
v 0 18 -20
v 0 24 -20
v 0 25 -20
v 1 25 -20
v 1 26 -20
v 5 17 -20
v 5 18 -20
v 5 22 -20
v 5 26 -20
v 6 18 -20
v 6 22 -20
v 0 17 -19
v 5 17 -19
v 0 17 -20
v 5 17 -20
v 1 18 -18
v 4 18 -18
v -1 18 -19
v 0 18 -19
v 1 18 -19
v 4 18 -19
v 5 18 -19
v 6 18 -19
v -1 18 -20
v 0 18 -20
v 5 18 -20
v 6 18 -20
v 0 19 -18
v 1 19 -18
v 4 19 -18
v 5 19 -18
v 0 19 -19
v 1 19 -19
v 4 19 -19
v 5 19 -19
v 1 21 -18
v 4 21 -18
v 1 21 -19
v 4 21 -19
v 1 23 -18
v 2 23 -18
v 1 23 -19
v 2 23 -19
v 2 24 -18
v 4 24 -18
v 2 24 -19
v 4 24 -19
v 1 19 -18
v 4 19 -18
v 1 19 -19
v 4 19 -19
v 4 21 -18
v 5 21 -18
v 4 21 -19
v 5 21 -19
v 1 22 -18
v 4 22 -18
v 1 22 -19
v 4 22 -19
v 5 22 -19
v 6 22 -19
v 5 22 -20
v 6 22 -20
v 0 23 -18
v 1 23 -18
v 0 23 -19
v 1 23 -19
v 1 24 -18
v 2 24 -18
v -1 24 -19
v 0 24 -19
v 1 24 -19
v 2 24 -19
v -1 24 -20
v 0 24 -20
v 2 25 -18
v 4 25 -18
v 0 25 -19
v 1 25 -19
v 2 25 -19
v 4 25 -19
v 0 25 -20
v 1 25 -20
v 1 26 -19
v 5 26 -19
v 1 26 -20
v 5 26 -20

# faces
f 3/2/1 2/2/1 1/2/1
f 4/2/1 2/2/1 3/2/1
f 7/2/1 6/2/1 5/2/1
f 8/2/1 6/2/1 7/2/1
f 11/1/1 10/1/1 9/1/1
f 12/1/1 10/1/1 11/1/1
f 15/2/1 14/2/1 13/2/1
f 16/2/1 14/2/1 15/2/1
f 19/1/1 18/1/1 17/1/1
f 20/1/1 18/1/1 19/1/1
f 23/1/1 22/1/1 21/1/1
f 24/1/1 22/1/1 23/1/1
f 27/2/1 26/2/1 25/2/1
f 28/2/1 26/2/1 27/2/1
f 31/1/1 30/1/1 29/1/1
f 32/1/1 30/1/1 31/1/1
f 35/1/1 34/1/1 33/1/1
f 36/1/1 34/1/1 35/1/1
f 37/1/2 38/1/2 39/1/2
f 39/1/2 38/1/2 40/1/2
f 41/1/2 42/1/2 43/1/2
f 43/1/2 42/1/2 44/1/2
f 45/1/2 46/1/2 47/1/2
f 47/1/2 46/1/2 48/1/2
f 49/1/2 50/1/2 51/1/2
f 51/1/2 50/1/2 52/1/2
f 53/1/2 54/1/2 55/1/2
f 55/1/2 54/1/2 56/1/2
f 57/1/2 58/1/2 59/1/2
f 59/1/2 58/1/2 60/1/2
f 61/2/2 62/2/2 63/2/2
f 63/2/2 62/2/2 64/2/2
f 65/1/2 66/1/2 67/1/2
f 67/1/2 66/1/2 68/1/2
f 69/2/2 70/2/2 71/2/2
f 71/2/2 70/2/2 72/2/2
f 73/2/2 74/2/2 75/2/2
f 75/2/2 74/2/2 76/2/2
f 80/1/3 78/1/3 77/1/3
f 81/1/3 78/1/3 80/1/3
f 82/1/3 78/1/3 81/1/3
f 83/1/3 78/1/3 82/1/3
f 85/1/3 84/1/3 83/1/3
f 86/1/3 84/1/3 85/1/3
f 88/1/3 80/1/3 79/1/3
f 89/1/3 80/1/3 88/1/3
f 90/1/3 82/1/3 81/1/3
f 91/1/3 82/1/3 90/1/3
f 92/1/3 87/1/3 86/1/3
f 93/1/3 87/1/3 92/1/3
f 94/1/3 90/1/3 89/1/3
f 95/1/3 90/1/3 94/1/3
f 99/2/3 97/2/3 96/2/3
f 100/2/3 97/2/3 99/2/3
f 101/2/3 97/2/3 100/2/3
f 102/2/3 97/2/3 101/2/3
f 104/2/3 99/2/3 98/2/3
f 104/2/3 100/2/3 99/2/3
f 105/2/3 100/2/3 104/2/3
f 108/2/3 103/2/3 102/2/3
f 108/2/3 102/2/3 101/2/3
f 109/2/3 103/2/3 108/2/3
f 110/2/3 103/2/3 109/2/3
f 112/2/3 108/2/3 107/2/3
f 113/2/3 111/2/3 110/2/3
f 113/2/3 110/2/3 109/2/3
f 114/2/3 111/2/3 113/2/3
f 115/2/3 104/2/3 98/2/3
f 116/2/3 106/2/3 105/2/3
f 117/2/3 106/2/3 116/2/3
f 118/2/3 112/2/3 107/2/3
f 118/2/3 113/2/3 112/2/3
f 119/2/3 113/2/3 118/2/3
f 120/2/3 111/2/3 114/2/3
f 121/2/3 115/2/3 98/2/3
f 121/2/3 116/2/3 115/2/3
f 122/2/3 116/2/3 121/2/3
f 123/2/3 116/2/3 122/2/3
f 124/2/3 120/2/3 119/2/3
f 124/2/3 119/2/3 118/2/3
f 124/2/3 118/2/3 117/2/3
f 125/2/3 120/2/3 124/2/3
f 126/2/3 111/2/3 120/2/3
f 126/2/3 120/2/3 125/2/3
f 127/2/3 123/2/3 122/2/3
f 127/2/3 125/2/3 124/2/3
f 127/2/3 124/2/3 123/2/3
f 128/2/3 125/2/3 127/2/3
f 129/2/4 130/2/4 132/2/4
f 132/2/4 130/2/4 133/2/4
f 131/2/4 132/2/4 135/2/4
f 133/2/4 134/2/4 135/2/4
f 132/2/4 133/2/4 135/2/4
f 131/2/4 135/2/4 137/2/4
f 135/2/4 136/2/4 137/2/4
f 137/2/4 136/2/4 138/2/4
f 138/2/4 136/2/4 139/2/4
f 139/2/4 136/2/4 140/2/4
f 138/2/4 139/2/4 141/2/4
f 141/2/4 139/2/4 142/2/4
f 145/2/5 144/2/5 143/2/5
f 146/2/5 144/2/5 145/2/5
f 151/1/5 148/1/5 147/1/5
f 152/1/5 148/1/5 151/1/5
f 155/2/5 150/2/5 149/2/5
f 156/2/5 150/2/5 155/2/5
f 157/2/5 154/2/5 153/2/5
f 158/2/5 154/2/5 157/2/5
f 163/1/5 160/1/5 159/1/5
f 164/1/5 160/1/5 163/1/5
f 165/1/5 162/1/5 161/1/5
f 166/1/5 162/1/5 165/1/5
f 169/1/5 168/1/5 167/1/5
f 170/1/5 168/1/5 169/1/5
f 173/1/5 172/1/5 171/1/5
f 174/1/5 172/1/5 173/1/5
f 177/1/5 176/1/5 175/1/5
f 178/1/5 176/1/5 177/1/5
f 179/1/6 180/1/6 181/1/6
f 181/1/6 180/1/6 182/1/6
f 183/1/6 184/1/6 185/1/6
f 185/1/6 184/1/6 186/1/6
f 187/1/6 188/1/6 189/1/6
f 189/1/6 188/1/6 190/1/6
f 191/2/6 192/2/6 193/2/6
f 193/2/6 192/2/6 194/2/6
f 195/1/6 196/1/6 197/1/6
f 197/1/6 196/1/6 198/1/6
f 199/1/6 200/1/6 203/1/6
f 203/1/6 200/1/6 204/1/6
f 201/2/6 202/2/6 205/2/6
f 205/2/6 202/2/6 206/2/6
f 207/1/6 208/1/6 211/1/6
f 211/1/6 208/1/6 212/1/6
f 209/2/6 210/2/6 213/2/6
f 213/2/6 210/2/6 214/2/6
f 215/2/6 216/2/6 217/2/6
f 217/2/6 216/2/6 218/2/6
