# MagicaVoxel @ Ephtracy

# group
g FanVar3

# material
mtllib FanVar3.mtl
usemtl palette

# normals
vn -1 0 0
vn 1 0 0
vn 0 0 1
vn 0 0 -1
vn 0 -1 0
vn 0 1 0

# texcoords
vt 0.294922 0.5
vt 0.298828 0.5
vt 0.419922 0.5
vt 0.728516 0.5
vt 0.845703 0.5
vt 0.955078 0.5
vt 0.958984 0.5
vt 0.970703 0.5
vt 0.978516 0.5
vt 0.982422 0.5
vt 0.994141 0.5

# verts
v -5 23 10
v -5 23 8
v -5 27 10
v -5 27 8
v -5 33 10
v -5 33 8
v -3 13 13
v -3 13 4
v -3 23 10
v -3 23 8
v -3 27 13
v -3 27 10
v -3 27 8
v -3 27 4
v -2 27 13
v -2 27 4
v -2 32 13
v -2 32 4
v -2 37 13
v -2 37 4
v -1 0 14
v -1 0 7
v -1 1 14
v -1 1 11
v -1 3 11
v -1 3 7
v -1 13 11
v -1 13 7
v 6 0 14
v 6 0 7
v 6 1 14
v 6 1 11
v 6 3 11
v 6 3 7
v 6 13 11
v 6 13 7
v 11 27 10
v 11 27 8
v 11 33 10
v 11 33 8
v -3 27 10
v -3 27 8
v -3 33 10
v -3 33 8
v 2 0 14
v 2 0 7
v 2 1 14
v 2 1 11
v 2 3 11
v 2 3 7
v 2 13 11
v 2 13 7
v 9 0 14
v 9 0 7
v 9 1 14
v 9 1 11
v 9 3 11
v 9 3 7
v 9 13 11
v 9 13 7
v 10 27 13
v 10 27 4
v 10 32 13
v 10 32 4
v 10 37 13
v 10 37 4
v 11 13 13
v 11 13 4
v 11 23 10
v 11 23 8
v 11 27 13
v 11 27 10
v 11 27 8
v 11 27 4
v 13 23 10
v 13 23 8
v 13 27 10
v 13 27 8
v 13 33 10
v 13 33 8
v -1 0 14
v -1 1 14
v 2 0 14
v 2 1 14
v 6 0 14
v 6 1 14
v 9 0 14
v 9 1 14
v -3 13 13
v -3 27 13
v -2 27 13
v -2 32 13
v -2 37 13
v -1 32 13
v -1 34 13
v 0 28 13
v 0 29 13
v 0 31 13
v 0 33 13
v 1 27 13
v 1 28 13
v 1 29 13
v 1 30 13
v 1 31 13
v 1 33 13
v 2 33 13
v 2 34 13
v 6 33 13
v 6 34 13
v 7 27 13
v 7 28 13
v 7 29 13
v 7 30 13
v 7 31 13
v 7 33 13
v 8 28 13
v 8 29 13
v 8 31 13
v 8 33 13
v 9 32 13
v 9 34 13
v 10 27 13
v 10 32 13
v 10 37 13
v 11 13 13
v 11 27 13
v -1 1 11
v -1 3 11
v -1 13 11
v 2 1 11
v 2 3 11
v 2 13 11
v 6 1 11
v 6 3 11
v 6 13 11
v 9 1 11
v 9 3 11
v 9 13 11
v -5 23 10
v -5 27 10
v -5 33 10
v -3 23 10
v -3 27 10
v -3 33 10
v 11 23 10
v 11 27 10
v 11 33 10
v 13 23 10
v 13 27 10
v 13 33 10
v -5 23 8
v -5 27 8
v -5 33 8
v -3 23 8
v -3 27 8
v -3 33 8
v 11 23 8
v 11 27 8
v 11 33 8
v 13 23 8
v 13 27 8
v 13 33 8
v -1 0 7
v -1 3 7
v -1 13 7
v 2 0 7
v 2 3 7
v 2 13 7
v 6 0 7
v 6 3 7
v 6 13 7
v 9 0 7
v 9 3 7
v 9 13 7
v -3 13 4
v -3 27 4
v -2 27 4
v -2 32 4
v -2 37 4
v 10 27 4
v 10 32 4
v 10 37 4
v 11 13 4
v 11 27 4
v -1 0 14
v 2 0 14
v 6 0 14
v 9 0 14
v -1 0 7
v 2 0 7
v 6 0 7
v 9 0 7
v -3 13 13
v 11 13 13
v -1 13 11
v 2 13 11
v 6 13 11
v 9 13 11
v -1 13 7
v 2 13 7
v 6 13 7
v 9 13 7
v -3 13 4
v 11 13 4
v -5 23 10
v -3 23 10
v 11 23 10
v 13 23 10
v -5 23 8
v -3 23 8
v 11 23 8
v 13 23 8
v -1 1 14
v 2 1 14
v 6 1 14
v 9 1 14
v -1 1 11
v 2 1 11
v 6 1 11
v 9 1 11
v -3 27 13
v -2 27 13
v 10 27 13
v 11 27 13
v -3 27 10
v 11 27 10
v -3 27 8
v 11 27 8
v -3 27 4
v -2 27 4
v 10 27 4
v 11 27 4
v -5 33 10
v -3 33 10
v 11 33 10
v 13 33 10
v -5 33 8
v -3 33 8
v 11 33 8
v 13 33 8
v -2 37 13
v 10 37 13
v -2 37 4
v 10 37 4

# faces
f 3/5/1 2/5/1 1/5/1
f 4/5/1 2/5/1 3/5/1
f 5/1/1 4/1/1 3/1/1
f 6/1/1 4/1/1 5/1/1
f 9/7/1 8/7/1 7/7/1
f 10/7/1 8/7/1 9/7/1
f 11/7/1 9/7/1 7/7/1
f 12/7/1 9/7/1 11/7/1
f 13/7/1 8/7/1 10/7/1
f 14/7/1 8/7/1 13/7/1
f 17/1/1 16/1/1 15/1/1
f 18/1/1 16/1/1 17/1/1
f 19/11/1 18/11/1 17/11/1
f 20/11/1 18/11/1 19/11/1
f 23/11/1 22/11/1 21/11/1
f 24/11/1 22/11/1 23/11/1
f 25/11/1 22/11/1 24/11/1
f 26/11/1 22/11/1 25/11/1
f 27/4/1 26/4/1 25/4/1
f 28/4/1 26/4/1 27/4/1
f 31/11/1 30/11/1 29/11/1
f 32/11/1 30/11/1 31/11/1
f 33/11/1 30/11/1 32/11/1
f 34/11/1 30/11/1 33/11/1
f 35/4/1 34/4/1 33/4/1
f 36/4/1 34/4/1 35/4/1
f 39/1/1 38/1/1 37/1/1
f 40/1/1 38/1/1 39/1/1
f 41/1/2 42/1/2 43/1/2
f 43/1/2 42/1/2 44/1/2
f 45/11/2 46/11/2 47/11/2
f 47/11/2 46/11/2 48/11/2
f 48/11/2 46/11/2 49/11/2
f 49/11/2 46/11/2 50/11/2
f 49/4/2 50/4/2 51/4/2
f 51/4/2 50/4/2 52/4/2
f 53/11/2 54/11/2 55/11/2
f 55/11/2 54/11/2 56/11/2
f 56/11/2 54/11/2 57/11/2
f 57/11/2 54/11/2 58/11/2
f 57/4/2 58/4/2 59/4/2
f 59/4/2 58/4/2 60/4/2
f 61/1/2 62/1/2 63/1/2
f 63/1/2 62/1/2 64/1/2
f 63/11/2 64/11/2 65/11/2
f 65/11/2 64/11/2 66/11/2
f 67/7/2 68/7/2 69/7/2
f 69/7/2 68/7/2 70/7/2
f 67/7/2 69/7/2 71/7/2
f 71/7/2 69/7/2 72/7/2
f 70/7/2 68/7/2 73/7/2
f 73/7/2 68/7/2 74/7/2
f 75/5/2 76/5/2 77/5/2
f 77/5/2 76/5/2 78/5/2
f 77/1/2 78/1/2 79/1/2
f 79/1/2 78/1/2 80/1/2
f 83/11/3 82/11/3 81/11/3
f 84/11/3 82/11/3 83/11/3
f 87/11/3 86/11/3 85/11/3
f 88/11/3 86/11/3 87/11/3
f 91/7/3 90/7/3 89/7/3
f 94/1/3 92/1/3 91/1/3
f 94/11/3 93/11/3 92/11/3
f 95/11/3 93/11/3 94/11/3
f 96/1/3 94/1/3 91/1/3
f 96/1/3 95/1/3 94/1/3
f 97/1/3 95/1/3 96/1/3
f 98/1/3 95/1/3 97/1/3
f 99/1/3 95/1/3 98/1/3
f 100/7/3 91/7/3 89/7/3
f 100/1/3 96/1/3 91/1/3
f 101/11/3 97/11/3 96/11/3
f 101/1/3 96/1/3 100/1/3
f 102/1/3 98/1/3 97/1/3
f 102/11/3 97/11/3 101/11/3
f 103/1/3 98/1/3 102/1/3
f 104/6/3 99/6/3 98/6/3
f 104/1/3 98/1/3 103/1/3
f 105/1/3 95/1/3 99/1/3
f 105/6/3 99/6/3 104/6/3
f 106/1/3 104/1/3 103/1/3
f 106/1/3 95/1/3 105/1/3
f 106/1/3 105/1/3 104/1/3
f 107/11/3 93/11/3 95/11/3
f 107/1/3 95/1/3 106/1/3
f 108/1/3 106/1/3 103/1/3
f 108/11/3 107/11/3 106/11/3
f 109/11/3 93/11/3 107/11/3
f 109/11/3 107/11/3 108/11/3
f 110/7/3 100/7/3 89/7/3
f 110/11/3 101/11/3 100/11/3
f 111/1/3 102/1/3 101/1/3
f 111/11/3 101/11/3 110/11/3
f 112/11/3 103/11/3 102/11/3
f 112/1/3 102/1/3 111/1/3
f 113/1/3 108/1/3 103/1/3
f 113/11/3 103/11/3 112/11/3
f 113/1/3 109/1/3 108/1/3
f 114/1/3 109/1/3 113/1/3
f 115/1/3 109/1/3 114/1/3
f 116/11/3 112/11/3 111/11/3
f 116/1/3 111/1/3 110/1/3
f 117/1/3 113/1/3 112/1/3
f 117/11/3 112/11/3 116/11/3
f 117/1/3 114/1/3 113/1/3
f 118/6/3 115/6/3 114/6/3
f 118/1/3 114/1/3 117/1/3
f 119/1/3 109/1/3 115/1/3
f 119/6/3 115/6/3 118/6/3
f 120/1/3 118/1/3 117/1/3
f 120/1/3 117/1/3 116/1/3
f 120/1/3 119/1/3 118/1/3
f 121/1/3 109/1/3 119/1/3
f 121/1/3 119/1/3 120/1/3
f 121/11/3 93/11/3 109/11/3
f 122/7/3 110/7/3 89/7/3
f 122/1/3 120/1/3 116/1/3
f 122/1/3 116/1/3 110/1/3
f 123/11/3 121/11/3 120/11/3
f 123/1/3 120/1/3 122/1/3
f 124/11/3 93/11/3 121/11/3
f 124/11/3 121/11/3 123/11/3
f 125/7/3 122/7/3 89/7/3
f 126/7/3 122/7/3 125/7/3
f 130/11/3 128/11/3 127/11/3
f 131/4/3 129/4/3 128/4/3
f 131/11/3 128/11/3 130/11/3
f 132/4/3 129/4/3 131/4/3
f 136/11/3 134/11/3 133/11/3
f 137/4/3 135/4/3 134/4/3
f 137/11/3 134/11/3 136/11/3
f 138/4/3 135/4/3 137/4/3
f 142/5/3 140/5/3 139/5/3
f 143/1/3 141/1/3 140/1/3
f 143/5/3 140/5/3 142/5/3
f 144/1/3 141/1/3 143/1/3
f 148/5/3 146/5/3 145/5/3
f 149/1/3 147/1/3 146/1/3
f 149/5/3 146/5/3 148/5/3
f 150/1/3 147/1/3 149/1/3
f 151/5/4 152/5/4 154/5/4
f 152/1/4 153/1/4 155/1/4
f 154/5/4 152/5/4 155/5/4
f 155/1/4 153/1/4 156/1/4
f 157/5/4 158/5/4 160/5/4
f 158/1/4 159/1/4 161/1/4
f 160/5/4 158/5/4 161/5/4
f 161/1/4 159/1/4 162/1/4
f 163/11/4 164/11/4 166/11/4
f 164/4/4 165/4/4 167/4/4
f 166/11/4 164/11/4 167/11/4
f 167/4/4 165/4/4 168/4/4
f 169/11/4 170/11/4 172/11/4
f 170/4/4 171/4/4 173/4/4
f 172/11/4 170/11/4 173/11/4
f 173/4/4 171/4/4 174/4/4
f 175/7/4 176/7/4 177/7/4
f 175/7/4 177/7/4 180/7/4
f 177/1/4 178/1/4 180/1/4
f 178/11/4 179/11/4 181/11/4
f 180/1/4 178/1/4 181/1/4
f 181/11/4 179/11/4 182/11/4
f 175/7/4 180/7/4 183/7/4
f 183/7/4 180/7/4 184/7/4
f 189/11/5 186/11/5 185/11/5
f 190/11/5 186/11/5 189/11/5
f 191/11/5 188/11/5 187/11/5
f 192/11/5 188/11/5 191/11/5
f 195/7/5 194/7/5 193/7/5
f 196/7/5 194/7/5 195/7/5
f 197/7/5 194/7/5 196/7/5
f 198/7/5 194/7/5 197/7/5
f 199/7/5 195/7/5 193/7/5
f 200/7/5 197/7/5 196/7/5
f 201/7/5 197/7/5 200/7/5
f 202/7/5 194/7/5 198/7/5
f 203/7/5 201/7/5 200/7/5
f 203/7/5 202/7/5 201/7/5
f 203/7/5 199/7/5 193/7/5
f 203/7/5 200/7/5 199/7/5
f 204/7/5 194/7/5 202/7/5
f 204/7/5 202/7/5 203/7/5
f 209/5/5 206/5/5 205/5/5
f 210/5/5 206/5/5 209/5/5
f 211/5/5 208/5/5 207/5/5
f 212/5/5 208/5/5 211/5/5
f 213/11/6 214/11/6 217/11/6
f 217/11/6 214/11/6 218/11/6
f 215/11/6 216/11/6 219/11/6
f 219/11/6 216/11/6 220/11/6
f 221/7/6 222/7/6 225/7/6
f 223/7/6 224/7/6 226/7/6
f 225/7/6 222/7/6 227/7/6
f 223/7/6 226/7/6 228/7/6
f 227/7/6 222/7/6 229/7/6
f 229/7/6 222/7/6 230/7/6
f 223/7/6 228/7/6 231/7/6
f 231/7/6 228/7/6 232/7/6
f 233/1/6 234/1/6 237/1/6
f 237/1/6 234/1/6 238/1/6
f 235/1/6 236/1/6 239/1/6
f 239/1/6 236/1/6 240/1/6
f 241/11/6 242/11/6 243/11/6
f 243/11/6 242/11/6 244/11/6
