# MagicaVoxel @ Ephtracy

# group
g Goalie

# material
mtllib Goalie.mtl
usemtl palette

# normals
vn -1 0 0
vn 1 0 0
vn 0 0 1
vn 0 0 -1
vn 0 -1 0
vn 0 1 0

# texcoords
vt 0.306641 0.5
vt 0.330078 0.5
vt 0.333984 0.5
vt 0.841797 0.5
vt 0.958984 0.5
vt 0.994141 0.5

# verts
v -10 12 4
v -10 12 2
v -10 16 4
v -10 16 2
v -10 18 4
v -10 18 2
v -8 0 7
v -8 0 2
v -8 1 7
v -8 1 4
v -8 1 2
v -8 4 4
v -8 4 2
v -8 7 4
v -8 7 2
v -8 10 5
v -8 10 4
v -8 10 2
v -8 10 1
v -8 12 4
v -8 12 2
v -8 16 4
v -8 16 2
v -8 18 4
v -8 18 2
v -8 19 5
v -8 19 1
v -7 19 6
v -7 19 5
v -7 19 1
v -7 19 -0
v -7 23 6
v -7 23 -0
v -7 26 6
v -7 26 -0
v -1 0 7
v -1 0 2
v -1 1 7
v -1 1 4
v -1 1 2
v -1 4 4
v -1 4 2
v -1 7 4
v -1 7 2
v -1 10 4
v -1 10 2
v -6 0 7
v -6 0 2
v -6 1 7
v -6 1 4
v -6 1 2
v -6 4 4
v -6 4 2
v -6 7 4
v -6 7 2
v -6 10 4
v -6 10 2
v 0 19 6
v 0 19 5
v 0 19 1
v 0 19 -0
v 0 23 6
v 0 23 -0
v 0 26 6
v 0 26 -0
v 1 0 7
v 1 0 2
v 1 1 7
v 1 1 4
v 1 1 2
v 1 4 4
v 1 4 2
v 1 7 4
v 1 7 2
v 1 10 5
v 1 10 4
v 1 10 2
v 1 10 1
v 1 12 4
v 1 12 2
v 1 16 4
v 1 16 2
v 1 18 4
v 1 18 2
v 1 19 5
v 1 19 1
v 3 12 4
v 3 12 2
v 3 16 4
v 3 16 2
v 3 18 4
v 3 18 2
v -8 0 7
v -8 1 7
v -6 0 7
v -6 1 7
v -1 0 7
v -1 1 7
v 1 0 7
v 1 1 7
v -7 19 6
v -7 23 6
v -7 26 6
v -6 23 6
v -6 24 6
v -5 20 6
v -5 21 6
v -5 23 6
v -5 24 6
v -4 23 6
v -4 24 6
v -3 23 6
v -3 24 6
v -2 20 6
v -2 21 6
v -2 23 6
v -2 24 6
v -1 23 6
v -1 24 6
v 0 19 6
v 0 23 6
v 0 26 6
v -8 10 5
v -8 19 5
v -7 19 5
v -6 14 5
v -6 17 5
v -5 15 5
v -5 17 5
v -3 11 5
v -3 14 5
v -3 15 5
v -3 17 5
v -2 11 5
v -2 17 5
v 0 19 5
v 1 10 5
v 1 19 5
v -10 12 4
v -10 16 4
v -10 18 4
v -8 1 4
v -8 4 4
v -8 7 4
v -8 10 4
v -8 12 4
v -8 16 4
v -8 18 4
v -6 1 4
v -6 4 4
v -6 7 4
v -6 10 4
v -1 1 4
v -1 4 4
v -1 7 4
v -1 10 4
v 1 1 4
v 1 4 4
v 1 7 4
v 1 10 4
v 1 12 4
v 1 16 4
v 1 18 4
v 3 12 4
v 3 16 4
v 3 18 4
v -10 12 2
v -10 16 2
v -10 18 2
v -8 0 2
v -8 1 2
v -8 4 2
v -8 7 2
v -8 10 2
v -8 12 2
v -8 16 2
v -8 18 2
v -6 0 2
v -6 1 2
v -6 4 2
v -6 7 2
v -6 10 2
v -1 0 2
v -1 1 2
v -1 4 2
v -1 7 2
v -1 10 2
v 1 0 2
v 1 1 2
v 1 4 2
v 1 7 2
v 1 10 2
v 1 12 2
v 1 16 2
v 1 18 2
v 3 12 2
v 3 16 2
v 3 18 2
v -8 10 1
v -8 19 1
v -7 19 1
v 0 19 1
v 1 10 1
v 1 19 1
v -7 19 -0
v -7 23 -0
v -7 26 -0
v 0 19 -0
v 0 23 -0
v 0 26 -0
v -8 0 7
v -6 0 7
v -1 0 7
v 1 0 7
v -8 0 2
v -6 0 2
v -1 0 2
v 1 0 2
v -8 10 5
v 1 10 5
v -8 10 4
v -6 10 4
v -1 10 4
v 1 10 4
v -8 10 2
v -6 10 2
v -1 10 2
v 1 10 2
v -8 10 1
v 1 10 1
v -10 12 4
v -8 12 4
v 1 12 4
v 3 12 4
v -10 12 2
v -8 12 2
v 1 12 2
v 3 12 2
v -7 19 6
v 0 19 6
v -7 19 5
v 0 19 5
v -7 19 1
v 0 19 1
v -7 19 -0
v 0 19 -0
v -8 1 7
v -6 1 7
v -1 1 7
v 1 1 7
v -8 1 4
v -6 1 4
v -1 1 4
v 1 1 4
v -10 18 4
v -8 18 4
v 1 18 4
v 3 18 4
v -10 18 2
v -8 18 2
v 1 18 2
v 3 18 2
v -8 19 5
v -7 19 5
v 0 19 5
v 1 19 5
v -8 19 1
v -7 19 1
v 0 19 1
v 1 19 1
v -7 26 6
v 0 26 6
v -7 26 -0
v 0 26 -0

# faces
f 3/2/1 2/2/1 1/2/1
f 4/2/1 2/2/1 3/2/1
f 5/4/1 4/4/1 3/4/1
f 6/4/1 4/4/1 5/4/1
f 9/4/1 8/4/1 7/4/1
f 10/4/1 8/4/1 9/4/1
f 11/4/1 8/4/1 10/4/1
f 12/6/1 11/6/1 10/6/1
f 13/6/1 11/6/1 12/6/1
f 14/2/1 13/2/1 12/2/1
f 15/2/1 13/2/1 14/2/1
f 17/5/1 15/5/1 14/5/1
f 18/5/1 15/5/1 17/5/1
f 20/5/1 18/5/1 17/5/1
f 20/5/1 19/5/1 18/5/1
f 20/5/1 17/5/1 16/5/1
f 21/5/1 19/5/1 20/5/1
f 22/5/1 20/5/1 16/5/1
f 23/5/1 19/5/1 21/5/1
f 24/5/1 22/5/1 16/5/1
f 25/5/1 19/5/1 23/5/1
f 26/5/1 24/5/1 16/5/1
f 26/5/1 25/5/1 24/5/1
f 27/5/1 19/5/1 25/5/1
f 27/5/1 25/5/1 26/5/1
f 32/2/1 29/2/1 28/2/1
f 32/2/1 31/2/1 30/2/1
f 32/2/1 30/2/1 29/2/1
f 33/2/1 31/2/1 32/2/1
f 34/3/1 33/3/1 32/3/1
f 35/3/1 33/3/1 34/3/1
f 38/4/1 37/4/1 36/4/1
f 39/4/1 37/4/1 38/4/1
f 40/4/1 37/4/1 39/4/1
f 41/6/1 40/6/1 39/6/1
f 42/6/1 40/6/1 41/6/1
f 43/2/1 42/2/1 41/2/1
f 44/2/1 42/2/1 43/2/1
f 45/5/1 44/5/1 43/5/1
f 46/5/1 44/5/1 45/5/1
f 47/4/2 48/4/2 49/4/2
f 49/4/2 48/4/2 50/4/2
f 50/4/2 48/4/2 51/4/2
f 50/6/2 51/6/2 52/6/2
f 52/6/2 51/6/2 53/6/2
f 52/2/2 53/2/2 54/2/2
f 54/2/2 53/2/2 55/2/2
f 54/5/2 55/5/2 56/5/2
f 56/5/2 55/5/2 57/5/2
f 58/2/2 59/2/2 62/2/2
f 60/2/2 61/2/2 62/2/2
f 59/2/2 60/2/2 62/2/2
f 62/2/2 61/2/2 63/2/2
f 62/3/2 63/3/2 64/3/2
f 64/3/2 63/3/2 65/3/2
f 66/4/2 67/4/2 68/4/2
f 68/4/2 67/4/2 69/4/2
f 69/4/2 67/4/2 70/4/2
f 69/6/2 70/6/2 71/6/2
f 71/6/2 70/6/2 72/6/2
f 71/2/2 72/2/2 73/2/2
f 73/2/2 72/2/2 74/2/2
f 73/5/2 74/5/2 76/5/2
f 76/5/2 74/5/2 77/5/2
f 76/5/2 77/5/2 79/5/2
f 77/5/2 78/5/2 79/5/2
f 75/5/2 76/5/2 79/5/2
f 79/5/2 78/5/2 80/5/2
f 75/5/2 79/5/2 81/5/2
f 80/5/2 78/5/2 82/5/2
f 75/5/2 81/5/2 83/5/2
f 82/5/2 78/5/2 84/5/2
f 75/5/2 83/5/2 85/5/2
f 83/5/2 84/5/2 85/5/2
f 84/5/2 78/5/2 86/5/2
f 85/5/2 84/5/2 86/5/2
f 87/2/2 88/2/2 89/2/2
f 89/2/2 88/2/2 90/2/2
f 89/4/2 90/4/2 91/4/2
f 91/4/2 90/4/2 92/4/2
f 95/4/3 94/4/3 93/4/3
f 96/4/3 94/4/3 95/4/3
f 99/4/3 98/4/3 97/4/3
f 100/4/3 98/4/3 99/4/3
f 104/2/3 102/2/3 101/2/3
f 104/3/3 103/3/3 102/3/3
f 105/3/3 103/3/3 104/3/3
f 106/2/3 104/2/3 101/2/3
f 106/2/3 105/2/3 104/2/3
f 107/2/3 105/2/3 106/2/3
f 108/2/3 105/2/3 107/2/3
f 109/3/3 103/3/3 105/3/3
f 109/2/3 105/2/3 108/2/3
f 110/2/3 108/2/3 107/2/3
f 110/6/3 109/6/3 108/6/3
f 111/3/3 103/3/3 109/3/3
f 111/6/3 109/6/3 110/6/3
f 112/2/3 110/2/3 107/2/3
f 112/2/3 111/2/3 110/2/3
f 113/3/3 103/3/3 111/3/3
f 113/2/3 111/2/3 112/2/3
f 114/2/3 106/2/3 101/2/3
f 114/6/3 107/6/3 106/6/3
f 115/2/3 112/2/3 107/2/3
f 115/6/3 107/6/3 114/6/3
f 116/6/3 113/6/3 112/6/3
f 116/2/3 112/2/3 115/2/3
f 117/3/3 103/3/3 113/3/3
f 117/6/3 113/6/3 116/6/3
f 118/2/3 116/2/3 115/2/3
f 118/2/3 115/2/3 114/2/3
f 118/2/3 117/2/3 116/2/3
f 119/3/3 103/3/3 117/3/3
f 119/2/3 117/2/3 118/2/3
f 120/2/3 114/2/3 101/2/3
f 120/2/3 118/2/3 114/2/3
f 121/3/3 119/3/3 118/3/3
f 121/2/3 118/2/3 120/2/3
f 122/3/3 103/3/3 119/3/3
f 122/3/3 119/3/3 121/3/3
f 125/5/3 124/5/3 123/5/3
f 126/5/3 125/5/3 123/5/3
f 127/5/3 125/5/3 126/5/3
f 128/4/3 127/4/3 126/4/3
f 129/5/3 125/5/3 127/5/3
f 129/4/3 127/4/3 128/4/3
f 130/5/3 126/5/3 123/5/3
f 131/4/3 128/4/3 126/4/3
f 131/5/3 126/5/3 130/5/3
f 132/5/3 129/5/3 128/5/3
f 132/4/3 128/4/3 131/4/3
f 133/5/3 125/5/3 129/5/3
f 133/5/3 129/5/3 132/5/3
f 134/4/3 132/4/3 131/4/3
f 134/5/3 130/5/3 123/5/3
f 134/4/3 133/4/3 132/4/3
f 134/4/3 131/4/3 130/4/3
f 135/5/3 125/5/3 133/5/3
f 135/4/3 133/4/3 134/4/3
f 136/5/3 135/5/3 134/5/3
f 136/5/3 125/5/3 135/5/3
f 137/5/3 134/5/3 123/5/3
f 137/5/3 136/5/3 134/5/3
f 138/5/3 136/5/3 137/5/3
f 146/2/3 140/2/3 139/2/3
f 147/4/3 141/4/3 140/4/3
f 147/2/3 140/2/3 146/2/3
f 148/4/3 141/4/3 147/4/3
f 149/6/3 143/6/3 142/6/3
f 150/2/3 144/2/3 143/2/3
f 150/6/3 143/6/3 149/6/3
f 151/5/3 145/5/3 144/5/3
f 151/2/3 144/2/3 150/2/3
f 152/5/3 145/5/3 151/5/3
f 157/6/3 154/6/3 153/6/3
f 158/2/3 155/2/3 154/2/3
f 158/6/3 154/6/3 157/6/3
f 159/5/3 156/5/3 155/5/3
f 159/2/3 155/2/3 158/2/3
f 160/5/3 156/5/3 159/5/3
f 164/2/3 162/2/3 161/2/3
f 165/4/3 163/4/3 162/4/3
f 165/2/3 162/2/3 164/2/3
f 166/4/3 163/4/3 165/4/3
f 167/2/4 168/2/4 175/2/4
f 168/4/4 169/4/4 176/4/4
f 175/2/4 168/2/4 176/2/4
f 176/4/4 169/4/4 177/4/4
f 170/4/4 171/4/4 178/4/4
f 171/6/4 172/6/4 179/6/4
f 178/4/4 171/4/4 179/4/4
f 172/2/4 173/2/4 180/2/4
f 179/6/4 172/6/4 180/6/4
f 173/5/4 174/5/4 181/5/4
f 180/2/4 173/2/4 181/2/4
f 181/5/4 174/5/4 182/5/4
f 183/4/4 184/4/4 188/4/4
f 184/6/4 185/6/4 189/6/4
f 188/4/4 184/4/4 189/4/4
f 185/2/4 186/2/4 190/2/4
f 189/6/4 185/6/4 190/6/4
f 186/5/4 187/5/4 191/5/4
f 190/2/4 186/2/4 191/2/4
f 191/5/4 187/5/4 192/5/4
f 193/2/4 194/2/4 196/2/4
f 194/4/4 195/4/4 197/4/4
f 196/2/4 194/2/4 197/2/4
f 197/4/4 195/4/4 198/4/4
f 199/5/4 200/5/4 201/5/4
f 199/5/4 201/5/4 202/5/4
f 199/5/4 202/5/4 203/5/4
f 203/5/4 202/5/4 204/5/4
f 205/2/4 206/2/4 208/2/4
f 206/3/4 207/3/4 209/3/4
f 208/2/4 206/2/4 209/2/4
f 209/3/4 207/3/4 210/3/4
f 215/4/5 212/4/5 211/4/5
f 216/4/5 212/4/5 215/4/5
f 217/4/5 214/4/5 213/4/5
f 218/4/5 214/4/5 217/4/5
f 221/5/5 220/5/5 219/5/5
f 222/5/5 220/5/5 221/5/5
f 223/5/5 220/5/5 222/5/5
f 224/5/5 220/5/5 223/5/5
f 226/5/5 223/5/5 222/5/5
f 227/5/5 223/5/5 226/5/5
f 229/5/5 226/5/5 225/5/5
f 229/5/5 228/5/5 227/5/5
f 229/5/5 227/5/5 226/5/5
f 230/5/5 228/5/5 229/5/5
f 235/2/5 232/2/5 231/2/5
f 236/2/5 232/2/5 235/2/5
f 237/2/5 234/2/5 233/2/5
f 238/2/5 234/2/5 237/2/5
f 241/2/5 240/2/5 239/2/5
f 242/2/5 240/2/5 241/2/5
f 245/2/5 244/2/5 243/2/5
f 246/2/5 244/2/5 245/2/5
f 247/4/6 248/4/6 251/4/6
f 251/4/6 248/4/6 252/4/6
f 249/4/6 250/4/6 253/4/6
f 253/4/6 250/4/6 254/4/6
f 255/4/6 256/4/6 259/4/6
f 259/4/6 256/4/6 260/4/6
f 257/4/6 258/4/6 261/4/6
f 261/4/6 258/4/6 262/4/6
f 263/5/6 264/5/6 267/5/6
f 267/5/6 264/5/6 268/5/6
f 265/5/6 266/5/6 269/5/6
f 269/5/6 266/5/6 270/5/6
f 271/3/6 272/3/6 273/3/6
f 273/3/6 272/3/6 274/3/6
