# MagicaVoxel @ Ephtracy

# group
g Player10

# material
mtllib Player10.mtl
usemtl palette

# normals
vn -1 0 0
vn 1 0 0
vn 0 0 1
vn 0 0 -1
vn 0 -1 0
vn 0 1 0

# texcoords
vt 0.0214844 0.5
vt 0.294922 0.5
vt 0.298828 0.5
vt 0.419922 0.5
vt 0.955078 0.5
vt 0.958984 0.5
vt 0.970703 0.5
vt 0.978516 0.5
vt 0.982422 0.5
vt 0.994141 0.5

# verts
v -12 19 4
v -12 19 3
v -12 23 4
v -12 23 3
v -11 17 4
v -11 17 3
v -11 19 4
v -11 19 3
v -11 23 4
v -11 23 3
v -11 26 4
v -11 26 3
v -10 15 4
v -10 15 3
v -10 17 4
v -10 17 3
v -10 26 4
v -10 26 3
v -10 27 4
v -10 27 3
v -9 13 4
v -9 13 3
v -9 15 4
v -9 15 3
v -9 27 4
v -9 27 3
v -9 28 4
v -9 28 3
v -8 12 4
v -8 12 3
v -8 13 4
v -8 13 3
v -8 28 4
v -8 28 3
v -8 29 4
v -8 29 3
v -6 12 4
v -6 12 3
v -6 13 4
v -6 13 3
v -5 11 4
v -5 11 3
v -5 12 4
v -5 12 3
v -5 18 10
v -5 18 8
v -5 25 10
v -5 25 8
v -3 13 13
v -3 13 4
v -3 17 12
v -3 17 4
v -3 18 13
v -3 18 12
v -3 18 10
v -3 18 8
v -3 25 10
v -3 25 8
v -3 27 13
v -3 27 4
v -2 27 13
v -2 27 4
v -2 28 4
v -2 32 13
v -2 32 4
v -2 37 13
v -2 37 4
v -2 39 13
v -2 39 4
v -2 40 13
v -2 40 4
v -1 0 14
v -1 0 7
v -1 1 14
v -1 1 11
v -1 6 11
v -1 6 7
v -1 13 11
v -1 13 7
v 4 17 4
v 4 17 3
v 4 25 4
v 4 25 3
v 5 16 4
v 5 16 3
v 5 17 4
v 5 17 3
v 6 0 14
v 6 0 7
v 6 1 14
v 6 1 11
v 6 6 11
v 6 6 7
v 6 13 11
v 6 13 7
v 6 25 4
v 6 25 3
v 6 26 4
v 6 26 3
v 7 26 4
v 7 26 3
v 7 27 4
v 7 27 3
v 8 12 4
v 8 12 3
v 8 13 4
v 8 16 4
v 8 16 3
v 8 27 4
v 8 27 3
v 8 28 4
v 8 28 3
v 9 28 4
v 9 28 3
v 9 29 4
v 9 29 3
v 9 39 12
v 9 39 5
v 9 40 12
v 9 40 5
v 10 11 4
v 10 11 3
v 10 12 4
v 10 12 3
v 13 12 4
v 13 12 3
v 13 13 4
v 13 13 3
v -7 12 4
v -7 12 3
v -7 13 4
v -7 13 3
v -4 11 4
v -4 11 3
v -4 12 4
v -4 12 3
v -3 28 4
v -3 28 3
v -3 29 4
v -3 29 3
v -2 12 4
v -2 12 3
v -2 13 4
v -2 15 4
v -2 15 3
v -2 27 4
v -2 27 3
v -2 28 4
v -2 28 3
v -1 15 4
v -1 15 3
v -1 16 4
v -1 16 3
v -1 26 4
v -1 26 3
v -1 27 4
v -1 27 3
v -1 39 12
v -1 39 5
v -1 40 12
v -1 40 5
v 0 25 4
v 0 25 3
v 0 26 4
v 0 26 3
v 1 16 4
v 1 16 3
v 1 17 4
v 1 17 3
v 2 0 14
v 2 0 7
v 2 1 14
v 2 1 11
v 2 6 11
v 2 6 7
v 2 13 11
v 2 13 7
v 2 17 4
v 2 17 3
v 2 25 4
v 2 25 3
v 9 0 14
v 9 0 7
v 9 1 14
v 9 1 11
v 9 6 11
v 9 6 7
v 9 13 11
v 9 13 7
v 10 27 13
v 10 27 4
v 10 29 4
v 10 32 13
v 10 32 4
v 10 37 13
v 10 37 4
v 10 39 13
v 10 39 4
v 10 40 13
v 10 40 4
v 11 11 4
v 11 11 3
v 11 12 4
v 11 12 3
v 11 13 13
v 11 13 4
v 11 18 10
v 11 18 8
v 11 25 10
v 11 25 8
v 11 27 13
v 11 27 4
v 12 12 4
v 12 12 3
v 12 13 4
v 12 13 3
v 13 18 10
v 13 18 8
v 13 25 10
v 13 25 8
v 14 12 4
v 14 12 3
v 14 13 4
v 14 13 3
v 14 28 4
v 14 28 3
v 14 29 4
v 14 29 3
v 15 13 4
v 15 13 3
v 15 15 4
v 15 15 3
v 15 27 4
v 15 27 3
v 15 28 4
v 15 28 3
v 16 15 4
v 16 15 3
v 16 17 4
v 16 17 3
v 16 26 4
v 16 26 3
v 16 27 4
v 16 27 3
v 17 17 4
v 17 17 3
v 17 19 4
v 17 19 3
v 17 23 4
v 17 23 3
v 17 26 4
v 17 26 3
v 18 19 4
v 18 19 3
v 18 23 4
v 18 23 3
v -1 0 14
v -1 1 14
v 2 0 14
v 2 1 14
v 6 0 14
v 6 1 14
v 9 0 14
v 9 1 14
v -3 13 13
v -3 18 13
v -3 27 13
v -2 18 13
v -2 19 13
v -2 27 13
v -2 32 13
v -2 37 13
v -2 39 13
v -2 40 13
v -1 19 13
v -1 20 13
v -1 32 13
v -1 34 13
v 0 20 13
v 0 21 13
v 0 31 13
v 0 33 13
v 1 21 13
v 1 22 13
v 1 31 13
v 1 33 13
v 2 22 13
v 2 23 13
v 2 29 13
v 2 30 13
v 2 33 13
v 2 34 13
v 3 23 13
v 3 24 13
v 4 24 13
v 4 25 13
v 5 25 13
v 5 26 13
v 6 26 13
v 6 27 13
v 6 29 13
v 6 30 13
v 6 33 13
v 6 34 13
v 7 31 13
v 7 33 13
v 8 31 13
v 8 33 13
v 9 32 13
v 9 34 13
v 10 27 13
v 10 32 13
v 10 37 13
v 10 39 13
v 10 40 13
v 11 13 13
v 11 27 13
v -1 1 11
v -1 6 11
v -1 13 11
v 0 6 11
v 0 8 11
v 1 6 11
v 1 8 11
v 2 1 11
v 2 6 11
v 2 13 11
v 6 1 11
v 6 6 11
v 6 13 11
v 7 6 11
v 7 8 11
v 8 6 11
v 8 8 11
v 9 1 11
v 9 6 11
v 9 13 11
v -5 18 10
v -5 25 10
v -3 18 10
v -3 25 10
v 11 18 10
v 11 25 10
v 13 18 10
v 13 25 10
v -1 39 5
v -1 40 5
v 9 39 5
v 9 40 5
v -12 19 4
v -12 23 4
v -11 17 4
v -11 19 4
v -11 23 4
v -11 26 4
v -10 15 4
v -10 17 4
v -10 26 4
v -10 27 4
v -9 13 4
v -9 15 4
v -9 27 4
v -9 28 4
v -8 12 4
v -8 13 4
v -8 28 4
v -8 29 4
v -7 12 4
v -7 13 4
v -6 12 4
v -6 13 4
v -5 11 4
v -5 12 4
v -4 11 4
v -4 12 4
v -3 13 4
v -3 17 4
v -3 27 4
v -3 28 4
v -3 29 4
v -2 12 4
v -2 13 4
v -2 27 4
v -2 28 4
v 8 12 4
v 8 13 4
v 10 11 4
v 10 12 4
v 10 27 4
v 10 29 4
v 11 11 4
v 11 12 4
v 11 13 4
v 11 27 4
v 12 12 4
v 12 13 4
v 13 12 4
v 13 13 4
v 14 12 4
v 14 13 4
v 14 28 4
v 14 29 4
v 15 13 4
v 15 15 4
v 15 27 4
v 15 28 4
v 16 15 4
v 16 17 4
v 16 26 4
v 16 27 4
v 17 17 4
v 17 19 4
v 17 23 4
v 17 26 4
v 18 19 4
v 18 23 4
v -1 39 12
v -1 40 12
v 9 39 12
v 9 40 12
v -5 18 8
v -5 25 8
v -3 18 8
v -3 25 8
v 11 18 8
v 11 25 8
v 13 18 8
v 13 25 8
v -1 0 7
v -1 6 7
v -1 13 7
v 2 0 7
v 2 6 7
v 2 13 7
v 6 0 7
v 6 6 7
v 6 13 7
v 9 0 7
v 9 6 7
v 9 13 7
v -2 13 4
v -2 15 4
v -2 27 4
v -2 28 4
v -2 32 4
v -2 37 4
v -2 39 4
v -2 40 4
v -1 15 4
v -1 16 4
v -1 26 4
v -1 27 4
v 0 25 4
v 0 26 4
v 1 16 4
v 1 17 4
v 2 17 4
v 2 25 4
v 4 17 4
v 4 25 4
v 5 16 4
v 5 17 4
v 6 25 4
v 6 26 4
v 7 26 4
v 7 27 4
v 8 13 4
v 8 16 4
v 8 27 4
v 8 28 4
v 9 28 4
v 9 29 4
v 10 29 4
v 10 32 4
v 10 37 4
v 10 39 4
v 10 40 4
v -12 19 3
v -12 23 3
v -11 17 3
v -11 19 3
v -11 23 3
v -11 26 3
v -10 15 3
v -10 17 3
v -10 26 3
v -10 27 3
v -9 13 3
v -9 15 3
v -9 27 3
v -9 28 3
v -8 12 3
v -8 13 3
v -8 28 3
v -8 29 3
v -7 12 3
v -7 13 3
v -6 12 3
v -6 13 3
v -5 11 3
v -5 12 3
v -4 11 3
v -4 12 3
v -3 28 3
v -3 29 3
v -2 12 3
v -2 15 3
v -2 27 3
v -2 28 3
v -1 15 3
v -1 16 3
v -1 26 3
v -1 27 3
v 0 25 3
v 0 26 3
v 1 16 3
v 1 17 3
v 2 17 3
v 2 25 3
v 4 17 3
v 4 25 3
v 5 16 3
v 5 17 3
v 6 25 3
v 6 26 3
v 7 26 3
v 7 27 3
v 8 12 3
v 8 16 3
v 8 27 3
v 8 28 3
v 9 28 3
v 9 29 3
v 10 11 3
v 10 12 3
v 11 11 3
v 11 12 3
v 12 12 3
v 12 13 3
v 13 12 3
v 13 13 3
v 14 12 3
v 14 13 3
v 14 28 3
v 14 29 3
v 15 13 3
v 15 15 3
v 15 27 3
v 15 28 3
v 16 15 3
v 16 17 3
v 16 26 3
v 16 27 3
v 17 17 3
v 17 19 3
v 17 23 3
v 17 26 3
v 18 19 3
v 18 23 3
v -1 0 14
v 2 0 14
v 6 0 14
v 9 0 14
v -1 0 7
v 2 0 7
v 6 0 7
v 9 0 7
v -5 11 4
v -4 11 4
v 10 11 4
v 11 11 4
v -5 11 3
v -4 11 3
v 10 11 3
v 11 11 3
v -8 12 4
v -7 12 4
v -6 12 4
v -5 12 4
v -4 12 4
v -2 12 4
v 8 12 4
v 10 12 4
v 11 12 4
v 12 12 4
v 13 12 4
v 14 12 4
v -8 12 3
v -7 12 3
v -6 12 3
v -5 12 3
v -4 12 3
v -2 12 3
v 8 12 3
v 10 12 3
v 11 12 3
v 12 12 3
v 13 12 3
v 14 12 3
v -3 13 13
v 11 13 13
v -1 13 11
v 2 13 11
v 6 13 11
v 9 13 11
v -1 13 7
v 2 13 7
v 6 13 7
v 9 13 7
v -9 13 4
v -8 13 4
v -7 13 4
v -6 13 4
v -3 13 4
v -2 13 4
v 8 13 4
v 11 13 4
v 12 13 4
v 13 13 4
v 14 13 4
v 15 13 4
v -9 13 3
v -8 13 3
v -7 13 3
v -6 13 3
v 12 13 3
v 13 13 3
v 14 13 3
v 15 13 3
v -10 15 4
v -9 15 4
v -2 15 4
v -1 15 4
v 15 15 4
v 16 15 4
v -10 15 3
v -9 15 3
v -2 15 3
v -1 15 3
v 15 15 3
v 16 15 3
v -1 16 4
v 1 16 4
v 5 16 4
v 8 16 4
v -1 16 3
v 1 16 3
v 5 16 3
v 8 16 3
v -11 17 4
v -10 17 4
v 1 17 4
v 2 17 4
v 4 17 4
v 5 17 4
v 16 17 4
v 17 17 4
v -11 17 3
v -10 17 3
v 1 17 3
v 2 17 3
v 4 17 3
v 5 17 3
v 16 17 3
v 17 17 3
v -5 18 10
v -3 18 10
v 11 18 10
v 13 18 10
v -5 18 8
v -3 18 8
v 11 18 8
v 13 18 8
v -12 19 4
v -11 19 4
v 17 19 4
v 18 19 4
v -12 19 3
v -11 19 3
v 17 19 3
v 18 19 3
v -2 39 13
v 10 39 13
v -1 39 12
v 9 39 12
v -1 39 5
v 9 39 5
v -2 39 4
v 10 39 4
v -1 1 14
v 2 1 14
v 6 1 14
v 9 1 14
v -1 1 11
v 2 1 11
v 6 1 11
v 9 1 11
v -12 23 4
v -11 23 4
v 17 23 4
v 18 23 4
v -12 23 3
v -11 23 3
v 17 23 3
v 18 23 3
v -5 25 10
v -3 25 10
v 11 25 10
v 13 25 10
v -5 25 8
v -3 25 8
v 11 25 8
v 13 25 8
v 0 25 4
v 2 25 4
v 4 25 4
v 6 25 4
v 0 25 3
v 2 25 3
v 4 25 3
v 6 25 3
v -11 26 4
v -10 26 4
v -1 26 4
v 0 26 4
v 6 26 4
v 7 26 4
v 16 26 4
v 17 26 4
v -11 26 3
v -10 26 3
v -1 26 3
v 0 26 3
v 6 26 3
v 7 26 3
v 16 26 3
v 17 26 3
v -3 27 13
v -2 27 13
v 10 27 13
v 11 27 13
v -10 27 4
v -9 27 4
v -3 27 4
v -2 27 4
v -1 27 4
v 7 27 4
v 8 27 4
v 10 27 4
v 11 27 4
v 15 27 4
v 16 27 4
v -10 27 3
v -9 27 3
v -2 27 3
v -1 27 3
v 7 27 3
v 8 27 3
v 15 27 3
v 16 27 3
v -9 28 4
v -8 28 4
v -3 28 4
v -2 28 4
v 8 28 4
v 9 28 4
v 14 28 4
v 15 28 4
v -9 28 3
v -8 28 3
v -3 28 3
v -2 28 3
v 8 28 3
v 9 28 3
v 14 28 3
v 15 28 3
v -8 29 4
v -3 29 4
v 9 29 4
v 10 29 4
v 14 29 4
v -8 29 3
v -3 29 3
v 9 29 3
v 14 29 3
v -2 37 13
v 10 37 13
v -2 37 4
v 10 37 4
v -2 40 13
v 10 40 13
v -1 40 12
v 9 40 12
v -1 40 5
v 9 40 5
v -2 40 4
v 10 40 4

# faces
f 3/6/1 2/6/1 1/6/1
f 4/6/1 2/6/1 3/6/1
f 7/6/1 6/6/1 5/6/1
f 8/6/1 6/6/1 7/6/1
f 11/6/1 10/6/1 9/6/1
f 12/6/1 10/6/1 11/6/1
f 15/6/1 14/6/1 13/6/1
f 16/6/1 14/6/1 15/6/1
f 19/6/1 18/6/1 17/6/1
f 20/6/1 18/6/1 19/6/1
f 23/6/1 22/6/1 21/6/1
f 24/6/1 22/6/1 23/6/1
f 27/6/1 26/6/1 25/6/1
f 28/6/1 26/6/1 27/6/1
f 31/6/1 30/6/1 29/6/1
f 32/6/1 30/6/1 31/6/1
f 35/6/1 34/6/1 33/6/1
f 36/6/1 34/6/1 35/6/1
f 39/6/1 38/6/1 37/6/1
f 40/6/1 38/6/1 39/6/1
f 43/6/1 42/6/1 41/6/1
f 44/6/1 42/6/1 43/6/1
f 47/2/1 46/2/1 45/2/1
f 48/2/1 46/2/1 47/2/1
f 51/6/1 50/6/1 49/6/1
f 52/6/1 50/6/1 51/6/1
f 53/6/1 51/6/1 49/6/1
f 54/2/1 52/2/1 51/2/1
f 54/6/1 51/6/1 53/6/1
f 55/2/1 52/2/1 54/2/1
f 56/2/1 52/2/1 55/2/1
f 57/2/1 54/2/1 53/2/1
f 57/2/1 55/2/1 54/2/1
f 58/2/1 52/2/1 56/2/1
f 59/2/1 57/2/1 53/2/1
f 59/2/1 58/2/1 57/2/1
f 60/2/1 52/2/1 58/2/1
f 60/2/1 58/2/1 59/2/1
f 63/2/1 62/2/1 61/2/1
f 64/2/1 63/2/1 61/2/1
f 65/2/1 63/2/1 64/2/1
f 66/3/1 65/3/1 64/3/1
f 67/3/1 65/3/1 66/3/1
f 70/1/1 69/1/1 68/1/1
f 71/1/1 69/1/1 70/1/1
f 74/2/1 73/2/1 72/2/1
f 75/2/1 73/2/1 74/2/1
f 76/2/1 73/2/1 75/2/1
f 77/2/1 73/2/1 76/2/1
f 78/6/1 77/6/1 76/6/1
f 79/6/1 77/6/1 78/6/1
f 82/6/1 81/6/1 80/6/1
f 83/6/1 81/6/1 82/6/1
f 86/6/1 85/6/1 84/6/1
f 87/6/1 85/6/1 86/6/1
f 90/2/1 89/2/1 88/2/1
f 91/2/1 89/2/1 90/2/1
f 92/2/1 89/2/1 91/2/1
f 93/2/1 89/2/1 92/2/1
f 94/6/1 93/6/1 92/6/1
f 95/6/1 93/6/1 94/6/1
f 98/6/1 97/6/1 96/6/1
f 99/6/1 97/6/1 98/6/1
f 102/6/1 101/6/1 100/6/1
f 103/6/1 101/6/1 102/6/1
f 106/6/1 105/6/1 104/6/1
f 107/6/1 105/6/1 106/6/1
f 108/6/1 105/6/1 107/6/1
f 111/6/1 110/6/1 109/6/1
f 112/6/1 110/6/1 111/6/1
f 115/6/1 114/6/1 113/6/1
f 116/6/1 114/6/1 115/6/1
f 119/1/1 118/1/1 117/1/1
f 120/1/1 118/1/1 119/1/1
f 123/6/1 122/6/1 121/6/1
f 124/6/1 122/6/1 123/6/1
f 127/6/1 126/6/1 125/6/1
f 128/6/1 126/6/1 127/6/1
f 129/6/2 130/6/2 131/6/2
f 131/6/2 130/6/2 132/6/2
f 133/6/2 134/6/2 135/6/2
f 135/6/2 134/6/2 136/6/2
f 137/6/2 138/6/2 139/6/2
f 139/6/2 138/6/2 140/6/2
f 141/6/2 142/6/2 143/6/2
f 143/6/2 142/6/2 144/6/2
f 144/6/2 142/6/2 145/6/2
f 146/6/2 147/6/2 148/6/2
f 148/6/2 147/6/2 149/6/2
f 150/6/2 151/6/2 152/6/2
f 152/6/2 151/6/2 153/6/2
f 154/6/2 155/6/2 156/6/2
f 156/6/2 155/6/2 157/6/2
f 158/1/2 159/1/2 160/1/2
f 160/1/2 159/1/2 161/1/2
f 162/6/2 163/6/2 164/6/2
f 164/6/2 163/6/2 165/6/2
f 166/6/2 167/6/2 168/6/2
f 168/6/2 167/6/2 169/6/2
f 170/2/2 171/2/2 172/2/2
f 172/2/2 171/2/2 173/2/2
f 173/2/2 171/2/2 174/2/2
f 174/2/2 171/2/2 175/2/2
f 174/6/2 175/6/2 176/6/2
f 176/6/2 175/6/2 177/6/2
f 178/6/2 179/6/2 180/6/2
f 180/6/2 179/6/2 181/6/2
f 182/2/2 183/2/2 184/2/2
f 184/2/2 183/2/2 185/2/2
f 185/2/2 183/2/2 186/2/2
f 186/2/2 183/2/2 187/2/2
f 186/6/2 187/6/2 188/6/2
f 188/6/2 187/6/2 189/6/2
f 190/2/2 191/2/2 192/2/2
f 190/2/2 192/2/2 193/2/2
f 193/2/2 192/2/2 194/2/2
f 193/3/2 194/3/2 195/3/2
f 195/3/2 194/3/2 196/3/2
f 197/1/2 198/1/2 199/1/2
f 199/1/2 198/1/2 200/1/2
f 201/6/2 202/6/2 203/6/2
f 203/6/2 202/6/2 204/6/2
f 205/6/2 206/6/2 207/6/2
f 207/6/2 206/6/2 208/6/2
f 205/6/2 207/6/2 209/6/2
f 208/6/2 206/6/2 210/6/2
f 205/6/2 209/6/2 211/6/2
f 209/6/2 210/6/2 211/6/2
f 210/6/2 206/6/2 212/6/2
f 211/6/2 210/6/2 212/6/2
f 213/6/2 214/6/2 215/6/2
f 215/6/2 214/6/2 216/6/2
f 217/2/2 218/2/2 219/2/2
f 219/2/2 218/2/2 220/2/2
f 221/6/2 222/6/2 223/6/2
f 223/6/2 222/6/2 224/6/2
f 225/6/2 226/6/2 227/6/2
f 227/6/2 226/6/2 228/6/2
f 229/6/2 230/6/2 231/6/2
f 231/6/2 230/6/2 232/6/2
f 233/6/2 234/6/2 235/6/2
f 235/6/2 234/6/2 236/6/2
f 237/6/2 238/6/2 239/6/2
f 239/6/2 238/6/2 240/6/2
f 241/6/2 242/6/2 243/6/2
f 243/6/2 242/6/2 244/6/2
f 245/6/2 246/6/2 247/6/2
f 247/6/2 246/6/2 248/6/2
f 249/6/2 250/6/2 251/6/2
f 251/6/2 250/6/2 252/6/2
f 253/6/2 254/6/2 255/6/2
f 255/6/2 254/6/2 256/6/2
f 259/2/3 258/2/3 257/2/3
f 260/2/3 258/2/3 259/2/3
f 263/2/3 262/2/3 261/2/3
f 264/2/3 262/2/3 263/2/3
f 268/6/3 266/6/3 265/6/3
f 268/2/3 267/2/3 266/2/3
f 269/2/3 267/2/3 268/2/3
f 270/2/3 267/2/3 269/2/3
f 275/6/3 269/6/3 268/6/3
f 275/2/3 270/2/3 269/2/3
f 275/2/3 271/2/3 270/2/3
f 276/2/3 271/2/3 275/2/3
f 277/3/3 272/3/3 271/3/3
f 277/2/3 271/2/3 276/2/3
f 278/3/3 272/3/3 277/3/3
f 279/6/3 276/6/3 275/6/3
f 279/2/3 277/2/3 276/2/3
f 279/2/3 278/2/3 277/2/3
f 280/2/3 278/2/3 279/2/3
f 281/2/3 278/2/3 280/2/3
f 282/2/3 278/2/3 281/2/3
f 283/6/3 280/6/3 279/6/3
f 283/2/3 281/2/3 280/2/3
f 284/2/3 281/2/3 283/2/3
f 285/5/3 282/5/3 281/5/3
f 285/2/3 281/2/3 284/2/3
f 286/2/3 278/2/3 282/2/3
f 286/5/3 282/5/3 285/5/3
f 287/2/3 285/2/3 284/2/3
f 287/6/3 284/6/3 283/6/3
f 287/2/3 286/2/3 285/2/3
f 288/2/3 286/2/3 287/2/3
f 289/2/3 286/2/3 288/2/3
f 290/2/3 286/2/3 289/2/3
f 291/2/3 278/2/3 286/2/3
f 291/2/3 286/2/3 290/2/3
f 292/3/3 272/3/3 278/3/3
f 292/2/3 278/2/3 291/2/3
f 293/6/3 288/6/3 287/6/3
f 293/2/3 289/2/3 288/2/3
f 294/2/3 289/2/3 293/2/3
f 295/6/3 294/6/3 293/6/3
f 295/2/3 289/2/3 294/2/3
f 296/2/3 289/2/3 295/2/3
f 297/6/3 296/6/3 295/6/3
f 297/2/3 289/2/3 296/2/3
f 298/2/3 289/2/3 297/2/3
f 299/6/3 298/6/3 297/6/3
f 299/2/3 289/2/3 298/2/3
f 300/2/3 289/2/3 299/2/3
f 301/5/3 290/5/3 289/5/3
f 301/2/3 289/2/3 300/2/3
f 302/2/3 291/2/3 290/2/3
f 302/5/3 290/5/3 301/5/3
f 303/3/3 292/3/3 291/3/3
f 303/2/3 291/2/3 302/2/3
f 304/3/3 272/3/3 292/3/3
f 304/3/3 292/3/3 303/3/3
f 305/2/3 301/2/3 300/2/3
f 305/2/3 303/2/3 302/2/3
f 305/2/3 304/2/3 303/2/3
f 305/2/3 302/2/3 301/2/3
f 306/2/3 304/2/3 305/2/3
f 307/2/3 305/2/3 300/2/3
f 307/5/3 306/5/3 305/5/3
f 308/2/3 304/2/3 306/2/3
f 308/5/3 306/5/3 307/5/3
f 309/2/3 308/2/3 307/2/3
f 310/3/3 272/3/3 304/3/3
f 310/2/3 308/2/3 309/2/3
f 310/2/3 304/2/3 308/2/3
f 311/2/3 309/2/3 307/2/3
f 311/6/3 300/6/3 299/6/3
f 311/2/3 307/2/3 300/2/3
f 312/3/3 310/3/3 309/3/3
f 312/2/3 309/2/3 311/2/3
f 313/3/3 272/3/3 310/3/3
f 313/3/3 310/3/3 312/3/3
f 314/1/3 274/1/3 273/1/3
f 315/1/3 274/1/3 314/1/3
f 316/6/3 268/6/3 265/6/3
f 316/6/3 295/6/3 293/6/3
f 316/6/3 293/6/3 287/6/3
f 316/6/3 297/6/3 295/6/3
f 316/6/3 299/6/3 297/6/3
f 316/6/3 287/6/3 283/6/3
f 316/6/3 283/6/3 279/6/3
f 316/6/3 311/6/3 299/6/3
f 316/6/3 279/6/3 275/6/3
f 316/6/3 275/6/3 268/6/3
f 317/6/3 311/6/3 316/6/3
f 321/2/3 319/2/3 318/2/3
f 321/6/3 320/6/3 319/6/3
f 322/6/3 320/6/3 321/6/3
f 323/2/3 321/2/3 318/2/3
f 323/2/3 322/2/3 321/2/3
f 324/6/3 320/6/3 322/6/3
f 324/2/3 322/2/3 323/2/3
f 325/2/3 323/2/3 318/2/3
f 326/6/3 324/6/3 323/6/3
f 326/2/3 323/2/3 325/2/3
f 327/6/3 320/6/3 324/6/3
f 327/6/3 324/6/3 326/6/3
f 331/2/3 329/2/3 328/2/3
f 331/6/3 330/6/3 329/6/3
f 332/6/3 330/6/3 331/6/3
f 333/2/3 331/2/3 328/2/3
f 333/2/3 332/2/3 331/2/3
f 334/6/3 330/6/3 332/6/3
f 334/2/3 332/2/3 333/2/3
f 335/2/3 333/2/3 328/2/3
f 336/6/3 334/6/3 333/6/3
f 336/2/3 333/2/3 335/2/3
f 337/6/3 330/6/3 334/6/3
f 337/6/3 334/6/3 336/6/3
f 340/2/3 339/2/3 338/2/3
f 341/2/3 339/2/3 340/2/3
f 344/2/3 343/2/3 342/2/3
f 345/2/3 343/2/3 344/2/3
f 348/1/3 347/1/3 346/1/3
f 349/1/3 347/1/3 348/1/3
f 353/6/3 351/6/3 350/6/3
f 354/6/3 351/6/3 353/6/3
f 357/6/3 353/6/3 352/6/3
f 357/6/3 355/6/3 354/6/3
f 357/6/3 354/6/3 353/6/3
f 358/6/3 355/6/3 357/6/3
f 361/6/3 357/6/3 356/6/3
f 361/6/3 359/6/3 358/6/3
f 361/6/3 358/6/3 357/6/3
f 362/6/3 359/6/3 361/6/3
f 365/6/3 361/6/3 360/6/3
f 365/6/3 363/6/3 362/6/3
f 365/6/3 362/6/3 361/6/3
f 366/6/3 363/6/3 365/6/3
f 368/6/3 365/6/3 364/6/3
f 368/6/3 367/6/3 366/6/3
f 368/6/3 366/6/3 365/6/3
f 369/6/3 367/6/3 368/6/3
f 371/6/3 367/6/3 369/6/3
f 373/6/3 371/6/3 370/6/3
f 374/6/3 373/6/3 372/6/3
f 375/6/3 371/6/3 373/6/3
f 375/6/3 373/6/3 374/6/3
f 376/6/3 367/6/3 371/6/3
f 376/6/3 371/6/3 375/6/3
f 377/6/3 367/6/3 376/6/3
f 378/6/3 367/6/3 377/6/3
f 379/6/3 367/6/3 378/6/3
f 380/6/3 367/6/3 379/6/3
f 381/6/3 376/6/3 375/6/3
f 382/6/3 376/6/3 381/6/3
f 383/6/3 379/6/3 378/6/3
f 384/6/3 379/6/3 383/6/3
f 388/6/3 386/6/3 385/6/3
f 391/6/3 388/6/3 387/6/3
f 392/6/3 386/6/3 388/6/3
f 392/6/3 388/6/3 391/6/3
f 393/6/3 386/6/3 392/6/3
f 394/6/3 390/6/3 389/6/3
f 395/6/3 393/6/3 392/6/3
f 395/6/3 394/6/3 393/6/3
f 396/6/3 394/6/3 395/6/3
f 398/6/3 394/6/3 396/6/3
f 399/6/3 398/6/3 397/6/3
f 400/6/3 394/6/3 398/6/3
f 400/6/3 398/6/3 399/6/3
f 401/6/3 390/6/3 394/6/3
f 401/6/3 394/6/3 400/6/3
f 402/6/3 390/6/3 401/6/3
f 403/6/3 401/6/3 400/6/3
f 404/6/3 401/6/3 403/6/3
f 405/6/3 401/6/3 404/6/3
f 406/6/3 401/6/3 405/6/3
f 407/6/3 405/6/3 404/6/3
f 408/6/3 405/6/3 407/6/3
f 409/6/3 405/6/3 408/6/3
f 410/6/3 405/6/3 409/6/3
f 411/6/3 409/6/3 408/6/3
f 412/6/3 409/6/3 411/6/3
f 413/6/3 409/6/3 412/6/3
f 414/6/3 409/6/3 413/6/3
f 415/6/3 413/6/3 412/6/3
f 416/6/3 413/6/3 415/6/3
f 417/1/4 418/1/4 419/1/4
f 419/1/4 418/1/4 420/1/4
f 421/2/4 422/2/4 423/2/4
f 423/2/4 422/2/4 424/2/4
f 425/2/4 426/2/4 427/2/4
f 427/2/4 426/2/4 428/2/4
f 429/2/4 430/2/4 432/2/4
f 430/6/4 431/6/4 433/6/4
f 432/2/4 430/2/4 433/2/4
f 433/6/4 431/6/4 434/6/4
f 435/2/4 436/2/4 438/2/4
f 436/6/4 437/6/4 439/6/4
f 438/2/4 436/2/4 439/2/4
f 439/6/4 437/6/4 440/6/4
f 441/6/4 442/6/4 449/6/4
f 443/2/4 444/2/4 452/2/4
f 444/2/4 445/2/4 452/2/4
f 451/6/4 452/6/4 454/6/4
f 449/6/4 450/6/4 455/6/4
f 455/6/4 456/6/4 457/6/4
f 453/6/4 454/6/4 458/6/4
f 455/6/4 457/6/4 459/6/4
f 457/6/4 458/6/4 459/6/4
f 458/6/4 454/6/4 460/6/4
f 459/6/4 458/6/4 460/6/4
f 455/6/4 459/6/4 461/6/4
f 449/6/4 455/6/4 461/6/4
f 461/6/4 459/6/4 462/6/4
f 460/6/4 454/6/4 463/6/4
f 454/6/4 452/6/4 464/6/4
f 463/6/4 454/6/4 464/6/4
f 464/6/4 452/6/4 465/6/4
f 452/2/4 445/2/4 466/2/4
f 465/6/4 452/6/4 466/6/4
f 449/6/4 461/6/4 467/6/4
f 441/6/4 449/6/4 467/6/4
f 467/6/4 461/6/4 468/6/4
f 466/2/4 445/2/4 469/2/4
f 469/2/4 445/2/4 470/2/4
f 470/2/4 445/2/4 471/2/4
f 471/2/4 445/2/4 472/2/4
f 472/2/4 445/2/4 473/2/4
f 445/3/4 446/3/4 474/3/4
f 473/2/4 445/2/4 474/2/4
f 474/3/4 446/3/4 475/3/4
f 447/1/4 448/1/4 476/1/4
f 476/1/4 448/1/4 477/1/4
f 478/6/4 479/6/4 481/6/4
f 481/6/4 479/6/4 482/6/4
f 480/6/4 481/6/4 485/6/4
f 482/6/4 483/6/4 485/6/4
f 481/6/4 482/6/4 485/6/4
f 485/6/4 483/6/4 486/6/4
f 484/6/4 485/6/4 489/6/4
f 486/6/4 487/6/4 489/6/4
f 485/6/4 486/6/4 489/6/4
f 489/6/4 487/6/4 490/6/4
f 488/6/4 489/6/4 493/6/4
f 490/6/4 491/6/4 493/6/4
f 489/6/4 490/6/4 493/6/4
f 493/6/4 491/6/4 494/6/4
f 492/6/4 493/6/4 496/6/4
f 494/6/4 495/6/4 496/6/4
f 493/6/4 494/6/4 496/6/4
f 496/6/4 495/6/4 497/6/4
f 497/6/4 495/6/4 499/6/4
f 498/6/4 499/6/4 501/6/4
f 500/6/4 501/6/4 502/6/4
f 501/6/4 499/6/4 503/6/4
f 502/6/4 501/6/4 503/6/4
f 499/6/4 495/6/4 504/6/4
f 503/6/4 499/6/4 504/6/4
f 504/6/4 495/6/4 505/6/4
f 503/6/4 504/6/4 506/6/4
f 506/6/4 504/6/4 507/6/4
f 507/6/4 504/6/4 508/6/4
f 508/6/4 504/6/4 509/6/4
f 507/6/4 508/6/4 510/6/4
f 510/6/4 508/6/4 511/6/4
f 511/6/4 508/6/4 512/6/4
f 512/6/4 508/6/4 513/6/4
f 511/6/4 512/6/4 514/6/4
f 514/6/4 512/6/4 515/6/4
f 511/6/4 514/6/4 516/6/4
f 516/6/4 514/6/4 517/6/4
f 517/6/4 514/6/4 518/6/4
f 518/6/4 514/6/4 519/6/4
f 520/6/4 521/6/4 523/6/4
f 523/6/4 521/6/4 524/6/4
f 522/6/4 523/6/4 524/6/4
f 524/6/4 525/6/4 526/6/4
f 524/6/4 526/6/4 529/6/4
f 526/6/4 527/6/4 529/6/4
f 522/6/4 524/6/4 529/6/4
f 529/6/4 527/6/4 530/6/4
f 529/6/4 530/6/4 532/6/4
f 530/6/4 531/6/4 532/6/4
f 528/6/4 529/6/4 532/6/4
f 528/6/4 532/6/4 535/6/4
f 532/6/4 533/6/4 535/6/4
f 534/6/4 535/6/4 536/6/4
f 535/6/4 533/6/4 537/6/4
f 536/6/4 535/6/4 537/6/4
f 537/6/4 533/6/4 538/6/4
f 538/6/4 533/6/4 539/6/4
f 539/6/4 533/6/4 541/6/4
f 540/6/4 541/6/4 542/6/4
f 541/6/4 533/6/4 543/6/4
f 542/6/4 541/6/4 543/6/4
f 543/6/4 533/6/4 544/6/4
f 544/6/4 533/6/4 545/6/4
f 543/6/4 544/6/4 546/6/4
f 546/6/4 544/6/4 547/6/4
f 547/6/4 544/6/4 548/6/4
f 548/6/4 544/6/4 549/6/4
f 547/6/4 548/6/4 550/6/4
f 550/6/4 548/6/4 551/6/4
f 551/6/4 548/6/4 552/6/4
f 552/6/4 548/6/4 553/6/4
f 551/6/4 552/6/4 554/6/4
f 554/6/4 552/6/4 555/6/4
f 555/6/4 552/6/4 556/6/4
f 556/6/4 552/6/4 557/6/4
f 555/6/4 556/6/4 558/6/4
f 558/6/4 556/6/4 559/6/4
f 564/2/5 561/2/5 560/2/5
f 565/2/5 561/2/5 564/2/5
f 566/2/5 563/2/5 562/2/5
f 567/2/5 563/2/5 566/2/5
f 572/6/5 569/6/5 568/6/5
f 573/6/5 569/6/5 572/6/5
f 574/6/5 571/6/5 570/6/5
f 575/6/5 571/6/5 574/6/5
f 588/6/5 577/6/5 576/6/5
f 589/6/5 577/6/5 588/6/5
f 590/6/5 579/6/5 578/6/5
f 591/6/5 579/6/5 590/6/5
f 592/6/5 581/6/5 580/6/5
f 593/6/5 581/6/5 592/6/5
f 594/6/5 583/6/5 582/6/5
f 595/6/5 583/6/5 594/6/5
f 596/6/5 585/6/5 584/6/5
f 597/6/5 585/6/5 596/6/5
f 598/6/5 587/6/5 586/6/5
f 599/6/5 587/6/5 598/6/5
f 602/6/5 601/6/5 600/6/5
f 603/6/5 601/6/5 602/6/5
f 604/6/5 601/6/5 603/6/5
f 605/6/5 601/6/5 604/6/5
f 606/6/5 602/6/5 600/6/5
f 607/6/5 604/6/5 603/6/5
f 608/6/5 604/6/5 607/6/5
f 609/6/5 601/6/5 605/6/5
f 614/6/5 608/6/5 607/6/5
f 614/6/5 606/6/5 600/6/5
f 614/6/5 607/6/5 606/6/5
f 614/6/5 609/6/5 608/6/5
f 615/6/5 609/6/5 614/6/5
f 616/6/5 609/6/5 615/6/5
f 617/6/5 601/6/5 609/6/5
f 617/6/5 609/6/5 616/6/5
f 622/6/5 611/6/5 610/6/5
f 623/6/5 611/6/5 622/6/5
f 624/6/5 613/6/5 612/6/5
f 625/6/5 613/6/5 624/6/5
f 626/6/5 619/6/5 618/6/5
f 627/6/5 619/6/5 626/6/5
f 628/6/5 621/6/5 620/6/5
f 629/6/5 621/6/5 628/6/5
f 636/6/5 631/6/5 630/6/5
f 637/6/5 631/6/5 636/6/5
f 638/6/5 633/6/5 632/6/5
f 639/6/5 633/6/5 638/6/5
f 640/6/5 635/6/5 634/6/5
f 641/6/5 635/6/5 640/6/5
f 646/6/5 643/6/5 642/6/5
f 647/6/5 643/6/5 646/6/5
f 648/6/5 645/6/5 644/6/5
f 649/6/5 645/6/5 648/6/5
f 658/6/5 651/6/5 650/6/5
f 659/6/5 651/6/5 658/6/5
f 660/6/5 653/6/5 652/6/5
f 661/6/5 653/6/5 660/6/5
f 662/6/5 655/6/5 654/6/5
f 663/6/5 655/6/5 662/6/5
f 664/6/5 657/6/5 656/6/5
f 665/6/5 657/6/5 664/6/5
f 670/2/5 667/2/5 666/2/5
f 671/2/5 667/2/5 670/2/5
f 672/2/5 669/2/5 668/2/5
f 673/2/5 669/2/5 672/2/5
f 678/6/5 675/6/5 674/6/5
f 679/6/5 675/6/5 678/6/5
f 680/6/5 677/6/5 676/6/5
f 681/6/5 677/6/5 680/6/5
f 684/1/5 683/1/5 682/1/5
f 685/1/5 683/1/5 684/1/5
f 686/1/5 684/1/5 682/1/5
f 687/1/5 683/1/5 685/1/5
f 688/1/5 686/1/5 682/1/5
f 688/1/5 687/1/5 686/1/5
f 689/1/5 683/1/5 687/1/5
f 689/1/5 687/1/5 688/1/5
f 690/2/6 691/2/6 694/2/6
f 694/2/6 691/2/6 695/2/6
f 692/2/6 693/2/6 696/2/6
f 696/2/6 693/2/6 697/2/6
f 698/6/6 699/6/6 702/6/6
f 702/6/6 699/6/6 703/6/6
f 700/6/6 701/6/6 704/6/6
f 704/6/6 701/6/6 705/6/6
f 706/2/6 707/2/6 710/2/6
f 710/2/6 707/2/6 711/2/6
f 708/2/6 709/2/6 712/2/6
f 712/2/6 709/2/6 713/2/6
f 714/6/6 715/6/6 718/6/6
f 718/6/6 715/6/6 719/6/6
f 716/6/6 717/6/6 720/6/6
f 720/6/6 717/6/6 721/6/6
f 722/6/6 723/6/6 730/6/6
f 730/6/6 723/6/6 731/6/6
f 724/6/6 725/6/6 732/6/6
f 732/6/6 725/6/6 733/6/6
f 726/6/6 727/6/6 734/6/6
f 734/6/6 727/6/6 735/6/6
f 728/6/6 729/6/6 736/6/6
f 736/6/6 729/6/6 737/6/6
f 738/2/6 739/2/6 744/2/6
f 744/2/6 739/2/6 745/2/6
f 740/6/6 741/6/6 749/6/6
f 749/6/6 741/6/6 750/6/6
f 742/6/6 743/6/6 753/6/6
f 753/6/6 743/6/6 754/6/6
f 745/6/6 746/6/6 755/6/6
f 755/6/6 746/6/6 756/6/6
f 747/6/6 748/6/6 757/6/6
f 757/6/6 748/6/6 758/6/6
f 751/6/6 752/6/6 759/6/6
f 759/6/6 752/6/6 760/6/6
f 761/6/6 762/6/6 769/6/6
f 769/6/6 762/6/6 770/6/6
f 763/6/6 764/6/6 771/6/6
f 771/6/6 764/6/6 772/6/6
f 765/6/6 766/6/6 773/6/6
f 773/6/6 766/6/6 774/6/6
f 767/6/6 768/6/6 775/6/6
f 775/6/6 768/6/6 776/6/6
f 777/6/6 778/6/6 782/6/6
f 782/6/6 778/6/6 783/6/6
f 780/6/6 781/6/6 784/6/6
f 779/6/6 780/6/6 784/6/6
f 784/6/6 781/6/6 785/6/6
f 786/3/6 787/3/6 788/3/6
f 788/3/6 787/3/6 789/3/6
f 790/1/6 791/1/6 792/1/6
f 792/1/6 791/1/6 793/1/6
f 790/1/6 792/1/6 794/1/6
f 793/1/6 791/1/6 795/1/6
f 790/1/6 794/1/6 796/1/6
f 794/1/6 795/1/6 796/1/6
f 795/1/6 791/1/6 797/1/6
f 796/1/6 795/1/6 797/1/6
