# MagicaVoxel @ Ephtracy

# group
g Player22

# material
mtllib Player22.mtl
usemtl palette

# normals
vn -1 0 0
vn 1 0 0
vn 0 0 1
vn 0 0 -1
vn 0 -1 0
vn 0 1 0

# texcoords
vt 0.0175781 0.5
vt 0.294922 0.5
vt 0.298828 0.5
vt 0.419922 0.5
vt 0.650391 0.5
vt 0.955078 0.5
vt 0.962891 0.5
vt 0.994141 0.5

# verts
v -5 18 10
v -5 18 8
v -5 21 10
v -5 21 8
v -5 25 10
v -5 25 8
v -3 13 13
v -3 13 4
v -3 17 13
v -3 17 4
v -3 18 13
v -3 18 10
v -3 18 8
v -3 18 4
v -3 21 10
v -3 21 8
v -3 25 10
v -3 25 8
v -3 27 13
v -3 27 4
v -2 27 13
v -2 27 4
v -2 32 13
v -2 32 4
v -2 36 15
v -2 36 13
v -2 36 4
v -2 37 15
v -2 37 4
v -1 0 14
v -1 0 7
v -1 1 14
v -1 1 11
v -1 3 11
v -1 3 10
v -1 3 9
v -1 3 7
v -1 13 11
v -1 13 10
v -1 13 9
v -1 13 7
v -1 39 14
v -1 39 5
v -1 40 14
v -1 40 5
v 0 37 13
v 0 37 6
v 0 39 13
v 0 39 6
v 3 17 14
v 3 17 13
v 3 18 14
v 3 18 13
v 3 39 15
v 3 39 14
v 3 40 15
v 3 40 14
v 6 0 14
v 6 0 7
v 6 1 14
v 6 1 11
v 6 3 11
v 6 3 7
v 6 13 11
v 6 13 7
v 2 0 14
v 2 0 7
v 2 1 14
v 2 1 11
v 2 3 11
v 2 3 7
v 2 13 11
v 2 13 7
v 5 17 14
v 5 17 13
v 5 18 14
v 5 18 13
v 5 39 15
v 5 39 14
v 5 40 15
v 5 40 14
v 8 37 13
v 8 37 6
v 8 39 13
v 8 39 6
v 9 0 14
v 9 0 7
v 9 1 14
v 9 1 11
v 9 3 11
v 9 3 10
v 9 3 9
v 9 3 7
v 9 13 11
v 9 13 10
v 9 13 9
v 9 13 7
v 9 39 14
v 9 39 5
v 9 40 14
v 9 40 5
v 10 27 13
v 10 27 4
v 10 32 13
v 10 32 4
v 10 36 15
v 10 36 13
v 10 36 4
v 10 37 15
v 10 37 4
v 11 13 13
v 11 13 4
v 11 17 13
v 11 17 4
v 11 18 13
v 11 18 10
v 11 18 8
v 11 18 4
v 11 21 10
v 11 21 8
v 11 25 10
v 11 25 8
v 11 27 13
v 11 27 4
v 13 18 10
v 13 18 8
v 13 21 10
v 13 21 8
v 13 25 10
v 13 25 8
v -2 36 15
v -2 37 15
v 3 39 15
v 3 40 15
v 5 39 15
v 5 40 15
v 10 36 15
v 10 37 15
v -1 0 14
v -1 1 14
v -1 39 14
v -1 40 14
v 2 0 14
v 2 1 14
v 3 17 14
v 3 18 14
v 3 39 14
v 3 40 14
v 5 17 14
v 5 18 14
v 5 39 14
v 5 40 14
v 6 0 14
v 6 1 14
v 9 0 14
v 9 1 14
v 9 39 14
v 9 40 14
v -3 13 13
v -3 17 13
v -3 18 13
v -3 27 13
v -2 27 13
v -2 32 13
v -2 36 13
v -1 25 13
v -1 26 13
v -1 32 13
v -1 34 13
v 0 31 13
v 0 33 13
v 0 37 13
v 0 39 13
v 1 25 13
v 1 26 13
v 1 31 13
v 1 33 13
v 2 29 13
v 2 30 13
v 2 33 13
v 2 34 13
v 3 17 13
v 3 18 13
v 5 17 13
v 5 18 13
v 6 23 13
v 6 25 13
v 6 29 13
v 6 30 13
v 6 33 13
v 6 34 13
v 7 31 13
v 7 33 13
v 8 23 13
v 8 25 13
v 8 31 13
v 8 33 13
v 8 37 13
v 8 39 13
v 9 32 13
v 9 34 13
v 10 27 13
v 10 32 13
v 10 36 13
v 11 13 13
v 11 17 13
v 11 18 13
v 11 27 13
v -1 1 11
v -1 3 11
v -1 13 11
v 2 1 11
v 2 3 11
v 2 13 11
v 6 1 11
v 6 3 11
v 6 13 11
v 9 1 11
v 9 3 11
v 9 13 11
v -5 18 10
v -5 21 10
v -5 25 10
v -3 18 10
v -3 21 10
v -3 25 10
v 11 18 10
v 11 21 10
v 11 25 10
v 13 18 10
v 13 21 10
v 13 25 10
v -5 18 8
v -5 21 8
v -5 25 8
v -3 18 8
v -3 21 8
v -3 25 8
v 11 18 8
v 11 21 8
v 11 25 8
v 13 18 8
v 13 21 8
v 13 25 8
v -1 0 7
v -1 3 7
v -1 13 7
v 2 0 7
v 2 3 7
v 2 13 7
v 6 0 7
v 6 3 7
v 6 13 7
v 9 0 7
v 9 3 7
v 9 13 7
v 0 37 6
v 0 39 6
v 8 37 6
v 8 39 6
v -1 39 5
v -1 40 5
v 9 39 5
v 9 40 5
v -3 13 4
v -3 17 4
v -3 18 4
v -3 27 4
v -2 27 4
v -2 32 4
v -2 36 4
v -2 37 4
v 10 27 4
v 10 32 4
v 10 36 4
v 10 37 4
v 11 13 4
v 11 17 4
v 11 18 4
v 11 27 4
v -1 0 14
v 2 0 14
v 6 0 14
v 9 0 14
v -1 0 7
v 2 0 7
v 6 0 7
v 9 0 7
v -3 13 13
v 11 13 13
v -1 13 11
v 2 13 11
v 6 13 11
v 9 13 11
v -1 13 10
v 9 13 10
v -1 13 9
v 9 13 9
v -1 13 7
v 2 13 7
v 6 13 7
v 9 13 7
v -3 13 4
v 11 13 4
v 3 17 14
v 5 17 14
v 3 17 13
v 5 17 13
v -5 18 10
v -3 18 10
v 11 18 10
v 13 18 10
v -5 18 8
v -3 18 8
v 11 18 8
v 13 18 8
v -2 36 15
v 10 36 15
v -2 36 13
v 10 36 13
v 3 39 15
v 5 39 15
v -1 39 14
v 3 39 14
v 5 39 14
v 9 39 14
v 0 39 13
v 8 39 13
v 0 39 6
v 8 39 6
v -1 39 5
v 9 39 5
v -1 1 14
v 2 1 14
v 6 1 14
v 9 1 14
v -1 1 11
v 2 1 11
v 6 1 11
v 9 1 11
v 3 18 14
v 5 18 14
v 3 18 13
v 5 18 13
v -5 25 10
v -3 25 10
v 11 25 10
v 13 25 10
v -5 25 8
v -3 25 8
v 11 25 8
v 13 25 8
v -3 27 13
v -2 27 13
v 10 27 13
v 11 27 13
v -3 27 4
v -2 27 4
v 10 27 4
v 11 27 4
v -2 37 15
v 10 37 15
v 0 37 13
v 8 37 13
v 0 37 6
v 8 37 6
v -2 37 4
v 10 37 4
v 3 40 15
v 5 40 15
v -1 40 14
v 3 40 14
v 5 40 14
v 9 40 14
v -1 40 5
v 9 40 5

# faces
f 3/2/1 2/2/1 1/2/1
f 4/2/1 2/2/1 3/2/1
f 5/5/1 4/5/1 3/5/1
f 6/5/1 4/5/1 5/5/1
f 9/5/1 8/5/1 7/5/1
f 10/5/1 8/5/1 9/5/1
f 11/8/1 10/8/1 9/8/1
f 12/8/1 10/8/1 11/8/1
f 13/8/1 10/8/1 12/8/1
f 14/8/1 10/8/1 13/8/1
f 15/5/1 12/5/1 11/5/1
f 16/5/1 14/5/1 13/5/1
f 17/5/1 15/5/1 11/5/1
f 18/5/1 14/5/1 16/5/1
f 19/5/1 17/5/1 11/5/1
f 19/5/1 18/5/1 17/5/1
f 20/5/1 14/5/1 18/5/1
f 20/5/1 18/5/1 19/5/1
f 23/2/1 22/2/1 21/2/1
f 24/2/1 22/2/1 23/2/1
f 26/3/1 24/3/1 23/3/1
f 27/3/1 24/3/1 26/3/1
f 28/5/1 26/5/1 25/5/1
f 28/5/1 27/5/1 26/5/1
f 29/5/1 27/5/1 28/5/1
f 32/8/1 31/8/1 30/8/1
f 33/8/1 31/8/1 32/8/1
f 34/8/1 31/8/1 33/8/1
f 35/8/1 31/8/1 34/8/1
f 36/8/1 31/8/1 35/8/1
f 37/8/1 31/8/1 36/8/1
f 38/5/1 35/5/1 34/5/1
f 39/1/1 36/1/1 35/1/1
f 39/5/1 35/5/1 38/5/1
f 40/5/1 37/5/1 36/5/1
f 40/1/1 36/1/1 39/1/1
f 41/5/1 37/5/1 40/5/1
f 44/5/1 43/5/1 42/5/1
f 45/5/1 43/5/1 44/5/1
f 48/5/1 47/5/1 46/5/1
f 49/5/1 47/5/1 48/5/1
f 52/7/1 51/7/1 50/7/1
f 53/7/1 51/7/1 52/7/1
f 56/1/1 55/1/1 54/1/1
f 57/1/1 55/1/1 56/1/1
f 60/8/1 59/8/1 58/8/1
f 61/8/1 59/8/1 60/8/1
f 62/8/1 59/8/1 61/8/1
f 63/8/1 59/8/1 62/8/1
f 64/5/1 63/5/1 62/5/1
f 65/5/1 63/5/1 64/5/1
f 66/8/2 67/8/2 68/8/2
f 68/8/2 67/8/2 69/8/2
f 69/8/2 67/8/2 70/8/2
f 70/8/2 67/8/2 71/8/2
f 70/5/2 71/5/2 72/5/2
f 72/5/2 71/5/2 73/5/2
f 74/7/2 75/7/2 76/7/2
f 76/7/2 75/7/2 77/7/2
f 78/1/2 79/1/2 80/1/2
f 80/1/2 79/1/2 81/1/2
f 82/5/2 83/5/2 84/5/2
f 84/5/2 83/5/2 85/5/2
f 86/8/2 87/8/2 88/8/2
f 88/8/2 87/8/2 89/8/2
f 89/8/2 87/8/2 90/8/2
f 90/8/2 87/8/2 91/8/2
f 91/8/2 87/8/2 92/8/2
f 92/8/2 87/8/2 93/8/2
f 90/5/2 91/5/2 94/5/2
f 91/1/2 92/1/2 95/1/2
f 94/5/2 91/5/2 95/5/2
f 92/5/2 93/5/2 96/5/2
f 95/1/2 92/1/2 96/1/2
f 96/5/2 93/5/2 97/5/2
f 98/5/2 99/5/2 100/5/2
f 100/5/2 99/5/2 101/5/2
f 102/2/2 103/2/2 104/2/2
f 104/2/2 103/2/2 105/2/2
f 104/3/2 105/3/2 107/3/2
f 107/3/2 105/3/2 108/3/2
f 106/5/2 107/5/2 109/5/2
f 107/5/2 108/5/2 109/5/2
f 109/5/2 108/5/2 110/5/2
f 111/5/2 112/5/2 113/5/2
f 113/5/2 112/5/2 114/5/2
f 113/8/2 114/8/2 115/8/2
f 115/8/2 114/8/2 116/8/2
f 116/8/2 114/8/2 117/8/2
f 117/8/2 114/8/2 118/8/2
f 115/5/2 116/5/2 119/5/2
f 117/5/2 118/5/2 120/5/2
f 115/5/2 119/5/2 121/5/2
f 120/5/2 118/5/2 122/5/2
f 115/5/2 121/5/2 123/5/2
f 121/5/2 122/5/2 123/5/2
f 122/5/2 118/5/2 124/5/2
f 123/5/2 122/5/2 124/5/2
f 125/2/2 126/2/2 127/2/2
f 127/2/2 126/2/2 128/2/2
f 127/5/2 128/5/2 129/5/2
f 129/5/2 128/5/2 130/5/2
f 135/1/3 134/1/3 133/1/3
f 136/1/3 134/1/3 135/1/3
f 137/5/3 132/5/3 131/5/3
f 138/5/3 132/5/3 137/5/3
f 143/8/3 140/8/3 139/8/3
f 144/8/3 140/8/3 143/8/3
f 147/5/3 142/5/3 141/5/3
f 148/5/3 142/5/3 147/5/3
f 149/7/3 146/7/3 145/7/3
f 150/7/3 146/7/3 149/7/3
f 155/8/3 154/8/3 153/8/3
f 156/8/3 154/8/3 155/8/3
f 157/5/3 152/5/3 151/5/3
f 158/5/3 152/5/3 157/5/3
f 163/5/3 162/5/3 161/5/3
f 166/5/3 163/5/3 161/5/3
f 167/5/3 163/5/3 166/5/3
f 168/3/3 165/3/3 164/3/3
f 168/2/3 164/2/3 163/2/3
f 169/3/3 165/3/3 168/3/3
f 170/2/3 168/2/3 163/2/3
f 170/2/3 169/2/3 168/2/3
f 171/2/3 169/2/3 170/2/3
f 174/7/3 167/7/3 166/7/3
f 174/5/3 166/5/3 161/5/3
f 175/5/3 163/5/3 167/5/3
f 175/7/3 167/7/3 174/7/3
f 176/2/3 170/2/3 163/2/3
f 176/6/3 171/6/3 170/6/3
f 177/2/3 169/2/3 171/2/3
f 177/6/3 171/6/3 176/6/3
f 178/2/3 176/2/3 163/2/3
f 178/2/3 177/2/3 176/2/3
f 179/2/3 177/2/3 178/2/3
f 180/2/3 169/2/3 177/2/3
f 180/2/3 177/2/3 179/2/3
f 181/3/3 165/3/3 169/3/3
f 181/2/3 169/2/3 180/2/3
f 182/5/3 160/5/3 159/5/3
f 182/8/3 161/8/3 160/8/3
f 183/5/3 174/5/3 161/5/3
f 183/8/3 161/8/3 182/8/3
f 183/5/3 175/5/3 174/5/3
f 184/5/3 182/5/3 159/5/3
f 185/5/3 175/5/3 183/5/3
f 186/5/3 175/5/3 185/5/3
f 187/5/3 175/5/3 186/5/3
f 188/6/3 179/6/3 178/6/3
f 188/2/3 178/2/3 163/2/3
f 189/2/3 180/2/3 179/2/3
f 189/6/3 179/6/3 188/6/3
f 190/3/3 181/3/3 180/3/3
f 190/2/3 180/2/3 189/2/3
f 191/3/3 165/3/3 181/3/3
f 191/3/3 181/3/3 190/3/3
f 192/2/3 190/2/3 189/2/3
f 192/2/3 189/2/3 188/2/3
f 192/2/3 191/2/3 190/2/3
f 193/2/3 191/2/3 192/2/3
f 194/5/3 186/5/3 185/5/3
f 194/1/3 187/1/3 186/1/3
f 195/5/3 175/5/3 187/5/3
f 195/1/3 187/1/3 194/1/3
f 196/6/3 193/6/3 192/6/3
f 196/2/3 192/2/3 188/2/3
f 197/2/3 191/2/3 193/2/3
f 197/6/3 193/6/3 196/6/3
f 198/5/3 173/5/3 172/5/3
f 199/5/3 173/5/3 198/5/3
f 200/2/3 197/2/3 196/2/3
f 201/3/3 165/3/3 191/3/3
f 201/2/3 197/2/3 200/2/3
f 201/2/3 191/2/3 197/2/3
f 202/2/3 200/2/3 196/2/3
f 202/2/3 196/2/3 188/2/3
f 202/2/3 188/2/3 163/2/3
f 202/5/3 163/5/3 175/5/3
f 202/5/3 195/5/3 194/5/3
f 202/5/3 175/5/3 195/5/3
f 203/3/3 201/3/3 200/3/3
f 203/2/3 200/2/3 202/2/3
f 204/3/3 165/3/3 201/3/3
f 204/3/3 201/3/3 203/3/3
f 205/5/3 184/5/3 159/5/3
f 206/8/3 185/8/3 184/8/3
f 206/5/3 184/5/3 205/5/3
f 207/5/3 202/5/3 194/5/3
f 207/8/3 185/8/3 206/8/3
f 207/5/3 194/5/3 185/5/3
f 208/5/3 202/5/3 207/5/3
f 212/8/3 210/8/3 209/8/3
f 213/5/3 211/5/3 210/5/3
f 213/8/3 210/8/3 212/8/3
f 214/5/3 211/5/3 213/5/3
f 218/8/3 216/8/3 215/8/3
f 219/5/3 217/5/3 216/5/3
f 219/8/3 216/8/3 218/8/3
f 220/5/3 217/5/3 219/5/3
f 224/2/3 222/2/3 221/2/3
f 225/5/3 223/5/3 222/5/3
f 225/2/3 222/2/3 224/2/3
f 226/5/3 223/5/3 225/5/3
f 230/2/3 228/2/3 227/2/3
f 231/5/3 229/5/3 228/5/3
f 231/2/3 228/2/3 230/2/3
f 232/5/3 229/5/3 231/5/3
f 233/2/4 234/2/4 236/2/4
f 234/5/4 235/5/4 237/5/4
f 236/2/4 234/2/4 237/2/4
f 237/5/4 235/5/4 238/5/4
f 239/2/4 240/2/4 242/2/4
f 240/5/4 241/5/4 243/5/4
f 242/2/4 240/2/4 243/2/4
f 243/5/4 241/5/4 244/5/4
f 245/8/4 246/8/4 248/8/4
f 246/5/4 247/5/4 249/5/4
f 248/8/4 246/8/4 249/8/4
f 249/5/4 247/5/4 250/5/4
f 251/8/4 252/8/4 254/8/4
f 252/5/4 253/5/4 255/5/4
f 254/8/4 252/8/4 255/8/4
f 255/5/4 253/5/4 256/5/4
f 257/5/4 258/5/4 259/5/4
f 259/5/4 258/5/4 260/5/4
f 261/5/4 262/5/4 263/5/4
f 263/5/4 262/5/4 264/5/4
f 267/5/4 268/5/4 269/5/4
f 267/5/4 269/5/4 273/5/4
f 269/2/4 270/2/4 273/2/4
f 270/3/4 271/3/4 274/3/4
f 273/2/4 270/2/4 274/2/4
f 271/5/4 272/5/4 275/5/4
f 274/3/4 271/3/4 275/3/4
f 275/5/4 272/5/4 276/5/4
f 265/5/4 266/5/4 277/5/4
f 266/8/4 267/8/4 278/8/4
f 277/5/4 266/5/4 278/5/4
f 267/5/4 273/5/4 279/5/4
f 278/8/4 267/8/4 279/8/4
f 279/5/4 273/5/4 280/5/4
f 285/8/5 282/8/5 281/8/5
f 286/8/5 282/8/5 285/8/5
f 287/8/5 284/8/5 283/8/5
f 288/8/5 284/8/5 287/8/5
f 291/5/5 290/5/5 289/5/5
f 292/5/5 290/5/5 291/5/5
f 293/5/5 290/5/5 292/5/5
f 294/5/5 290/5/5 293/5/5
f 295/5/5 291/5/5 289/5/5
f 296/5/5 290/5/5 294/5/5
f 297/5/5 295/5/5 289/5/5
f 298/5/5 290/5/5 296/5/5
f 299/5/5 297/5/5 289/5/5
f 300/5/5 293/5/5 292/5/5
f 301/5/5 293/5/5 300/5/5
f 302/5/5 290/5/5 298/5/5
f 303/5/5 301/5/5 300/5/5
f 303/5/5 302/5/5 301/5/5
f 303/5/5 299/5/5 289/5/5
f 303/5/5 300/5/5 299/5/5
f 304/5/5 290/5/5 302/5/5
f 304/5/5 302/5/5 303/5/5
f 307/7/5 306/7/5 305/7/5
f 308/7/5 306/7/5 307/7/5
f 313/2/5 310/2/5 309/2/5
f 314/2/5 310/2/5 313/2/5
f 315/2/5 312/2/5 311/2/5
f 316/2/5 312/2/5 315/2/5
f 319/5/5 318/5/5 317/5/5
f 320/5/5 318/5/5 319/5/5
f 324/1/5 322/1/5 321/1/5
f 325/1/5 322/1/5 324/1/5
f 327/5/5 324/5/5 323/5/5
f 327/5/5 326/5/5 325/5/5
f 327/5/5 325/5/5 324/5/5
f 328/5/5 326/5/5 327/5/5
f 329/5/5 327/5/5 323/5/5
f 330/5/5 326/5/5 328/5/5
f 331/5/5 329/5/5 323/5/5
f 331/5/5 330/5/5 329/5/5
f 332/5/5 326/5/5 330/5/5
f 332/5/5 330/5/5 331/5/5
f 333/8/6 334/8/6 337/8/6
f 337/8/6 334/8/6 338/8/6
f 335/8/6 336/8/6 339/8/6
f 339/8/6 336/8/6 340/8/6
f 341/7/6 342/7/6 343/7/6
f 343/7/6 342/7/6 344/7/6
f 345/5/6 346/5/6 349/5/6
f 349/5/6 346/5/6 350/5/6
f 347/5/6 348/5/6 351/5/6
f 351/5/6 348/5/6 352/5/6
f 353/5/6 354/5/6 357/5/6
f 357/5/6 354/5/6 358/5/6
f 355/5/6 356/5/6 359/5/6
f 359/5/6 356/5/6 360/5/6
f 361/5/6 362/5/6 363/5/6
f 363/5/6 362/5/6 364/5/6
f 361/5/6 363/5/6 365/5/6
f 364/5/6 362/5/6 366/5/6
f 361/5/6 365/5/6 367/5/6
f 365/5/6 366/5/6 367/5/6
f 366/5/6 362/5/6 368/5/6
f 367/5/6 366/5/6 368/5/6
f 369/1/6 370/1/6 372/1/6
f 372/1/6 370/1/6 373/1/6
f 371/5/6 372/5/6 375/5/6
f 373/5/6 374/5/6 375/5/6
f 372/5/6 373/5/6 375/5/6
f 375/5/6 374/5/6 376/5/6
