# MagicaVoxel @ Ephtracy

# group
g Player11

# material
mtllib Player11.mtl
usemtl palette

# normals
vn -1 0 0
vn 1 0 0
vn 0 0 1
vn 0 0 -1
vn 0 -1 0
vn 0 1 0

# texcoords
vt 0.0136719 0.5
vt 0.0214844 0.5
vt 0.0605469 0.5
vt 0.0644531 0.5
vt 0.294922 0.5
vt 0.298828 0.5
vt 0.419922 0.5
vt 0.888672 0.5
vt 0.955078 0.5
vt 0.958984 0.5
vt 0.970703 0.5
vt 0.978516 0.5
vt 0.994141 0.5

# verts
v -5 18 10
v -5 18 8
v -5 20 10
v -5 20 8
v -5 25 10
v -5 25 8
v -3 13 13
v -3 13 4
v -3 14 13
v -3 14 4
v -3 17 13
v -3 17 4
v -3 18 10
v -3 18 8
v -3 20 10
v -3 20 8
v -3 25 10
v -3 25 8
v -3 27 13
v -3 27 4
v -3 34 14
v -3 34 3
v -3 35 14
v -3 35 3
v -2 27 13
v -2 27 4
v -2 28 14
v -2 28 13
v -2 32 13
v -2 32 4
v -2 34 14
v -2 34 4
v -2 35 13
v -2 35 4
v -2 37 13
v -2 37 4
v -1 0 14
v -1 0 7
v -1 1 14
v -1 1 11
v -1 3 11
v -1 3 7
v -1 6 11
v -1 6 7
v -1 13 11
v -1 13 7
v -1 27 14
v -1 27 13
v -1 28 14
v -1 28 13
v -1 37 12
v -1 37 5
v -1 39 12
v -1 39 5
v -1 40 12
v -1 40 5
v -1 42 12
v -1 42 5
v 0 26 14
v 0 26 13
v 0 27 14
v 0 27 13
v 1 25 14
v 1 25 13
v 1 26 14
v 1 26 13
v 1 29 14
v 1 29 13
v 1 30 14
v 1 30 13
v 2 14 14
v 2 14 13
v 2 17 14
v 2 17 13
v 2 24 14
v 2 24 13
v 2 25 14
v 2 25 13
v 2 38 13
v 2 38 12
v 2 39 12
v 2 40 12
v 2 41 13
v 2 41 12
v 3 23 14
v 3 23 13
v 3 24 14
v 3 24 13
v 5 15 14
v 5 15 13
v 5 16 14
v 5 16 13
v 5 39 13
v 5 39 12
v 5 40 13
v 5 40 12
v 6 0 14
v 6 0 7
v 6 1 14
v 6 1 11
v 6 3 11
v 6 3 7
v 6 6 11
v 6 6 7
v 6 13 11
v 6 13 7
v 9 29 14
v 9 29 13
v 9 34 14
v 9 34 13
v -1 29 14
v -1 29 13
v -1 34 14
v -1 34 13
v 2 0 14
v 2 0 7
v 2 1 14
v 2 1 11
v 2 3 11
v 2 3 7
v 2 6 11
v 2 6 7
v 2 13 11
v 2 13 7
v 3 15 14
v 3 15 13
v 3 16 14
v 3 16 13
v 3 39 13
v 3 39 12
v 3 40 13
v 3 40 12
v 5 23 14
v 5 23 13
v 5 24 14
v 5 24 13
v 6 14 14
v 6 14 13
v 6 17 14
v 6 17 13
v 6 24 14
v 6 24 13
v 6 25 14
v 6 25 13
v 6 38 13
v 6 38 12
v 6 39 12
v 6 40 12
v 6 41 13
v 6 41 12
v 7 25 14
v 7 25 13
v 7 26 14
v 7 26 13
v 7 29 14
v 7 29 13
v 7 30 14
v 7 30 13
v 8 26 14
v 8 26 13
v 8 27 14
v 8 27 13
v 9 0 14
v 9 0 7
v 9 1 14
v 9 1 11
v 9 3 11
v 9 3 7
v 9 6 11
v 9 6 7
v 9 13 11
v 9 13 7
v 9 27 14
v 9 27 13
v 9 28 14
v 9 28 13
v 9 37 12
v 9 37 5
v 9 39 12
v 9 39 5
v 9 40 12
v 9 40 5
v 9 42 12
v 9 42 5
v 10 27 13
v 10 27 4
v 10 28 14
v 10 28 13
v 10 32 13
v 10 32 4
v 10 34 14
v 10 34 4
v 10 35 13
v 10 35 4
v 10 37 13
v 10 37 4
v 11 13 13
v 11 13 4
v 11 14 13
v 11 14 4
v 11 17 13
v 11 17 4
v 11 18 10
v 11 18 8
v 11 20 10
v 11 20 8
v 11 25 10
v 11 25 8
v 11 27 13
v 11 27 4
v 11 34 14
v 11 34 3
v 11 35 14
v 11 35 3
v 13 18 10
v 13 18 8
v 13 20 10
v 13 20 8
v 13 25 10
v 13 25 8
v -3 34 14
v -3 35 14
v -2 28 14
v -2 34 14
v -1 0 14
v -1 1 14
v -1 27 14
v -1 28 14
v -1 29 14
v -1 34 14
v 0 26 14
v 0 27 14
v 1 25 14
v 1 26 14
v 1 29 14
v 1 30 14
v 2 0 14
v 2 1 14
v 2 14 14
v 2 17 14
v 2 24 14
v 2 25 14
v 3 15 14
v 3 16 14
v 3 23 14
v 3 24 14
v 5 15 14
v 5 16 14
v 5 23 14
v 5 24 14
v 6 0 14
v 6 1 14
v 6 14 14
v 6 17 14
v 6 24 14
v 6 25 14
v 7 25 14
v 7 26 14
v 7 29 14
v 7 30 14
v 8 26 14
v 8 27 14
v 9 0 14
v 9 1 14
v 9 27 14
v 9 28 14
v 9 29 14
v 9 34 14
v 10 28 14
v 10 34 14
v 11 34 14
v 11 35 14
v -3 13 13
v -3 14 13
v -3 17 13
v -3 27 13
v -2 27 13
v -2 28 13
v -2 35 13
v -2 37 13
v -1 27 13
v -1 28 13
v -1 29 13
v -1 34 13
v 0 26 13
v 0 27 13
v 0 31 13
v 0 33 13
v 1 17 13
v 1 25 13
v 1 26 13
v 1 29 13
v 1 30 13
v 1 31 13
v 1 33 13
v 2 14 13
v 2 17 13
v 2 24 13
v 2 25 13
v 2 33 13
v 2 34 13
v 2 38 13
v 2 41 13
v 3 15 13
v 3 16 13
v 3 23 13
v 3 24 13
v 3 39 13
v 3 40 13
v 5 15 13
v 5 16 13
v 5 23 13
v 5 24 13
v 5 39 13
v 5 40 13
v 6 14 13
v 6 17 13
v 6 24 13
v 6 25 13
v 6 33 13
v 6 34 13
v 6 38 13
v 6 41 13
v 7 17 13
v 7 25 13
v 7 26 13
v 7 29 13
v 7 30 13
v 7 31 13
v 7 33 13
v 8 26 13
v 8 27 13
v 8 31 13
v 8 33 13
v 9 27 13
v 9 28 13
v 9 29 13
v 9 34 13
v 10 27 13
v 10 28 13
v 10 35 13
v 10 37 13
v 11 13 13
v 11 14 13
v 11 17 13
v 11 27 13
v -1 37 12
v -1 39 12
v -1 40 12
v -1 42 12
v 2 38 12
v 2 39 12
v 2 40 12
v 2 41 12
v 3 39 12
v 3 40 12
v 5 39 12
v 5 40 12
v 6 38 12
v 6 39 12
v 6 40 12
v 6 41 12
v 9 37 12
v 9 39 12
v 9 40 12
v 9 42 12
v -1 1 11
v -1 3 11
v -1 6 11
v -1 13 11
v 2 1 11
v 2 3 11
v 2 6 11
v 2 13 11
v 6 1 11
v 6 3 11
v 6 6 11
v 6 13 11
v 9 1 11
v 9 3 11
v 9 6 11
v 9 13 11
v -5 18 10
v -5 20 10
v -5 25 10
v -3 18 10
v -3 20 10
v -3 25 10
v 11 18 10
v 11 20 10
v 11 25 10
v 13 18 10
v 13 20 10
v 13 25 10
v -5 18 8
v -5 20 8
v -5 25 8
v -3 18 8
v -3 20 8
v -3 25 8
v 11 18 8
v 11 20 8
v 11 25 8
v 13 18 8
v 13 20 8
v 13 25 8
v -1 0 7
v -1 3 7
v -1 6 7
v -1 13 7
v 2 0 7
v 2 3 7
v 2 6 7
v 2 13 7
v 6 0 7
v 6 3 7
v 6 6 7
v 6 13 7
v 9 0 7
v 9 3 7
v 9 6 7
v 9 13 7
v -1 37 5
v -1 39 5
v -1 40 5
v -1 42 5
v 9 37 5
v 9 39 5
v 9 40 5
v 9 42 5
v -3 13 4
v -3 14 4
v -3 17 4
v -3 27 4
v -2 27 4
v -2 32 4
v -2 34 4
v -2 35 4
v -2 37 4
v 10 27 4
v 10 32 4
v 10 34 4
v 10 35 4
v 10 37 4
v 11 13 4
v 11 14 4
v 11 17 4
v 11 27 4
v -3 34 3
v -3 35 3
v 11 34 3
v 11 35 3
v -1 0 14
v 2 0 14
v 6 0 14
v 9 0 14
v -1 0 7
v 2 0 7
v 6 0 7
v 9 0 7
v -3 13 13
v 11 13 13
v -1 13 11
v 2 13 11
v 6 13 11
v 9 13 11
v -1 13 7
v 2 13 7
v 6 13 7
v 9 13 7
v -3 13 4
v 11 13 4
v 2 14 14
v 6 14 14
v 2 14 13
v 6 14 13
v 3 16 14
v 5 16 14
v 3 16 13
v 5 16 13
v -5 18 10
v -3 18 10
v 11 18 10
v 13 18 10
v -5 18 8
v -3 18 8
v 11 18 8
v 13 18 8
v 3 23 14
v 5 23 14
v 3 23 13
v 5 23 13
v 2 24 14
v 3 24 14
v 5 24 14
v 6 24 14
v 2 24 13
v 3 24 13
v 5 24 13
v 6 24 13
v 1 25 14
v 2 25 14
v 6 25 14
v 7 25 14
v 1 25 13
v 2 25 13
v 6 25 13
v 7 25 13
v 0 26 14
v 1 26 14
v 7 26 14
v 8 26 14
v 0 26 13
v 1 26 13
v 7 26 13
v 8 26 13
v -1 27 14
v 0 27 14
v 8 27 14
v 9 27 14
v -1 27 13
v 0 27 13
v 8 27 13
v 9 27 13
v -2 28 14
v -1 28 14
v 9 28 14
v 10 28 14
v -2 28 13
v -1 28 13
v 9 28 13
v 10 28 13
v -3 34 14
v -2 34 14
v -1 34 14
v 9 34 14
v 10 34 14
v 11 34 14
v -1 34 13
v 2 34 13
v 6 34 13
v 9 34 13
v -2 34 4
v 10 34 4
v -3 34 3
v 11 34 3
v 2 38 13
v 6 38 13
v 2 38 12
v 6 38 12
v 3 40 13
v 5 40 13
v 3 40 12
v 5 40 12
v -1 1 14
v 2 1 14
v 6 1 14
v 9 1 14
v -1 1 11
v 2 1 11
v 6 1 11
v 9 1 11
v 3 15 14
v 5 15 14
v 3 15 13
v 5 15 13
v 2 17 14
v 6 17 14
v 2 17 13
v 6 17 13
v -5 25 10
v -3 25 10
v 11 25 10
v 13 25 10
v -5 25 8
v -3 25 8
v 11 25 8
v 13 25 8
v -3 27 13
v -2 27 13
v 10 27 13
v 11 27 13
v -3 27 4
v -2 27 4
v 10 27 4
v 11 27 4
v -1 29 14
v 1 29 14
v 7 29 14
v 9 29 14
v -1 29 13
v 1 29 13
v 7 29 13
v 9 29 13
v 1 30 14
v 7 30 14
v 1 30 13
v 7 30 13
v -3 35 14
v 11 35 14
v -2 35 13
v 10 35 13
v -2 35 4
v 10 35 4
v -3 35 3
v 11 35 3
v -2 37 13
v 10 37 13
v -1 37 12
v 9 37 12
v -1 37 5
v 9 37 5
v -2 37 4
v 10 37 4
v 3 39 13
v 5 39 13
v 3 39 12
v 5 39 12
v 2 41 13
v 6 41 13
v 2 41 12
v 6 41 12
v -1 42 12
v 9 42 12
v -1 42 5
v 9 42 5

# faces
f 3/5/1 2/5/1 1/5/1
f 4/5/1 2/5/1 3/5/1
f 5/8/1 4/8/1 3/8/1
f 6/8/1 4/8/1 5/8/1
f 9/8/1 8/8/1 7/8/1
f 10/8/1 8/8/1 9/8/1
f 11/13/1 10/13/1 9/13/1
f 12/13/1 10/13/1 11/13/1
f 13/8/1 12/8/1 11/8/1
f 14/8/1 12/8/1 13/8/1
f 15/8/1 13/8/1 11/8/1
f 16/8/1 12/8/1 14/8/1
f 17/8/1 15/8/1 11/8/1
f 18/8/1 12/8/1 16/8/1
f 19/8/1 17/8/1 11/8/1
f 19/8/1 18/8/1 17/8/1
f 20/8/1 12/8/1 18/8/1
f 20/8/1 18/8/1 19/8/1
f 23/8/1 22/8/1 21/8/1
f 24/8/1 22/8/1 23/8/1
f 28/5/1 26/5/1 25/5/1
f 29/5/1 26/5/1 28/5/1
f 29/4/1 28/4/1 27/4/1
f 30/5/1 26/5/1 29/5/1
f 31/4/1 29/4/1 27/4/1
f 31/4/1 30/4/1 29/4/1
f 32/4/1 30/4/1 31/4/1
f 35/8/1 34/8/1 33/8/1
f 36/8/1 34/8/1 35/8/1
f 39/6/1 38/6/1 37/6/1
f 40/6/1 38/6/1 39/6/1
f 41/6/1 38/6/1 40/6/1
f 42/6/1 38/6/1 41/6/1
f 43/10/1 42/10/1 41/10/1
f 44/10/1 42/10/1 43/10/1
f 45/8/1 44/8/1 43/8/1
f 46/8/1 44/8/1 45/8/1
f 49/4/1 48/4/1 47/4/1
f 50/4/1 48/4/1 49/4/1
f 53/8/1 52/8/1 51/8/1
f 54/8/1 52/8/1 53/8/1
f 55/13/1 54/13/1 53/13/1
f 56/13/1 54/13/1 55/13/1
f 57/8/1 56/8/1 55/8/1
f 58/8/1 56/8/1 57/8/1
f 61/4/1 60/4/1 59/4/1
f 62/4/1 60/4/1 61/4/1
f 65/4/1 64/4/1 63/4/1
f 66/4/1 64/4/1 65/4/1
f 69/4/1 68/4/1 67/4/1
f 70/4/1 68/4/1 69/4/1
f 73/2/1 72/2/1 71/2/1
f 74/2/1 72/2/1 73/2/1
f 77/4/1 76/4/1 75/4/1
f 78/4/1 76/4/1 77/4/1
f 81/2/1 80/2/1 79/2/1
f 82/2/1 81/2/1 79/2/1
f 83/2/1 82/2/1 79/2/1
f 84/2/1 82/2/1 83/2/1
f 87/4/1 86/4/1 85/4/1
f 88/4/1 86/4/1 87/4/1
f 91/2/1 90/2/1 89/2/1
f 92/2/1 90/2/1 91/2/1
f 95/2/1 94/2/1 93/2/1
f 96/2/1 94/2/1 95/2/1
f 99/6/1 98/6/1 97/6/1
f 100/6/1 98/6/1 99/6/1
f 101/6/1 98/6/1 100/6/1
f 102/6/1 98/6/1 101/6/1
f 103/10/1 102/10/1 101/10/1
f 104/10/1 102/10/1 103/10/1
f 105/8/1 104/8/1 103/8/1
f 106/8/1 104/8/1 105/8/1
f 109/4/1 108/4/1 107/4/1
f 110/4/1 108/4/1 109/4/1
f 111/4/2 112/4/2 113/4/2
f 113/4/2 112/4/2 114/4/2
f 115/6/2 116/6/2 117/6/2
f 117/6/2 116/6/2 118/6/2
f 118/6/2 116/6/2 119/6/2
f 119/6/2 116/6/2 120/6/2
f 119/10/2 120/10/2 121/10/2
f 121/10/2 120/10/2 122/10/2
f 121/8/2 122/8/2 123/8/2
f 123/8/2 122/8/2 124/8/2
f 125/2/2 126/2/2 127/2/2
f 127/2/2 126/2/2 128/2/2
f 129/2/2 130/2/2 131/2/2
f 131/2/2 130/2/2 132/2/2
f 133/4/2 134/4/2 135/4/2
f 135/4/2 134/4/2 136/4/2
f 137/2/2 138/2/2 139/2/2
f 139/2/2 138/2/2 140/2/2
f 141/4/2 142/4/2 143/4/2
f 143/4/2 142/4/2 144/4/2
f 145/2/2 146/2/2 147/2/2
f 145/2/2 147/2/2 148/2/2
f 145/2/2 148/2/2 149/2/2
f 149/2/2 148/2/2 150/2/2
f 151/4/2 152/4/2 153/4/2
f 153/4/2 152/4/2 154/4/2
f 155/4/2 156/4/2 157/4/2
f 157/4/2 156/4/2 158/4/2
f 159/4/2 160/4/2 161/4/2
f 161/4/2 160/4/2 162/4/2
f 163/6/2 164/6/2 165/6/2
f 165/6/2 164/6/2 166/6/2
f 166/6/2 164/6/2 167/6/2
f 167/6/2 164/6/2 168/6/2
f 167/10/2 168/10/2 169/10/2
f 169/10/2 168/10/2 170/10/2
f 169/8/2 170/8/2 171/8/2
f 171/8/2 170/8/2 172/8/2
f 173/4/2 174/4/2 175/4/2
f 175/4/2 174/4/2 176/4/2
f 177/8/2 178/8/2 179/8/2
f 179/8/2 178/8/2 180/8/2
f 179/13/2 180/13/2 181/13/2
f 181/13/2 180/13/2 182/13/2
f 181/8/2 182/8/2 183/8/2
f 183/8/2 182/8/2 184/8/2
f 185/5/2 186/5/2 188/5/2
f 188/5/2 186/5/2 189/5/2
f 187/4/2 188/4/2 189/4/2
f 189/5/2 186/5/2 190/5/2
f 187/4/2 189/4/2 191/4/2
f 189/4/2 190/4/2 191/4/2
f 191/4/2 190/4/2 192/4/2
f 193/8/2 194/8/2 195/8/2
f 195/8/2 194/8/2 196/8/2
f 197/8/2 198/8/2 199/8/2
f 199/8/2 198/8/2 200/8/2
f 199/13/2 200/13/2 201/13/2
f 201/13/2 200/13/2 202/13/2
f 201/8/2 202/8/2 203/8/2
f 203/8/2 202/8/2 204/8/2
f 201/8/2 203/8/2 205/8/2
f 204/8/2 202/8/2 206/8/2
f 201/8/2 205/8/2 207/8/2
f 206/8/2 202/8/2 208/8/2
f 201/8/2 207/8/2 209/8/2
f 207/8/2 208/8/2 209/8/2
f 208/8/2 202/8/2 210/8/2
f 209/8/2 208/8/2 210/8/2
f 211/8/2 212/8/2 213/8/2
f 213/8/2 212/8/2 214/8/2
f 215/5/2 216/5/2 217/5/2
f 217/5/2 216/5/2 218/5/2
f 217/8/2 218/8/2 219/8/2
f 219/8/2 218/8/2 220/8/2
f 224/8/3 222/8/3 221/8/3
f 228/4/3 224/4/3 223/4/3
f 229/4/3 224/4/3 228/4/3
f 230/8/3 222/8/3 224/8/3
f 230/4/3 224/4/3 229/4/3
f 232/4/3 229/4/3 228/4/3
f 232/4/3 228/4/3 227/4/3
f 234/4/3 232/4/3 231/4/3
f 235/4/3 229/4/3 232/4/3
f 235/4/3 232/4/3 234/4/3
f 237/6/3 226/6/3 225/6/3
f 238/6/3 226/6/3 237/6/3
f 242/4/3 236/4/3 235/4/3
f 242/4/3 234/4/3 233/4/3
f 242/4/3 235/4/3 234/4/3
f 243/2/3 240/2/3 239/2/3
f 244/2/3 240/2/3 243/2/3
f 246/4/3 242/4/3 241/4/3
f 247/2/3 243/2/3 239/2/3
f 248/2/3 240/2/3 244/2/3
f 249/4/3 246/4/3 245/4/3
f 250/4/3 242/4/3 246/4/3
f 250/4/3 246/4/3 249/4/3
f 253/2/3 247/2/3 239/2/3
f 253/2/3 248/2/3 247/2/3
f 254/2/3 240/2/3 248/2/3
f 254/2/3 248/2/3 253/2/3
f 255/4/3 242/4/3 250/4/3
f 256/4/3 236/4/3 242/4/3
f 256/4/3 242/4/3 255/4/3
f 257/4/3 236/4/3 256/4/3
f 258/4/3 236/4/3 257/4/3
f 259/4/3 236/4/3 258/4/3
f 260/4/3 236/4/3 259/4/3
f 261/4/3 259/4/3 258/4/3
f 262/4/3 259/4/3 261/4/3
f 263/6/3 252/6/3 251/6/3
f 264/6/3 252/6/3 263/6/3
f 265/4/3 259/4/3 262/4/3
f 266/4/3 259/4/3 265/4/3
f 267/4/3 259/4/3 266/4/3
f 268/8/3 222/8/3 230/8/3
f 269/4/3 267/4/3 266/4/3
f 269/4/3 268/4/3 267/4/3
f 270/8/3 222/8/3 268/8/3
f 270/4/3 268/4/3 269/4/3
f 271/8/3 222/8/3 270/8/3
f 272/8/3 222/8/3 271/8/3
f 277/8/3 276/8/3 275/8/3
f 281/8/3 277/8/3 275/8/3
f 281/5/3 278/5/3 277/5/3
f 282/5/3 278/5/3 281/5/3
f 285/8/3 281/8/3 275/8/3
f 286/8/3 281/8/3 285/8/3
f 287/5/3 284/5/3 283/5/3
f 288/5/3 284/5/3 287/5/3
f 289/13/3 275/13/3 274/13/3
f 289/8/3 285/8/3 275/8/3
f 290/8/3 285/8/3 289/8/3
f 291/8/3 285/8/3 290/8/3
f 292/5/3 287/5/3 283/5/3
f 293/5/3 287/5/3 292/5/3
f 294/9/3 288/9/3 287/9/3
f 294/5/3 287/5/3 293/5/3
f 295/5/3 284/5/3 288/5/3
f 295/9/3 288/9/3 294/9/3
f 296/8/3 274/8/3 273/8/3
f 296/13/3 289/13/3 274/13/3
f 297/10/3 290/10/3 289/10/3
f 297/13/3 289/13/3 296/13/3
f 298/10/3 290/10/3 297/10/3
f 299/10/3 290/10/3 298/10/3
f 300/5/3 284/5/3 295/5/3
f 300/5/3 294/5/3 293/5/3
f 300/5/3 295/5/3 294/5/3
f 301/5/3 284/5/3 300/5/3
f 306/10/3 298/10/3 297/10/3
f 307/10/3 298/10/3 306/10/3
f 308/2/3 303/2/3 302/2/3
f 309/2/3 303/2/3 308/2/3
f 310/13/3 305/13/3 304/13/3
f 311/13/3 305/13/3 310/13/3
f 312/10/3 306/10/3 297/10/3
f 314/2/3 308/2/3 302/2/3
f 315/2/3 303/2/3 309/2/3
f 316/8/3 296/8/3 273/8/3
f 317/10/3 313/10/3 312/10/3
f 317/10/3 312/10/3 297/10/3
f 318/10/3 313/10/3 317/10/3
f 320/4/3 301/4/3 300/4/3
f 320/5/3 300/5/3 293/5/3
f 321/4/3 301/4/3 320/4/3
f 322/2/3 314/2/3 302/2/3
f 322/2/3 315/2/3 314/2/3
f 323/2/3 303/2/3 315/2/3
f 323/2/3 315/2/3 322/2/3
f 324/10/3 319/10/3 318/10/3
f 324/10/3 318/10/3 317/10/3
f 324/13/3 317/13/3 316/13/3
f 325/10/3 319/10/3 324/10/3
f 328/5/3 321/5/3 320/5/3
f 328/5/3 320/5/3 293/5/3
f 329/5/3 321/5/3 328/5/3
f 330/5/3 321/5/3 329/5/3
f 331/8/3 326/8/3 325/8/3
f 331/8/3 325/8/3 324/8/3
f 333/9/3 330/9/3 329/9/3
f 333/5/3 328/5/3 327/5/3
f 333/5/3 329/5/3 328/5/3
f 334/5/3 321/5/3 330/5/3
f 334/9/3 330/9/3 333/9/3
f 335/8/3 332/8/3 331/8/3
f 337/5/3 333/5/3 327/5/3
f 337/5/3 334/5/3 333/5/3
f 338/5/3 321/5/3 334/5/3
f 338/5/3 334/5/3 337/5/3
f 339/5/3 336/5/3 335/5/3
f 339/8/3 335/8/3 331/8/3
f 340/5/3 336/5/3 339/5/3
f 341/8/3 280/8/3 279/8/3
f 342/8/3 280/8/3 341/8/3
f 343/8/3 316/8/3 273/8/3
f 344/13/3 324/13/3 316/13/3
f 344/8/3 316/8/3 343/8/3
f 345/8/3 339/8/3 331/8/3
f 345/13/3 324/13/3 344/13/3
f 345/8/3 331/8/3 324/8/3
f 346/8/3 339/8/3 345/8/3
f 351/8/3 348/8/3 347/8/3
f 352/13/3 349/13/3 348/13/3
f 352/8/3 348/8/3 351/8/3
f 353/8/3 350/8/3 349/8/3
f 353/13/3 349/13/3 352/13/3
f 354/8/3 350/8/3 353/8/3
f 357/8/3 356/8/3 355/8/3
f 358/8/3 356/8/3 357/8/3
f 359/8/3 351/8/3 347/8/3
f 362/8/3 350/8/3 354/8/3
f 363/8/3 360/8/3 359/8/3
f 363/8/3 359/8/3 347/8/3
f 364/13/3 361/13/3 360/13/3
f 364/8/3 360/8/3 363/8/3
f 365/8/3 362/8/3 361/8/3
f 365/13/3 361/13/3 364/13/3
f 366/8/3 350/8/3 362/8/3
f 366/8/3 362/8/3 365/8/3
f 371/6/3 368/6/3 367/6/3
f 372/10/3 369/10/3 368/10/3
f 372/6/3 368/6/3 371/6/3
f 373/8/3 370/8/3 369/8/3
f 373/10/3 369/10/3 372/10/3
f 374/8/3 370/8/3 373/8/3
f 379/6/3 376/6/3 375/6/3
f 380/10/3 377/10/3 376/10/3
f 380/6/3 376/6/3 379/6/3
f 381/8/3 378/8/3 377/8/3
f 381/10/3 377/10/3 380/10/3
f 382/8/3 378/8/3 381/8/3
f 386/5/3 384/5/3 383/5/3
f 387/8/3 385/8/3 384/8/3
f 387/5/3 384/5/3 386/5/3
f 388/8/3 385/8/3 387/8/3
f 392/5/3 390/5/3 389/5/3
f 393/8/3 391/8/3 390/8/3
f 393/5/3 390/5/3 392/5/3
f 394/8/3 391/8/3 393/8/3
f 395/5/4 396/5/4 398/5/4
f 396/8/4 397/8/4 399/8/4
f 398/5/4 396/5/4 399/5/4
f 399/8/4 397/8/4 400/8/4
f 401/5/4 402/5/4 404/5/4
f 402/8/4 403/8/4 405/8/4
f 404/5/4 402/5/4 405/5/4
f 405/8/4 403/8/4 406/8/4
f 407/6/4 408/6/4 411/6/4
f 408/10/4 409/10/4 412/10/4
f 411/6/4 408/6/4 412/6/4
f 409/8/4 410/8/4 413/8/4
f 412/10/4 409/10/4 413/10/4
f 413/8/4 410/8/4 414/8/4
f 415/6/4 416/6/4 419/6/4
f 416/10/4 417/10/4 420/10/4
f 419/6/4 416/6/4 420/6/4
f 417/8/4 418/8/4 421/8/4
f 420/10/4 417/10/4 421/10/4
f 421/8/4 418/8/4 422/8/4
f 423/8/4 424/8/4 427/8/4
f 424/13/4 425/13/4 428/13/4
f 427/8/4 424/8/4 428/8/4
f 425/8/4 426/8/4 429/8/4
f 428/13/4 425/13/4 429/13/4
f 429/8/4 426/8/4 430/8/4
f 433/8/4 434/8/4 435/8/4
f 433/8/4 435/8/4 440/8/4
f 435/5/4 436/5/4 440/5/4
f 436/4/4 437/4/4 441/4/4
f 440/5/4 436/5/4 441/5/4
f 441/4/4 437/4/4 442/4/4
f 438/8/4 439/8/4 443/8/4
f 443/8/4 439/8/4 444/8/4
f 431/8/4 432/8/4 445/8/4
f 432/13/4 433/13/4 446/13/4
f 445/8/4 432/8/4 446/8/4
f 433/8/4 440/8/4 447/8/4
f 446/13/4 433/13/4 447/13/4
f 447/8/4 440/8/4 448/8/4
f 449/8/4 450/8/4 451/8/4
f 451/8/4 450/8/4 452/8/4
f 457/6/5 454/6/5 453/6/5
f 458/6/5 454/6/5 457/6/5
f 459/6/5 456/6/5 455/6/5
f 460/6/5 456/6/5 459/6/5
f 463/8/5 462/8/5 461/8/5
f 464/8/5 462/8/5 463/8/5
f 465/8/5 462/8/5 464/8/5
f 466/8/5 462/8/5 465/8/5
f 467/8/5 463/8/5 461/8/5
f 468/8/5 465/8/5 464/8/5
f 469/8/5 465/8/5 468/8/5
f 470/8/5 462/8/5 466/8/5
f 471/8/5 469/8/5 468/8/5
f 471/8/5 470/8/5 469/8/5
f 471/8/5 467/8/5 461/8/5
f 471/8/5 468/8/5 467/8/5
f 472/8/5 462/8/5 470/8/5
f 472/8/5 470/8/5 471/8/5
f 475/2/5 474/2/5 473/2/5
f 476/2/5 474/2/5 475/2/5
f 479/2/5 478/2/5 477/2/5
f 480/2/5 478/2/5 479/2/5
f 485/5/5 482/5/5 481/5/5
f 486/5/5 482/5/5 485/5/5
f 487/5/5 484/5/5 483/5/5
f 488/5/5 484/5/5 487/5/5
f 491/4/5 490/4/5 489/4/5
f 492/4/5 490/4/5 491/4/5
f 497/4/5 494/4/5 493/4/5
f 498/4/5 494/4/5 497/4/5
f 499/4/5 496/4/5 495/4/5
f 500/4/5 496/4/5 499/4/5
f 505/4/5 502/4/5 501/4/5
f 506/4/5 502/4/5 505/4/5
f 507/4/5 504/4/5 503/4/5
f 508/4/5 504/4/5 507/4/5
f 513/4/5 510/4/5 509/4/5
f 514/4/5 510/4/5 513/4/5
f 515/4/5 512/4/5 511/4/5
f 516/4/5 512/4/5 515/4/5
f 521/4/5 518/4/5 517/4/5
f 522/4/5 518/4/5 521/4/5
f 523/4/5 520/4/5 519/4/5
f 524/4/5 520/4/5 523/4/5
f 529/4/5 526/4/5 525/4/5
f 530/4/5 526/4/5 529/4/5
f 531/4/5 528/4/5 527/4/5
f 532/4/5 528/4/5 531/4/5
f 539/8/5 536/8/5 535/8/5
f 540/8/5 536/8/5 539/8/5
f 541/8/5 536/8/5 540/8/5
f 542/8/5 536/8/5 541/8/5
f 543/8/5 534/8/5 533/8/5
f 544/8/5 538/8/5 537/8/5
f 545/8/5 543/8/5 533/8/5
f 545/8/5 544/8/5 543/8/5
f 546/8/5 538/8/5 544/8/5
f 546/8/5 544/8/5 545/8/5
f 549/2/5 548/2/5 547/2/5
f 550/2/5 548/2/5 549/2/5
f 553/2/5 552/2/5 551/2/5
f 554/2/5 552/2/5 553/2/5
f 555/6/6 556/6/6 559/6/6
f 559/6/6 556/6/6 560/6/6
f 557/6/6 558/6/6 561/6/6
f 561/6/6 558/6/6 562/6/6
f 563/2/6 564/2/6 565/2/6
f 565/2/6 564/2/6 566/2/6
f 567/2/6 568/2/6 569/2/6
f 569/2/6 568/2/6 570/2/6
f 571/8/6 572/8/6 575/8/6
f 575/8/6 572/8/6 576/8/6
f 573/8/6 574/8/6 577/8/6
f 577/8/6 574/8/6 578/8/6
f 579/8/6 580/8/6 583/8/6
f 583/8/6 580/8/6 584/8/6
f 581/8/6 582/8/6 585/8/6
f 585/8/6 582/8/6 586/8/6
f 587/4/6 588/4/6 591/4/6
f 591/4/6 588/4/6 592/4/6
f 589/4/6 590/4/6 593/4/6
f 593/4/6 590/4/6 594/4/6
f 595/4/6 596/4/6 597/4/6
f 597/4/6 596/4/6 598/4/6
f 599/8/6 600/8/6 601/8/6
f 601/8/6 600/8/6 602/8/6
f 599/8/6 601/8/6 603/8/6
f 602/8/6 600/8/6 604/8/6
f 599/8/6 603/8/6 605/8/6
f 603/8/6 604/8/6 605/8/6
f 604/8/6 600/8/6 606/8/6
f 605/8/6 604/8/6 606/8/6
f 607/8/6 608/8/6 609/8/6
f 609/8/6 608/8/6 610/8/6
f 607/8/6 609/8/6 611/8/6
f 610/8/6 608/8/6 612/8/6
f 607/8/6 611/8/6 613/8/6
f 611/8/6 612/8/6 613/8/6
f 612/8/6 608/8/6 614/8/6
f 613/8/6 612/8/6 614/8/6
f 615/2/6 616/2/6 617/2/6
f 617/2/6 616/2/6 618/2/6
f 619/2/6 620/2/6 621/2/6
f 621/2/6 620/2/6 622/2/6
f 623/8/6 624/8/6 625/8/6
f 625/8/6 624/8/6 626/8/6
