# MagicaVoxel @ Ephtracy

# group
g Player7

# material
mtllib Player7.mtl
usemtl palette

# normals
vn -1 0 0
vn 1 0 0
vn 0 0 1
vn 0 0 -1
vn 0 -1 0
vn 0 1 0

# texcoords
vt 0.00976562 0.5
vt 0.0878906 0.5
vt 0.294922 0.5
vt 0.298828 0.5
vt 0.419922 0.5
vt 0.841797 0.5
vt 0.955078 0.5
vt 0.958984 0.5
vt 0.970703 0.5
vt 0.978516 0.5
vt 0.982422 0.5
vt 0.994141 0.5

# verts
v -5 18 10
v -5 18 8
v -5 23 10
v -5 23 8
v -5 25 10
v -5 25 8
v -3 13 13
v -3 13 4
v -3 18 10
v -3 18 8
v -3 23 10
v -3 23 8
v -3 25 10
v -3 25 8
v -3 27 14
v -3 27 13
v -3 27 4
v -3 27 3
v -3 28 14
v -3 28 3
v -2 28 13
v -2 28 4
v -2 32 13
v -2 32 4
v -2 34 13
v -2 34 4
v -2 35 4
v -2 35 -2
v -2 37 4
v -2 37 -2
v -2 39 13
v -2 39 4
v -1 0 14
v -1 0 7
v -1 1 14
v -1 1 11
v -1 3 11
v -1 3 7
v -1 13 11
v -1 13 7
v 0 26 14
v 0 26 13
v 0 27 14
v 0 27 13
v 1 25 14
v 1 25 13
v 1 26 14
v 1 26 13
v 2 15 14
v 2 15 13
v 2 16 14
v 2 16 13
v 2 19 14
v 2 19 13
v 2 21 14
v 2 21 13
v 2 24 14
v 2 24 13
v 2 25 14
v 2 25 13
v 3 18 14
v 3 18 13
v 3 19 14
v 3 19 13
v 3 21 14
v 3 21 13
v 3 22 14
v 3 22 13
v 3 23 14
v 3 23 13
v 3 24 14
v 3 24 13
v 4 14 14
v 4 14 13
v 4 15 14
v 4 15 13
v 4 16 14
v 4 16 13
v 4 18 14
v 4 18 13
v 4 19 14
v 4 19 13
v 4 21 14
v 4 21 13
v 4 22 14
v 4 22 13
v 4 23 14
v 4 23 13
v 5 23 14
v 5 23 13
v 5 24 14
v 5 24 13
v 6 0 14
v 6 0 7
v 6 1 14
v 6 1 11
v 6 3 11
v 6 3 7
v 6 13 11
v 6 13 7
v 6 16 14
v 6 16 13
v 6 18 14
v 6 18 13
v 6 24 14
v 6 24 13
v 6 25 14
v 6 25 13
v 7 25 14
v 7 25 13
v 7 26 14
v 7 26 13
v 8 26 14
v 8 26 13
v 8 27 14
v 8 27 13
v 9 27 14
v 9 27 13
v 9 28 14
v 9 28 13
v 0 27 14
v 0 27 13
v 0 28 14
v 0 28 13
v 1 26 14
v 1 26 13
v 1 27 14
v 1 27 13
v 2 0 14
v 2 0 7
v 2 1 14
v 2 1 11
v 2 3 11
v 2 3 7
v 2 7 11
v 2 7 10
v 2 9 11
v 2 9 10
v 2 13 11
v 2 13 7
v 2 25 14
v 2 25 13
v 2 26 14
v 2 26 13
v 3 19 14
v 3 19 13
v 3 21 14
v 3 21 13
v 3 24 14
v 3 24 13
v 3 25 14
v 3 25 13
v 4 23 14
v 4 23 13
v 4 24 14
v 4 24 13
v 5 14 14
v 5 14 13
v 5 15 14
v 5 15 13
v 5 16 14
v 5 16 13
v 5 18 14
v 5 18 13
v 5 19 14
v 5 19 13
v 5 21 14
v 5 21 13
v 5 22 14
v 5 22 13
v 5 23 14
v 5 23 13
v 6 15 14
v 6 15 13
v 6 16 14
v 6 16 13
v 6 18 14
v 6 18 13
v 6 19 14
v 6 19 13
v 6 23 14
v 6 23 13
v 6 24 14
v 6 24 13
v 7 16 14
v 7 16 13
v 7 18 14
v 7 18 13
v 7 21 14
v 7 21 13
v 7 22 14
v 7 22 13
v 7 24 14
v 7 24 13
v 7 25 14
v 7 25 13
v 8 25 14
v 8 25 13
v 8 26 14
v 8 26 13
v 9 0 14
v 9 0 7
v 9 1 14
v 9 1 11
v 9 3 11
v 9 3 7
v 9 9 11
v 9 9 10
v 9 11 11
v 9 11 10
v 9 13 11
v 9 13 7
v 9 26 14
v 9 26 13
v 9 27 14
v 9 27 13
v 10 28 13
v 10 28 4
v 10 32 13
v 10 32 4
v 10 34 13
v 10 34 4
v 10 35 4
v 10 35 -2
v 10 37 4
v 10 37 -2
v 10 39 13
v 10 39 4
v 11 13 13
v 11 13 4
v 11 18 10
v 11 18 8
v 11 23 10
v 11 23 8
v 11 25 10
v 11 25 8
v 11 27 14
v 11 27 13
v 11 27 4
v 11 27 3
v 11 28 14
v 11 28 3
v 13 18 10
v 13 18 8
v 13 23 10
v 13 23 8
v 13 25 10
v 13 25 8
v -3 27 14
v -3 28 14
v -1 0 14
v -1 1 14
v 0 26 14
v 0 27 14
v 0 28 14
v 1 25 14
v 1 26 14
v 1 27 14
v 2 0 14
v 2 1 14
v 2 15 14
v 2 16 14
v 2 19 14
v 2 21 14
v 2 24 14
v 2 25 14
v 2 26 14
v 3 18 14
v 3 19 14
v 3 21 14
v 3 22 14
v 3 23 14
v 3 24 14
v 3 25 14
v 4 14 14
v 4 15 14
v 4 16 14
v 4 18 14
v 4 19 14
v 4 21 14
v 4 22 14
v 4 23 14
v 4 24 14
v 5 14 14
v 5 15 14
v 5 16 14
v 5 18 14
v 5 19 14
v 5 21 14
v 5 22 14
v 5 23 14
v 5 24 14
v 6 0 14
v 6 1 14
v 6 15 14
v 6 16 14
v 6 18 14
v 6 19 14
v 6 23 14
v 6 24 14
v 6 25 14
v 7 16 14
v 7 18 14
v 7 21 14
v 7 22 14
v 7 24 14
v 7 25 14
v 7 26 14
v 8 25 14
v 8 26 14
v 8 27 14
v 9 0 14
v 9 1 14
v 9 26 14
v 9 27 14
v 9 28 14
v 11 27 14
v 11 28 14
v -3 13 13
v -3 27 13
v -2 28 13
v -2 32 13
v -2 34 13
v -2 39 13
v -1 32 13
v -1 34 13
v 0 26 13
v 0 27 13
v 0 28 13
v 0 31 13
v 0 33 13
v 1 25 13
v 1 26 13
v 1 27 13
v 1 31 13
v 1 33 13
v 2 15 13
v 2 16 13
v 2 19 13
v 2 21 13
v 2 24 13
v 2 25 13
v 2 26 13
v 2 29 13
v 2 30 13
v 2 33 13
v 2 34 13
v 3 18 13
v 3 19 13
v 3 21 13
v 3 22 13
v 3 23 13
v 3 24 13
v 3 25 13
v 4 14 13
v 4 15 13
v 4 16 13
v 4 18 13
v 4 19 13
v 4 21 13
v 4 22 13
v 4 23 13
v 4 24 13
v 4 29 13
v 4 30 13
v 5 14 13
v 5 15 13
v 5 16 13
v 5 18 13
v 5 19 13
v 5 21 13
v 5 22 13
v 5 23 13
v 5 24 13
v 5 29 13
v 5 30 13
v 6 15 13
v 6 16 13
v 6 18 13
v 6 19 13
v 6 23 13
v 6 24 13
v 6 25 13
v 6 29 13
v 6 30 13
v 6 33 13
v 6 34 13
v 7 16 13
v 7 18 13
v 7 21 13
v 7 22 13
v 7 24 13
v 7 25 13
v 7 26 13
v 7 31 13
v 7 33 13
v 8 25 13
v 8 26 13
v 8 27 13
v 8 31 13
v 8 33 13
v 9 26 13
v 9 27 13
v 9 28 13
v 9 32 13
v 9 34 13
v 10 28 13
v 10 32 13
v 10 34 13
v 10 39 13
v 11 13 13
v 11 27 13
v -1 1 11
v -1 3 11
v -1 13 11
v 0 7 11
v 0 9 11
v 2 1 11
v 2 3 11
v 2 7 11
v 2 9 11
v 2 13 11
v 6 1 11
v 6 3 11
v 6 13 11
v 7 9 11
v 7 11 11
v 9 1 11
v 9 3 11
v 9 9 11
v 9 11 11
v 9 13 11
v -5 18 10
v -5 23 10
v -5 25 10
v -3 18 10
v -3 23 10
v -3 25 10
v 11 18 10
v 11 23 10
v 11 25 10
v 13 18 10
v 13 23 10
v 13 25 10
v -5 18 8
v -5 23 8
v -5 25 8
v -3 18 8
v -3 23 8
v -3 25 8
v 11 18 8
v 11 23 8
v 11 25 8
v 13 18 8
v 13 23 8
v 13 25 8
v -1 0 7
v -1 3 7
v -1 13 7
v 2 0 7
v 2 3 7
v 2 13 7
v 6 0 7
v 6 3 7
v 6 13 7
v 9 0 7
v 9 3 7
v 9 13 7
v -3 13 4
v -3 27 4
v -2 28 4
v -2 32 4
v -2 34 4
v -2 35 4
v -2 37 4
v -2 39 4
v 10 28 4
v 10 32 4
v 10 34 4
v 10 35 4
v 10 37 4
v 10 39 4
v 11 13 4
v 11 27 4
v -3 27 3
v -3 28 3
v 11 27 3
v 11 28 3
v -2 35 -2
v -2 37 -2
v 10 35 -2
v 10 37 -2
v -1 0 14
v 2 0 14
v 6 0 14
v 9 0 14
v -1 0 7
v 2 0 7
v 6 0 7
v 9 0 7
v -3 13 13
v 11 13 13
v -2 13 12
v 10 13 12
v -1 13 11
v 2 13 11
v 6 13 11
v 9 13 11
v -1 13 7
v 2 13 7
v 6 13 7
v 9 13 7
v -2 13 5
v 10 13 5
v -3 13 4
v 11 13 4
v 4 14 14
v 5 14 14
v 4 14 13
v 5 14 13
v 2 15 14
v 4 15 14
v 5 15 14
v 6 15 14
v 2 15 13
v 4 15 13
v 5 15 13
v 6 15 13
v 6 16 14
v 7 16 14
v 6 16 13
v 7 16 13
v 3 18 14
v 4 18 14
v 5 18 14
v 6 18 14
v 3 18 13
v 4 18 13
v 5 18 13
v 6 18 13
v -5 18 10
v -3 18 10
v 11 18 10
v 13 18 10
v -5 18 8
v -3 18 8
v 11 18 8
v 13 18 8
v 2 19 14
v 3 19 14
v 2 19 13
v 3 19 13
v 3 21 14
v 4 21 14
v 5 21 14
v 7 21 14
v 3 21 13
v 4 21 13
v 5 21 13
v 7 21 13
v 3 23 14
v 4 23 14
v 5 23 14
v 6 23 14
v 3 23 13
v 4 23 13
v 5 23 13
v 6 23 13
v 2 24 14
v 3 24 14
v 6 24 14
v 7 24 14
v 2 24 13
v 3 24 13
v 6 24 13
v 7 24 13
v 1 25 14
v 2 25 14
v 7 25 14
v 8 25 14
v 1 25 13
v 2 25 13
v 7 25 13
v 8 25 13
v 0 26 14
v 1 26 14
v 8 26 14
v 9 26 14
v 0 26 13
v 1 26 13
v 8 26 13
v 9 26 13
v -3 27 14
v 0 27 14
v 9 27 14
v 11 27 14
v -3 27 13
v 0 27 13
v 9 27 13
v 11 27 13
v -3 27 4
v 11 27 4
v -3 27 3
v 11 27 3
v -2 35 4
v 10 35 4
v -2 35 -2
v 10 35 -2
v -1 1 14
v 2 1 14
v 6 1 14
v 9 1 14
v -1 1 11
v 2 1 11
v 6 1 11
v 9 1 11
v 2 16 14
v 4 16 14
v 5 16 14
v 6 16 14
v 2 16 13
v 4 16 13
v 5 16 13
v 6 16 13
v 6 18 14
v 7 18 14
v 6 18 13
v 7 18 13
v 3 19 14
v 4 19 14
v 5 19 14
v 6 19 14
v 3 19 13
v 4 19 13
v 5 19 13
v 6 19 13
v 2 21 14
v 3 21 14
v 2 21 13
v 3 21 13
v 3 22 14
v 4 22 14
v 5 22 14
v 7 22 14
v 3 22 13
v 4 22 13
v 5 22 13
v 7 22 13
v 4 23 14
v 5 23 14
v 4 23 13
v 5 23 13
v 3 24 14
v 4 24 14
v 5 24 14
v 6 24 14
v 3 24 13
v 4 24 13
v 5 24 13
v 6 24 13
v 2 25 14
v 3 25 14
v 6 25 14
v 7 25 14
v 2 25 13
v 3 25 13
v 6 25 13
v 7 25 13
v -5 25 10
v -3 25 10
v 11 25 10
v 13 25 10
v -5 25 8
v -3 25 8
v 11 25 8
v 13 25 8
v 1 26 14
v 2 26 14
v 7 26 14
v 8 26 14
v 1 26 13
v 2 26 13
v 7 26 13
v 8 26 13
v 0 27 14
v 1 27 14
v 8 27 14
v 9 27 14
v 0 27 13
v 1 27 13
v 8 27 13
v 9 27 13
v -3 28 14
v 0 28 14
v 9 28 14
v 11 28 14
v -2 28 13
v 0 28 13
v 9 28 13
v 10 28 13
v -2 28 4
v 10 28 4
v -3 28 3
v 11 28 3
v -2 37 4
v 10 37 4
v -2 37 -2
v 10 37 -2
v -2 39 13
v 10 39 13
v -2 39 4
v 10 39 4

# faces
f 3/3/1 2/3/1 1/3/1
f 4/3/1 2/3/1 3/3/1
f 5/8/1 4/8/1 3/8/1
f 6/8/1 4/8/1 5/8/1
f 9/8/1 8/8/1 7/8/1
f 10/8/1 8/8/1 9/8/1
f 11/8/1 9/8/1 7/8/1
f 12/8/1 8/8/1 10/8/1
f 13/8/1 11/8/1 7/8/1
f 14/8/1 8/8/1 12/8/1
f 16/8/1 13/8/1 7/8/1
f 16/8/1 14/8/1 13/8/1
f 17/8/1 8/8/1 14/8/1
f 17/8/1 14/8/1 16/8/1
f 19/1/1 16/1/1 15/1/1
f 19/1/1 18/1/1 17/1/1
f 19/1/1 17/1/1 16/1/1
f 20/1/1 18/1/1 19/1/1
f 23/3/1 22/3/1 21/3/1
f 24/3/1 22/3/1 23/3/1
f 25/4/1 24/4/1 23/4/1
f 26/4/1 24/4/1 25/4/1
f 27/6/1 26/6/1 25/6/1
f 29/6/1 27/6/1 25/6/1
f 29/6/1 28/6/1 27/6/1
f 30/6/1 28/6/1 29/6/1
f 31/6/1 29/6/1 25/6/1
f 32/6/1 29/6/1 31/6/1
f 35/8/1 34/8/1 33/8/1
f 36/8/1 34/8/1 35/8/1
f 37/8/1 34/8/1 36/8/1
f 38/8/1 34/8/1 37/8/1
f 39/2/1 38/2/1 37/2/1
f 40/2/1 38/2/1 39/2/1
f 43/1/1 42/1/1 41/1/1
f 44/1/1 42/1/1 43/1/1
f 47/1/1 46/1/1 45/1/1
f 48/1/1 46/1/1 47/1/1
f 51/1/1 50/1/1 49/1/1
f 52/1/1 50/1/1 51/1/1
f 55/1/1 54/1/1 53/1/1
f 56/1/1 54/1/1 55/1/1
f 59/1/1 58/1/1 57/1/1
f 60/1/1 58/1/1 59/1/1
f 63/1/1 62/1/1 61/1/1
f 64/1/1 62/1/1 63/1/1
f 67/1/1 66/1/1 65/1/1
f 68/1/1 66/1/1 67/1/1
f 71/1/1 70/1/1 69/1/1
f 72/1/1 70/1/1 71/1/1
f 75/1/1 74/1/1 73/1/1
f 76/1/1 74/1/1 75/1/1
f 79/1/1 78/1/1 77/1/1
f 80/1/1 78/1/1 79/1/1
f 83/1/1 82/1/1 81/1/1
f 84/1/1 82/1/1 83/1/1
f 87/1/1 86/1/1 85/1/1
f 88/1/1 86/1/1 87/1/1
f 91/1/1 90/1/1 89/1/1
f 92/1/1 90/1/1 91/1/1
f 95/8/1 94/8/1 93/8/1
f 96/8/1 94/8/1 95/8/1
f 97/8/1 94/8/1 96/8/1
f 98/8/1 94/8/1 97/8/1
f 99/2/1 98/2/1 97/2/1
f 100/2/1 98/2/1 99/2/1
f 103/1/1 102/1/1 101/1/1
f 104/1/1 102/1/1 103/1/1
f 107/1/1 106/1/1 105/1/1
f 108/1/1 106/1/1 107/1/1
f 111/1/1 110/1/1 109/1/1
f 112/1/1 110/1/1 111/1/1
f 115/1/1 114/1/1 113/1/1
f 116/1/1 114/1/1 115/1/1
f 119/1/1 118/1/1 117/1/1
f 120/1/1 118/1/1 119/1/1
f 121/1/2 122/1/2 123/1/2
f 123/1/2 122/1/2 124/1/2
f 125/1/2 126/1/2 127/1/2
f 127/1/2 126/1/2 128/1/2
f 129/8/2 130/8/2 131/8/2
f 131/8/2 130/8/2 132/8/2
f 132/8/2 130/8/2 133/8/2
f 133/8/2 130/8/2 134/8/2
f 133/2/2 134/2/2 135/2/2
f 135/2/2 134/2/2 136/2/2
f 135/3/2 136/3/2 137/3/2
f 136/2/2 134/2/2 138/2/2
f 137/3/2 136/3/2 138/3/2
f 137/2/2 138/2/2 139/2/2
f 138/2/2 134/2/2 140/2/2
f 139/2/2 138/2/2 140/2/2
f 141/1/2 142/1/2 143/1/2
f 143/1/2 142/1/2 144/1/2
f 145/1/2 146/1/2 147/1/2
f 147/1/2 146/1/2 148/1/2
f 149/1/2 150/1/2 151/1/2
f 151/1/2 150/1/2 152/1/2
f 153/1/2 154/1/2 155/1/2
f 155/1/2 154/1/2 156/1/2
f 157/1/2 158/1/2 159/1/2
f 159/1/2 158/1/2 160/1/2
f 161/1/2 162/1/2 163/1/2
f 163/1/2 162/1/2 164/1/2
f 165/1/2 166/1/2 167/1/2
f 167/1/2 166/1/2 168/1/2
f 169/1/2 170/1/2 171/1/2
f 171/1/2 170/1/2 172/1/2
f 173/1/2 174/1/2 175/1/2
f 175/1/2 174/1/2 176/1/2
f 177/1/2 178/1/2 179/1/2
f 179/1/2 178/1/2 180/1/2
f 181/1/2 182/1/2 183/1/2
f 183/1/2 182/1/2 184/1/2
f 185/1/2 186/1/2 187/1/2
f 187/1/2 186/1/2 188/1/2
f 189/1/2 190/1/2 191/1/2
f 191/1/2 190/1/2 192/1/2
f 193/1/2 194/1/2 195/1/2
f 195/1/2 194/1/2 196/1/2
f 197/1/2 198/1/2 199/1/2
f 199/1/2 198/1/2 200/1/2
f 201/8/2 202/8/2 203/8/2
f 203/8/2 202/8/2 204/8/2
f 204/8/2 202/8/2 205/8/2
f 205/8/2 202/8/2 206/8/2
f 205/2/2 206/2/2 207/2/2
f 207/2/2 206/2/2 208/2/2
f 207/3/2 208/3/2 209/3/2
f 208/2/2 206/2/2 210/2/2
f 209/3/2 208/3/2 210/3/2
f 209/2/2 210/2/2 211/2/2
f 210/2/2 206/2/2 212/2/2
f 211/2/2 210/2/2 212/2/2
f 213/1/2 214/1/2 215/1/2
f 215/1/2 214/1/2 216/1/2
f 217/3/2 218/3/2 219/3/2
f 219/3/2 218/3/2 220/3/2
f 219/4/2 220/4/2 221/4/2
f 221/4/2 220/4/2 222/4/2
f 221/6/2 222/6/2 223/6/2
f 221/6/2 223/6/2 225/6/2
f 223/6/2 224/6/2 225/6/2
f 225/6/2 224/6/2 226/6/2
f 221/6/2 225/6/2 227/6/2
f 227/6/2 225/6/2 228/6/2
f 229/8/2 230/8/2 231/8/2
f 231/8/2 230/8/2 232/8/2
f 229/8/2 231/8/2 233/8/2
f 232/8/2 230/8/2 234/8/2
f 229/8/2 233/8/2 235/8/2
f 234/8/2 230/8/2 236/8/2
f 229/8/2 235/8/2 238/8/2
f 235/8/2 236/8/2 238/8/2
f 236/8/2 230/8/2 239/8/2
f 238/8/2 236/8/2 239/8/2
f 237/1/2 238/1/2 241/1/2
f 239/1/2 240/1/2 241/1/2
f 238/1/2 239/1/2 241/1/2
f 241/1/2 240/1/2 242/1/2
f 243/3/2 244/3/2 245/3/2
f 245/3/2 244/3/2 246/3/2
f 245/8/2 246/8/2 247/8/2
f 247/8/2 246/8/2 248/8/2
f 254/1/3 250/1/3 249/1/3
f 255/1/3 250/1/3 254/1/3
f 257/1/3 254/1/3 253/1/3
f 258/1/3 254/1/3 257/1/3
f 259/8/3 252/8/3 251/8/3
f 260/8/3 252/8/3 259/8/3
f 266/1/3 257/1/3 256/1/3
f 267/1/3 257/1/3 266/1/3
f 269/1/3 264/1/3 263/1/3
f 270/1/3 264/1/3 269/1/3
f 273/1/3 266/1/3 265/1/3
f 274/1/3 266/1/3 273/1/3
f 276/1/3 262/1/3 261/1/3
f 277/1/3 262/1/3 276/1/3
f 278/1/3 269/1/3 268/1/3
f 279/1/3 269/1/3 278/1/3
f 280/1/3 271/1/3 270/1/3
f 281/1/3 271/1/3 280/1/3
f 282/1/3 273/1/3 272/1/3
f 283/1/3 273/1/3 282/1/3
f 284/1/3 279/1/3 278/1/3
f 284/1/3 281/1/3 280/1/3
f 284/1/3 282/1/3 281/1/3
f 284/1/3 277/1/3 276/1/3
f 284/1/3 280/1/3 279/1/3
f 284/1/3 276/1/3 275/1/3
f 284/1/3 278/1/3 277/1/3
f 285/1/3 282/1/3 284/1/3
f 286/1/3 282/1/3 285/1/3
f 287/1/3 282/1/3 286/1/3
f 288/1/3 282/1/3 287/1/3
f 289/1/3 282/1/3 288/1/3
f 290/1/3 282/1/3 289/1/3
f 291/1/3 282/1/3 290/1/3
f 295/1/3 286/1/3 285/1/3
f 296/1/3 286/1/3 295/1/3
f 297/1/3 288/1/3 287/1/3
f 298/1/3 288/1/3 297/1/3
f 299/1/3 292/1/3 291/1/3
f 300/1/3 292/1/3 299/1/3
f 302/1/3 297/1/3 296/1/3
f 303/1/3 297/1/3 302/1/3
f 304/1/3 290/1/3 289/1/3
f 305/1/3 290/1/3 304/1/3
f 306/1/3 301/1/3 300/1/3
f 307/1/3 301/1/3 306/1/3
f 309/1/3 308/1/3 307/1/3
f 310/1/3 308/1/3 309/1/3
f 312/8/3 294/8/3 293/8/3
f 313/8/3 294/8/3 312/8/3
f 314/1/3 311/1/3 310/1/3
f 315/1/3 311/1/3 314/1/3
f 317/1/3 316/1/3 315/1/3
f 318/1/3 316/1/3 317/1/3
f 325/3/3 322/3/3 321/3/3
f 325/4/3 323/4/3 322/4/3
f 326/6/3 324/6/3 323/6/3
f 326/4/3 323/4/3 325/4/3
f 327/8/3 320/8/3 319/8/3
f 328/8/3 320/8/3 327/8/3
f 329/3/3 325/3/3 321/3/3
f 329/3/3 326/3/3 325/3/3
f 330/3/3 326/3/3 329/3/3
f 331/3/3 326/3/3 330/3/3
f 332/8/3 327/8/3 319/8/3
f 333/8/3 327/8/3 332/8/3
f 334/3/3 329/3/3 328/3/3
f 334/3/3 330/3/3 329/3/3
f 335/7/3 331/7/3 330/7/3
f 335/3/3 330/3/3 334/3/3
f 336/3/3 326/3/3 331/3/3
f 336/7/3 331/7/3 335/7/3
f 337/8/3 332/8/3 319/8/3
f 338/8/3 332/8/3 337/8/3
f 339/8/3 332/8/3 338/8/3
f 340/8/3 332/8/3 339/8/3
f 341/8/3 332/8/3 340/8/3
f 342/8/3 332/8/3 341/8/3
f 343/8/3 334/8/3 333/8/3
f 344/3/3 335/3/3 334/3/3
f 344/3/3 336/3/3 335/3/3
f 345/3/3 336/3/3 344/3/3
f 346/3/3 326/3/3 336/3/3
f 346/3/3 336/3/3 345/3/3
f 347/6/3 324/6/3 326/6/3
f 347/3/3 326/3/3 346/3/3
f 348/8/3 339/8/3 338/8/3
f 349/8/3 339/8/3 348/8/3
f 350/8/3 341/8/3 340/8/3
f 351/8/3 341/8/3 350/8/3
f 352/8/3 341/8/3 351/8/3
f 353/8/3 341/8/3 352/8/3
f 354/8/3 343/8/3 342/8/3
f 355/8/3 337/8/3 319/8/3
f 356/8/3 337/8/3 355/8/3
f 357/8/3 348/8/3 338/8/3
f 358/8/3 348/8/3 357/8/3
f 359/8/3 350/8/3 349/8/3
f 360/8/3 350/8/3 359/8/3
f 361/8/3 352/8/3 351/8/3
f 362/8/3 352/8/3 361/8/3
f 363/8/3 354/8/3 353/8/3
f 364/7/3 345/7/3 344/7/3
f 364/3/3 344/3/3 334/3/3
f 365/3/3 346/3/3 345/3/3
f 365/7/3 345/7/3 364/7/3
f 366/8/3 355/8/3 319/8/3
f 373/8/3 363/8/3 362/8/3
f 374/8/3 354/8/3 363/8/3
f 374/8/3 363/8/3 373/8/3
f 375/3/3 364/3/3 334/3/3
f 375/1/3 365/1/3 364/1/3
f 376/3/3 346/3/3 365/3/3
f 376/1/3 365/1/3 375/1/3
f 377/8/3 367/8/3 366/8/3
f 378/8/3 369/8/3 368/8/3
f 379/8/3 369/8/3 378/8/3
f 380/8/3 371/8/3 370/8/3
f 381/8/3 373/8/3 372/8/3
f 382/8/3 354/8/3 374/8/3
f 383/8/3 343/8/3 354/8/3
f 383/8/3 354/8/3 382/8/3
f 384/3/3 375/3/3 334/3/3
f 384/7/3 376/7/3 375/7/3
f 385/3/3 346/3/3 376/3/3
f 385/7/3 376/7/3 384/7/3
f 386/4/3 347/4/3 346/4/3
f 386/3/3 346/3/3 385/3/3
f 387/6/3 324/6/3 347/6/3
f 387/4/3 347/4/3 386/4/3
f 388/8/3 378/8/3 377/8/3
f 389/8/3 380/8/3 379/8/3
f 390/8/3 371/8/3 380/8/3
f 390/8/3 380/8/3 389/8/3
f 391/8/3 381/8/3 372/8/3
f 391/8/3 382/8/3 381/8/3
f 392/8/3 382/8/3 391/8/3
f 393/8/3 343/8/3 383/8/3
f 394/8/3 334/8/3 343/8/3
f 394/8/3 343/8/3 393/8/3
f 395/3/3 386/3/3 385/3/3
f 395/3/3 385/3/3 384/3/3
f 395/3/3 387/3/3 386/3/3
f 396/3/3 387/3/3 395/3/3
f 397/8/3 390/8/3 389/8/3
f 397/8/3 392/8/3 391/8/3
f 397/8/3 393/8/3 392/8/3
f 397/8/3 391/8/3 390/8/3
f 397/8/3 389/8/3 388/8/3
f 398/8/3 334/8/3 394/8/3
f 399/3/3 395/3/3 384/3/3
f 399/3/3 384/3/3 334/3/3
f 399/8/3 334/8/3 398/8/3
f 400/7/3 396/7/3 395/7/3
f 400/3/3 395/3/3 399/3/3
f 401/3/3 387/3/3 396/3/3
f 401/7/3 396/7/3 400/7/3
f 402/8/3 398/8/3 397/8/3
f 403/3/3 400/3/3 399/3/3
f 403/3/3 401/3/3 400/3/3
f 404/3/3 401/3/3 403/3/3
f 405/3/3 401/3/3 404/3/3
f 406/3/3 387/3/3 401/3/3
f 406/3/3 401/3/3 405/3/3
f 406/6/3 324/6/3 387/6/3
f 407/3/3 405/3/3 404/3/3
f 408/4/3 406/4/3 405/4/3
f 408/3/3 405/3/3 407/3/3
f 409/6/3 324/6/3 406/6/3
f 409/4/3 406/4/3 408/4/3
f 410/6/3 324/6/3 409/6/3
f 411/8/3 402/8/3 397/8/3
f 411/8/3 403/8/3 402/8/3
f 411/8/3 397/8/3 388/8/3
f 411/8/3 388/8/3 377/8/3
f 411/8/3 366/8/3 319/8/3
f 411/8/3 377/8/3 366/8/3
f 412/8/3 403/8/3 411/8/3
f 416/2/3 415/2/3 414/2/3
f 417/2/3 415/2/3 416/2/3
f 418/8/3 414/8/3 413/8/3
f 419/2/3 416/2/3 414/2/3
f 419/8/3 414/8/3 418/8/3
f 420/3/3 417/3/3 416/3/3
f 420/2/3 416/2/3 419/2/3
f 421/2/3 415/2/3 417/2/3
f 421/3/3 417/3/3 420/3/3
f 422/2/3 415/2/3 421/2/3
f 426/2/3 425/2/3 424/2/3
f 427/2/3 425/2/3 426/2/3
f 428/8/3 424/8/3 423/8/3
f 429/2/3 426/2/3 424/2/3
f 429/8/3 424/8/3 428/8/3
f 430/3/3 427/3/3 426/3/3
f 430/2/3 426/2/3 429/2/3
f 431/2/3 425/2/3 427/2/3
f 431/3/3 427/3/3 430/3/3
f 432/2/3 425/2/3 431/2/3
f 436/3/3 434/3/3 433/3/3
f 437/8/3 435/8/3 434/8/3
f 437/3/3 434/3/3 436/3/3
f 438/8/3 435/8/3 437/8/3
f 442/3/3 440/3/3 439/3/3
f 443/8/3 441/8/3 440/8/3
f 443/3/3 440/3/3 442/3/3
f 444/8/3 441/8/3 443/8/3
f 445/3/4 446/3/4 448/3/4
f 446/8/4 447/8/4 449/8/4
f 448/3/4 446/3/4 449/3/4
f 449/8/4 447/8/4 450/8/4
f 451/3/4 452/3/4 454/3/4
f 452/8/4 453/8/4 455/8/4
f 454/3/4 452/3/4 455/3/4
f 455/8/4 453/8/4 456/8/4
f 457/8/4 458/8/4 460/8/4
f 458/2/4 459/2/4 461/2/4
f 460/8/4 458/8/4 461/8/4
f 461/2/4 459/2/4 462/2/4
f 463/8/4 464/8/4 466/8/4
f 464/2/4 465/2/4 467/2/4
f 466/8/4 464/8/4 467/8/4
f 467/2/4 465/2/4 468/2/4
f 471/3/4 472/3/4 477/3/4
f 472/4/4 473/4/4 478/4/4
f 477/3/4 472/3/4 478/3/4
f 473/6/4 474/6/4 479/6/4
f 478/4/4 473/4/4 479/4/4
f 479/6/4 474/6/4 480/6/4
f 475/6/4 476/6/4 481/6/4
f 481/6/4 476/6/4 482/6/4
f 469/8/4 470/8/4 483/8/4
f 483/8/4 470/8/4 484/8/4
f 485/1/4 486/1/4 487/1/4
f 487/1/4 486/1/4 488/1/4
f 489/6/4 490/6/4 491/6/4
f 491/6/4 490/6/4 492/6/4
f 497/8/5 494/8/5 493/8/5
f 498/8/5 494/8/5 497/8/5
f 499/8/5 496/8/5 495/8/5
f 500/8/5 496/8/5 499/8/5
f 503/8/5 502/8/5 501/8/5
f 504/8/5 502/8/5 503/8/5
f 505/11/5 504/11/5 503/11/5
f 506/11/5 504/11/5 505/11/5
f 507/11/5 504/11/5 506/11/5
f 508/11/5 504/11/5 507/11/5
f 509/11/5 505/11/5 503/11/5
f 510/11/5 507/11/5 506/11/5
f 511/11/5 507/11/5 510/11/5
f 512/11/5 504/11/5 508/11/5
f 513/8/5 503/8/5 501/8/5
f 513/11/5 512/11/5 511/11/5
f 513/11/5 511/11/5 510/11/5
f 513/11/5 509/11/5 503/11/5
f 513/11/5 510/11/5 509/11/5
f 514/11/5 504/11/5 512/11/5
f 514/11/5 512/11/5 513/11/5
f 514/8/5 502/8/5 504/8/5
f 515/8/5 513/8/5 501/8/5
f 515/8/5 514/8/5 513/8/5
f 516/8/5 502/8/5 514/8/5
f 516/8/5 514/8/5 515/8/5
f 519/1/5 518/1/5 517/1/5
f 520/1/5 518/1/5 519/1/5
f 525/1/5 522/1/5 521/1/5
f 526/1/5 522/1/5 525/1/5
f 527/1/5 524/1/5 523/1/5
f 528/1/5 524/1/5 527/1/5
f 531/1/5 530/1/5 529/1/5
f 532/1/5 530/1/5 531/1/5
f 537/1/5 534/1/5 533/1/5
f 538/1/5 534/1/5 537/1/5
f 539/1/5 536/1/5 535/1/5
f 540/1/5 536/1/5 539/1/5
f 545/3/5 542/3/5 541/3/5
f 546/3/5 542/3/5 545/3/5
f 547/3/5 544/3/5 543/3/5
f 548/3/5 544/3/5 547/3/5
f 551/1/5 550/1/5 549/1/5
f 552/1/5 550/1/5 551/1/5
f 557/1/5 554/1/5 553/1/5
f 558/1/5 554/1/5 557/1/5
f 559/1/5 556/1/5 555/1/5
f 560/1/5 556/1/5 559/1/5
f 565/1/5 562/1/5 561/1/5
f 566/1/5 562/1/5 565/1/5
f 567/1/5 564/1/5 563/1/5
f 568/1/5 564/1/5 567/1/5
f 573/1/5 570/1/5 569/1/5
f 574/1/5 570/1/5 573/1/5
f 575/1/5 572/1/5 571/1/5
f 576/1/5 572/1/5 575/1/5
f 581/1/5 578/1/5 577/1/5
f 582/1/5 578/1/5 581/1/5
f 583/1/5 580/1/5 579/1/5
f 584/1/5 580/1/5 583/1/5
f 589/1/5 586/1/5 585/1/5
f 590/1/5 586/1/5 589/1/5
f 591/1/5 588/1/5 587/1/5
f 592/1/5 588/1/5 591/1/5
f 597/1/5 594/1/5 593/1/5
f 598/1/5 594/1/5 597/1/5
f 599/1/5 596/1/5 595/1/5
f 600/1/5 596/1/5 599/1/5
f 603/1/5 602/1/5 601/1/5
f 604/1/5 602/1/5 603/1/5
f 607/6/5 606/6/5 605/6/5
f 608/6/5 606/6/5 607/6/5
f 609/8/6 610/8/6 613/8/6
f 613/8/6 610/8/6 614/8/6
f 611/8/6 612/8/6 615/8/6
f 615/8/6 612/8/6 616/8/6
f 617/1/6 618/1/6 621/1/6
f 621/1/6 618/1/6 622/1/6
f 619/1/6 620/1/6 623/1/6
f 623/1/6 620/1/6 624/1/6
f 625/1/6 626/1/6 627/1/6
f 627/1/6 626/1/6 628/1/6
f 629/1/6 630/1/6 633/1/6
f 633/1/6 630/1/6 634/1/6
f 631/1/6 632/1/6 635/1/6
f 635/1/6 632/1/6 636/1/6
f 637/1/6 638/1/6 639/1/6
f 639/1/6 638/1/6 640/1/6
f 641/1/6 642/1/6 645/1/6
f 645/1/6 642/1/6 646/1/6
f 643/1/6 644/1/6 647/1/6
f 647/1/6 644/1/6 648/1/6
f 649/1/6 650/1/6 651/1/6
f 651/1/6 650/1/6 652/1/6
f 653/1/6 654/1/6 657/1/6
f 657/1/6 654/1/6 658/1/6
f 655/1/6 656/1/6 659/1/6
f 659/1/6 656/1/6 660/1/6
f 661/1/6 662/1/6 665/1/6
f 665/1/6 662/1/6 666/1/6
f 663/1/6 664/1/6 667/1/6
f 667/1/6 664/1/6 668/1/6
f 669/8/6 670/8/6 673/8/6
f 673/8/6 670/8/6 674/8/6
f 671/8/6 672/8/6 675/8/6
f 675/8/6 672/8/6 676/8/6
f 677/1/6 678/1/6 681/1/6
f 681/1/6 678/1/6 682/1/6
f 679/1/6 680/1/6 683/1/6
f 683/1/6 680/1/6 684/1/6
f 685/1/6 686/1/6 689/1/6
f 689/1/6 686/1/6 690/1/6
f 687/1/6 688/1/6 691/1/6
f 691/1/6 688/1/6 692/1/6
f 693/1/6 694/1/6 697/1/6
f 697/1/6 694/1/6 698/1/6
f 695/1/6 696/1/6 699/1/6
f 699/1/6 696/1/6 700/1/6
f 693/1/6 697/1/6 701/1/6
f 700/1/6 696/1/6 702/1/6
f 693/1/6 701/1/6 703/1/6
f 701/1/6 702/1/6 703/1/6
f 702/1/6 696/1/6 704/1/6
f 703/1/6 702/1/6 704/1/6
f 705/6/6 706/6/6 707/6/6
f 707/6/6 706/6/6 708/6/6
f 709/6/6 710/6/6 711/6/6
f 711/6/6 710/6/6 712/6/6
