# MagicaVoxel @ Ephtracy

# group
g Player19

# material
mtllib Player19.mtl
usemtl palette

# normals
vn -1 0 0
vn 1 0 0
vn 0 0 1
vn 0 0 -1
vn 0 -1 0
vn 0 1 0

# texcoords
vt 0.294922 0.5
vt 0.298828 0.5
vt 0.419922 0.5
vt 0.583984 0.5
vt 0.587891 0.5
vt 0.591797 0.5
vt 0.767578 0.5
vt 0.955078 0.5
vt 0.994141 0.5

# verts
v -5 18 10
v -5 18 8
v -5 20 10
v -5 20 8
v -5 25 10
v -5 25 8
v -3 13 13
v -3 13 4
v -3 15 13
v -3 15 12
v -3 16 12
v -3 16 4
v -3 18 10
v -3 18 8
v -3 20 10
v -3 20 8
v -3 25 10
v -3 25 8
v -3 27 13
v -3 27 4
v -3 35 14
v -3 35 3
v -3 38 14
v -3 38 3
v -2 27 13
v -2 27 4
v -2 32 13
v -2 32 4
v -2 35 13
v -2 35 4
v -1 0 14
v -1 0 7
v -1 1 14
v -1 1 11
v -1 3 11
v -1 3 7
v -1 13 11
v -1 13 7
v 0 37 11
v 0 37 6
v 0 40 11
v 0 40 6
v 6 0 14
v 6 0 7
v 6 1 14
v 6 1 11
v 6 3 11
v 6 3 7
v 6 13 11
v 6 13 7
v 10 37 13
v 10 37 4
v 10 38 13
v 10 38 4
v -2 37 13
v -2 37 4
v -2 38 13
v -2 38 4
v 2 0 14
v 2 0 7
v 2 1 14
v 2 1 11
v 2 3 11
v 2 3 7
v 2 13 11
v 2 13 7
v 8 37 11
v 8 37 6
v 8 40 11
v 8 40 6
v 9 0 14
v 9 0 7
v 9 1 14
v 9 1 11
v 9 3 11
v 9 3 7
v 9 13 11
v 9 13 7
v 10 27 13
v 10 27 4
v 10 32 13
v 10 32 4
v 10 35 13
v 10 35 4
v 11 13 13
v 11 13 4
v 11 16 13
v 11 16 4
v 11 18 10
v 11 18 8
v 11 20 10
v 11 20 8
v 11 25 10
v 11 25 8
v 11 27 13
v 11 27 4
v 11 35 14
v 11 35 3
v 11 38 14
v 11 38 3
v 13 18 10
v 13 18 8
v 13 20 10
v 13 20 8
v 13 25 10
v 13 25 8
v -3 35 14
v -3 38 14
v -1 0 14
v -1 1 14
v 2 0 14
v 2 1 14
v 6 0 14
v 6 1 14
v 9 0 14
v 9 1 14
v 11 35 14
v 11 38 14
v -3 13 13
v -3 15 13
v -3 27 13
v -2 15 13
v -2 21 13
v -2 27 13
v -2 32 13
v -2 35 13
v -1 32 13
v -1 34 13
v 0 21 13
v 0 27 13
v 0 31 13
v 0 33 13
v 1 21 13
v 1 27 13
v 1 31 13
v 1 33 13
v 2 29 13
v 2 30 13
v 2 33 13
v 2 34 13
v 6 29 13
v 6 30 13
v 6 33 13
v 6 34 13
v 7 21 13
v 7 27 13
v 7 31 13
v 7 33 13
v 8 21 13
v 8 27 13
v 8 31 13
v 8 33 13
v 9 32 13
v 9 34 13
v 10 16 13
v 10 21 13
v 10 27 13
v 10 32 13
v 10 35 13
v 11 13 13
v 11 16 13
v 11 27 13
v -1 1 11
v -1 3 11
v -1 13 11
v 0 37 11
v 0 40 11
v 2 1 11
v 2 3 11
v 2 13 11
v 6 1 11
v 6 3 11
v 6 13 11
v 8 37 11
v 8 40 11
v 9 1 11
v 9 3 11
v 9 13 11
v -5 18 10
v -5 20 10
v -5 25 10
v -3 18 10
v -3 20 10
v -3 25 10
v 11 18 10
v 11 20 10
v 11 25 10
v 13 18 10
v 13 20 10
v 13 25 10
v -2 37 4
v -2 38 4
v 10 37 4
v 10 38 4
v -2 37 13
v -2 38 13
v 10 37 13
v 10 38 13
v -5 18 8
v -5 20 8
v -5 25 8
v -3 18 8
v -3 20 8
v -3 25 8
v 11 18 8
v 11 20 8
v 11 25 8
v 13 18 8
v 13 20 8
v 13 25 8
v -1 0 7
v -1 3 7
v -1 13 7
v 2 0 7
v 2 3 7
v 2 13 7
v 6 0 7
v 6 3 7
v 6 13 7
v 9 0 7
v 9 3 7
v 9 13 7
v 0 37 6
v 0 40 6
v 8 37 6
v 8 40 6
v -3 13 4
v -3 16 4
v -3 27 4
v -2 16 4
v -2 21 4
v -2 27 4
v -2 32 4
v -2 35 4
v 0 21 4
v 0 27 4
v 1 21 4
v 1 27 4
v 7 21 4
v 7 27 4
v 8 21 4
v 8 27 4
v 10 16 4
v 10 21 4
v 10 27 4
v 10 32 4
v 10 35 4
v 11 13 4
v 11 16 4
v 11 27 4
v -3 35 3
v -3 38 3
v 11 35 3
v 11 38 3
v -1 0 14
v 2 0 14
v 6 0 14
v 9 0 14
v -1 0 7
v 2 0 7
v 6 0 7
v 9 0 7
v -3 13 13
v 11 13 13
v -1 13 11
v 2 13 11
v 6 13 11
v 9 13 11
v -1 13 7
v 2 13 7
v 6 13 7
v 9 13 7
v -3 13 4
v 11 13 4
v -5 18 10
v -3 18 10
v 11 18 10
v 13 18 10
v -5 18 8
v -3 18 8
v 11 18 8
v 13 18 8
v -3 35 14
v 11 35 14
v -2 35 13
v 10 35 13
v -2 35 4
v 10 35 4
v -3 35 3
v 11 35 3
v -1 1 14
v 2 1 14
v 6 1 14
v 9 1 14
v -1 1 11
v 2 1 11
v 6 1 11
v 9 1 11
v -5 25 10
v -3 25 10
v 11 25 10
v 13 25 10
v -5 25 8
v -3 25 8
v 11 25 8
v 13 25 8
v -3 27 13
v -2 27 13
v 10 27 13
v 11 27 13
v -3 27 4
v -2 27 4
v 10 27 4
v 11 27 4
v -2 37 13
v 10 37 13
v 0 37 11
v 8 37 11
v 0 37 6
v 8 37 6
v -2 37 4
v 10 37 4
v -3 38 14
v 11 38 14
v -2 38 13
v 10 38 13
v -2 38 4
v 10 38 4
v -3 38 3
v 11 38 3
v 0 40 11
v 8 40 11
v 0 40 6
v 8 40 6

# faces
f 3/1/1 2/1/1 1/1/1
f 4/1/1 2/1/1 3/1/1
f 5/4/1 4/4/1 3/4/1
f 6/4/1 4/4/1 5/4/1
f 9/5/1 8/5/1 7/5/1
f 10/5/1 8/5/1 9/5/1
f 11/4/1 10/4/1 9/4/1
f 11/5/1 8/5/1 10/5/1
f 12/5/1 8/5/1 11/5/1
f 13/4/1 12/4/1 11/4/1
f 14/4/1 12/4/1 13/4/1
f 15/4/1 13/4/1 11/4/1
f 16/4/1 12/4/1 14/4/1
f 17/4/1 15/4/1 11/4/1
f 18/4/1 12/4/1 16/4/1
f 19/4/1 11/4/1 9/4/1
f 19/4/1 18/4/1 17/4/1
f 19/4/1 17/4/1 11/4/1
f 20/4/1 12/4/1 18/4/1
f 20/4/1 18/4/1 19/4/1
f 23/7/1 22/7/1 21/7/1
f 24/7/1 22/7/1 23/7/1
f 27/1/1 26/1/1 25/1/1
f 28/1/1 26/1/1 27/1/1
f 29/2/1 28/2/1 27/2/1
f 30/2/1 28/2/1 29/2/1
f 33/6/1 32/6/1 31/6/1
f 34/6/1 32/6/1 33/6/1
f 35/6/1 32/6/1 34/6/1
f 36/6/1 32/6/1 35/6/1
f 37/5/1 36/5/1 35/5/1
f 38/5/1 36/5/1 37/5/1
f 41/7/1 40/7/1 39/7/1
f 42/7/1 40/7/1 41/7/1
f 45/6/1 44/6/1 43/6/1
f 46/6/1 44/6/1 45/6/1
f 47/6/1 44/6/1 46/6/1
f 48/6/1 44/6/1 47/6/1
f 49/5/1 48/5/1 47/5/1
f 50/5/1 48/5/1 49/5/1
f 53/7/1 52/7/1 51/7/1
f 54/7/1 52/7/1 53/7/1
f 55/7/2 56/7/2 57/7/2
f 57/7/2 56/7/2 58/7/2
f 59/6/2 60/6/2 61/6/2
f 61/6/2 60/6/2 62/6/2
f 62/6/2 60/6/2 63/6/2
f 63/6/2 60/6/2 64/6/2
f 63/5/2 64/5/2 65/5/2
f 65/5/2 64/5/2 66/5/2
f 67/7/2 68/7/2 69/7/2
f 69/7/2 68/7/2 70/7/2
f 71/6/2 72/6/2 73/6/2
f 73/6/2 72/6/2 74/6/2
f 74/6/2 72/6/2 75/6/2
f 75/6/2 72/6/2 76/6/2
f 75/5/2 76/5/2 77/5/2
f 77/5/2 76/5/2 78/5/2
f 79/1/2 80/1/2 81/1/2
f 81/1/2 80/1/2 82/1/2
f 81/2/2 82/2/2 83/2/2
f 83/2/2 82/2/2 84/2/2
f 85/5/2 86/5/2 87/5/2
f 87/5/2 86/5/2 88/5/2
f 87/4/2 88/4/2 89/4/2
f 89/4/2 88/4/2 90/4/2
f 87/4/2 89/4/2 91/4/2
f 90/4/2 88/4/2 92/4/2
f 87/4/2 91/4/2 93/4/2
f 92/4/2 88/4/2 94/4/2
f 87/4/2 93/4/2 95/4/2
f 93/4/2 94/4/2 95/4/2
f 94/4/2 88/4/2 96/4/2
f 95/4/2 94/4/2 96/4/2
f 97/7/2 98/7/2 99/7/2
f 99/7/2 98/7/2 100/7/2
f 101/1/2 102/1/2 103/1/2
f 103/1/2 102/1/2 104/1/2
f 103/4/2 104/4/2 105/4/2
f 105/4/2 104/4/2 106/4/2
f 111/6/3 110/6/3 109/6/3
f 112/6/3 110/6/3 111/6/3
f 115/6/3 114/6/3 113/6/3
f 116/6/3 114/6/3 115/6/3
f 117/7/3 108/7/3 107/7/3
f 118/7/3 108/7/3 117/7/3
f 122/5/3 120/5/3 119/5/3
f 122/4/3 121/4/3 120/4/3
f 123/4/3 121/4/3 122/4/3
f 124/4/3 121/4/3 123/4/3
f 127/1/3 125/1/3 124/1/3
f 127/2/3 126/2/3 125/2/3
f 128/2/3 126/2/3 127/2/3
f 129/5/3 123/5/3 122/5/3
f 129/4/3 124/4/3 123/4/3
f 130/1/3 128/1/3 127/1/3
f 130/4/3 124/4/3 129/4/3
f 130/1/3 127/1/3 124/1/3
f 131/1/3 128/1/3 130/1/3
f 132/1/3 128/1/3 131/1/3
f 133/5/3 129/5/3 122/5/3
f 133/5/3 130/5/3 129/5/3
f 134/1/3 131/1/3 130/1/3
f 134/5/3 130/5/3 133/5/3
f 135/8/3 132/8/3 131/8/3
f 135/1/3 131/1/3 134/1/3
f 136/1/3 128/1/3 132/1/3
f 136/8/3 132/8/3 135/8/3
f 137/1/3 135/1/3 134/1/3
f 137/1/3 136/1/3 135/1/3
f 138/1/3 136/1/3 137/1/3
f 139/1/3 128/1/3 136/1/3
f 139/1/3 136/1/3 138/1/3
f 140/2/3 126/2/3 128/2/3
f 140/1/3 128/1/3 139/1/3
f 141/8/3 138/8/3 137/8/3
f 141/1/3 137/1/3 134/1/3
f 142/1/3 139/1/3 138/1/3
f 142/8/3 138/8/3 141/8/3
f 143/2/3 140/2/3 139/2/3
f 143/1/3 139/1/3 142/1/3
f 144/2/3 126/2/3 140/2/3
f 144/2/3 140/2/3 143/2/3
f 145/4/3 134/4/3 133/4/3
f 145/5/3 133/5/3 122/5/3
f 146/1/3 141/1/3 134/1/3
f 146/4/3 134/4/3 145/4/3
f 146/1/3 143/1/3 142/1/3
f 146/1/3 142/1/3 141/1/3
f 146/1/3 144/1/3 143/1/3
f 147/1/3 144/1/3 146/1/3
f 148/1/3 144/1/3 147/1/3
f 149/5/3 145/5/3 122/5/3
f 149/5/3 146/5/3 145/5/3
f 150/1/3 147/1/3 146/1/3
f 150/5/3 146/5/3 149/5/3
f 151/8/3 148/8/3 147/8/3
f 151/1/3 147/1/3 150/1/3
f 152/1/3 144/1/3 148/1/3
f 152/8/3 148/8/3 151/8/3
f 153/1/3 151/1/3 150/1/3
f 153/1/3 152/1/3 151/1/3
f 154/1/3 144/1/3 152/1/3
f 154/1/3 152/1/3 153/1/3
f 154/2/3 126/2/3 144/2/3
f 155/5/3 149/5/3 122/5/3
f 156/4/3 150/4/3 149/4/3
f 156/5/3 149/5/3 155/5/3
f 157/1/3 153/1/3 150/1/3
f 157/4/3 150/4/3 156/4/3
f 158/2/3 154/2/3 153/2/3
f 158/1/3 153/1/3 157/1/3
f 159/2/3 126/2/3 154/2/3
f 159/2/3 154/2/3 158/2/3
f 160/5/3 122/5/3 119/5/3
f 160/5/3 155/5/3 122/5/3
f 161/4/3 156/4/3 155/4/3
f 161/5/3 155/5/3 160/5/3
f 161/4/3 157/4/3 156/4/3
f 162/4/3 157/4/3 161/4/3
f 168/6/3 164/6/3 163/6/3
f 169/5/3 165/5/3 164/5/3
f 169/6/3 164/6/3 168/6/3
f 170/5/3 165/5/3 169/5/3
f 174/7/3 167/7/3 166/7/3
f 175/7/3 167/7/3 174/7/3
f 176/6/3 172/6/3 171/6/3
f 177/5/3 173/5/3 172/5/3
f 177/6/3 172/6/3 176/6/3
f 178/5/3 173/5/3 177/5/3
f 182/1/3 180/1/3 179/1/3
f 183/4/3 181/4/3 180/4/3
f 183/1/3 180/1/3 182/1/3
f 184/4/3 181/4/3 183/4/3
f 188/1/3 186/1/3 185/1/3
f 189/4/3 187/4/3 186/4/3
f 189/1/3 186/1/3 188/1/3
f 190/4/3 187/4/3 189/4/3
f 193/7/3 192/7/3 191/7/3
f 194/7/3 192/7/3 193/7/3
f 195/7/4 196/7/4 197/7/4
f 197/7/4 196/7/4 198/7/4
f 199/1/4 200/1/4 202/1/4
f 200/4/4 201/4/4 203/4/4
f 202/1/4 200/1/4 203/1/4
f 203/4/4 201/4/4 204/4/4
f 205/1/4 206/1/4 208/1/4
f 206/4/4 207/4/4 209/4/4
f 208/1/4 206/1/4 209/1/4
f 209/4/4 207/4/4 210/4/4
f 211/6/4 212/6/4 214/6/4
f 212/5/4 213/5/4 215/5/4
f 214/6/4 212/6/4 215/6/4
f 215/5/4 213/5/4 216/5/4
f 217/6/4 218/6/4 220/6/4
f 218/5/4 219/5/4 221/5/4
f 220/6/4 218/6/4 221/6/4
f 221/5/4 219/5/4 222/5/4
f 223/7/4 224/7/4 225/7/4
f 225/7/4 224/7/4 226/7/4
f 227/5/4 228/5/4 230/5/4
f 228/4/4 229/4/4 230/4/4
f 230/4/4 229/4/4 231/4/4
f 231/4/4 229/4/4 232/4/4
f 230/5/4 231/5/4 235/5/4
f 231/4/4 232/4/4 235/4/4
f 232/1/4 233/1/4 236/1/4
f 235/4/4 232/4/4 236/4/4
f 230/5/4 235/5/4 237/5/4
f 235/5/4 236/5/4 237/5/4
f 236/1/4 233/1/4 238/1/4
f 237/5/4 236/5/4 238/5/4
f 230/5/4 237/5/4 239/5/4
f 237/4/4 238/4/4 239/4/4
f 238/1/4 233/1/4 240/1/4
f 239/4/4 238/4/4 240/4/4
f 230/5/4 239/5/4 241/5/4
f 239/5/4 240/5/4 241/5/4
f 240/1/4 233/1/4 242/1/4
f 241/5/4 240/5/4 242/5/4
f 227/5/4 230/5/4 243/5/4
f 230/5/4 241/5/4 243/5/4
f 241/4/4 242/4/4 244/4/4
f 243/5/4 241/5/4 244/5/4
f 242/1/4 233/1/4 245/1/4
f 244/4/4 242/4/4 245/4/4
f 233/2/4 234/2/4 246/2/4
f 245/1/4 233/1/4 246/1/4
f 246/2/4 234/2/4 247/2/4
f 227/5/4 243/5/4 248/5/4
f 243/4/4 244/4/4 249/4/4
f 248/5/4 243/5/4 249/5/4
f 244/4/4 245/4/4 249/4/4
f 249/4/4 245/4/4 250/4/4
f 251/7/4 252/7/4 253/7/4
f 253/7/4 252/7/4 254/7/4
f 259/6/5 256/6/5 255/6/5
f 260/6/5 256/6/5 259/6/5
f 261/6/5 258/6/5 257/6/5
f 262/6/5 258/6/5 261/6/5
f 265/5/5 264/5/5 263/5/5
f 266/5/5 264/5/5 265/5/5
f 267/5/5 264/5/5 266/5/5
f 268/5/5 264/5/5 267/5/5
f 269/5/5 265/5/5 263/5/5
f 270/5/5 267/5/5 266/5/5
f 271/5/5 267/5/5 270/5/5
f 272/5/5 264/5/5 268/5/5
f 273/5/5 271/5/5 270/5/5
f 273/5/5 272/5/5 271/5/5
f 273/5/5 269/5/5 263/5/5
f 273/5/5 270/5/5 269/5/5
f 274/5/5 264/5/5 272/5/5
f 274/5/5 272/5/5 273/5/5
f 279/1/5 276/1/5 275/1/5
f 280/1/5 276/1/5 279/1/5
f 281/1/5 278/1/5 277/1/5
f 282/1/5 278/1/5 281/1/5
f 285/7/5 284/7/5 283/7/5
f 286/7/5 284/7/5 285/7/5
f 287/7/5 285/7/5 283/7/5
f 288/7/5 284/7/5 286/7/5
f 289/7/5 287/7/5 283/7/5
f 289/7/5 288/7/5 287/7/5
f 290/7/5 284/7/5 288/7/5
f 290/7/5 288/7/5 289/7/5
f 291/6/6 292/6/6 295/6/6
f 295/6/6 292/6/6 296/6/6
f 293/6/6 294/6/6 297/6/6
f 297/6/6 294/6/6 298/6/6
f 299/4/6 300/4/6 303/4/6
f 303/4/6 300/4/6 304/4/6
f 301/4/6 302/4/6 305/4/6
f 305/4/6 302/4/6 306/4/6
f 307/4/6 308/4/6 311/4/6
f 311/4/6 308/4/6 312/4/6
f 309/4/6 310/4/6 313/4/6
f 313/4/6 310/4/6 314/4/6
f 315/7/6 316/7/6 317/7/6
f 317/7/6 316/7/6 318/7/6
f 315/7/6 317/7/6 319/7/6
f 318/7/6 316/7/6 320/7/6
f 315/7/6 319/7/6 321/7/6
f 319/7/6 320/7/6 321/7/6
f 320/7/6 316/7/6 322/7/6
f 321/7/6 320/7/6 322/7/6
f 323/7/6 324/7/6 325/7/6
f 325/7/6 324/7/6 326/7/6
f 323/7/6 325/7/6 327/7/6
f 326/7/6 324/7/6 328/7/6
f 323/7/6 327/7/6 329/7/6
f 327/7/6 328/7/6 329/7/6
f 328/7/6 324/7/6 330/7/6
f 329/7/6 328/7/6 330/7/6
f 331/7/6 332/7/6 333/7/6
f 333/7/6 332/7/6 334/7/6
