# MagicaVoxel @ Ephtracy

# group
g Player8

# material
mtllib Player8.mtl
usemtl palette

# normals
vn -1 0 0
vn 1 0 0
vn 0 0 1
vn 0 0 -1
vn 0 -1 0
vn 0 1 0

# texcoords
vt 0.294922 0.5
vt 0.419922 0.5
vt 0.841797 0.5
vt 0.955078 0.5
vt 0.970703 0.5
vt 0.978516 0.5
vt 0.994141 0.5

# verts
v -5 18 10
v -5 18 8
v -5 20 10
v -5 20 8
v -5 25 10
v -5 25 8
v -5 35 10
v -5 35 9
v -5 38 10
v -5 38 9
v -3 13 13
v -3 13 4
v -3 18 10
v -3 18 8
v -3 20 10
v -3 20 8
v -3 25 10
v -3 25 8
v -3 27 13
v -3 27 4
v -2 27 13
v -2 27 4
v -2 35 10
v -2 35 9
v -2 36 10
v -2 36 9
v -2 37 13
v -2 37 4
v -1 0 14
v -1 0 7
v -1 1 14
v -1 1 11
v -1 4 11
v -1 4 7
v -1 13 11
v -1 13 7
v 2 15 -5
v 2 15 -6
v 2 16 -5
v 2 16 -6
v 3 15 4
v 3 15 -0
v 3 15 -2
v 3 15 -5
v 3 15 -6
v 3 15 -8
v 3 16 4
v 3 16 -0
v 3 16 -2
v 3 16 -5
v 3 16 -6
v 3 16 -8
v 4 15 -0
v 4 15 -2
v 4 16 -0
v 4 16 -2
v 6 0 14
v 6 0 7
v 6 1 14
v 6 1 11
v 6 3 11
v 6 3 7
v 6 13 11
v 6 13 7
v 12 36 10
v 12 36 9
v 12 38 10
v 12 38 9
v -4 36 10
v -4 36 9
v -4 38 10
v -4 38 9
v 2 0 14
v 2 0 7
v 2 1 14
v 2 1 11
v 2 4 11
v 2 4 7
v 2 13 11
v 2 13 7
v 4 15 4
v 4 15 1
v 4 15 -3
v 4 15 -5
v 4 15 -6
v 4 15 -8
v 4 16 4
v 4 16 1
v 4 16 -3
v 4 16 -5
v 4 16 -6
v 4 16 -8
v 5 15 1
v 5 15 -3
v 5 15 -5
v 5 15 -6
v 5 16 1
v 5 16 -3
v 5 16 -5
v 5 16 -6
v 9 0 14
v 9 0 7
v 9 1 14
v 9 1 11
v 9 3 11
v 9 3 7
v 9 13 11
v 9 13 7
v 10 27 13
v 10 27 4
v 10 35 10
v 10 35 9
v 10 36 10
v 10 36 9
v 10 37 13
v 10 37 4
v 11 13 13
v 11 13 4
v 11 18 10
v 11 18 8
v 11 20 10
v 11 20 8
v 11 25 10
v 11 25 8
v 11 27 13
v 11 27 4
v 13 18 10
v 13 18 8
v 13 20 10
v 13 20 8
v 13 25 10
v 13 25 8
v 13 35 10
v 13 35 9
v 13 38 10
v 13 38 9
v -1 0 14
v -1 1 14
v 2 0 14
v 2 1 14
v 6 0 14
v 6 1 14
v 9 0 14
v 9 1 14
v -3 13 13
v -3 27 13
v -2 27 13
v -2 37 13
v -1 27 13
v -1 34 13
v 0 31 13
v 0 33 13
v 1 31 13
v 1 33 13
v 2 29 13
v 2 30 13
v 6 29 13
v 6 30 13
v 7 31 13
v 7 33 13
v 8 31 13
v 8 33 13
v 9 27 13
v 9 34 13
v 10 27 13
v 10 37 13
v 11 13 13
v 11 27 13
v -1 1 11
v -1 4 11
v -1 13 11
v 2 1 11
v 2 4 11
v 2 13 11
v 6 1 11
v 6 3 11
v 6 13 11
v 9 1 11
v 9 3 11
v 9 13 11
v -5 18 10
v -5 20 10
v -5 25 10
v -5 35 10
v -5 38 10
v -4 36 10
v -4 38 10
v -3 18 10
v -3 20 10
v -3 25 10
v -2 35 10
v -2 36 10
v 10 35 10
v 10 36 10
v 11 18 10
v 11 20 10
v 11 25 10
v 12 36 10
v 12 38 10
v 13 18 10
v 13 20 10
v 13 25 10
v 13 35 10
v 13 38 10
v 4 15 1
v 4 16 1
v 5 15 1
v 5 16 1
v 3 15 -2
v 3 16 -2
v 4 15 -2
v 4 16 -2
v 2 15 -5
v 2 16 -5
v 3 15 -5
v 3 16 -5
v 4 15 -5
v 4 16 -5
v 5 15 -5
v 5 16 -5
v -5 35 9
v -5 38 9
v -4 36 9
v -4 38 9
v -2 35 9
v -2 36 9
v 10 35 9
v 10 36 9
v 12 36 9
v 12 38 9
v 13 35 9
v 13 38 9
v -5 18 8
v -5 20 8
v -5 25 8
v -3 18 8
v -3 20 8
v -3 25 8
v 11 18 8
v 11 20 8
v 11 25 8
v 13 18 8
v 13 20 8
v 13 25 8
v -1 0 7
v -1 4 7
v -1 13 7
v 2 0 7
v 2 4 7
v 2 13 7
v 6 0 7
v 6 3 7
v 6 13 7
v 9 0 7
v 9 3 7
v 9 13 7
v -3 13 4
v -3 27 4
v -2 27 4
v -2 37 4
v 3 15 4
v 3 16 4
v 4 15 4
v 4 16 4
v 10 27 4
v 10 37 4
v 11 13 4
v 11 27 4
v 3 15 -0
v 3 16 -0
v 4 15 -0
v 4 16 -0
v 4 15 -3
v 4 16 -3
v 5 15 -3
v 5 16 -3
v 2 15 -6
v 2 16 -6
v 3 15 -6
v 3 16 -6
v 4 15 -6
v 4 16 -6
v 5 15 -6
v 5 16 -6
v 3 15 -8
v 3 16 -8
v 4 15 -8
v 4 16 -8
v -1 0 14
v 2 0 14
v 6 0 14
v 9 0 14
v -1 0 7
v 2 0 7
v 6 0 7
v 9 0 7
v -3 13 13
v 11 13 13
v -1 13 11
v 2 13 11
v 6 13 11
v 9 13 11
v -1 13 7
v 2 13 7
v 6 13 7
v 9 13 7
v -3 13 4
v 11 13 4
v 3 15 4
v 4 15 4
v 4 15 1
v 5 15 1
v 3 15 -0
v 4 15 -0
v 3 15 -2
v 4 15 -2
v 4 15 -3
v 5 15 -3
v 2 15 -5
v 3 15 -5
v 4 15 -5
v 5 15 -5
v 2 15 -6
v 3 15 -6
v 4 15 -6
v 5 15 -6
v 3 15 -8
v 4 15 -8
v -5 18 10
v -3 18 10
v 11 18 10
v 13 18 10
v -5 18 8
v -3 18 8
v 11 18 8
v 13 18 8
v -5 35 10
v -2 35 10
v 10 35 10
v 13 35 10
v -5 35 9
v -2 35 9
v 10 35 9
v 13 35 9
v -1 1 14
v 2 1 14
v 6 1 14
v 9 1 14
v -1 1 11
v 2 1 11
v 6 1 11
v 9 1 11
v 3 16 4
v 4 16 4
v 4 16 1
v 5 16 1
v 3 16 -0
v 4 16 -0
v 3 16 -2
v 4 16 -2
v 4 16 -3
v 5 16 -3
v 2 16 -5
v 3 16 -5
v 4 16 -5
v 5 16 -5
v 2 16 -6
v 3 16 -6
v 4 16 -6
v 5 16 -6
v 3 16 -8
v 4 16 -8
v -5 25 10
v -3 25 10
v 11 25 10
v 13 25 10
v -5 25 8
v -3 25 8
v 11 25 8
v 13 25 8
v -3 27 13
v -2 27 13
v 10 27 13
v 11 27 13
v -3 27 4
v -2 27 4
v 10 27 4
v 11 27 4
v -4 36 10
v -2 36 10
v 10 36 10
v 12 36 10
v -4 36 9
v -2 36 9
v 10 36 9
v 12 36 9
v -2 37 13
v 10 37 13
v -2 37 4
v 10 37 4
v -5 38 10
v -4 38 10
v 12 38 10
v 13 38 10
v -5 38 9
v -4 38 9
v 12 38 9
v 13 38 9

# faces
f 3/3/1 2/3/1 1/3/1
f 4/3/1 2/3/1 3/3/1
f 5/7/1 4/7/1 3/7/1
f 6/7/1 4/7/1 5/7/1
f 9/3/1 8/3/1 7/3/1
f 10/3/1 8/3/1 9/3/1
f 13/7/1 12/7/1 11/7/1
f 14/7/1 12/7/1 13/7/1
f 15/7/1 13/7/1 11/7/1
f 16/7/1 12/7/1 14/7/1
f 17/7/1 15/7/1 11/7/1
f 18/7/1 12/7/1 16/7/1
f 19/7/1 17/7/1 11/7/1
f 19/7/1 18/7/1 17/7/1
f 20/7/1 12/7/1 18/7/1
f 20/7/1 18/7/1 19/7/1
f 23/7/1 22/7/1 21/7/1
f 24/7/1 22/7/1 23/7/1
f 25/7/1 23/7/1 21/7/1
f 26/7/1 22/7/1 24/7/1
f 27/7/1 25/7/1 21/7/1
f 27/7/1 26/7/1 25/7/1
f 28/7/1 22/7/1 26/7/1
f 28/7/1 26/7/1 27/7/1
f 31/3/1 30/3/1 29/3/1
f 32/3/1 30/3/1 31/3/1
f 33/3/1 30/3/1 32/3/1
f 34/3/1 30/3/1 33/3/1
f 35/7/1 34/7/1 33/7/1
f 36/7/1 34/7/1 35/7/1
f 39/3/1 38/3/1 37/3/1
f 40/3/1 38/3/1 39/3/1
f 47/3/1 42/3/1 41/3/1
f 48/3/1 42/3/1 47/3/1
f 49/3/1 44/3/1 43/3/1
f 50/3/1 44/3/1 49/3/1
f 51/3/1 46/3/1 45/3/1
f 52/3/1 46/3/1 51/3/1
f 55/3/1 54/3/1 53/3/1
f 56/3/1 54/3/1 55/3/1
f 59/3/1 58/3/1 57/3/1
f 60/3/1 58/3/1 59/3/1
f 61/3/1 58/3/1 60/3/1
f 62/3/1 58/3/1 61/3/1
f 63/7/1 62/7/1 61/7/1
f 64/7/1 62/7/1 63/7/1
f 67/3/1 66/3/1 65/3/1
f 68/3/1 66/3/1 67/3/1
f 69/3/2 70/3/2 71/3/2
f 71/3/2 70/3/2 72/3/2
f 73/3/2 74/3/2 75/3/2
f 75/3/2 74/3/2 76/3/2
f 76/3/2 74/3/2 77/3/2
f 77/3/2 74/3/2 78/3/2
f 77/7/2 78/7/2 79/7/2
f 79/7/2 78/7/2 80/7/2
f 81/3/2 82/3/2 87/3/2
f 87/3/2 82/3/2 88/3/2
f 83/3/2 84/3/2 89/3/2
f 89/3/2 84/3/2 90/3/2
f 85/3/2 86/3/2 91/3/2
f 91/3/2 86/3/2 92/3/2
f 93/3/2 94/3/2 97/3/2
f 97/3/2 94/3/2 98/3/2
f 95/3/2 96/3/2 99/3/2
f 99/3/2 96/3/2 100/3/2
f 101/3/2 102/3/2 103/3/2
f 103/3/2 102/3/2 104/3/2
f 104/3/2 102/3/2 105/3/2
f 105/3/2 102/3/2 106/3/2
f 105/7/2 106/7/2 107/7/2
f 107/7/2 106/7/2 108/7/2
f 109/7/2 110/7/2 111/7/2
f 111/7/2 110/7/2 112/7/2
f 109/7/2 111/7/2 113/7/2
f 112/7/2 110/7/2 114/7/2
f 109/7/2 113/7/2 115/7/2
f 113/7/2 114/7/2 115/7/2
f 114/7/2 110/7/2 116/7/2
f 115/7/2 114/7/2 116/7/2
f 117/7/2 118/7/2 119/7/2
f 119/7/2 118/7/2 120/7/2
f 117/7/2 119/7/2 121/7/2
f 120/7/2 118/7/2 122/7/2
f 117/7/2 121/7/2 123/7/2
f 122/7/2 118/7/2 124/7/2
f 117/7/2 123/7/2 125/7/2
f 123/7/2 124/7/2 125/7/2
f 124/7/2 118/7/2 126/7/2
f 125/7/2 124/7/2 126/7/2
f 127/3/2 128/3/2 129/3/2
f 129/3/2 128/3/2 130/3/2
f 129/7/2 130/7/2 131/7/2
f 131/7/2 130/7/2 132/7/2
f 133/3/2 134/3/2 135/3/2
f 135/3/2 134/3/2 136/3/2
f 139/3/3 138/3/3 137/3/3
f 140/3/3 138/3/3 139/3/3
f 143/3/3 142/3/3 141/3/3
f 144/3/3 142/3/3 143/3/3
f 147/7/3 146/7/3 145/7/3
f 149/7/3 147/7/3 145/7/3
f 149/7/3 148/7/3 147/7/3
f 150/7/3 148/7/3 149/7/3
f 151/3/3 150/3/3 149/3/3
f 152/3/3 150/3/3 151/3/3
f 153/3/3 151/3/3 149/3/3
f 153/4/3 152/4/3 151/4/3
f 154/3/3 150/3/3 152/3/3
f 154/4/3 152/4/3 153/4/3
f 155/3/3 153/3/3 149/3/3
f 155/3/3 154/3/3 153/3/3
f 156/3/3 154/3/3 155/3/3
f 157/3/3 155/3/3 149/3/3
f 157/4/3 156/4/3 155/4/3
f 158/3/3 154/3/3 156/3/3
f 158/4/3 156/4/3 157/4/3
f 159/3/3 158/3/3 157/3/3
f 159/3/3 154/3/3 158/3/3
f 160/3/3 150/3/3 154/3/3
f 160/3/3 154/3/3 159/3/3
f 161/3/3 159/3/3 157/3/3
f 161/4/3 160/4/3 159/4/3
f 162/3/3 150/3/3 160/3/3
f 162/4/3 160/4/3 161/4/3
f 163/7/3 149/7/3 145/7/3
f 163/3/3 161/3/3 157/3/3
f 163/3/3 162/3/3 161/3/3
f 163/3/3 157/3/3 149/3/3
f 164/3/3 150/3/3 162/3/3
f 164/3/3 162/3/3 163/3/3
f 164/7/3 148/7/3 150/7/3
f 165/7/3 163/7/3 145/7/3
f 165/7/3 164/7/3 163/7/3
f 166/7/3 148/7/3 164/7/3
f 166/7/3 164/7/3 165/7/3
f 167/7/3 165/7/3 145/7/3
f 168/7/3 165/7/3 167/7/3
f 172/3/3 170/3/3 169/3/3
f 173/7/3 171/7/3 170/7/3
f 173/3/3 170/3/3 172/3/3
f 174/7/3 171/7/3 173/7/3
f 178/3/3 176/3/3 175/3/3
f 179/7/3 177/7/3 176/7/3
f 179/3/3 176/3/3 178/3/3
f 180/7/3 177/7/3 179/7/3
f 186/3/3 185/3/3 184/3/3
f 187/3/3 185/3/3 186/3/3
f 188/3/3 182/3/3 181/3/3
f 189/7/3 183/7/3 182/7/3
f 189/3/3 182/3/3 188/3/3
f 190/7/3 183/7/3 189/7/3
f 191/3/3 186/3/3 184/3/3
f 192/3/3 186/3/3 191/3/3
f 198/3/3 194/3/3 193/3/3
f 200/3/3 196/3/3 195/3/3
f 201/7/3 197/7/3 196/7/3
f 201/3/3 196/3/3 200/3/3
f 202/7/3 197/7/3 201/7/3
f 203/3/3 198/3/3 193/3/3
f 203/3/3 199/3/3 198/3/3
f 204/3/3 199/3/3 203/3/3
f 207/3/3 206/3/3 205/3/3
f 208/3/3 206/3/3 207/3/3
f 211/3/3 210/3/3 209/3/3
f 212/3/3 210/3/3 211/3/3
f 215/3/3 214/3/3 213/3/3
f 216/3/3 214/3/3 215/3/3
f 219/3/3 218/3/3 217/3/3
f 220/3/3 218/3/3 219/3/3
f 221/3/4 222/3/4 223/3/4
f 223/3/4 222/3/4 224/3/4
f 221/3/4 223/3/4 225/3/4
f 225/3/4 223/3/4 226/3/4
f 227/3/4 228/3/4 229/3/4
f 227/3/4 229/3/4 231/3/4
f 229/3/4 230/3/4 231/3/4
f 231/3/4 230/3/4 232/3/4
f 233/3/4 234/3/4 236/3/4
f 234/7/4 235/7/4 237/7/4
f 236/3/4 234/3/4 237/3/4
f 237/7/4 235/7/4 238/7/4
f 239/3/4 240/3/4 242/3/4
f 240/7/4 241/7/4 243/7/4
f 242/3/4 240/3/4 243/3/4
f 243/7/4 241/7/4 244/7/4
f 245/3/4 246/3/4 248/3/4
f 246/7/4 247/7/4 249/7/4
f 248/3/4 246/3/4 249/3/4
f 249/7/4 247/7/4 250/7/4
f 251/3/4 252/3/4 254/3/4
f 252/7/4 253/7/4 255/7/4
f 254/3/4 252/3/4 255/3/4
f 255/7/4 253/7/4 256/7/4
f 257/7/4 258/7/4 259/7/4
f 257/7/4 259/7/4 261/7/4
f 259/7/4 260/7/4 261/7/4
f 261/7/4 260/7/4 262/7/4
f 257/7/4 261/7/4 263/7/4
f 262/7/4 260/7/4 264/7/4
f 264/7/4 260/7/4 265/7/4
f 263/7/4 264/7/4 265/7/4
f 265/7/4 260/7/4 266/7/4
f 257/7/4 263/7/4 267/7/4
f 263/7/4 265/7/4 267/7/4
f 267/7/4 265/7/4 268/7/4
f 269/3/4 270/3/4 271/3/4
f 271/3/4 270/3/4 272/3/4
f 273/3/4 274/3/4 275/3/4
f 275/3/4 274/3/4 276/3/4
f 277/3/4 278/3/4 279/3/4
f 279/3/4 278/3/4 280/3/4
f 281/3/4 282/3/4 283/3/4
f 283/3/4 282/3/4 284/3/4
f 285/3/4 286/3/4 287/3/4
f 287/3/4 286/3/4 288/3/4
f 293/3/5 290/3/5 289/3/5
f 294/3/5 290/3/5 293/3/5
f 295/3/5 292/3/5 291/3/5
f 296/3/5 292/3/5 295/3/5
f 299/7/5 298/7/5 297/7/5
f 300/7/5 298/7/5 299/7/5
f 301/7/5 298/7/5 300/7/5
f 302/7/5 298/7/5 301/7/5
f 303/7/5 299/7/5 297/7/5
f 304/7/5 301/7/5 300/7/5
f 305/7/5 301/7/5 304/7/5
f 306/7/5 298/7/5 302/7/5
f 307/7/5 305/7/5 304/7/5
f 307/7/5 306/7/5 305/7/5
f 307/7/5 303/7/5 297/7/5
f 307/7/5 304/7/5 303/7/5
f 308/7/5 298/7/5 306/7/5
f 308/7/5 306/7/5 307/7/5
f 311/3/5 310/3/5 309/3/5
f 313/3/5 311/3/5 309/3/5
f 313/3/5 312/3/5 311/3/5
f 314/3/5 312/3/5 313/3/5
f 316/3/5 312/3/5 314/3/5
f 317/3/5 312/3/5 316/3/5
f 317/3/5 316/3/5 315/3/5
f 318/3/5 312/3/5 317/3/5
f 320/3/5 317/3/5 315/3/5
f 321/3/5 317/3/5 320/3/5
f 323/3/5 320/3/5 319/3/5
f 323/3/5 322/3/5 321/3/5
f 323/3/5 321/3/5 320/3/5
f 324/3/5 322/3/5 323/3/5
f 325/3/5 322/3/5 324/3/5
f 326/3/5 322/3/5 325/3/5
f 327/3/5 325/3/5 324/3/5
f 328/3/5 325/3/5 327/3/5
f 333/3/5 330/3/5 329/3/5
f 334/3/5 330/3/5 333/3/5
f 335/3/5 332/3/5 331/3/5
f 336/3/5 332/3/5 335/3/5
f 341/3/5 338/3/5 337/3/5
f 342/3/5 338/3/5 341/3/5
f 343/3/5 340/3/5 339/3/5
f 344/3/5 340/3/5 343/3/5
f 345/3/6 346/3/6 349/3/6
f 349/3/6 346/3/6 350/3/6
f 347/3/6 348/3/6 351/3/6
f 351/3/6 348/3/6 352/3/6
f 353/3/6 354/3/6 355/3/6
f 353/3/6 355/3/6 357/3/6
f 355/3/6 356/3/6 357/3/6
f 357/3/6 356/3/6 358/3/6
f 358/3/6 356/3/6 360/3/6
f 360/3/6 356/3/6 361/3/6
f 359/3/6 360/3/6 361/3/6
f 361/3/6 356/3/6 362/3/6
f 359/3/6 361/3/6 364/3/6
f 364/3/6 361/3/6 365/3/6
f 363/3/6 364/3/6 367/3/6
f 365/3/6 366/3/6 367/3/6
f 364/3/6 365/3/6 367/3/6
f 367/3/6 366/3/6 368/3/6
f 368/3/6 366/3/6 369/3/6
f 369/3/6 366/3/6 370/3/6
f 368/3/6 369/3/6 371/3/6
f 371/3/6 369/3/6 372/3/6
f 373/7/6 374/7/6 377/7/6
f 377/7/6 374/7/6 378/7/6
f 375/7/6 376/7/6 379/7/6
f 379/7/6 376/7/6 380/7/6
f 381/7/6 382/7/6 385/7/6
f 385/7/6 382/7/6 386/7/6
f 383/7/6 384/7/6 387/7/6
f 387/7/6 384/7/6 388/7/6
f 389/3/6 390/3/6 393/3/6
f 393/3/6 390/3/6 394/3/6
f 391/3/6 392/3/6 395/3/6
f 395/3/6 392/3/6 396/3/6
f 397/7/6 398/7/6 399/7/6
f 399/7/6 398/7/6 400/7/6
f 401/3/6 402/3/6 405/3/6
f 405/3/6 402/3/6 406/3/6
f 403/3/6 404/3/6 407/3/6
f 407/3/6 404/3/6 408/3/6
