# MagicaVoxel @ Ephtracy

# group
g Player26

# material
mtllib Player26.mtl
usemtl palette

# normals
vn -1 0 0
vn 1 0 0
vn 0 0 1
vn 0 0 -1
vn 0 -1 0
vn 0 1 0

# texcoords
vt 0.294922 0.5
vt 0.298828 0.5
vt 0.419922 0.5
vt 0.458984 0.5
vt 0.462891 0.5
vt 0.466797 0.5
vt 0.955078 0.5
vt 0.958984 0.5
vt 0.970703 0.5
vt 0.978516 0.5
vt 0.994141 0.5

# verts
v -5 18 10
v -5 18 8
v -5 19 10
v -5 19 8
v -5 20 10
v -5 20 8
v -5 25 10
v -5 25 8
v -3 13 13
v -3 13 4
v -3 18 10
v -3 18 8
v -3 19 10
v -3 19 8
v -3 20 10
v -3 20 8
v -3 25 10
v -3 25 8
v -3 27 13
v -3 27 4
v -3 29 9
v -3 29 8
v -3 30 10
v -3 30 9
v -3 30 8
v -3 30 7
v -3 31 11
v -3 31 10
v -3 31 7
v -3 31 6
v -3 32 12
v -3 32 11
v -3 32 6
v -3 32 5
v -3 33 14
v -3 33 12
v -3 33 5
v -3 33 3
v -3 35 14
v -3 35 3
v -2 27 13
v -2 27 4
v -2 29 9
v -2 29 8
v -2 30 10
v -2 30 9
v -2 30 8
v -2 30 7
v -2 31 11
v -2 31 10
v -2 31 7
v -2 31 6
v -2 32 13
v -2 32 12
v -2 32 11
v -2 32 6
v -2 32 5
v -2 32 4
v -2 33 13
v -2 33 12
v -2 33 5
v -2 33 4
v -1 0 14
v -1 0 7
v -1 1 14
v -1 1 11
v -1 1 7
v -1 13 11
v -1 13 7
v -1 27 14
v -1 27 13
v -1 28 14
v -1 28 13
v 0 26 14
v 0 26 13
v 0 27 14
v 0 27 13
v 0 28 14
v 0 28 13
v 0 29 14
v 0 29 13
v 1 25 14
v 1 25 13
v 1 26 14
v 1 26 13
v 1 29 14
v 1 29 13
v 1 30 14
v 1 30 13
v 1 35 11
v 1 35 6
v 1 39 11
v 1 39 6
v 2 24 14
v 2 24 13
v 2 25 14
v 2 25 13
v 2 30 14
v 2 30 13
v 2 31 14
v 2 31 13
v 2 39 10
v 2 39 7
v 2 43 10
v 2 43 7
v 3 23 14
v 3 23 13
v 3 24 14
v 3 24 13
v 4 43 10
v 4 43 7
v 4 44 10
v 4 44 7
v 6 0 14
v 6 0 7
v 6 1 14
v 6 1 11
v 6 1 7
v 6 2 11
v 6 2 10
v 6 13 11
v 6 13 10
v 6 13 7
v 6 29 14
v 6 29 13
v 6 30 14
v 6 30 13
v 2 0 14
v 2 0 7
v 2 1 14
v 2 1 11
v 2 1 10
v 2 1 7
v 2 13 11
v 2 13 10
v 2 13 7
v 2 29 14
v 2 29 13
v 2 30 14
v 2 30 13
v 5 23 14
v 5 23 13
v 5 24 14
v 5 24 13
v 6 24 14
v 6 24 13
v 6 25 14
v 6 25 13
v 6 30 14
v 6 30 13
v 6 31 14
v 6 31 13
v 6 39 10
v 6 39 7
v 6 43 10
v 6 43 7
v 7 25 14
v 7 25 13
v 7 26 14
v 7 26 13
v 7 29 14
v 7 29 13
v 7 30 14
v 7 30 13
v 7 35 11
v 7 35 6
v 7 39 11
v 7 39 6
v 7 43 10
v 7 43 7
v 7 44 10
v 7 44 7
v 8 26 14
v 8 26 13
v 8 27 14
v 8 27 13
v 8 28 14
v 8 28 13
v 8 29 14
v 8 29 13
v 9 0 14
v 9 0 7
v 9 1 14
v 9 1 11
v 9 1 7
v 9 13 11
v 9 13 7
v 9 27 14
v 9 27 13
v 9 28 14
v 9 28 13
v 10 27 13
v 10 27 4
v 10 29 9
v 10 29 8
v 10 30 10
v 10 30 9
v 10 30 8
v 10 30 7
v 10 31 11
v 10 31 10
v 10 31 7
v 10 31 6
v 10 32 13
v 10 32 12
v 10 32 11
v 10 32 6
v 10 32 5
v 10 32 4
v 10 33 13
v 10 33 12
v 10 33 5
v 10 33 4
v 11 13 13
v 11 13 4
v 11 18 10
v 11 18 8
v 11 19 10
v 11 19 8
v 11 20 10
v 11 20 8
v 11 25 10
v 11 25 8
v 11 27 13
v 11 27 4
v 11 29 9
v 11 29 8
v 11 30 10
v 11 30 9
v 11 30 8
v 11 30 7
v 11 31 11
v 11 31 10
v 11 31 7
v 11 31 6
v 11 32 12
v 11 32 11
v 11 32 6
v 11 32 5
v 11 33 14
v 11 33 12
v 11 33 5
v 11 33 3
v 11 35 14
v 11 35 3
v 13 18 10
v 13 18 8
v 13 19 10
v 13 19 8
v 13 20 10
v 13 20 8
v 13 25 10
v 13 25 8
v -3 33 14
v -3 35 14
v -1 0 14
v -1 1 14
v -1 27 14
v -1 28 14
v 0 26 14
v 0 27 14
v 0 28 14
v 0 29 14
v 1 25 14
v 1 26 14
v 1 29 14
v 1 30 14
v 2 0 14
v 2 1 14
v 2 24 14
v 2 25 14
v 2 29 14
v 2 30 14
v 2 31 14
v 3 23 14
v 3 24 14
v 5 23 14
v 5 24 14
v 6 0 14
v 6 1 14
v 6 24 14
v 6 25 14
v 6 29 14
v 6 30 14
v 6 31 14
v 7 25 14
v 7 26 14
v 7 29 14
v 7 30 14
v 8 26 14
v 8 27 14
v 8 28 14
v 8 29 14
v 9 0 14
v 9 1 14
v 9 27 14
v 9 28 14
v 11 33 14
v 11 35 14
v -3 13 13
v -3 27 13
v -2 27 13
v -2 32 13
v -2 33 13
v -1 27 13
v -1 28 13
v -1 32 13
v -1 33 13
v 0 26 13
v 0 27 13
v 0 28 13
v 0 29 13
v 0 31 13
v 0 33 13
v 1 13 13
v 1 25 13
v 1 26 13
v 1 29 13
v 1 30 13
v 1 31 13
v 1 33 13
v 2 13 13
v 2 24 13
v 2 25 13
v 2 29 13
v 2 30 13
v 2 31 13
v 3 23 13
v 3 24 13
v 5 23 13
v 5 24 13
v 6 13 13
v 6 24 13
v 6 25 13
v 6 29 13
v 6 30 13
v 6 31 13
v 7 13 13
v 7 25 13
v 7 26 13
v 7 29 13
v 7 30 13
v 7 31 13
v 7 33 13
v 8 26 13
v 8 27 13
v 8 28 13
v 8 29 13
v 8 31 13
v 8 33 13
v 9 27 13
v 9 28 13
v 9 32 13
v 9 33 13
v 10 27 13
v 10 32 13
v 10 33 13
v 11 13 13
v 11 27 13
v -3 32 12
v -3 33 12
v -2 32 12
v -2 33 12
v 10 32 12
v 10 33 12
v 11 32 12
v 11 33 12
v -3 31 11
v -3 32 11
v -2 31 11
v -2 32 11
v -1 1 11
v -1 13 11
v 1 1 11
v 1 13 11
v 1 35 11
v 1 39 11
v 2 1 11
v 2 13 11
v 6 1 11
v 6 2 11
v 6 13 11
v 7 2 11
v 7 13 11
v 7 35 11
v 7 39 11
v 9 1 11
v 9 13 11
v 10 31 11
v 10 32 11
v 11 31 11
v 11 32 11
v -5 18 10
v -5 19 10
v -5 20 10
v -5 25 10
v -3 18 10
v -3 19 10
v -3 20 10
v -3 25 10
v -3 30 10
v -3 31 10
v -2 30 10
v -2 31 10
v 2 39 10
v 2 43 10
v 4 43 10
v 4 44 10
v 6 39 10
v 6 43 10
v 7 43 10
v 7 44 10
v 10 30 10
v 10 31 10
v 11 18 10
v 11 19 10
v 11 20 10
v 11 25 10
v 11 30 10
v 11 31 10
v 13 18 10
v 13 19 10
v 13 20 10
v 13 25 10
v -3 29 9
v -3 30 9
v -2 29 9
v -2 30 9
v 10 29 9
v 10 30 9
v 11 29 9
v 11 30 9
v -5 18 8
v -5 19 8
v -5 20 8
v -5 25 8
v -3 18 8
v -3 19 8
v -3 20 8
v -3 25 8
v -3 29 8
v -3 30 8
v -2 29 8
v -2 30 8
v 10 29 8
v 10 30 8
v 11 18 8
v 11 19 8
v 11 20 8
v 11 25 8
v 11 29 8
v 11 30 8
v 13 18 8
v 13 19 8
v 13 20 8
v 13 25 8
v -3 30 7
v -3 31 7
v -2 30 7
v -2 31 7
v -1 0 7
v -1 1 7
v -1 13 7
v 2 0 7
v 2 1 7
v 2 13 7
v 2 39 7
v 2 43 7
v 4 43 7
v 4 44 7
v 6 0 7
v 6 1 7
v 6 13 7
v 6 39 7
v 6 43 7
v 7 43 7
v 7 44 7
v 9 0 7
v 9 1 7
v 9 13 7
v 10 30 7
v 10 31 7
v 11 30 7
v 11 31 7
v -3 31 6
v -3 32 6
v -2 31 6
v -2 32 6
v 1 35 6
v 1 39 6
v 7 35 6
v 7 39 6
v 10 31 6
v 10 32 6
v 11 31 6
v 11 32 6
v -3 32 5
v -3 33 5
v -2 32 5
v -2 33 5
v 10 32 5
v 10 33 5
v 11 32 5
v 11 33 5
v -3 13 4
v -3 27 4
v -2 27 4
v -2 32 4
v -2 33 4
v 10 27 4
v 10 32 4
v 10 33 4
v 11 13 4
v 11 27 4
v -3 33 3
v -3 35 3
v 11 33 3
v 11 35 3
v -1 0 14
v 2 0 14
v 6 0 14
v 9 0 14
v -1 0 7
v 2 0 7
v 6 0 7
v 9 0 7
v -3 13 13
v 1 13 13
v 2 13 13
v 6 13 13
v 7 13 13
v 11 13 13
v 2 13 12
v 6 13 12
v -1 13 11
v 1 13 11
v 2 13 11
v 6 13 11
v 7 13 11
v 9 13 11
v 2 13 10
v 6 13 10
v -1 13 7
v 2 13 7
v 6 13 7
v 9 13 7
v -3 13 4
v 11 13 4
v -5 18 10
v -3 18 10
v 11 18 10
v 13 18 10
v -5 18 8
v -3 18 8
v 11 18 8
v 13 18 8
v 3 23 14
v 5 23 14
v 3 23 13
v 5 23 13
v 2 24 14
v 3 24 14
v 5 24 14
v 6 24 14
v 2 24 13
v 3 24 13
v 5 24 13
v 6 24 13
v 1 25 14
v 2 25 14
v 6 25 14
v 7 25 14
v 1 25 13
v 2 25 13
v 6 25 13
v 7 25 13
v 0 26 14
v 1 26 14
v 7 26 14
v 8 26 14
v 0 26 13
v 1 26 13
v 7 26 13
v 8 26 13
v -1 27 14
v 0 27 14
v 8 27 14
v 9 27 14
v -1 27 13
v 0 27 13
v 8 27 13
v 9 27 13
v -3 29 9
v -2 29 9
v 10 29 9
v 11 29 9
v -3 29 8
v -2 29 8
v 10 29 8
v 11 29 8
v 2 30 14
v 6 30 14
v 2 30 13
v 6 30 13
v -3 30 10
v -2 30 10
v 10 30 10
v 11 30 10
v -3 30 9
v -2 30 9
v 10 30 9
v 11 30 9
v -3 30 8
v -2 30 8
v 10 30 8
v 11 30 8
v -3 30 7
v -2 30 7
v 10 30 7
v 11 30 7
v -3 31 11
v -2 31 11
v 10 31 11
v 11 31 11
v -3 31 10
v -2 31 10
v 10 31 10
v 11 31 10
v -3 31 7
v -2 31 7
v 10 31 7
v 11 31 7
v -3 31 6
v -2 31 6
v 10 31 6
v 11 31 6
v -3 32 12
v -2 32 12
v 10 32 12
v 11 32 12
v -3 32 11
v -2 32 11
v 10 32 11
v 11 32 11
v -3 32 6
v -2 32 6
v 10 32 6
v 11 32 6
v -3 32 5
v -2 32 5
v 10 32 5
v 11 32 5
v -3 33 14
v 11 33 14
v -2 33 13
v -1 33 13
v 0 33 13
v 1 33 13
v 7 33 13
v 8 33 13
v 9 33 13
v 10 33 13
v -3 33 12
v -2 33 12
v 10 33 12
v 11 33 12
v -3 33 5
v -2 33 5
v 10 33 5
v 11 33 5
v -2 33 4
v 10 33 4
v -3 33 3
v 11 33 3
v 6 43 10
v 7 43 10
v 6 43 7
v 7 43 7
v -1 1 14
v 2 1 14
v 6 1 14
v 9 1 14
v -1 1 11
v 1 1 11
v 2 1 11
v 6 1 11
v 9 1 11
v -5 25 10
v -3 25 10
v 11 25 10
v 13 25 10
v -5 25 8
v -3 25 8
v 11 25 8
v 13 25 8
v -3 27 13
v -2 27 13
v 10 27 13
v 11 27 13
v -3 27 4
v -2 27 4
v 10 27 4
v 11 27 4
v -1 28 14
v 0 28 14
v 8 28 14
v 9 28 14
v -1 28 13
v 0 28 13
v 8 28 13
v 9 28 13
v 0 29 14
v 1 29 14
v 2 29 14
v 6 29 14
v 7 29 14
v 8 29 14
v 0 29 13
v 1 29 13
v 2 29 13
v 6 29 13
v 7 29 13
v 8 29 13
v 1 30 14
v 2 30 14
v 6 30 14
v 7 30 14
v 1 30 13
v 2 30 13
v 6 30 13
v 7 30 13
v 2 31 14
v 6 31 14
v 2 31 13
v 6 31 13
v -3 35 14
v 11 35 14
v 1 35 11
v 7 35 11
v 1 35 6
v 7 35 6
v -3 35 3
v 11 35 3
v 1 39 11
v 7 39 11
v 2 39 10
v 6 39 10
v 2 39 7
v 6 39 7
v 1 39 6
v 7 39 6
v 2 43 10
v 4 43 10
v 2 43 7
v 4 43 7
v 4 44 10
v 7 44 10
v 4 44 7
v 7 44 7

# faces
f 3/8/1 2/8/1 1/8/1
f 4/8/1 2/8/1 3/8/1
f 5/4/1 4/4/1 3/4/1
f 6/4/1 4/4/1 5/4/1
f 7/5/1 6/5/1 5/5/1
f 8/5/1 6/5/1 7/5/1
f 11/5/1 10/5/1 9/5/1
f 12/5/1 10/5/1 11/5/1
f 13/5/1 11/5/1 9/5/1
f 14/5/1 10/5/1 12/5/1
f 15/5/1 13/5/1 9/5/1
f 16/5/1 10/5/1 14/5/1
f 17/5/1 15/5/1 9/5/1
f 18/5/1 10/5/1 16/5/1
f 19/5/1 17/5/1 9/5/1
f 19/5/1 18/5/1 17/5/1
f 20/5/1 10/5/1 18/5/1
f 20/5/1 18/5/1 19/5/1
f 24/8/1 22/8/1 21/8/1
f 25/8/1 22/8/1 24/8/1
f 28/8/1 24/8/1 23/8/1
f 28/8/1 26/8/1 25/8/1
f 28/8/1 25/8/1 24/8/1
f 29/8/1 26/8/1 28/8/1
f 32/8/1 28/8/1 27/8/1
f 32/8/1 30/8/1 29/8/1
f 32/8/1 29/8/1 28/8/1
f 33/8/1 30/8/1 32/8/1
f 36/8/1 32/8/1 31/8/1
f 36/8/1 34/8/1 33/8/1
f 36/8/1 33/8/1 32/8/1
f 37/8/1 34/8/1 36/8/1
f 39/5/1 37/5/1 36/5/1
f 39/5/1 38/5/1 37/5/1
f 39/5/1 36/5/1 35/5/1
f 40/5/1 38/5/1 39/5/1
f 43/1/1 42/1/1 41/1/1
f 44/1/1 42/1/1 43/1/1
f 45/1/1 43/1/1 41/1/1
f 46/1/1 43/1/1 45/1/1
f 47/1/1 42/1/1 44/1/1
f 48/1/1 42/1/1 47/1/1
f 49/1/1 45/1/1 41/1/1
f 50/1/1 45/1/1 49/1/1
f 51/1/1 42/1/1 48/1/1
f 52/1/1 42/1/1 51/1/1
f 53/1/1 49/1/1 41/1/1
f 54/1/1 49/1/1 53/1/1
f 55/1/1 49/1/1 54/1/1
f 56/1/1 42/1/1 52/1/1
f 57/1/1 42/1/1 56/1/1
f 58/1/1 42/1/1 57/1/1
f 59/8/1 54/8/1 53/8/1
f 60/8/1 54/8/1 59/8/1
f 61/8/1 58/8/1 57/8/1
f 62/8/1 58/8/1 61/8/1
f 65/11/1 64/11/1 63/11/1
f 66/11/1 64/11/1 65/11/1
f 67/11/1 64/11/1 66/11/1
f 68/5/1 67/5/1 66/5/1
f 69/5/1 67/5/1 68/5/1
f 72/8/1 71/8/1 70/8/1
f 73/8/1 71/8/1 72/8/1
f 76/8/1 75/8/1 74/8/1
f 77/8/1 75/8/1 76/8/1
f 80/8/1 79/8/1 78/8/1
f 81/8/1 79/8/1 80/8/1
f 84/8/1 83/8/1 82/8/1
f 85/8/1 83/8/1 84/8/1
f 88/8/1 87/8/1 86/8/1
f 89/8/1 87/8/1 88/8/1
f 92/5/1 91/5/1 90/5/1
f 93/5/1 91/5/1 92/5/1
f 96/8/1 95/8/1 94/8/1
f 97/8/1 95/8/1 96/8/1
f 100/8/1 99/8/1 98/8/1
f 101/8/1 99/8/1 100/8/1
f 104/5/1 103/5/1 102/5/1
f 105/5/1 103/5/1 104/5/1
f 108/8/1 107/8/1 106/8/1
f 109/8/1 107/8/1 108/8/1
f 112/5/1 111/5/1 110/5/1
f 113/5/1 111/5/1 112/5/1
f 116/11/1 115/11/1 114/11/1
f 117/11/1 115/11/1 116/11/1
f 118/11/1 115/11/1 117/11/1
f 119/5/1 118/5/1 117/5/1
f 120/5/1 118/5/1 119/5/1
f 121/4/1 120/4/1 119/4/1
f 122/5/1 118/5/1 120/5/1
f 122/4/1 120/4/1 121/4/1
f 123/5/1 118/5/1 122/5/1
f 126/8/1 125/8/1 124/8/1
f 127/8/1 125/8/1 126/8/1
f 128/11/2 129/11/2 130/11/2
f 130/11/2 129/11/2 131/11/2
f 131/11/2 129/11/2 132/11/2
f 132/11/2 129/11/2 133/11/2
f 131/4/2 132/4/2 134/4/2
f 132/5/2 133/5/2 135/5/2
f 134/4/2 132/4/2 135/4/2
f 135/5/2 133/5/2 136/5/2
f 137/8/2 138/8/2 139/8/2
f 139/8/2 138/8/2 140/8/2
f 141/8/2 142/8/2 143/8/2
f 143/8/2 142/8/2 144/8/2
f 145/8/2 146/8/2 147/8/2
f 147/8/2 146/8/2 148/8/2
f 149/8/2 150/8/2 151/8/2
f 151/8/2 150/8/2 152/8/2
f 153/5/2 154/5/2 155/5/2
f 155/5/2 154/5/2 156/5/2
f 157/8/2 158/8/2 159/8/2
f 159/8/2 158/8/2 160/8/2
f 161/8/2 162/8/2 163/8/2
f 163/8/2 162/8/2 164/8/2
f 165/5/2 166/5/2 167/5/2
f 167/5/2 166/5/2 168/5/2
f 169/5/2 170/5/2 171/5/2
f 171/5/2 170/5/2 172/5/2
f 173/8/2 174/8/2 175/8/2
f 175/8/2 174/8/2 176/8/2
f 177/8/2 178/8/2 179/8/2
f 179/8/2 178/8/2 180/8/2
f 181/11/2 182/11/2 183/11/2
f 183/11/2 182/11/2 184/11/2
f 184/11/2 182/11/2 185/11/2
f 184/5/2 185/5/2 186/5/2
f 186/5/2 185/5/2 187/5/2
f 188/8/2 189/8/2 190/8/2
f 190/8/2 189/8/2 191/8/2
f 192/1/2 193/1/2 194/1/2
f 194/1/2 193/1/2 195/1/2
f 192/1/2 194/1/2 196/1/2
f 196/1/2 194/1/2 197/1/2
f 195/1/2 193/1/2 198/1/2
f 198/1/2 193/1/2 199/1/2
f 192/1/2 196/1/2 200/1/2
f 200/1/2 196/1/2 201/1/2
f 199/1/2 193/1/2 202/1/2
f 202/1/2 193/1/2 203/1/2
f 192/1/2 200/1/2 204/1/2
f 204/1/2 200/1/2 205/1/2
f 205/1/2 200/1/2 206/1/2
f 203/1/2 193/1/2 207/1/2
f 207/1/2 193/1/2 208/1/2
f 208/1/2 193/1/2 209/1/2
f 204/8/2 205/8/2 210/8/2
f 210/8/2 205/8/2 211/8/2
f 208/8/2 209/8/2 212/8/2
f 212/8/2 209/8/2 213/8/2
f 214/5/2 215/5/2 216/5/2
f 216/5/2 215/5/2 217/5/2
f 214/5/2 216/5/2 218/5/2
f 217/5/2 215/5/2 219/5/2
f 214/5/2 218/5/2 220/5/2
f 219/5/2 215/5/2 221/5/2
f 214/5/2 220/5/2 222/5/2
f 221/5/2 215/5/2 223/5/2
f 214/5/2 222/5/2 224/5/2
f 222/5/2 223/5/2 224/5/2
f 223/5/2 215/5/2 225/5/2
f 224/5/2 223/5/2 225/5/2
f 226/8/2 227/8/2 229/8/2
f 229/8/2 227/8/2 230/8/2
f 228/8/2 229/8/2 233/8/2
f 230/8/2 231/8/2 233/8/2
f 229/8/2 230/8/2 233/8/2
f 233/8/2 231/8/2 234/8/2
f 232/8/2 233/8/2 237/8/2
f 234/8/2 235/8/2 237/8/2
f 233/8/2 234/8/2 237/8/2
f 237/8/2 235/8/2 238/8/2
f 236/8/2 237/8/2 241/8/2
f 238/8/2 239/8/2 241/8/2
f 237/8/2 238/8/2 241/8/2
f 241/8/2 239/8/2 242/8/2
f 241/5/2 242/5/2 244/5/2
f 242/5/2 243/5/2 244/5/2
f 240/5/2 241/5/2 244/5/2
f 244/5/2 243/5/2 245/5/2
f 246/8/2 247/8/2 248/8/2
f 248/8/2 247/8/2 249/8/2
f 248/4/2 249/4/2 250/4/2
f 250/4/2 249/4/2 251/4/2
f 250/5/2 251/5/2 252/5/2
f 252/5/2 251/5/2 253/5/2
f 261/8/3 259/8/3 258/8/3
f 262/8/3 259/8/3 261/8/3
f 265/8/3 261/8/3 260/8/3
f 265/8/3 263/8/3 262/8/3
f 265/8/3 262/8/3 261/8/3
f 266/8/3 263/8/3 265/8/3
f 268/11/3 257/11/3 256/11/3
f 269/11/3 257/11/3 268/11/3
f 271/8/3 267/8/3 266/8/3
f 271/8/3 265/8/3 264/8/3
f 271/8/3 266/8/3 265/8/3
f 272/8/3 267/8/3 271/8/3
f 273/8/3 267/8/3 272/8/3
f 276/8/3 271/8/3 270/8/3
f 276/8/3 272/8/3 271/8/3
f 277/8/3 276/8/3 275/8/3
f 278/8/3 272/8/3 276/8/3
f 278/8/3 276/8/3 277/8/3
f 281/8/3 272/8/3 278/8/3
f 282/8/3 272/8/3 281/8/3
f 283/8/3 272/8/3 282/8/3
f 284/8/3 274/8/3 273/8/3
f 285/8/3 274/8/3 284/8/3
f 286/8/3 283/8/3 282/8/3
f 286/8/3 284/8/3 283/8/3
f 287/8/3 284/8/3 286/8/3
f 288/8/3 284/8/3 287/8/3
f 289/8/3 284/8/3 288/8/3
f 290/8/3 288/8/3 287/8/3
f 291/8/3 288/8/3 290/8/3
f 292/8/3 288/8/3 291/8/3
f 293/8/3 288/8/3 292/8/3
f 294/11/3 280/11/3 279/11/3
f 295/11/3 280/11/3 294/11/3
f 296/8/3 292/8/3 291/8/3
f 297/8/3 292/8/3 296/8/3
f 298/5/3 255/5/3 254/5/3
f 299/5/3 255/5/3 298/5/3
f 302/5/3 301/5/3 300/5/3
f 305/5/3 302/5/3 300/5/3
f 305/1/3 303/1/3 302/1/3
f 306/1/3 303/1/3 305/1/3
f 307/8/3 304/8/3 303/8/3
f 307/1/3 303/1/3 306/1/3
f 308/8/3 304/8/3 307/8/3
f 309/5/3 305/5/3 300/5/3
f 310/5/3 305/5/3 309/5/3
f 311/1/3 308/1/3 307/1/3
f 311/1/3 307/1/3 306/1/3
f 312/1/3 308/1/3 311/1/3
f 313/1/3 308/1/3 312/1/3
f 314/1/3 308/1/3 313/1/3
f 315/5/3 309/5/3 300/5/3
f 316/5/3 309/5/3 315/5/3
f 317/5/3 309/5/3 316/5/3
f 318/1/3 313/1/3 312/1/3
f 319/1/3 313/1/3 318/1/3
f 320/7/3 314/7/3 313/7/3
f 320/1/3 313/1/3 319/1/3
f 321/7/3 314/7/3 320/7/3
f 322/4/3 316/4/3 315/4/3
f 323/4/3 316/4/3 322/4/3
f 324/4/3 316/4/3 323/4/3
f 326/1/3 321/1/3 320/1/3
f 326/1/3 320/1/3 319/1/3
f 327/1/3 321/1/3 326/1/3
f 328/6/3 323/6/3 322/6/3
f 329/6/3 323/6/3 328/6/3
f 330/6/3 328/6/3 322/6/3
f 332/6/3 330/6/3 322/6/3
f 332/6/3 331/6/3 330/6/3
f 333/6/3 331/6/3 332/6/3
f 335/7/3 326/7/3 325/7/3
f 336/7/3 326/7/3 335/7/3
f 337/1/3 321/1/3 327/1/3
f 338/4/3 334/4/3 333/4/3
f 338/4/3 333/4/3 332/4/3
f 339/4/3 334/4/3 338/4/3
f 342/1/3 337/1/3 336/1/3
f 343/1/3 321/1/3 337/1/3
f 343/1/3 337/1/3 342/1/3
f 344/1/3 321/1/3 343/1/3
f 345/5/3 340/5/3 339/5/3
f 345/5/3 339/5/3 338/5/3
f 348/1/3 342/1/3 341/1/3
f 348/1/3 343/1/3 342/1/3
f 349/7/3 344/7/3 343/7/3
f 349/1/3 343/1/3 348/1/3
f 350/7/3 344/7/3 349/7/3
f 351/5/3 346/5/3 345/5/3
f 352/1/3 348/1/3 347/1/3
f 352/1/3 349/1/3 348/1/3
f 352/1/3 350/1/3 349/1/3
f 353/1/3 350/1/3 352/1/3
f 354/1/3 350/1/3 353/1/3
f 355/5/3 351/5/3 345/5/3
f 355/1/3 352/1/3 351/1/3
f 355/1/3 353/1/3 352/1/3
f 356/8/3 354/8/3 353/8/3
f 356/1/3 353/1/3 355/1/3
f 357/8/3 354/8/3 356/8/3
f 358/5/3 345/5/3 338/5/3
f 358/5/3 355/5/3 345/5/3
f 359/5/3 355/5/3 358/5/3
f 362/8/3 361/8/3 360/8/3
f 363/8/3 361/8/3 362/8/3
f 366/8/3 365/8/3 364/8/3
f 367/8/3 365/8/3 366/8/3
f 370/8/3 369/8/3 368/8/3
f 371/8/3 369/8/3 370/8/3
f 374/5/3 373/5/3 372/5/3
f 375/5/3 373/5/3 374/5/3
f 378/4/3 375/4/3 374/4/3
f 379/4/3 375/4/3 378/4/3
f 383/5/3 381/5/3 380/5/3
f 383/4/3 382/4/3 381/4/3
f 384/4/3 382/4/3 383/4/3
f 385/5/3 377/5/3 376/5/3
f 386/5/3 377/5/3 385/5/3
f 387/5/3 384/5/3 383/5/3
f 387/5/3 383/5/3 380/5/3
f 388/5/3 384/5/3 387/5/3
f 391/8/3 390/8/3 389/8/3
f 392/8/3 390/8/3 391/8/3
f 397/8/3 394/8/3 393/8/3
f 398/4/3 395/4/3 394/4/3
f 398/8/3 394/8/3 397/8/3
f 399/5/3 396/5/3 395/5/3
f 399/4/3 395/4/3 398/4/3
f 400/5/3 396/5/3 399/5/3
f 403/8/3 402/8/3 401/8/3
f 404/8/3 402/8/3 403/8/3
f 407/5/3 406/5/3 405/5/3
f 409/5/3 407/5/3 405/5/3
f 409/5/3 408/5/3 407/5/3
f 410/5/3 408/5/3 409/5/3
f 411/5/3 408/5/3 410/5/3
f 412/5/3 408/5/3 411/5/3
f 419/8/3 414/8/3 413/8/3
f 420/8/3 414/8/3 419/8/3
f 421/8/3 416/8/3 415/8/3
f 422/4/3 417/4/3 416/4/3
f 422/8/3 416/8/3 421/8/3
f 423/5/3 418/5/3 417/5/3
f 423/4/3 417/4/3 422/4/3
f 424/5/3 418/5/3 423/5/3
f 427/8/3 426/8/3 425/8/3
f 428/8/3 426/8/3 427/8/3
f 431/8/3 430/8/3 429/8/3
f 432/8/3 430/8/3 431/8/3
f 433/8/4 434/8/4 437/8/4
f 434/4/4 435/4/4 438/4/4
f 437/8/4 434/8/4 438/8/4
f 435/5/4 436/5/4 439/5/4
f 438/4/4 435/4/4 439/4/4
f 439/5/4 436/5/4 440/5/4
f 441/8/4 442/8/4 443/8/4
f 443/8/4 442/8/4 444/8/4
f 445/8/4 446/8/4 451/8/4
f 451/8/4 446/8/4 452/8/4
f 447/8/4 448/8/4 453/8/4
f 448/4/4 449/4/4 454/4/4
f 453/8/4 448/8/4 454/8/4
f 449/5/4 450/5/4 455/5/4
f 454/4/4 449/4/4 455/4/4
f 455/5/4 450/5/4 456/5/4
f 457/8/4 458/8/4 459/8/4
f 459/8/4 458/8/4 460/8/4
f 461/11/4 462/11/4 464/11/4
f 462/5/4 463/5/4 465/5/4
f 464/11/4 462/11/4 465/11/4
f 465/5/4 463/5/4 466/5/4
f 467/5/4 468/5/4 469/5/4
f 467/5/4 469/5/4 474/5/4
f 469/5/4 470/5/4 474/5/4
f 474/5/4 470/5/4 475/5/4
f 475/5/4 470/5/4 476/5/4
f 476/5/4 470/5/4 477/5/4
f 471/11/4 472/11/4 478/11/4
f 472/5/4 473/5/4 479/5/4
f 478/11/4 472/11/4 479/11/4
f 479/5/4 473/5/4 480/5/4
f 481/8/4 482/8/4 483/8/4
f 483/8/4 482/8/4 484/8/4
f 485/8/4 486/8/4 487/8/4
f 487/8/4 486/8/4 488/8/4
f 489/5/4 490/5/4 491/5/4
f 491/5/4 490/5/4 492/5/4
f 493/8/4 494/8/4 495/8/4
f 495/8/4 494/8/4 496/8/4
f 497/8/4 498/8/4 499/8/4
f 499/8/4 498/8/4 500/8/4
f 501/8/4 502/8/4 503/8/4
f 503/8/4 502/8/4 504/8/4
f 505/5/4 506/5/4 507/5/4
f 505/5/4 507/5/4 510/5/4
f 507/1/4 508/1/4 510/1/4
f 508/8/4 509/8/4 511/8/4
f 510/1/4 508/1/4 511/1/4
f 511/8/4 509/8/4 512/8/4
f 505/5/4 510/5/4 513/5/4
f 513/5/4 510/5/4 514/5/4
f 515/5/4 516/5/4 517/5/4
f 517/5/4 516/5/4 518/5/4
f 523/11/5 520/11/5 519/11/5
f 524/11/5 520/11/5 523/11/5
f 525/11/5 522/11/5 521/11/5
f 526/11/5 522/11/5 525/11/5
f 533/4/5 529/4/5 528/4/5
f 533/6/5 530/6/5 529/6/5
f 534/4/5 531/4/5 530/4/5
f 534/6/5 530/6/5 533/6/5
f 535/5/5 528/5/5 527/5/5
f 536/4/5 533/4/5 528/4/5
f 536/5/5 528/5/5 535/5/5
f 537/5/5 534/5/5 533/5/5
f 537/4/5 533/4/5 536/4/5
f 538/4/5 531/4/5 534/4/5
f 538/5/5 534/5/5 537/5/5
f 539/5/5 532/5/5 531/5/5
f 539/4/5 531/4/5 538/4/5
f 540/5/5 532/5/5 539/5/5
f 541/5/5 538/5/5 537/5/5
f 542/5/5 538/5/5 541/5/5
f 543/5/5 535/5/5 527/5/5
f 544/5/5 542/5/5 541/5/5
f 545/5/5 542/5/5 544/5/5
f 546/5/5 532/5/5 540/5/5
f 547/5/5 545/5/5 544/5/5
f 547/5/5 546/5/5 545/5/5
f 547/5/5 544/5/5 543/5/5
f 547/5/5 543/5/5 527/5/5
f 548/5/5 532/5/5 546/5/5
f 548/5/5 546/5/5 547/5/5
f 553/8/5 550/8/5 549/8/5
f 554/8/5 550/8/5 553/8/5
f 555/8/5 552/8/5 551/8/5
f 556/8/5 552/8/5 555/8/5
f 559/8/5 558/8/5 557/8/5
f 560/8/5 558/8/5 559/8/5
f 565/8/5 562/8/5 561/8/5
f 566/8/5 562/8/5 565/8/5
f 567/8/5 564/8/5 563/8/5
f 568/8/5 564/8/5 567/8/5
f 573/8/5 570/8/5 569/8/5
f 574/8/5 570/8/5 573/8/5
f 575/8/5 572/8/5 571/8/5
f 576/8/5 572/8/5 575/8/5
f 581/8/5 578/8/5 577/8/5
f 582/8/5 578/8/5 581/8/5
f 583/8/5 580/8/5 579/8/5
f 584/8/5 580/8/5 583/8/5
f 589/8/5 586/8/5 585/8/5
f 590/8/5 586/8/5 589/8/5
f 591/8/5 588/8/5 587/8/5
f 592/8/5 588/8/5 591/8/5
f 597/8/5 594/8/5 593/8/5
f 598/8/5 594/8/5 597/8/5
f 599/8/5 596/8/5 595/8/5
f 600/8/5 596/8/5 599/8/5
f 603/8/5 602/8/5 601/8/5
f 604/8/5 602/8/5 603/8/5
f 609/8/5 606/8/5 605/8/5
f 610/8/5 606/8/5 609/8/5
f 611/8/5 608/8/5 607/8/5
f 612/8/5 608/8/5 611/8/5
f 617/8/5 614/8/5 613/8/5
f 618/8/5 614/8/5 617/8/5
f 619/8/5 616/8/5 615/8/5
f 620/8/5 616/8/5 619/8/5
f 625/8/5 622/8/5 621/8/5
f 626/8/5 622/8/5 625/8/5
f 627/8/5 624/8/5 623/8/5
f 628/8/5 624/8/5 627/8/5
f 633/8/5 630/8/5 629/8/5
f 634/8/5 630/8/5 633/8/5
f 635/8/5 632/8/5 631/8/5
f 636/8/5 632/8/5 635/8/5
f 641/8/5 638/8/5 637/8/5
f 642/8/5 638/8/5 641/8/5
f 643/8/5 640/8/5 639/8/5
f 644/8/5 640/8/5 643/8/5
f 649/8/5 646/8/5 645/8/5
f 650/8/5 646/8/5 649/8/5
f 651/8/5 648/8/5 647/8/5
f 652/8/5 648/8/5 651/8/5
f 655/5/5 654/5/5 653/5/5
f 656/5/5 654/5/5 655/5/5
f 657/5/5 654/5/5 656/5/5
f 658/5/5 654/5/5 657/5/5
f 659/5/5 654/5/5 658/5/5
f 660/5/5 654/5/5 659/5/5
f 661/5/5 654/5/5 660/5/5
f 662/5/5 654/5/5 661/5/5
f 663/5/5 655/5/5 653/5/5
f 664/5/5 655/5/5 663/5/5
f 665/5/5 654/5/5 662/5/5
f 666/5/5 654/5/5 665/5/5
f 671/5/5 668/5/5 667/5/5
f 672/5/5 670/5/5 669/5/5
f 673/5/5 671/5/5 667/5/5
f 673/5/5 672/5/5 671/5/5
f 674/5/5 670/5/5 672/5/5
f 674/5/5 672/5/5 673/5/5
f 677/5/5 676/5/5 675/5/5
f 678/5/5 676/5/5 677/5/5
f 679/11/6 680/11/6 683/11/6
f 683/11/6 680/11/6 684/11/6
f 684/11/6 680/11/6 685/11/6
f 681/11/6 682/11/6 686/11/6
f 686/11/6 682/11/6 687/11/6
f 688/5/6 689/5/6 692/5/6
f 692/5/6 689/5/6 693/5/6
f 690/5/6 691/5/6 694/5/6
f 694/5/6 691/5/6 695/5/6
f 696/5/6 697/5/6 700/5/6
f 700/5/6 697/5/6 701/5/6
f 698/5/6 699/5/6 702/5/6
f 702/5/6 699/5/6 703/5/6
f 704/8/6 705/8/6 708/8/6
f 708/8/6 705/8/6 709/8/6
f 706/8/6 707/8/6 710/8/6
f 710/8/6 707/8/6 711/8/6
f 712/8/6 713/8/6 718/8/6
f 718/8/6 713/8/6 719/8/6
f 714/8/6 715/8/6 720/8/6
f 720/8/6 715/8/6 721/8/6
f 716/8/6 717/8/6 722/8/6
f 722/8/6 717/8/6 723/8/6
f 724/8/6 725/8/6 728/8/6
f 728/8/6 725/8/6 729/8/6
f 726/8/6 727/8/6 730/8/6
f 730/8/6 727/8/6 731/8/6
f 732/8/6 733/8/6 734/8/6
f 734/8/6 733/8/6 735/8/6
f 736/5/6 737/5/6 738/5/6
f 738/5/6 737/5/6 739/5/6
f 736/5/6 738/5/6 740/5/6
f 739/5/6 737/5/6 741/5/6
f 736/5/6 740/5/6 742/5/6
f 740/5/6 741/5/6 742/5/6
f 741/5/6 737/5/6 743/5/6
f 742/5/6 741/5/6 743/5/6
f 744/5/6 745/5/6 746/5/6
f 746/5/6 745/5/6 747/5/6
f 744/5/6 746/5/6 748/5/6
f 747/5/6 745/5/6 749/5/6
f 744/5/6 748/5/6 750/5/6
f 748/5/6 749/5/6 750/5/6
f 749/5/6 745/5/6 751/5/6
f 750/5/6 749/5/6 751/5/6
f 752/5/6 753/5/6 754/5/6
f 754/5/6 753/5/6 755/5/6
f 756/5/6 757/5/6 758/5/6
f 758/5/6 757/5/6 759/5/6
