# MagicaVoxel @ Ephtracy

# group
g Player17

# material
mtllib Player17.mtl
usemtl palette

# normals
vn -1 0 0
vn 1 0 0
vn 0 0 1
vn 0 0 -1
vn 0 -1 0
vn 0 1 0

# texcoords
vt 0.0175781 0.5
vt 0.0488281 0.5
vt 0.0917969 0.5
vt 0.294922 0.5
vt 0.298828 0.5
vt 0.400391 0.5
vt 0.419922 0.5
vt 0.587891 0.5
vt 0.744141 0.5
vt 0.798828 0.5
vt 0.841797 0.5
vt 0.955078 0.5
vt 0.958984 0.5
vt 0.970703 0.5
vt 0.978516 0.5
vt 0.994141 0.5

# verts
v -5 18 10
v -5 18 8
v -5 20 10
v -5 20 8
v -5 22 10
v -5 22 8
v -5 25 10
v -5 25 8
v -3 13 13
v -3 13 4
v -3 18 10
v -3 18 8
v -3 20 10
v -3 20 8
v -3 22 10
v -3 22 8
v -3 25 10
v -3 25 8
v -3 26 13
v -3 26 4
v -3 27 13
v -3 27 4
v -2 27 13
v -2 27 4
v -2 32 13
v -2 32 4
v -2 34 13
v -2 34 4
v -2 36 13
v -2 36 4
v -2 37 13
v -2 37 4
v -1 0 14
v -1 0 7
v -1 1 14
v -1 1 11
v -1 3 11
v -1 3 9
v -1 3 8
v -1 3 7
v -1 13 11
v -1 13 9
v -1 13 8
v -1 13 7
v 3 30 14
v 3 30 13
v 3 32 14
v 3 32 13
v 6 0 14
v 6 0 7
v 6 1 14
v 6 1 11
v 6 3 11
v 6 3 9
v 6 3 8
v 6 3 7
v 6 13 11
v 6 13 9
v 6 13 8
v 6 13 7
v 2 0 14
v 2 0 7
v 2 1 14
v 2 1 11
v 2 3 11
v 2 3 10
v 2 3 9
v 2 3 7
v 2 13 11
v 2 13 10
v 2 13 9
v 2 13 7
v 5 30 14
v 5 30 13
v 5 32 14
v 5 32 13
v 9 0 14
v 9 0 7
v 9 1 14
v 9 1 11
v 9 3 11
v 9 3 10
v 9 3 9
v 9 3 7
v 9 13 11
v 9 13 10
v 9 13 9
v 9 13 7
v 10 27 13
v 10 27 4
v 10 32 13
v 10 32 4
v 10 34 13
v 10 34 4
v 10 36 13
v 10 36 4
v 10 37 13
v 10 37 4
v 11 13 13
v 11 13 4
v 11 18 10
v 11 18 8
v 11 20 10
v 11 20 8
v 11 22 10
v 11 22 8
v 11 25 10
v 11 25 8
v 11 26 13
v 11 26 4
v 11 27 13
v 11 27 4
v 13 18 10
v 13 18 8
v 13 20 10
v 13 20 8
v 13 22 10
v 13 22 8
v 13 25 10
v 13 25 8
v -1 0 14
v -1 1 14
v 2 0 14
v 2 1 14
v 3 30 14
v 3 32 14
v 5 30 14
v 5 32 14
v 6 0 14
v 6 1 14
v 9 0 14
v 9 1 14
v -3 13 13
v -3 26 13
v -3 27 13
v -2 17 13
v -2 19 13
v -2 27 13
v -2 32 13
v -2 34 13
v -2 36 13
v -2 37 13
v -1 25 13
v -1 26 13
v -1 32 13
v -1 34 13
v 0 17 13
v 0 19 13
v 0 24 13
v 0 25 13
v 0 26 13
v 0 27 13
v 0 31 13
v 0 33 13
v 0 34 13
v 0 36 13
v 0 37 13
v 1 23 13
v 1 24 13
v 1 25 13
v 1 26 13
v 1 27 13
v 1 31 13
v 1 33 13
v 2 22 13
v 2 23 13
v 2 24 13
v 2 25 13
v 2 26 13
v 2 29 13
v 2 30 13
v 2 33 13
v 2 34 13
v 2 37 13
v 3 21 13
v 3 22 13
v 3 23 13
v 3 24 13
v 3 25 13
v 3 30 13
v 3 32 13
v 4 13 13
v 4 21 13
v 5 21 13
v 5 22 13
v 5 23 13
v 5 24 13
v 5 25 13
v 5 30 13
v 5 32 13
v 6 22 13
v 6 23 13
v 6 24 13
v 6 25 13
v 6 26 13
v 6 29 13
v 6 30 13
v 6 33 13
v 6 34 13
v 6 37 13
v 7 16 13
v 7 18 13
v 7 23 13
v 7 24 13
v 7 25 13
v 7 26 13
v 7 27 13
v 7 31 13
v 7 33 13
v 8 21 13
v 8 23 13
v 8 24 13
v 8 25 13
v 8 26 13
v 8 27 13
v 8 31 13
v 8 33 13
v 8 34 13
v 8 36 13
v 8 37 13
v 9 16 13
v 9 18 13
v 9 25 13
v 9 26 13
v 9 32 13
v 9 34 13
v 10 21 13
v 10 23 13
v 10 27 13
v 10 32 13
v 10 34 13
v 10 36 13
v 10 37 13
v 11 13 13
v 11 26 13
v 11 27 13
v -1 1 11
v -1 3 11
v -1 13 11
v 0 3 11
v 0 13 11
v 1 3 11
v 1 13 11
v 2 1 11
v 2 3 11
v 2 13 11
v 6 1 11
v 6 3 11
v 6 13 11
v 7 3 11
v 7 13 11
v 8 3 11
v 8 13 11
v 9 1 11
v 9 3 11
v 9 13 11
v -5 18 10
v -5 20 10
v -5 22 10
v -5 25 10
v -3 18 10
v -3 20 10
v -3 22 10
v -3 25 10
v 11 18 10
v 11 20 10
v 11 22 10
v 11 25 10
v 13 18 10
v 13 20 10
v 13 22 10
v 13 25 10
v -5 18 8
v -5 20 8
v -5 22 8
v -5 25 8
v -3 18 8
v -3 20 8
v -3 22 8
v -3 25 8
v 11 18 8
v 11 20 8
v 11 22 8
v 11 25 8
v 13 18 8
v 13 20 8
v 13 22 8
v 13 25 8
v -1 0 7
v -1 3 7
v -1 13 7
v 0 3 7
v 0 13 7
v 1 3 7
v 1 13 7
v 2 0 7
v 2 3 7
v 2 13 7
v 6 0 7
v 6 3 7
v 6 13 7
v 7 3 7
v 7 13 7
v 8 3 7
v 8 13 7
v 9 0 7
v 9 3 7
v 9 13 7
v -3 13 4
v -3 26 4
v -3 27 4
v -2 27 4
v -2 32 4
v -2 34 4
v -2 36 4
v -2 37 4
v 0 32 4
v 0 34 4
v 0 36 4
v 0 37 4
v 2 32 4
v 2 37 4
v 4 13 4
v 4 26 4
v 6 32 4
v 6 37 4
v 8 32 4
v 8 34 4
v 8 36 4
v 8 37 4
v 10 27 4
v 10 32 4
v 10 34 4
v 10 36 4
v 10 37 4
v 11 13 4
v 11 26 4
v 11 27 4
v -1 0 14
v 2 0 14
v 6 0 14
v 9 0 14
v -1 0 7
v 2 0 7
v 6 0 7
v 9 0 7
v -3 13 13
v 4 13 13
v 11 13 13
v -1 13 11
v 0 13 11
v 1 13 11
v 2 13 11
v 6 13 11
v 7 13 11
v 8 13 11
v 9 13 11
v 2 13 10
v 9 13 10
v -1 13 9
v 2 13 9
v 6 13 9
v 9 13 9
v -1 13 8
v 6 13 8
v -1 13 7
v 0 13 7
v 1 13 7
v 2 13 7
v 6 13 7
v 7 13 7
v 8 13 7
v 9 13 7
v -3 13 4
v 4 13 4
v 11 13 4
v -5 18 10
v -3 18 10
v 11 18 10
v 13 18 10
v -5 18 8
v -3 18 8
v 11 18 8
v 13 18 8
v 3 30 14
v 5 30 14
v 3 30 13
v 5 30 13
v -1 1 14
v 2 1 14
v 6 1 14
v 9 1 14
v -1 1 11
v 2 1 11
v 6 1 11
v 9 1 11
v -5 25 10
v -3 25 10
v 11 25 10
v 13 25 10
v -5 25 8
v -3 25 8
v 11 25 8
v 13 25 8
v -3 27 13
v -2 27 13
v 10 27 13
v 11 27 13
v -3 27 4
v -2 27 4
v 10 27 4
v 11 27 4
v 3 32 14
v 5 32 14
v 3 32 13
v 5 32 13
v -2 37 13
v 0 37 13
v 2 37 13
v 6 37 13
v 8 37 13
v 10 37 13
v -2 37 4
v 0 37 4
v 2 37 4
v 6 37 4
v 8 37 4
v 10 37 4

# faces
f 3/13/1 2/13/1 1/13/1
f 4/13/1 2/13/1 3/13/1
f 5/10/1 4/10/1 3/10/1
f 6/10/1 4/10/1 5/10/1
f 7/1/1 6/1/1 5/1/1
f 8/1/1 6/1/1 7/1/1
f 11/10/1 10/10/1 9/10/1
f 12/10/1 10/10/1 11/10/1
f 13/10/1 11/10/1 9/10/1
f 14/10/1 10/10/1 12/10/1
f 15/10/1 13/10/1 9/10/1
f 16/10/1 10/10/1 14/10/1
f 17/10/1 15/10/1 9/10/1
f 18/10/1 10/10/1 16/10/1
f 19/10/1 17/10/1 9/10/1
f 19/10/1 18/10/1 17/10/1
f 20/10/1 10/10/1 18/10/1
f 20/10/1 18/10/1 19/10/1
f 21/11/1 20/11/1 19/11/1
f 22/11/1 20/11/1 21/11/1
f 25/13/1 24/13/1 23/13/1
f 26/13/1 24/13/1 25/13/1
f 27/6/1 26/6/1 25/6/1
f 28/6/1 26/6/1 27/6/1
f 29/8/1 28/8/1 27/8/1
f 30/8/1 28/8/1 29/8/1
f 31/1/1 30/1/1 29/1/1
f 32/1/1 30/1/1 31/1/1
f 35/11/1 34/11/1 33/11/1
f 36/11/1 34/11/1 35/11/1
f 37/11/1 34/11/1 36/11/1
f 38/11/1 34/11/1 37/11/1
f 39/11/1 34/11/1 38/11/1
f 40/11/1 34/11/1 39/11/1
f 41/1/1 38/1/1 37/1/1
f 42/11/1 39/11/1 38/11/1
f 42/1/1 38/1/1 41/1/1
f 43/1/1 40/1/1 39/1/1
f 43/11/1 39/11/1 42/11/1
f 44/1/1 40/1/1 43/1/1
f 47/11/1 46/11/1 45/11/1
f 48/11/1 46/11/1 47/11/1
f 51/11/1 50/11/1 49/11/1
f 52/11/1 50/11/1 51/11/1
f 53/11/1 50/11/1 52/11/1
f 54/11/1 50/11/1 53/11/1
f 55/11/1 50/11/1 54/11/1
f 56/11/1 50/11/1 55/11/1
f 57/1/1 54/1/1 53/1/1
f 58/11/1 55/11/1 54/11/1
f 58/1/1 54/1/1 57/1/1
f 59/1/1 56/1/1 55/1/1
f 59/11/1 55/11/1 58/11/1
f 60/1/1 56/1/1 59/1/1
f 61/11/2 62/11/2 63/11/2
f 63/11/2 62/11/2 64/11/2
f 64/11/2 62/11/2 65/11/2
f 65/11/2 62/11/2 66/11/2
f 66/11/2 62/11/2 67/11/2
f 67/11/2 62/11/2 68/11/2
f 65/1/2 66/1/2 69/1/2
f 66/11/2 67/11/2 70/11/2
f 69/1/2 66/1/2 70/1/2
f 67/1/2 68/1/2 71/1/2
f 70/11/2 67/11/2 71/11/2
f 71/1/2 68/1/2 72/1/2
f 73/11/2 74/11/2 75/11/2
f 75/11/2 74/11/2 76/11/2
f 77/11/2 78/11/2 79/11/2
f 79/11/2 78/11/2 80/11/2
f 80/11/2 78/11/2 81/11/2
f 81/11/2 78/11/2 82/11/2
f 82/11/2 78/11/2 83/11/2
f 83/11/2 78/11/2 84/11/2
f 81/1/2 82/1/2 85/1/2
f 82/11/2 83/11/2 86/11/2
f 85/1/2 82/1/2 86/1/2
f 83/1/2 84/1/2 87/1/2
f 86/11/2 83/11/2 87/11/2
f 87/1/2 84/1/2 88/1/2
f 89/13/2 90/13/2 91/13/2
f 91/13/2 90/13/2 92/13/2
f 91/6/2 92/6/2 93/6/2
f 93/6/2 92/6/2 94/6/2
f 93/8/2 94/8/2 95/8/2
f 95/8/2 94/8/2 96/8/2
f 95/1/2 96/1/2 97/1/2
f 97/1/2 96/1/2 98/1/2
f 99/1/2 100/1/2 101/1/2
f 101/1/2 100/1/2 102/1/2
f 99/1/2 101/1/2 103/1/2
f 102/1/2 100/1/2 104/1/2
f 99/1/2 103/1/2 105/1/2
f 104/1/2 100/1/2 106/1/2
f 99/1/2 105/1/2 107/1/2
f 106/1/2 100/1/2 108/1/2
f 99/1/2 107/1/2 109/1/2
f 107/1/2 108/1/2 109/1/2
f 108/1/2 100/1/2 110/1/2
f 109/1/2 108/1/2 110/1/2
f 109/11/2 110/11/2 111/11/2
f 111/11/2 110/11/2 112/11/2
f 113/13/2 114/13/2 115/13/2
f 115/13/2 114/13/2 116/13/2
f 115/10/2 116/10/2 117/10/2
f 117/10/2 116/10/2 118/10/2
f 117/1/2 118/1/2 119/1/2
f 119/1/2 118/1/2 120/1/2
f 123/11/3 122/11/3 121/11/3
f 124/11/3 122/11/3 123/11/3
f 127/11/3 126/11/3 125/11/3
f 128/11/3 126/11/3 127/11/3
f 131/11/3 130/11/3 129/11/3
f 132/11/3 130/11/3 131/11/3
f 136/10/3 134/10/3 133/10/3
f 137/10/3 134/10/3 136/10/3
f 138/11/3 135/11/3 134/11/3
f 143/10/3 134/10/3 137/10/3
f 144/11/3 138/11/3 134/11/3
f 144/10/3 134/10/3 143/10/3
f 145/13/3 139/13/3 138/13/3
f 145/6/3 140/6/3 139/6/3
f 146/8/3 141/8/3 140/8/3
f 146/6/3 140/6/3 145/6/3
f 147/10/3 136/10/3 133/10/3
f 147/1/3 137/1/3 136/1/3
f 148/10/3 143/10/3 137/10/3
f 148/1/3 137/1/3 147/1/3
f 149/10/3 143/10/3 148/10/3
f 150/11/3 144/11/3 143/11/3
f 150/10/3 143/10/3 149/10/3
f 151/11/3 138/11/3 144/11/3
f 151/11/3 144/11/3 150/11/3
f 152/13/3 146/13/3 145/13/3
f 152/11/3 138/11/3 151/11/3
f 152/13/3 145/13/3 138/13/3
f 153/13/3 146/13/3 152/13/3
f 154/13/3 146/13/3 153/13/3
f 155/8/3 141/8/3 146/8/3
f 155/13/3 146/13/3 154/13/3
f 156/1/3 142/1/3 141/1/3
f 156/8/3 141/8/3 155/8/3
f 157/1/3 142/1/3 156/1/3
f 158/10/3 149/10/3 148/10/3
f 158/10/3 148/10/3 147/10/3
f 159/11/3 151/11/3 150/11/3
f 159/10/3 149/10/3 158/10/3
f 159/11/3 150/11/3 149/11/3
f 160/11/3 151/11/3 159/11/3
f 161/13/3 152/13/3 151/13/3
f 161/11/3 151/11/3 160/11/3
f 161/13/3 153/13/3 152/13/3
f 162/13/3 153/13/3 161/13/3
f 163/12/3 154/12/3 153/12/3
f 163/13/3 153/13/3 162/13/3
f 164/13/3 155/13/3 154/13/3
f 164/12/3 154/12/3 163/12/3
f 165/10/3 158/10/3 147/10/3
f 166/11/3 160/11/3 159/11/3
f 166/10/3 158/10/3 165/10/3
f 166/11/3 159/11/3 158/11/3
f 167/11/3 160/11/3 166/11/3
f 168/13/3 161/13/3 160/13/3
f 168/11/3 160/11/3 167/11/3
f 169/11/3 162/11/3 161/11/3
f 169/13/3 161/13/3 168/13/3
f 170/13/3 163/13/3 162/13/3
f 170/13/3 164/13/3 163/13/3
f 171/13/3 164/13/3 170/13/3
f 172/13/3 155/13/3 164/13/3
f 172/13/3 164/13/3 171/13/3
f 173/2/3 156/2/3 155/2/3
f 173/13/3 155/13/3 172/13/3
f 173/2/3 157/2/3 156/2/3
f 174/2/3 157/2/3 173/2/3
f 175/10/3 165/10/3 147/10/3
f 176/11/3 167/11/3 166/11/3
f 176/10/3 165/10/3 175/10/3
f 176/11/3 166/11/3 165/11/3
f 177/11/3 167/11/3 176/11/3
f 178/13/3 168/13/3 167/13/3
f 178/11/3 167/11/3 177/11/3
f 179/11/3 169/11/3 168/11/3
f 179/13/3 168/13/3 178/13/3
f 180/11/3 171/11/3 170/11/3
f 180/13/3 172/13/3 171/13/3
f 181/13/3 172/13/3 180/13/3
f 182/10/3 147/10/3 133/10/3
f 182/10/3 175/10/3 147/10/3
f 183/11/3 177/11/3 176/11/3
f 183/10/3 175/10/3 182/10/3
f 183/11/3 176/11/3 175/11/3
f 184/1/3 183/1/3 182/1/3
f 184/11/3 177/11/3 183/11/3
f 185/11/3 177/11/3 184/11/3
f 186/13/3 178/13/3 177/13/3
f 186/11/3 177/11/3 185/11/3
f 187/11/3 179/11/3 178/11/3
f 187/13/3 178/13/3 186/13/3
f 188/11/3 169/11/3 179/11/3
f 188/11/3 179/11/3 187/11/3
f 189/11/3 180/11/3 170/11/3
f 190/13/3 172/13/3 181/13/3
f 191/11/3 187/11/3 186/11/3
f 191/11/3 186/11/3 185/11/3
f 191/1/3 185/1/3 184/1/3
f 192/11/3 187/11/3 191/11/3
f 193/13/3 188/13/3 187/13/3
f 193/11/3 187/11/3 192/11/3
f 194/11/3 169/11/3 188/11/3
f 194/13/3 188/13/3 193/13/3
f 195/11/3 162/11/3 169/11/3
f 195/11/3 169/11/3 194/11/3
f 196/11/3 189/11/3 170/11/3
f 196/13/3 170/13/3 162/13/3
f 197/13/3 190/13/3 189/13/3
f 197/11/3 189/11/3 196/11/3
f 198/13/3 172/13/3 190/13/3
f 198/13/3 190/13/3 197/13/3
f 198/3/3 174/3/3 173/3/3
f 198/3/3 173/3/3 172/3/3
f 199/3/3 174/3/3 198/3/3
f 200/3/3 174/3/3 199/3/3
f 201/1/3 191/1/3 184/1/3
f 201/1/3 192/1/3 191/1/3
f 201/1/3 184/1/3 182/1/3
f 202/1/3 192/1/3 201/1/3
f 203/11/3 194/11/3 193/11/3
f 203/1/3 192/1/3 202/1/3
f 203/11/3 193/11/3 192/11/3
f 204/11/3 194/11/3 203/11/3
f 205/13/3 195/13/3 194/13/3
f 205/11/3 194/11/3 204/11/3
f 206/11/3 162/11/3 195/11/3
f 206/13/3 195/13/3 205/13/3
f 207/13/3 196/13/3 162/13/3
f 207/11/3 162/11/3 206/11/3
f 207/13/3 197/13/3 196/13/3
f 207/13/3 199/13/3 198/13/3
f 207/13/3 198/13/3 197/13/3
f 208/13/3 199/13/3 207/13/3
f 209/13/3 199/13/3 208/13/3
f 210/1/3 203/1/3 202/1/3
f 210/1/3 204/1/3 203/1/3
f 211/1/3 204/1/3 210/1/3
f 212/11/3 206/11/3 205/11/3
f 212/1/3 204/1/3 211/1/3
f 212/11/3 205/11/3 204/11/3
f 213/11/3 206/11/3 212/11/3
f 214/13/3 207/13/3 206/13/3
f 214/11/3 206/11/3 213/11/3
f 214/13/3 208/13/3 207/13/3
f 215/13/3 208/13/3 214/13/3
f 216/12/3 209/12/3 208/12/3
f 216/13/3 208/13/3 215/13/3
f 217/13/3 199/13/3 209/13/3
f 217/12/3 209/12/3 216/12/3
f 218/2/3 200/2/3 199/2/3
f 218/13/3 199/13/3 217/13/3
f 219/2/3 200/2/3 218/2/3
f 220/2/3 200/2/3 219/2/3
f 221/9/3 202/9/3 201/9/3
f 221/1/3 201/1/3 182/1/3
f 222/1/3 210/1/3 202/1/3
f 222/9/3 202/9/3 221/9/3
f 223/11/3 215/11/3 214/11/3
f 223/1/3 213/1/3 212/1/3
f 223/1/3 212/1/3 211/1/3
f 223/11/3 214/11/3 213/11/3
f 224/11/3 215/11/3 223/11/3
f 225/13/3 216/13/3 215/13/3
f 225/13/3 217/13/3 216/13/3
f 225/13/3 218/13/3 217/13/3
f 226/8/3 219/8/3 218/8/3
f 226/13/3 218/13/3 225/13/3
f 227/6/3 211/6/3 210/6/3
f 227/1/3 210/1/3 222/1/3
f 227/1/3 222/1/3 221/1/3
f 228/1/3 224/1/3 223/1/3
f 228/6/3 211/6/3 227/6/3
f 228/1/3 223/1/3 211/1/3
f 229/11/3 215/11/3 224/11/3
f 229/13/3 225/13/3 215/13/3
f 230/6/3 226/6/3 225/6/3
f 230/13/3 225/13/3 229/13/3
f 231/8/3 219/8/3 226/8/3
f 231/6/3 226/6/3 230/6/3
f 232/1/3 220/1/3 219/1/3
f 232/8/3 219/8/3 231/8/3
f 233/1/3 220/1/3 232/1/3
f 234/1/3 221/1/3 182/1/3
f 234/1/3 228/1/3 227/1/3
f 234/1/3 227/1/3 221/1/3
f 235/1/3 224/1/3 228/1/3
f 235/1/3 228/1/3 234/1/3
f 235/11/3 229/11/3 224/11/3
f 236/11/3 229/11/3 235/11/3
f 240/11/3 238/11/3 237/11/3
f 240/1/3 239/1/3 238/1/3
f 241/1/3 239/1/3 240/1/3
f 242/11/3 240/11/3 237/11/3
f 242/11/3 241/11/3 240/11/3
f 243/11/3 241/11/3 242/11/3
f 244/11/3 242/11/3 237/11/3
f 245/1/3 243/1/3 242/1/3
f 245/11/3 242/11/3 244/11/3
f 246/1/3 243/1/3 245/1/3
f 250/11/3 248/11/3 247/11/3
f 250/1/3 249/1/3 248/1/3
f 251/1/3 249/1/3 250/1/3
f 252/11/3 250/11/3 247/11/3
f 252/11/3 251/11/3 250/11/3
f 253/11/3 251/11/3 252/11/3
f 254/11/3 252/11/3 247/11/3
f 255/1/3 253/1/3 252/1/3
f 255/11/3 252/11/3 254/11/3
f 256/1/3 253/1/3 255/1/3
f 261/13/3 258/13/3 257/13/3
f 262/10/3 259/10/3 258/10/3
f 262/13/3 258/13/3 261/13/3
f 263/1/3 260/1/3 259/1/3
f 263/10/3 259/10/3 262/10/3
f 264/1/3 260/1/3 263/1/3
f 269/13/3 266/13/3 265/13/3
f 270/10/3 267/10/3 266/10/3
f 270/13/3 266/13/3 269/13/3
f 271/1/3 268/1/3 267/1/3
f 271/10/3 267/10/3 270/10/3
f 272/1/3 268/1/3 271/1/3
f 273/13/4 274/13/4 277/13/4
f 274/10/4 275/10/4 278/10/4
f 277/13/4 274/13/4 278/13/4
f 275/1/4 276/1/4 279/1/4
f 278/10/4 275/10/4 279/10/4
f 279/1/4 276/1/4 280/1/4
f 281/13/4 282/13/4 285/13/4
f 282/10/4 283/10/4 286/10/4
f 285/13/4 282/13/4 286/13/4
f 283/1/4 284/1/4 287/1/4
f 286/10/4 283/10/4 287/10/4
f 287/1/4 284/1/4 288/1/4
f 289/11/4 290/11/4 292/11/4
f 290/1/4 291/1/4 292/1/4
f 292/1/4 291/1/4 293/1/4
f 289/11/4 292/11/4 294/11/4
f 292/11/4 293/11/4 294/11/4
f 294/11/4 293/11/4 295/11/4
f 289/11/4 294/11/4 296/11/4
f 294/1/4 295/1/4 297/1/4
f 296/11/4 294/11/4 297/11/4
f 297/1/4 295/1/4 298/1/4
f 299/11/4 300/11/4 302/11/4
f 300/1/4 301/1/4 302/1/4
f 302/1/4 301/1/4 303/1/4
f 299/11/4 302/11/4 304/11/4
f 302/11/4 303/11/4 304/11/4
f 304/11/4 303/11/4 305/11/4
f 299/11/4 304/11/4 306/11/4
f 304/1/4 305/1/4 307/1/4
f 306/11/4 304/11/4 307/11/4
f 307/1/4 305/1/4 308/1/4
f 310/11/4 311/11/4 312/11/4
f 312/13/4 313/13/4 317/13/4
f 313/6/4 314/6/4 317/6/4
f 314/8/4 315/8/4 318/8/4
f 317/6/4 314/6/4 318/6/4
f 315/1/4 316/1/4 319/1/4
f 318/8/4 315/8/4 319/8/4
f 319/1/4 316/1/4 320/1/4
f 317/2/4 318/2/4 321/2/4
f 312/13/4 317/13/4 321/13/4
f 319/2/4 320/2/4 321/2/4
f 318/2/4 319/2/4 321/2/4
f 321/2/4 320/2/4 322/2/4
f 309/10/4 310/10/4 323/10/4
f 310/11/4 312/11/4 324/11/4
f 323/10/4 310/10/4 324/10/4
f 312/13/4 321/13/4 325/13/4
f 321/3/4 322/3/4 325/3/4
f 325/3/4 322/3/4 326/3/4
f 312/13/4 325/13/4 327/13/4
f 325/2/4 326/2/4 327/2/4
f 327/2/4 326/2/4 328/2/4
f 328/2/4 326/2/4 329/2/4
f 329/2/4 326/2/4 330/2/4
f 324/11/4 312/11/4 331/11/4
f 312/13/4 327/13/4 331/13/4
f 327/6/4 328/6/4 332/6/4
f 331/13/4 327/13/4 332/13/4
f 328/8/4 329/8/4 333/8/4
f 332/6/4 328/6/4 333/6/4
f 329/1/4 330/1/4 334/1/4
f 333/8/4 329/8/4 334/8/4
f 334/1/4 330/1/4 335/1/4
f 323/1/4 324/1/4 336/1/4
f 324/11/4 331/11/4 337/11/4
f 336/1/4 324/1/4 337/1/4
f 337/11/4 331/11/4 338/11/4
f 343/11/5 340/11/5 339/11/5
f 344/11/5 340/11/5 343/11/5
f 345/11/5 342/11/5 341/11/5
f 346/11/5 342/11/5 345/11/5
f 350/10/5 348/10/5 347/10/5
f 351/10/5 348/10/5 350/10/5
f 352/10/5 348/10/5 351/10/5
f 353/10/5 348/10/5 352/10/5
f 354/1/5 349/1/5 348/1/5
f 355/1/5 349/1/5 354/1/5
f 356/1/5 349/1/5 355/1/5
f 357/1/5 349/1/5 356/1/5
f 358/10/5 348/10/5 353/10/5
f 359/1/5 349/1/5 357/1/5
f 360/10/5 350/10/5 347/10/5
f 361/10/5 348/10/5 358/10/5
f 362/1/5 354/1/5 348/1/5
f 363/1/5 349/1/5 359/1/5
f 364/10/5 360/10/5 347/10/5
f 365/1/5 362/1/5 348/1/5
f 366/10/5 364/10/5 347/10/5
f 369/10/5 348/10/5 361/10/5
f 370/1/5 365/1/5 348/1/5
f 373/1/5 349/1/5 363/1/5
f 374/10/5 368/10/5 367/10/5
f 374/10/5 369/10/5 368/10/5
f 374/10/5 366/10/5 347/10/5
f 374/10/5 367/10/5 366/10/5
f 375/1/5 372/1/5 371/1/5
f 375/10/5 369/10/5 374/10/5
f 375/1/5 370/1/5 348/1/5
f 375/10/5 348/10/5 369/10/5
f 375/1/5 373/1/5 372/1/5
f 375/1/5 371/1/5 370/1/5
f 376/1/5 349/1/5 373/1/5
f 376/1/5 373/1/5 375/1/5
f 381/13/5 378/13/5 377/13/5
f 382/13/5 378/13/5 381/13/5
f 383/13/5 380/13/5 379/13/5
f 384/13/5 380/13/5 383/13/5
f 387/11/5 386/11/5 385/11/5
f 388/11/5 386/11/5 387/11/5
f 389/11/6 390/11/6 393/11/6
f 393/11/6 390/11/6 394/11/6
f 391/11/6 392/11/6 395/11/6
f 395/11/6 392/11/6 396/11/6
f 397/1/6 398/1/6 401/1/6
f 401/1/6 398/1/6 402/1/6
f 399/1/6 400/1/6 403/1/6
f 403/1/6 400/1/6 404/1/6
f 405/11/6 406/11/6 409/11/6
f 409/11/6 406/11/6 410/11/6
f 407/11/6 408/11/6 411/11/6
f 411/11/6 408/11/6 412/11/6
f 413/11/6 414/11/6 415/11/6
f 415/11/6 414/11/6 416/11/6
f 417/1/6 418/1/6 423/1/6
f 418/2/6 419/2/6 424/2/6
f 423/1/6 418/1/6 424/1/6
f 419/3/6 420/3/6 425/3/6
f 424/2/6 419/2/6 425/2/6
f 420/2/6 421/2/6 426/2/6
f 425/3/6 420/3/6 426/3/6
f 421/1/6 422/1/6 427/1/6
f 426/2/6 421/2/6 427/2/6
f 427/1/6 422/1/6 428/1/6
