# MagicaVoxel @ Ephtracy

# group
g Player20

# material
mtllib Player20.mtl
usemtl palette

# normals
vn -1 0 0
vn 1 0 0
vn 0 0 1
vn 0 0 -1
vn 0 -1 0
vn 0 1 0

# texcoords
vt 0.0410156 0.5
vt 0.146484 0.5
vt 0.173828 0.5
vt 0.294922 0.5
vt 0.298828 0.5
vt 0.419922 0.5
vt 0.767578 0.5
vt 0.955078 0.5
vt 0.958984 0.5
vt 0.970703 0.5
vt 0.978516 0.5
vt 0.982422 0.5
vt 0.994141 0.5

# verts
v -5 18 10
v -5 18 8
v -5 23 10
v -5 23 8
v -5 25 10
v -5 25 8
v -3 13 13
v -3 13 4
v -3 18 10
v -3 18 8
v -3 22 11
v -3 22 10
v -3 22 8
v -3 22 7
v -3 23 10
v -3 23 8
v -3 25 10
v -3 25 8
v -3 26 11
v -3 26 7
v -3 27 13
v -3 27 4
v -2 27 13
v -2 27 4
v -2 32 13
v -2 32 4
v -2 34 13
v -2 34 4
v -2 35 13
v -2 35 4
v -1 0 14
v -1 0 7
v -1 1 14
v -1 1 11
v -1 5 11
v -1 5 7
v -1 13 11
v -1 13 7
v -1 35 13
v -1 35 5
v -1 37 13
v -1 37 5
v 0 35 15
v 0 35 13
v 0 36 15
v 0 36 13
v 0 37 12
v 0 37 6
v 0 38 12
v 0 38 6
v 1 38 11
v 1 38 7
v 1 39 11
v 1 39 7
v 3 39 11
v 3 39 7
v 3 40 11
v 3 40 7
v 6 0 14
v 6 0 7
v 6 1 14
v 6 1 11
v 6 5 11
v 6 5 7
v 6 13 11
v 6 13 7
v 2 0 14
v 2 0 7
v 2 1 14
v 2 1 11
v 2 5 11
v 2 5 7
v 2 13 11
v 2 13 7
v 5 39 11
v 5 39 7
v 5 40 11
v 5 40 7
v 7 38 11
v 7 38 7
v 7 39 11
v 7 39 7
v 8 37 12
v 8 37 6
v 8 38 12
v 8 38 6
v 9 0 14
v 9 0 7
v 9 1 14
v 9 1 11
v 9 5 11
v 9 5 7
v 9 13 11
v 9 13 7
v 9 35 15
v 9 35 13
v 9 35 5
v 9 36 15
v 9 36 13
v 9 37 13
v 9 37 5
v 10 27 13
v 10 27 4
v 10 32 13
v 10 32 4
v 10 34 13
v 10 34 4
v 10 35 13
v 10 35 4
v 11 13 13
v 11 13 4
v 11 18 10
v 11 18 8
v 11 22 11
v 11 22 10
v 11 22 8
v 11 22 7
v 11 23 10
v 11 23 8
v 11 25 10
v 11 25 8
v 11 26 11
v 11 26 7
v 11 27 13
v 11 27 4
v 13 18 10
v 13 18 8
v 13 23 10
v 13 23 8
v 13 25 10
v 13 25 8
v 0 35 15
v 0 36 15
v 9 35 15
v 9 36 15
v -1 0 14
v -1 1 14
v 2 0 14
v 2 1 14
v 6 0 14
v 6 1 14
v 9 0 14
v 9 1 14
v -3 13 13
v -3 27 13
v -2 27 13
v -2 32 13
v -2 34 13
v -2 35 13
v -1 32 13
v -1 34 13
v -1 35 13
v -1 37 13
v 0 26 13
v 0 27 13
v 0 31 13
v 0 33 13
v 0 35 13
v 0 36 13
v 1 25 13
v 1 26 13
v 1 31 13
v 1 33 13
v 2 24 13
v 2 25 13
v 2 29 13
v 2 30 13
v 2 33 13
v 2 34 13
v 3 13 13
v 3 24 13
v 5 13 13
v 5 24 13
v 6 24 13
v 6 25 13
v 6 29 13
v 6 30 13
v 6 33 13
v 6 34 13
v 7 25 13
v 7 26 13
v 7 31 13
v 7 33 13
v 8 26 13
v 8 27 13
v 8 31 13
v 8 33 13
v 9 32 13
v 9 34 13
v 9 35 13
v 9 36 13
v 9 37 13
v 10 27 13
v 10 32 13
v 10 34 13
v 10 35 13
v 11 13 13
v 11 27 13
v 0 37 12
v 0 38 12
v 8 37 12
v 8 38 12
v -1 1 11
v -1 5 11
v -1 13 11
v 1 38 11
v 1 39 11
v 2 1 11
v 2 5 11
v 2 13 11
v 3 39 11
v 3 40 11
v 5 39 11
v 5 40 11
v 6 1 11
v 6 5 11
v 6 13 11
v 7 38 11
v 7 39 11
v 9 1 11
v 9 5 11
v 9 13 11
v -5 18 10
v -5 23 10
v -5 25 10
v -3 18 10
v -3 22 10
v -3 23 10
v -3 25 10
v 11 18 10
v 11 22 10
v 11 23 10
v 11 25 10
v 13 18 10
v 13 23 10
v 13 25 10
v -5 18 8
v -5 23 8
v -5 25 8
v -3 18 8
v -3 22 8
v -3 23 8
v -3 25 8
v 11 18 8
v 11 22 8
v 11 23 8
v 11 25 8
v 13 18 8
v 13 23 8
v 13 25 8
v -1 0 7
v -1 5 7
v -1 13 7
v 1 38 7
v 1 39 7
v 2 0 7
v 2 5 7
v 2 13 7
v 3 39 7
v 3 40 7
v 5 39 7
v 5 40 7
v 6 0 7
v 6 5 7
v 6 13 7
v 7 38 7
v 7 39 7
v 9 0 7
v 9 5 7
v 9 13 7
v 0 37 6
v 0 38 6
v 8 37 6
v 8 38 6
v -1 35 5
v -1 37 5
v 9 35 5
v 9 37 5
v -3 13 4
v -3 27 4
v -2 27 4
v -2 32 4
v -2 34 4
v -2 35 4
v 10 27 4
v 10 32 4
v 10 34 4
v 10 35 4
v 11 13 4
v 11 27 4
v -1 0 14
v 2 0 14
v 6 0 14
v 9 0 14
v -1 0 7
v 2 0 7
v 6 0 7
v 9 0 7
v -3 13 13
v 3 13 13
v 5 13 13
v 11 13 13
v -2 13 12
v 3 13 12
v 5 13 12
v 10 13 12
v -1 13 11
v 2 13 11
v 6 13 11
v 9 13 11
v -1 13 7
v 2 13 7
v 6 13 7
v 9 13 7
v -2 13 5
v 10 13 5
v -3 13 4
v 11 13 4
v -5 18 10
v -3 18 10
v 11 18 10
v 13 18 10
v -5 18 8
v -3 18 8
v 11 18 8
v 13 18 8
v 0 35 15
v 9 35 15
v 0 35 13
v 9 35 13
v -1 1 14
v 2 1 14
v 6 1 14
v 9 1 14
v -1 1 11
v 2 1 11
v 6 1 11
v 9 1 11
v -5 25 10
v -3 25 10
v 11 25 10
v 13 25 10
v -5 25 8
v -3 25 8
v 11 25 8
v 13 25 8
v -3 27 13
v -2 27 13
v 10 27 13
v 11 27 13
v -3 27 4
v -2 27 4
v 10 27 4
v 11 27 4
v -2 35 13
v -1 35 13
v 9 35 13
v 10 35 13
v -1 35 5
v 9 35 5
v -2 35 4
v 10 35 4
v 0 36 15
v 9 36 15
v 0 36 13
v 9 36 13
v -1 37 13
v 9 37 13
v 0 37 12
v 8 37 12
v 0 37 6
v 8 37 6
v -1 37 5
v 9 37 5
v 0 38 12
v 8 38 12
v 1 38 11
v 7 38 11
v 1 38 7
v 7 38 7
v 0 38 6
v 8 38 6
v 1 39 11
v 3 39 11
v 5 39 11
v 7 39 11
v 1 39 7
v 3 39 7
v 5 39 7
v 7 39 7
v 3 40 11
v 5 40 11
v 3 40 7
v 5 40 7

# faces
f 3/4/1 2/4/1 1/4/1
f 4/4/1 2/4/1 3/4/1
f 5/9/1 4/9/1 3/9/1
f 6/9/1 4/9/1 5/9/1
f 9/3/1 8/3/1 7/3/1
f 10/3/1 8/3/1 9/3/1
f 11/3/1 9/3/1 7/3/1
f 12/3/1 9/3/1 11/3/1
f 13/3/1 8/3/1 10/3/1
f 14/3/1 8/3/1 13/3/1
f 15/9/1 12/9/1 11/9/1
f 16/9/1 14/9/1 13/9/1
f 17/9/1 15/9/1 11/9/1
f 18/9/1 14/9/1 16/9/1
f 19/3/1 11/3/1 7/3/1
f 19/9/1 18/9/1 17/9/1
f 19/9/1 17/9/1 11/9/1
f 20/3/1 8/3/1 14/3/1
f 20/9/1 18/9/1 19/9/1
f 20/9/1 14/9/1 18/9/1
f 21/3/1 19/3/1 7/3/1
f 21/3/1 20/3/1 19/3/1
f 22/3/1 8/3/1 20/3/1
f 22/3/1 20/3/1 21/3/1
f 25/4/1 24/4/1 23/4/1
f 26/4/1 24/4/1 25/4/1
f 27/5/1 26/5/1 25/5/1
f 28/5/1 26/5/1 27/5/1
f 29/2/1 28/2/1 27/2/1
f 30/2/1 28/2/1 29/2/1
f 33/1/1 32/1/1 31/1/1
f 34/1/1 32/1/1 33/1/1
f 35/1/1 32/1/1 34/1/1
f 36/1/1 32/1/1 35/1/1
f 37/7/1 36/7/1 35/7/1
f 38/7/1 36/7/1 37/7/1
f 41/2/1 40/2/1 39/2/1
f 42/2/1 40/2/1 41/2/1
f 45/2/1 44/2/1 43/2/1
f 46/2/1 44/2/1 45/2/1
f 49/2/1 48/2/1 47/2/1
f 50/2/1 48/2/1 49/2/1
f 53/2/1 52/2/1 51/2/1
f 54/2/1 52/2/1 53/2/1
f 57/2/1 56/2/1 55/2/1
f 58/2/1 56/2/1 57/2/1
f 61/1/1 60/1/1 59/1/1
f 62/1/1 60/1/1 61/1/1
f 63/1/1 60/1/1 62/1/1
f 64/1/1 60/1/1 63/1/1
f 65/7/1 64/7/1 63/7/1
f 66/7/1 64/7/1 65/7/1
f 67/1/2 68/1/2 69/1/2
f 69/1/2 68/1/2 70/1/2
f 70/1/2 68/1/2 71/1/2
f 71/1/2 68/1/2 72/1/2
f 71/7/2 72/7/2 73/7/2
f 73/7/2 72/7/2 74/7/2
f 75/2/2 76/2/2 77/2/2
f 77/2/2 76/2/2 78/2/2
f 79/2/2 80/2/2 81/2/2
f 81/2/2 80/2/2 82/2/2
f 83/2/2 84/2/2 85/2/2
f 85/2/2 84/2/2 86/2/2
f 87/1/2 88/1/2 89/1/2
f 89/1/2 88/1/2 90/1/2
f 90/1/2 88/1/2 91/1/2
f 91/1/2 88/1/2 92/1/2
f 91/7/2 92/7/2 93/7/2
f 93/7/2 92/7/2 94/7/2
f 95/2/2 96/2/2 98/2/2
f 96/2/2 97/2/2 98/2/2
f 98/2/2 97/2/2 99/2/2
f 99/2/2 97/2/2 100/2/2
f 100/2/2 97/2/2 101/2/2
f 102/4/2 103/4/2 104/4/2
f 104/4/2 103/4/2 105/4/2
f 104/5/2 105/5/2 106/5/2
f 106/5/2 105/5/2 107/5/2
f 106/2/2 107/2/2 108/2/2
f 108/2/2 107/2/2 109/2/2
f 110/3/2 111/3/2 112/3/2
f 112/3/2 111/3/2 113/3/2
f 110/3/2 112/3/2 114/3/2
f 114/3/2 112/3/2 115/3/2
f 113/3/2 111/3/2 116/3/2
f 116/3/2 111/3/2 117/3/2
f 114/9/2 115/9/2 118/9/2
f 116/9/2 117/9/2 119/9/2
f 114/9/2 118/9/2 120/9/2
f 119/9/2 117/9/2 121/9/2
f 110/3/2 114/3/2 122/3/2
f 120/9/2 121/9/2 122/9/2
f 114/9/2 120/9/2 122/9/2
f 117/3/2 111/3/2 123/3/2
f 122/9/2 121/9/2 123/9/2
f 121/9/2 117/9/2 123/9/2
f 110/3/2 122/3/2 124/3/2
f 122/3/2 123/3/2 124/3/2
f 123/3/2 111/3/2 125/3/2
f 124/3/2 123/3/2 125/3/2
f 126/4/2 127/4/2 128/4/2
f 128/4/2 127/4/2 129/4/2
f 128/9/2 129/9/2 130/9/2
f 130/9/2 129/9/2 131/9/2
f 134/2/3 133/2/3 132/2/3
f 135/2/3 133/2/3 134/2/3
f 138/1/3 137/1/3 136/1/3
f 139/1/3 137/1/3 138/1/3
f 142/1/3 141/1/3 140/1/3
f 143/1/3 141/1/3 142/1/3
f 146/3/3 145/3/3 144/3/3
f 150/4/3 147/4/3 146/4/3
f 150/5/3 148/5/3 147/5/3
f 151/2/3 149/2/3 148/2/3
f 151/5/3 148/5/3 150/5/3
f 152/2/3 149/2/3 151/2/3
f 154/3/3 146/3/3 144/3/3
f 155/4/3 150/4/3 146/4/3
f 155/3/3 146/3/3 154/3/3
f 155/4/3 151/4/3 150/4/3
f 156/4/3 151/4/3 155/4/3
f 157/4/3 151/4/3 156/4/3
f 158/2/3 153/2/3 152/2/3
f 158/2/3 152/2/3 151/2/3
f 159/2/3 153/2/3 158/2/3
f 160/3/3 154/3/3 144/3/3
f 161/9/3 155/9/3 154/9/3
f 161/3/3 154/3/3 160/3/3
f 162/8/3 157/8/3 156/8/3
f 162/4/3 156/4/3 155/4/3
f 163/4/3 151/4/3 157/4/3
f 163/8/3 157/8/3 162/8/3
f 164/3/3 160/3/3 144/3/3
f 165/9/3 161/9/3 160/9/3
f 165/3/3 160/3/3 164/3/3
f 166/4/3 162/4/3 155/4/3
f 166/4/3 163/4/3 162/4/3
f 167/4/3 163/4/3 166/4/3
f 168/4/3 151/4/3 163/4/3
f 168/4/3 163/4/3 167/4/3
f 169/2/3 158/2/3 151/2/3
f 169/4/3 151/4/3 168/4/3
f 170/3/3 164/3/3 144/3/3
f 171/9/3 165/9/3 164/9/3
f 171/3/3 164/3/3 170/3/3
f 172/9/3 171/9/3 170/9/3
f 173/9/3 165/9/3 171/9/3
f 173/9/3 171/9/3 172/9/3
f 174/3/3 173/3/3 172/3/3
f 174/9/3 165/9/3 173/9/3
f 175/9/3 161/9/3 165/9/3
f 175/9/3 165/9/3 174/9/3
f 176/8/3 167/8/3 166/8/3
f 176/4/3 166/4/3 155/4/3
f 177/4/3 168/4/3 167/4/3
f 177/8/3 167/8/3 176/8/3
f 178/5/3 169/5/3 168/5/3
f 178/4/3 168/4/3 177/4/3
f 179/2/3 158/2/3 169/2/3
f 179/5/3 169/5/3 178/5/3
f 180/9/3 161/9/3 175/9/3
f 180/3/3 175/3/3 174/3/3
f 181/9/3 155/9/3 161/9/3
f 181/9/3 161/9/3 180/9/3
f 182/4/3 178/4/3 177/4/3
f 182/4/3 179/4/3 178/4/3
f 182/4/3 177/4/3 176/4/3
f 183/4/3 179/4/3 182/4/3
f 184/9/3 155/9/3 181/9/3
f 184/3/3 181/3/3 180/3/3
f 185/4/3 176/4/3 155/4/3
f 185/9/3 155/9/3 184/9/3
f 185/4/3 182/4/3 176/4/3
f 186/8/3 183/8/3 182/8/3
f 186/4/3 182/4/3 185/4/3
f 187/4/3 179/4/3 183/4/3
f 187/8/3 183/8/3 186/8/3
f 188/4/3 186/4/3 185/4/3
f 188/4/3 187/4/3 186/4/3
f 189/2/3 158/2/3 179/2/3
f 189/4/3 187/4/3 188/4/3
f 189/4/3 179/4/3 187/4/3
f 190/2/3 158/2/3 189/2/3
f 191/2/3 153/2/3 159/2/3
f 192/2/3 153/2/3 191/2/3
f 193/4/3 188/4/3 185/4/3
f 193/3/3 185/3/3 184/3/3
f 194/5/3 189/5/3 188/5/3
f 194/4/3 188/4/3 193/4/3
f 195/2/3 190/2/3 189/2/3
f 195/5/3 189/5/3 194/5/3
f 196/2/3 190/2/3 195/2/3
f 197/3/3 174/3/3 172/3/3
f 197/3/3 193/3/3 184/3/3
f 197/3/3 180/3/3 174/3/3
f 197/3/3 184/3/3 180/3/3
f 198/3/3 193/3/3 197/3/3
f 201/2/3 200/2/3 199/2/3
f 202/2/3 200/2/3 201/2/3
f 208/1/3 204/1/3 203/1/3
f 209/7/3 205/7/3 204/7/3
f 209/1/3 204/1/3 208/1/3
f 210/7/3 205/7/3 209/7/3
f 211/2/3 207/2/3 206/2/3
f 213/2/3 211/2/3 206/2/3
f 213/2/3 212/2/3 211/2/3
f 214/2/3 212/2/3 213/2/3
f 218/2/3 213/2/3 206/2/3
f 219/2/3 213/2/3 218/2/3
f 220/1/3 216/1/3 215/1/3
f 221/7/3 217/7/3 216/7/3
f 221/1/3 216/1/3 220/1/3
f 222/7/3 217/7/3 221/7/3
f 226/4/3 224/4/3 223/4/3
f 227/4/3 224/4/3 226/4/3
f 228/9/3 225/9/3 224/9/3
f 228/4/3 224/4/3 227/4/3
f 229/9/3 225/9/3 228/9/3
f 234/4/3 231/4/3 230/4/3
f 234/4/3 232/4/3 231/4/3
f 235/9/3 233/9/3 232/9/3
f 235/4/3 232/4/3 234/4/3
f 236/9/3 233/9/3 235/9/3
f 237/4/4 238/4/4 240/4/4
f 240/4/4 238/4/4 241/4/4
f 238/9/4 239/9/4 242/9/4
f 241/4/4 238/4/4 242/4/4
f 242/9/4 239/9/4 243/9/4
f 244/4/4 245/4/4 248/4/4
f 245/4/4 246/4/4 248/4/4
f 246/9/4 247/9/4 249/9/4
f 248/4/4 246/4/4 249/4/4
f 249/9/4 247/9/4 250/9/4
f 251/1/4 252/1/4 256/1/4
f 252/7/4 253/7/4 257/7/4
f 256/1/4 252/1/4 257/1/4
f 257/7/4 253/7/4 258/7/4
f 254/2/4 255/2/4 259/2/4
f 254/2/4 259/2/4 261/2/4
f 259/2/4 260/2/4 261/2/4
f 261/2/4 260/2/4 262/2/4
f 254/2/4 261/2/4 266/2/4
f 266/2/4 261/2/4 267/2/4
f 263/1/4 264/1/4 268/1/4
f 264/7/4 265/7/4 269/7/4
f 268/1/4 264/1/4 269/1/4
f 269/7/4 265/7/4 270/7/4
f 271/2/4 272/2/4 273/2/4
f 273/2/4 272/2/4 274/2/4
f 275/2/4 276/2/4 277/2/4
f 277/2/4 276/2/4 278/2/4
f 279/3/4 280/3/4 281/3/4
f 279/3/4 281/3/4 285/3/4
f 281/4/4 282/4/4 285/4/4
f 282/5/4 283/5/4 286/5/4
f 285/4/4 282/4/4 286/4/4
f 283/2/4 284/2/4 287/2/4
f 286/5/4 283/5/4 287/5/4
f 287/2/4 284/2/4 288/2/4
f 279/3/4 285/3/4 289/3/4
f 289/3/4 285/3/4 290/3/4
f 295/1/5 292/1/5 291/1/5
f 296/1/5 292/1/5 295/1/5
f 297/1/5 294/1/5 293/1/5
f 298/1/5 294/1/5 297/1/5
f 303/3/5 300/3/5 299/3/5
f 304/9/5 301/9/5 300/9/5
f 304/3/5 300/3/5 303/3/5
f 305/3/5 302/3/5 301/3/5
f 305/9/5 301/9/5 304/9/5
f 306/3/5 302/3/5 305/3/5
f 307/12/5 304/12/5 303/12/5
f 307/12/5 305/12/5 304/12/5
f 307/12/5 306/12/5 305/12/5
f 308/12/5 306/12/5 307/12/5
f 309/12/5 306/12/5 308/12/5
f 310/12/5 306/12/5 309/12/5
f 311/12/5 307/12/5 303/12/5
f 312/12/5 309/12/5 308/12/5
f 313/12/5 309/12/5 312/12/5
f 314/12/5 306/12/5 310/12/5
f 315/3/5 303/3/5 299/3/5
f 315/12/5 314/12/5 313/12/5
f 315/12/5 313/12/5 312/12/5
f 315/12/5 311/12/5 303/12/5
f 315/12/5 312/12/5 311/12/5
f 316/3/5 302/3/5 306/3/5
f 316/12/5 314/12/5 315/12/5
f 316/12/5 306/12/5 314/12/5
f 317/3/5 315/3/5 299/3/5
f 317/3/5 316/3/5 315/3/5
f 318/3/5 302/3/5 316/3/5
f 318/3/5 316/3/5 317/3/5
f 323/4/5 320/4/5 319/4/5
f 324/4/5 320/4/5 323/4/5
f 325/4/5 322/4/5 321/4/5
f 326/4/5 322/4/5 325/4/5
f 329/2/5 328/2/5 327/2/5
f 330/2/5 328/2/5 329/2/5
f 331/1/6 332/1/6 335/1/6
f 335/1/6 332/1/6 336/1/6
f 333/1/6 334/1/6 337/1/6
f 337/1/6 334/1/6 338/1/6
f 339/9/6 340/9/6 343/9/6
f 343/9/6 340/9/6 344/9/6
f 341/9/6 342/9/6 345/9/6
f 345/9/6 342/9/6 346/9/6
f 347/3/6 348/3/6 351/3/6
f 351/3/6 348/3/6 352/3/6
f 349/3/6 350/3/6 353/3/6
f 353/3/6 350/3/6 354/3/6
f 355/2/6 356/2/6 359/2/6
f 357/2/6 358/2/6 360/2/6
f 355/2/6 359/2/6 361/2/6
f 359/2/6 360/2/6 361/2/6
f 360/2/6 358/2/6 362/2/6
f 361/2/6 360/2/6 362/2/6
f 363/2/6 364/2/6 365/2/6
f 365/2/6 364/2/6 366/2/6
f 367/2/6 368/2/6 369/2/6
f 369/2/6 368/2/6 370/2/6
f 367/2/6 369/2/6 371/2/6
f 370/2/6 368/2/6 372/2/6
f 367/2/6 371/2/6 373/2/6
f 371/2/6 372/2/6 373/2/6
f 372/2/6 368/2/6 374/2/6
f 373/2/6 372/2/6 374/2/6
f 375/2/6 376/2/6 377/2/6
f 377/2/6 376/2/6 378/2/6
f 375/2/6 377/2/6 379/2/6
f 378/2/6 376/2/6 380/2/6
f 375/2/6 379/2/6 381/2/6
f 379/2/6 380/2/6 381/2/6
f 380/2/6 376/2/6 382/2/6
f 381/2/6 380/2/6 382/2/6
f 383/2/6 384/2/6 387/2/6
f 387/2/6 384/2/6 388/2/6
f 385/2/6 386/2/6 389/2/6
f 389/2/6 386/2/6 390/2/6
f 391/2/6 392/2/6 393/2/6
f 393/2/6 392/2/6 394/2/6
