# MagicaVoxel @ Ephtracy

# group
g Player18

# material
mtllib Player18.mtl
usemtl palette

# normals
vn -1 0 0
vn 1 0 0
vn 0 0 1
vn 0 0 -1
vn 0 -1 0
vn 0 1 0

# texcoords
vt 0.0488281 0.5
vt 0.294922 0.5
vt 0.298828 0.5
vt 0.419922 0.5
vt 0.587891 0.5
vt 0.955078 0.5
vt 0.966797 0.5
vt 0.970703 0.5
vt 0.978516 0.5
vt 0.982422 0.5
vt 0.994141 0.5

# verts
v -5 18 10
v -5 18 8
v -5 22 10
v -5 22 8
v -5 25 10
v -5 25 8
v -4 28 9
v -4 28 8
v -4 29 9
v -4 29 8
v -3 13 13
v -3 13 4
v -3 18 10
v -3 18 8
v -3 22 10
v -3 22 8
v -3 25 10
v -3 25 8
v -3 27 13
v -3 27 4
v -2 27 13
v -2 27 4
v -2 28 9
v -2 28 8
v -2 29 9
v -2 29 8
v -2 32 13
v -2 32 4
v -2 38 13
v -2 38 4
v -1 0 14
v -1 0 7
v -1 1 14
v -1 1 11
v -1 13 11
v -1 13 7
v 6 0 14
v 6 0 7
v 6 1 14
v 6 1 11
v 6 13 11
v 6 13 7
v 2 0 14
v 2 0 7
v 2 1 14
v 2 1 11
v 2 13 11
v 2 13 7
v 9 0 14
v 9 0 7
v 9 1 14
v 9 1 11
v 9 13 11
v 9 13 7
v 10 27 13
v 10 27 4
v 10 28 9
v 10 28 8
v 10 29 9
v 10 29 8
v 10 32 13
v 10 32 4
v 10 38 13
v 10 38 4
v 11 13 13
v 11 13 4
v 11 18 10
v 11 18 8
v 11 22 10
v 11 22 8
v 11 25 10
v 11 25 8
v 11 27 13
v 11 27 4
v 12 28 9
v 12 28 8
v 12 29 9
v 12 29 8
v 13 18 10
v 13 18 8
v 13 22 10
v 13 22 8
v 13 25 10
v 13 25 8
v -1 0 14
v -1 1 14
v 2 0 14
v 2 1 14
v 6 0 14
v 6 1 14
v 9 0 14
v 9 1 14
v -3 13 13
v -3 27 13
v -2 27 13
v -2 32 13
v -2 38 13
v -1 32 13
v -1 35 13
v -1 36 13
v -1 37 13
v 0 31 13
v 0 33 13
v 0 34 13
v 0 35 13
v 0 36 13
v 0 37 13
v 1 13 13
v 1 27 13
v 1 31 13
v 1 33 13
v 1 34 13
v 1 35 13
v 1 36 13
v 1 37 13
v 2 29 13
v 2 30 13
v 2 34 13
v 2 35 13
v 2 36 13
v 2 37 13
v 3 34 13
v 3 35 13
v 3 36 13
v 3 37 13
v 4 34 13
v 4 35 13
v 4 36 13
v 4 37 13
v 5 34 13
v 5 35 13
v 5 36 13
v 5 37 13
v 6 29 13
v 6 30 13
v 6 34 13
v 6 35 13
v 6 36 13
v 6 37 13
v 7 13 13
v 7 27 13
v 7 31 13
v 7 33 13
v 7 34 13
v 7 35 13
v 7 36 13
v 7 37 13
v 8 31 13
v 8 33 13
v 8 34 13
v 8 35 13
v 8 36 13
v 8 37 13
v 9 32 13
v 9 34 13
v 9 37 13
v 10 27 13
v 10 32 13
v 10 38 13
v 11 13 13
v 11 27 13
v -1 1 11
v -1 13 11
v 2 1 11
v 2 13 11
v 6 1 11
v 6 13 11
v 9 1 11
v 9 13 11
v -5 18 10
v -5 22 10
v -5 25 10
v -3 18 10
v -3 22 10
v -3 25 10
v 11 18 10
v 11 22 10
v 11 25 10
v 13 18 10
v 13 22 10
v 13 25 10
v -4 28 9
v -4 29 9
v -2 28 9
v -2 29 9
v 10 28 9
v 10 29 9
v 12 28 9
v 12 29 9
v -5 18 8
v -5 22 8
v -5 25 8
v -4 28 8
v -4 29 8
v -3 18 8
v -3 22 8
v -3 25 8
v -2 28 8
v -2 29 8
v 10 28 8
v 10 29 8
v 11 18 8
v 11 22 8
v 11 25 8
v 12 28 8
v 12 29 8
v 13 18 8
v 13 22 8
v 13 25 8
v -1 0 7
v -1 13 7
v 2 0 7
v 2 13 7
v 6 0 7
v 6 13 7
v 9 0 7
v 9 13 7
v -3 13 4
v -3 27 4
v -2 27 4
v -2 32 4
v -2 38 4
v 10 27 4
v 10 32 4
v 10 38 4
v 11 13 4
v 11 27 4
v -1 0 14
v 2 0 14
v 6 0 14
v 9 0 14
v -1 0 7
v 2 0 7
v 6 0 7
v 9 0 7
v -3 13 13
v 1 13 13
v 7 13 13
v 11 13 13
v -2 13 12
v 1 13 12
v 7 13 12
v 10 13 12
v -1 13 11
v 2 13 11
v 6 13 11
v 9 13 11
v -1 13 7
v 2 13 7
v 6 13 7
v 9 13 7
v -2 13 5
v 10 13 5
v -3 13 4
v 11 13 4
v -5 18 10
v -3 18 10
v 11 18 10
v 13 18 10
v -5 18 8
v -3 18 8
v 11 18 8
v 13 18 8
v -4 28 9
v -2 28 9
v 10 28 9
v 12 28 9
v -4 28 8
v -2 28 8
v 10 28 8
v 12 28 8
v -1 1 14
v 2 1 14
v 6 1 14
v 9 1 14
v -1 1 11
v 2 1 11
v 6 1 11
v 9 1 11
v -5 25 10
v -3 25 10
v 11 25 10
v 13 25 10
v -5 25 8
v -3 25 8
v 11 25 8
v 13 25 8
v -3 27 13
v -2 27 13
v 10 27 13
v 11 27 13
v -3 27 4
v -2 27 4
v 10 27 4
v 11 27 4
v -4 29 9
v -2 29 9
v 10 29 9
v 12 29 9
v -4 29 8
v -2 29 8
v 10 29 8
v 12 29 8
v -2 38 13
v 10 38 13
v -2 38 4
v 10 38 4

# faces
f 3/1/1 2/1/1 1/1/1
f 4/1/1 2/1/1 3/1/1
f 5/11/1 4/11/1 3/11/1
f 6/11/1 4/11/1 5/11/1
f 9/7/1 8/7/1 7/7/1
f 10/7/1 8/7/1 9/7/1
f 13/5/1 12/5/1 11/5/1
f 14/5/1 12/5/1 13/5/1
f 15/5/1 13/5/1 11/5/1
f 16/5/1 12/5/1 14/5/1
f 17/5/1 15/5/1 11/5/1
f 18/5/1 12/5/1 16/5/1
f 19/5/1 17/5/1 11/5/1
f 19/5/1 18/5/1 17/5/1
f 20/5/1 12/5/1 18/5/1
f 20/5/1 18/5/1 19/5/1
f 23/1/1 22/1/1 21/1/1
f 24/1/1 22/1/1 23/1/1
f 25/1/1 23/1/1 21/1/1
f 26/1/1 22/1/1 24/1/1
f 27/1/1 25/1/1 21/1/1
f 27/1/1 26/1/1 25/1/1
f 28/1/1 22/1/1 26/1/1
f 28/1/1 26/1/1 27/1/1
f 29/6/1 28/6/1 27/6/1
f 30/6/1 28/6/1 29/6/1
f 33/11/1 32/11/1 31/11/1
f 34/11/1 32/11/1 33/11/1
f 35/11/1 32/11/1 34/11/1
f 36/11/1 32/11/1 35/11/1
f 39/11/1 38/11/1 37/11/1
f 40/11/1 38/11/1 39/11/1
f 41/11/1 38/11/1 40/11/1
f 42/11/1 38/11/1 41/11/1
f 43/11/2 44/11/2 45/11/2
f 45/11/2 44/11/2 46/11/2
f 46/11/2 44/11/2 47/11/2
f 47/11/2 44/11/2 48/11/2
f 49/11/2 50/11/2 51/11/2
f 51/11/2 50/11/2 52/11/2
f 52/11/2 50/11/2 53/11/2
f 53/11/2 50/11/2 54/11/2
f 55/1/2 56/1/2 57/1/2
f 57/1/2 56/1/2 58/1/2
f 55/1/2 57/1/2 59/1/2
f 58/1/2 56/1/2 60/1/2
f 55/1/2 59/1/2 61/1/2
f 59/1/2 60/1/2 61/1/2
f 60/1/2 56/1/2 62/1/2
f 61/1/2 60/1/2 62/1/2
f 61/6/2 62/6/2 63/6/2
f 63/6/2 62/6/2 64/6/2
f 65/5/2 66/5/2 67/5/2
f 67/5/2 66/5/2 68/5/2
f 65/5/2 67/5/2 69/5/2
f 68/5/2 66/5/2 70/5/2
f 65/5/2 69/5/2 71/5/2
f 70/5/2 66/5/2 72/5/2
f 65/5/2 71/5/2 73/5/2
f 71/5/2 72/5/2 73/5/2
f 72/5/2 66/5/2 74/5/2
f 73/5/2 72/5/2 74/5/2
f 75/7/2 76/7/2 77/7/2
f 77/7/2 76/7/2 78/7/2
f 79/1/2 80/1/2 81/1/2
f 81/1/2 80/1/2 82/1/2
f 81/11/2 82/11/2 83/11/2
f 83/11/2 82/11/2 84/11/2
f 87/11/3 86/11/3 85/11/3
f 88/11/3 86/11/3 87/11/3
f 91/11/3 90/11/3 89/11/3
f 92/11/3 90/11/3 91/11/3
f 95/5/3 94/5/3 93/5/3
f 98/1/3 96/1/3 95/1/3
f 98/6/3 97/6/3 96/6/3
f 99/6/3 97/6/3 98/6/3
f 100/6/3 97/6/3 99/6/3
f 101/6/3 97/6/3 100/6/3
f 102/1/3 98/1/3 95/1/3
f 102/1/3 99/1/3 98/1/3
f 103/1/3 99/1/3 102/1/3
f 104/1/3 99/1/3 103/1/3
f 105/11/3 100/11/3 99/11/3
f 105/1/3 99/1/3 104/1/3
f 106/1/3 101/1/3 100/1/3
f 106/11/3 100/11/3 105/11/3
f 107/6/3 97/6/3 101/6/3
f 107/1/3 101/1/3 106/1/3
f 108/5/3 95/5/3 93/5/3
f 109/1/3 102/1/3 95/1/3
f 109/5/3 95/5/3 108/5/3
f 110/6/3 103/6/3 102/6/3
f 110/1/3 102/1/3 109/1/3
f 111/1/3 104/1/3 103/1/3
f 111/6/3 103/6/3 110/6/3
f 112/7/3 106/7/3 105/7/3
f 112/1/3 104/1/3 111/1/3
f 112/7/3 105/7/3 104/7/3
f 112/7/3 107/7/3 106/7/3
f 113/7/3 107/7/3 112/7/3
f 114/7/3 107/7/3 113/7/3
f 115/6/3 97/6/3 107/6/3
f 115/7/3 107/7/3 114/7/3
f 116/1/3 111/1/3 110/1/3
f 116/1/3 110/1/3 109/1/3
f 116/1/3 112/1/3 111/1/3
f 116/1/3 113/1/3 112/1/3
f 117/1/3 113/1/3 116/1/3
f 118/1/3 113/1/3 117/1/3
f 119/11/3 114/11/3 113/11/3
f 119/1/3 113/1/3 118/1/3
f 120/1/3 115/1/3 114/1/3
f 120/11/3 114/11/3 119/11/3
f 121/6/3 97/6/3 115/6/3
f 121/1/3 115/1/3 120/1/3
f 122/1/3 118/1/3 117/1/3
f 122/7/3 120/7/3 119/7/3
f 122/7/3 121/7/3 120/7/3
f 122/7/3 119/7/3 118/7/3
f 123/7/3 121/7/3 122/7/3
f 124/7/3 121/7/3 123/7/3
f 125/6/3 97/6/3 121/6/3
f 125/7/3 121/7/3 124/7/3
f 126/1/3 122/1/3 117/1/3
f 126/1/3 123/1/3 122/1/3
f 127/11/3 124/11/3 123/11/3
f 127/1/3 123/1/3 126/1/3
f 128/1/3 125/1/3 124/1/3
f 128/11/3 124/11/3 127/11/3
f 129/6/3 97/6/3 125/6/3
f 129/1/3 125/1/3 128/1/3
f 130/1/3 126/1/3 117/1/3
f 130/7/3 128/7/3 127/7/3
f 130/7/3 129/7/3 128/7/3
f 130/7/3 127/7/3 126/7/3
f 131/7/3 129/7/3 130/7/3
f 132/7/3 129/7/3 131/7/3
f 133/6/3 97/6/3 129/6/3
f 133/7/3 129/7/3 132/7/3
f 134/6/3 117/6/3 116/6/3
f 134/1/3 116/1/3 109/1/3
f 135/1/3 130/1/3 117/1/3
f 135/6/3 117/6/3 134/6/3
f 135/1/3 131/1/3 130/1/3
f 136/1/3 131/1/3 135/1/3
f 137/11/3 132/11/3 131/11/3
f 137/1/3 131/1/3 136/1/3
f 138/1/3 133/1/3 132/1/3
f 138/11/3 132/11/3 137/11/3
f 139/6/3 97/6/3 133/6/3
f 139/1/3 133/1/3 138/1/3
f 140/11/3 109/11/3 108/11/3
f 141/1/3 136/1/3 135/1/3
f 141/11/3 109/11/3 140/11/3
f 141/1/3 134/1/3 109/1/3
f 141/1/3 135/1/3 134/1/3
f 142/1/3 136/1/3 141/1/3
f 143/1/3 136/1/3 142/1/3
f 144/7/3 138/7/3 137/7/3
f 144/1/3 136/1/3 143/1/3
f 144/7/3 137/7/3 136/7/3
f 144/7/3 139/7/3 138/7/3
f 145/7/3 139/7/3 144/7/3
f 146/7/3 139/7/3 145/7/3
f 147/6/3 97/6/3 139/6/3
f 147/7/3 139/7/3 146/7/3
f 148/6/3 143/6/3 142/6/3
f 148/1/3 142/1/3 141/1/3
f 149/1/3 144/1/3 143/1/3
f 149/6/3 143/6/3 148/6/3
f 149/1/3 145/1/3 144/1/3
f 150/1/3 145/1/3 149/1/3
f 151/11/3 146/11/3 145/11/3
f 151/1/3 145/1/3 150/1/3
f 152/1/3 147/1/3 146/1/3
f 152/11/3 146/11/3 151/11/3
f 153/6/3 97/6/3 147/6/3
f 153/1/3 147/1/3 152/1/3
f 154/1/3 150/1/3 149/1/3
f 154/1/3 149/1/3 148/1/3
f 155/7/3 152/7/3 151/7/3
f 155/1/3 150/1/3 154/1/3
f 155/7/3 151/7/3 150/7/3
f 155/7/3 153/7/3 152/7/3
f 156/6/3 97/6/3 153/6/3
f 156/7/3 153/7/3 155/7/3
f 157/1/3 154/1/3 148/1/3
f 157/1/3 148/1/3 141/1/3
f 157/5/3 141/5/3 140/5/3
f 158/6/3 155/6/3 154/6/3
f 158/1/3 154/1/3 157/1/3
f 158/6/3 156/6/3 155/6/3
f 159/6/3 97/6/3 156/6/3
f 159/6/3 156/6/3 158/6/3
f 160/5/3 157/5/3 140/5/3
f 161/5/3 157/5/3 160/5/3
f 164/11/3 163/11/3 162/11/3
f 165/11/3 163/11/3 164/11/3
f 168/11/3 167/11/3 166/11/3
f 169/11/3 167/11/3 168/11/3
f 173/1/3 171/1/3 170/1/3
f 174/11/3 172/11/3 171/11/3
f 174/1/3 171/1/3 173/1/3
f 175/11/3 172/11/3 174/11/3
f 179/1/3 177/1/3 176/1/3
f 180/11/3 178/11/3 177/11/3
f 180/1/3 177/1/3 179/1/3
f 181/11/3 178/11/3 180/11/3
f 184/7/3 183/7/3 182/7/3
f 185/7/3 183/7/3 184/7/3
f 188/7/3 187/7/3 186/7/3
f 189/7/3 187/7/3 188/7/3
f 190/1/4 191/1/4 195/1/4
f 191/11/4 192/11/4 196/11/4
f 195/1/4 191/1/4 196/1/4
f 196/11/4 192/11/4 197/11/4
f 193/7/4 194/7/4 198/7/4
f 198/7/4 194/7/4 199/7/4
f 200/7/4 201/7/4 205/7/4
f 205/7/4 201/7/4 206/7/4
f 202/1/4 203/1/4 207/1/4
f 203/11/4 204/11/4 208/11/4
f 207/1/4 203/1/4 208/1/4
f 208/11/4 204/11/4 209/11/4
f 210/11/4 211/11/4 212/11/4
f 212/11/4 211/11/4 213/11/4
f 214/11/4 215/11/4 216/11/4
f 216/11/4 215/11/4 217/11/4
f 218/5/4 219/5/4 220/5/4
f 218/5/4 220/5/4 223/5/4
f 220/1/4 221/1/4 223/1/4
f 221/6/4 222/6/4 224/6/4
f 223/1/4 221/1/4 224/1/4
f 224/6/4 222/6/4 225/6/4
f 218/5/4 223/5/4 226/5/4
f 226/5/4 223/5/4 227/5/4
f 232/11/5 229/11/5 228/11/5
f 233/11/5 229/11/5 232/11/5
f 234/11/5 231/11/5 230/11/5
f 235/11/5 231/11/5 234/11/5
f 240/5/5 237/5/5 236/5/5
f 241/11/5 238/11/5 237/11/5
f 241/5/5 237/5/5 240/5/5
f 242/5/5 239/5/5 238/5/5
f 242/11/5 238/11/5 241/11/5
f 243/5/5 239/5/5 242/5/5
f 244/10/5 241/10/5 240/10/5
f 244/10/5 242/10/5 241/10/5
f 244/10/5 243/10/5 242/10/5
f 245/10/5 243/10/5 244/10/5
f 246/10/5 243/10/5 245/10/5
f 247/10/5 243/10/5 246/10/5
f 248/10/5 244/10/5 240/10/5
f 249/10/5 246/10/5 245/10/5
f 250/10/5 246/10/5 249/10/5
f 251/10/5 243/10/5 247/10/5
f 252/5/5 240/5/5 236/5/5
f 252/10/5 251/10/5 250/10/5
f 252/10/5 250/10/5 249/10/5
f 252/10/5 248/10/5 240/10/5
f 252/10/5 249/10/5 248/10/5
f 253/5/5 239/5/5 243/5/5
f 253/10/5 251/10/5 252/10/5
f 253/10/5 243/10/5 251/10/5
f 254/5/5 252/5/5 236/5/5
f 254/5/5 253/5/5 252/5/5
f 255/5/5 239/5/5 253/5/5
f 255/5/5 253/5/5 254/5/5
f 260/1/5 257/1/5 256/1/5
f 261/1/5 257/1/5 260/1/5
f 262/1/5 259/1/5 258/1/5
f 263/1/5 259/1/5 262/1/5
f 268/7/5 265/7/5 264/7/5
f 269/7/5 265/7/5 268/7/5
f 270/7/5 267/7/5 266/7/5
f 271/7/5 267/7/5 270/7/5
f 272/11/6 273/11/6 276/11/6
f 276/11/6 273/11/6 277/11/6
f 274/11/6 275/11/6 278/11/6
f 278/11/6 275/11/6 279/11/6
f 280/11/6 281/11/6 284/11/6
f 284/11/6 281/11/6 285/11/6
f 282/11/6 283/11/6 286/11/6
f 286/11/6 283/11/6 287/11/6
f 288/5/6 289/5/6 292/5/6
f 292/5/6 289/5/6 293/5/6
f 290/5/6 291/5/6 294/5/6
f 294/5/6 291/5/6 295/5/6
f 296/7/6 297/7/6 300/7/6
f 300/7/6 297/7/6 301/7/6
f 298/7/6 299/7/6 302/7/6
f 302/7/6 299/7/6 303/7/6
f 304/6/6 305/6/6 306/6/6
f 306/6/6 305/6/6 307/6/6
