# MagicaVoxel @ Ephtracy

# group
g Player21

# material
mtllib Player21.mtl
usemtl palette

# normals
vn -1 0 0
vn 1 0 0
vn 0 0 1
vn 0 0 -1
vn 0 -1 0
vn 0 1 0

# texcoords
vt 0.294922 0.5
vt 0.298828 0.5
vt 0.419922 0.5
vt 0.955078 0.5
vt 0.958984 0.5
vt 0.970703 0.5
vt 0.978516 0.5
vt 0.994141 0.5

# verts
v -5 18 10
v -5 18 8
v -5 20 10
v -5 20 8
v -5 25 10
v -5 25 8
v -3 13 13
v -3 13 4
v -3 18 10
v -3 18 8
v -3 20 10
v -3 20 8
v -3 25 10
v -3 25 8
v -3 27 13
v -3 27 4
v -2 27 13
v -2 27 4
v -2 32 13
v -2 32 4
v -2 35 13
v -2 35 4
v -2 36 13
v -2 36 4
v -2 37 13
v -2 37 4
v -1 0 14
v -1 0 7
v -1 1 14
v -1 1 11
v -1 13 11
v -1 13 7
v 2 28 14
v 2 28 13
v 2 30 14
v 2 30 13
v 2 35 14
v 2 35 13
v 2 36 14
v 2 36 13
v 3 34 14
v 3 34 13
v 3 35 14
v 3 35 13
v 3 36 14
v 3 36 13
v 3 37 14
v 3 37 13
v 6 0 14
v 6 0 7
v 6 1 14
v 6 1 11
v 6 13 11
v 6 13 7
v 2 0 14
v 2 0 7
v 2 1 14
v 2 1 11
v 2 13 11
v 2 13 7
v 5 34 14
v 5 34 13
v 5 35 14
v 5 35 13
v 5 36 14
v 5 36 13
v 5 37 14
v 5 37 13
v 6 28 14
v 6 28 13
v 6 30 14
v 6 30 13
v 6 35 14
v 6 35 13
v 6 36 14
v 6 36 13
v 9 0 14
v 9 0 7
v 9 1 14
v 9 1 11
v 9 13 11
v 9 13 7
v 10 27 13
v 10 27 4
v 10 32 13
v 10 32 4
v 10 35 13
v 10 35 4
v 10 36 13
v 10 36 4
v 10 37 13
v 10 37 4
v 11 13 13
v 11 13 4
v 11 18 10
v 11 18 8
v 11 20 10
v 11 20 8
v 11 25 10
v 11 25 8
v 11 27 13
v 11 27 4
v 13 18 10
v 13 18 8
v 13 20 10
v 13 20 8
v 13 25 10
v 13 25 8
v -1 0 14
v -1 1 14
v 2 0 14
v 2 1 14
v 2 28 14
v 2 30 14
v 2 35 14
v 2 36 14
v 3 34 14
v 3 35 14
v 3 36 14
v 3 37 14
v 5 34 14
v 5 35 14
v 5 36 14
v 5 37 14
v 6 0 14
v 6 1 14
v 6 28 14
v 6 30 14
v 6 35 14
v 6 36 14
v 9 0 14
v 9 1 14
v -3 13 13
v -3 27 13
v -2 27 13
v -2 32 13
v -2 35 13
v -2 36 13
v -2 37 13
v -1 32 13
v -1 34 13
v 0 31 13
v 0 33 13
v 1 26 13
v 1 27 13
v 1 31 13
v 1 33 13
v 2 25 13
v 2 26 13
v 2 28 13
v 2 30 13
v 2 33 13
v 2 34 13
v 2 35 13
v 2 36 13
v 3 24 13
v 3 25 13
v 3 34 13
v 3 35 13
v 3 36 13
v 3 37 13
v 5 24 13
v 5 25 13
v 5 34 13
v 5 35 13
v 5 36 13
v 5 37 13
v 6 25 13
v 6 26 13
v 6 28 13
v 6 30 13
v 6 33 13
v 6 34 13
v 6 35 13
v 6 36 13
v 7 26 13
v 7 27 13
v 7 31 13
v 7 33 13
v 8 31 13
v 8 33 13
v 9 32 13
v 9 34 13
v 10 27 13
v 10 32 13
v 10 35 13
v 10 36 13
v 10 37 13
v 11 13 13
v 11 27 13
v -1 1 11
v -1 13 11
v 2 1 11
v 2 13 11
v 6 1 11
v 6 13 11
v 9 1 11
v 9 13 11
v -5 18 10
v -5 20 10
v -5 25 10
v -3 18 10
v -3 20 10
v -3 25 10
v 11 18 10
v 11 20 10
v 11 25 10
v 13 18 10
v 13 20 10
v 13 25 10
v -5 18 8
v -5 20 8
v -5 25 8
v -3 18 8
v -3 20 8
v -3 25 8
v 11 18 8
v 11 20 8
v 11 25 8
v 13 18 8
v 13 20 8
v 13 25 8
v -1 0 7
v -1 13 7
v 2 0 7
v 2 13 7
v 6 0 7
v 6 13 7
v 9 0 7
v 9 13 7
v -3 13 4
v -3 27 4
v -2 27 4
v -2 32 4
v -2 35 4
v -2 36 4
v -2 37 4
v 10 27 4
v 10 32 4
v 10 35 4
v 10 36 4
v 10 37 4
v 11 13 4
v 11 27 4
v -1 0 14
v 2 0 14
v 6 0 14
v 9 0 14
v -1 0 7
v 2 0 7
v 6 0 7
v 9 0 7
v -3 13 13
v 11 13 13
v -1 13 11
v 2 13 11
v 6 13 11
v 9 13 11
v -1 13 7
v 2 13 7
v 6 13 7
v 9 13 7
v -3 13 4
v 11 13 4
v -5 18 10
v -3 18 10
v 11 18 10
v 13 18 10
v -5 18 8
v -3 18 8
v 11 18 8
v 13 18 8
v 2 28 14
v 6 28 14
v 2 28 13
v 6 28 13
v 3 34 14
v 5 34 14
v 3 34 13
v 5 34 13
v 2 35 14
v 3 35 14
v 5 35 14
v 6 35 14
v 2 35 13
v 3 35 13
v 5 35 13
v 6 35 13
v -1 1 14
v 2 1 14
v 6 1 14
v 9 1 14
v -1 1 11
v 2 1 11
v 6 1 11
v 9 1 11
v -5 25 10
v -3 25 10
v 11 25 10
v 13 25 10
v -5 25 8
v -3 25 8
v 11 25 8
v 13 25 8
v -3 27 13
v -2 27 13
v 10 27 13
v 11 27 13
v -3 27 4
v -2 27 4
v 10 27 4
v 11 27 4
v 2 30 14
v 6 30 14
v 2 30 13
v 6 30 13
v 2 36 14
v 3 36 14
v 5 36 14
v 6 36 14
v 2 36 13
v 3 36 13
v 5 36 13
v 6 36 13
v 3 37 14
v 5 37 14
v -2 37 13
v 3 37 13
v 5 37 13
v 10 37 13
v -2 37 4
v 10 37 4

# faces
f 3/1/1 2/1/1 1/1/1
f 4/1/1 2/1/1 3/1/1
f 5/5/1 4/5/1 3/5/1
f 6/5/1 4/5/1 5/5/1
f 9/5/1 8/5/1 7/5/1
f 10/5/1 8/5/1 9/5/1
f 11/5/1 9/5/1 7/5/1
f 12/5/1 8/5/1 10/5/1
f 13/5/1 11/5/1 7/5/1
f 14/5/1 8/5/1 12/5/1
f 15/5/1 13/5/1 7/5/1
f 15/5/1 14/5/1 13/5/1
f 16/5/1 8/5/1 14/5/1
f 16/5/1 14/5/1 15/5/1
f 19/1/1 18/1/1 17/1/1
f 20/1/1 18/1/1 19/1/1
f 21/2/1 20/2/1 19/2/1
f 22/2/1 20/2/1 21/2/1
f 23/8/1 22/8/1 21/8/1
f 24/8/1 22/8/1 23/8/1
f 25/2/1 24/2/1 23/2/1
f 26/2/1 24/2/1 25/2/1
f 29/8/1 28/8/1 27/8/1
f 30/8/1 28/8/1 29/8/1
f 31/8/1 28/8/1 30/8/1
f 32/8/1 28/8/1 31/8/1
f 35/5/1 34/5/1 33/5/1
f 36/5/1 34/5/1 35/5/1
f 39/5/1 38/5/1 37/5/1
f 40/5/1 38/5/1 39/5/1
f 43/5/1 42/5/1 41/5/1
f 44/5/1 42/5/1 43/5/1
f 47/5/1 46/5/1 45/5/1
f 48/5/1 46/5/1 47/5/1
f 51/8/1 50/8/1 49/8/1
f 52/8/1 50/8/1 51/8/1
f 53/8/1 50/8/1 52/8/1
f 54/8/1 50/8/1 53/8/1
f 55/8/2 56/8/2 57/8/2
f 57/8/2 56/8/2 58/8/2
f 58/8/2 56/8/2 59/8/2
f 59/8/2 56/8/2 60/8/2
f 61/5/2 62/5/2 63/5/2
f 63/5/2 62/5/2 64/5/2
f 65/5/2 66/5/2 67/5/2
f 67/5/2 66/5/2 68/5/2
f 69/5/2 70/5/2 71/5/2
f 71/5/2 70/5/2 72/5/2
f 73/5/2 74/5/2 75/5/2
f 75/5/2 74/5/2 76/5/2
f 77/8/2 78/8/2 79/8/2
f 79/8/2 78/8/2 80/8/2
f 80/8/2 78/8/2 81/8/2
f 81/8/2 78/8/2 82/8/2
f 83/1/2 84/1/2 85/1/2
f 85/1/2 84/1/2 86/1/2
f 85/2/2 86/2/2 87/2/2
f 87/2/2 86/2/2 88/2/2
f 87/8/2 88/8/2 89/8/2
f 89/8/2 88/8/2 90/8/2
f 89/2/2 90/2/2 91/2/2
f 91/2/2 90/2/2 92/2/2
f 93/5/2 94/5/2 95/5/2
f 95/5/2 94/5/2 96/5/2
f 93/5/2 95/5/2 97/5/2
f 96/5/2 94/5/2 98/5/2
f 93/5/2 97/5/2 99/5/2
f 98/5/2 94/5/2 100/5/2
f 93/5/2 99/5/2 101/5/2
f 99/5/2 100/5/2 101/5/2
f 100/5/2 94/5/2 102/5/2
f 101/5/2 100/5/2 102/5/2
f 103/1/2 104/1/2 105/1/2
f 105/1/2 104/1/2 106/1/2
f 105/5/2 106/5/2 107/5/2
f 107/5/2 106/5/2 108/5/2
f 111/8/3 110/8/3 109/8/3
f 112/8/3 110/8/3 111/8/3
f 118/5/3 116/5/3 115/5/3
f 119/5/3 116/5/3 118/5/3
f 121/5/3 118/5/3 117/5/3
f 121/5/3 120/5/3 119/5/3
f 121/5/3 119/5/3 118/5/3
f 122/5/3 120/5/3 121/5/3
f 123/5/3 120/5/3 122/5/3
f 124/5/3 120/5/3 123/5/3
f 127/5/3 114/5/3 113/5/3
f 128/5/3 114/5/3 127/5/3
f 129/5/3 123/5/3 122/5/3
f 130/5/3 123/5/3 129/5/3
f 131/8/3 126/8/3 125/8/3
f 132/8/3 126/8/3 131/8/3
f 135/5/3 134/5/3 133/5/3
f 140/1/3 136/1/3 135/1/3
f 140/2/3 137/2/3 136/2/3
f 141/2/3 137/2/3 140/2/3
f 142/1/3 140/1/3 135/1/3
f 142/1/3 141/1/3 140/1/3
f 143/1/3 141/1/3 142/1/3
f 144/5/3 135/5/3 133/5/3
f 145/1/3 142/1/3 135/1/3
f 145/5/3 135/5/3 144/5/3
f 146/4/3 143/4/3 142/4/3
f 146/1/3 142/1/3 145/1/3
f 147/1/3 141/1/3 143/1/3
f 147/4/3 143/4/3 146/4/3
f 148/5/3 144/5/3 133/5/3
f 149/8/3 145/8/3 144/8/3
f 149/5/3 144/5/3 148/5/3
f 150/1/3 146/1/3 145/1/3
f 150/1/3 147/1/3 146/1/3
f 151/1/3 147/1/3 150/1/3
f 152/1/3 141/1/3 147/1/3
f 152/1/3 147/1/3 151/1/3
f 153/2/3 137/2/3 141/2/3
f 153/1/3 141/1/3 152/1/3
f 154/8/3 138/8/3 137/8/3
f 154/2/3 137/2/3 153/2/3
f 155/2/3 139/2/3 138/2/3
f 155/8/3 138/8/3 154/8/3
f 156/5/3 148/5/3 133/5/3
f 157/8/3 149/8/3 148/8/3
f 157/5/3 148/5/3 156/5/3
f 158/2/3 154/2/3 153/2/3
f 158/2/3 153/2/3 152/2/3
f 159/2/3 154/2/3 158/2/3
f 160/2/3 139/2/3 155/2/3
f 161/2/3 139/2/3 160/2/3
f 162/8/3 157/8/3 156/8/3
f 162/5/3 156/5/3 133/5/3
f 163/8/3 149/8/3 157/8/3
f 163/8/3 157/8/3 162/8/3
f 164/2/3 158/2/3 152/2/3
f 168/8/3 149/8/3 163/8/3
f 168/5/3 163/5/3 162/5/3
f 169/8/3 145/8/3 149/8/3
f 169/8/3 149/8/3 168/8/3
f 170/1/3 150/1/3 145/1/3
f 171/1/3 152/1/3 151/1/3
f 172/2/3 165/2/3 164/2/3
f 172/2/3 164/2/3 152/2/3
f 172/1/3 152/1/3 171/1/3
f 173/2/3 165/2/3 172/2/3
f 174/2/3 165/2/3 173/2/3
f 175/2/3 167/2/3 166/2/3
f 176/8/3 145/8/3 169/8/3
f 176/5/3 169/5/3 168/5/3
f 177/1/3 170/1/3 145/1/3
f 177/8/3 145/8/3 176/8/3
f 177/1/3 171/1/3 170/1/3
f 177/1/3 172/1/3 171/1/3
f 177/1/3 173/1/3 172/1/3
f 178/1/3 173/1/3 177/1/3
f 179/1/3 173/1/3 178/1/3
f 180/1/3 178/1/3 177/1/3
f 180/4/3 179/4/3 178/4/3
f 181/1/3 173/1/3 179/1/3
f 181/4/3 179/4/3 180/4/3
f 182/1/3 181/1/3 180/1/3
f 183/2/3 174/2/3 173/2/3
f 183/1/3 181/1/3 182/1/3
f 183/1/3 173/1/3 181/1/3
f 184/1/3 182/1/3 180/1/3
f 184/5/3 177/5/3 176/5/3
f 184/1/3 180/1/3 177/1/3
f 185/2/3 183/2/3 182/2/3
f 185/1/3 182/1/3 184/1/3
f 186/8/3 175/8/3 174/8/3
f 186/2/3 183/2/3 185/2/3
f 186/2/3 174/2/3 183/2/3
f 187/2/3 167/2/3 175/2/3
f 187/8/3 175/8/3 186/8/3
f 188/2/3 167/2/3 187/2/3
f 189/5/3 168/5/3 162/5/3
f 189/5/3 162/5/3 133/5/3
f 189/5/3 176/5/3 168/5/3
f 189/5/3 184/5/3 176/5/3
f 190/5/3 184/5/3 189/5/3
f 193/8/3 192/8/3 191/8/3
f 194/8/3 192/8/3 193/8/3
f 197/8/3 196/8/3 195/8/3
f 198/8/3 196/8/3 197/8/3
f 202/1/3 200/1/3 199/1/3
f 203/5/3 201/5/3 200/5/3
f 203/1/3 200/1/3 202/1/3
f 204/5/3 201/5/3 203/5/3
f 208/1/3 206/1/3 205/1/3
f 209/5/3 207/5/3 206/5/3
f 209/1/3 206/1/3 208/1/3
f 210/5/3 207/5/3 209/5/3
f 211/1/4 212/1/4 214/1/4
f 212/5/4 213/5/4 215/5/4
f 214/1/4 212/1/4 215/1/4
f 215/5/4 213/5/4 216/5/4
f 217/1/4 218/1/4 220/1/4
f 218/5/4 219/5/4 221/5/4
f 220/1/4 218/1/4 221/1/4
f 221/5/4 219/5/4 222/5/4
f 223/8/4 224/8/4 225/8/4
f 225/8/4 224/8/4 226/8/4
f 227/8/4 228/8/4 229/8/4
f 229/8/4 228/8/4 230/8/4
f 231/5/4 232/5/4 233/5/4
f 231/5/4 233/5/4 238/5/4
f 233/1/4 234/1/4 238/1/4
f 234/2/4 235/2/4 239/2/4
f 238/1/4 234/1/4 239/1/4
f 235/8/4 236/8/4 240/8/4
f 239/2/4 235/2/4 240/2/4
f 236/2/4 237/2/4 241/2/4
f 240/8/4 236/8/4 241/8/4
f 241/2/4 237/2/4 242/2/4
f 231/5/4 238/5/4 243/5/4
f 243/5/4 238/5/4 244/5/4
f 249/8/5 246/8/5 245/8/5
f 250/8/5 246/8/5 249/8/5
f 251/8/5 248/8/5 247/8/5
f 252/8/5 248/8/5 251/8/5
f 255/5/5 254/5/5 253/5/5
f 256/5/5 254/5/5 255/5/5
f 257/5/5 254/5/5 256/5/5
f 258/5/5 254/5/5 257/5/5
f 259/5/5 255/5/5 253/5/5
f 260/5/5 257/5/5 256/5/5
f 261/5/5 257/5/5 260/5/5
f 262/5/5 254/5/5 258/5/5
f 263/5/5 261/5/5 260/5/5
f 263/5/5 262/5/5 261/5/5
f 263/5/5 259/5/5 253/5/5
f 263/5/5 260/5/5 259/5/5
f 264/5/5 254/5/5 262/5/5
f 264/5/5 262/5/5 263/5/5
f 269/1/5 266/1/5 265/1/5
f 270/1/5 266/1/5 269/1/5
f 271/1/5 268/1/5 267/1/5
f 272/1/5 268/1/5 271/1/5
f 275/5/5 274/5/5 273/5/5
f 276/5/5 274/5/5 275/5/5
f 279/5/5 278/5/5 277/5/5
f 280/5/5 278/5/5 279/5/5
f 285/5/5 282/5/5 281/5/5
f 286/5/5 282/5/5 285/5/5
f 287/5/5 284/5/5 283/5/5
f 288/5/5 284/5/5 287/5/5
f 289/8/6 290/8/6 293/8/6
f 293/8/6 290/8/6 294/8/6
f 291/8/6 292/8/6 295/8/6
f 295/8/6 292/8/6 296/8/6
f 297/5/6 298/5/6 301/5/6
f 301/5/6 298/5/6 302/5/6
f 299/5/6 300/5/6 303/5/6
f 303/5/6 300/5/6 304/5/6
f 305/5/6 306/5/6 309/5/6
f 309/5/6 306/5/6 310/5/6
f 307/5/6 308/5/6 311/5/6
f 311/5/6 308/5/6 312/5/6
f 313/5/6 314/5/6 315/5/6
f 315/5/6 314/5/6 316/5/6
f 317/5/6 318/5/6 321/5/6
f 321/5/6 318/5/6 322/5/6
f 319/5/6 320/5/6 323/5/6
f 323/5/6 320/5/6 324/5/6
f 325/5/6 326/5/6 328/5/6
f 328/5/6 326/5/6 329/5/6
f 327/2/6 328/2/6 331/2/6
f 329/2/6 330/2/6 331/2/6
f 328/2/6 329/2/6 331/2/6
f 331/2/6 330/2/6 332/2/6
