# MagicaVoxel @ Ephtracy

# group
g Player25

# material
mtllib Player25.mtl
usemtl palette

# normals
vn -1 0 0
vn 1 0 0
vn 0 0 1
vn 0 0 -1
vn 0 -1 0
vn 0 1 0

# texcoords
vt 0.212891 0.5
vt 0.294922 0.5
vt 0.298828 0.5
vt 0.419922 0.5
vt 0.841797 0.5
vt 0.955078 0.5
vt 0.958984 0.5
vt 0.994141 0.5

# verts
v -5 18 10
v -5 18 8
v -5 20 10
v -5 20 8
v -5 21 10
v -5 21 8
v -5 22 10
v -5 22 8
v -5 23 10
v -5 23 8
v -5 24 10
v -5 24 8
v -5 25 10
v -5 25 8
v -3 13 13
v -3 13 4
v -3 16 13
v -3 16 4
v -3 17 13
v -3 17 4
v -3 18 13
v -3 18 10
v -3 18 8
v -3 18 4
v -3 19 13
v -3 19 10
v -3 19 8
v -3 19 4
v -3 20 13
v -3 20 10
v -3 20 8
v -3 20 4
v -3 21 13
v -3 21 10
v -3 21 8
v -3 21 4
v -3 22 13
v -3 22 10
v -3 22 8
v -3 22 4
v -3 23 13
v -3 23 10
v -3 23 8
v -3 23 4
v -3 24 13
v -3 24 10
v -3 24 8
v -3 24 4
v -3 25 13
v -3 25 10
v -3 25 8
v -3 25 4
v -3 26 13
v -3 26 4
v -3 27 13
v -3 27 4
v -3 34 14
v -3 34 3
v -3 35 14
v -3 35 3
v -2 27 13
v -2 27 4
v -2 34 13
v -2 34 4
v -2 35 13
v -2 35 4
v -2 37 13
v -2 37 4
v -1 0 14
v -1 0 7
v -1 1 14
v -1 1 11
v -1 13 11
v -1 13 7
v 0 37 12
v 0 37 6
v 0 39 12
v 0 39 6
v 1 39 11
v 1 39 7
v 1 40 11
v 1 40 7
v 6 0 14
v 6 0 7
v 6 1 14
v 6 1 11
v 6 13 11
v 6 13 7
v 2 0 14
v 2 0 7
v 2 1 14
v 2 1 11
v 2 13 11
v 2 13 7
v 7 39 11
v 7 39 7
v 7 40 11
v 7 40 7
v 8 37 12
v 8 37 6
v 8 39 12
v 8 39 6
v 9 0 14
v 9 0 7
v 9 1 14
v 9 1 11
v 9 13 11
v 9 13 7
v 10 27 13
v 10 27 4
v 10 34 13
v 10 34 4
v 10 35 13
v 10 35 4
v 10 37 13
v 10 37 4
v 11 13 13
v 11 13 4
v 11 16 13
v 11 16 4
v 11 17 13
v 11 17 4
v 11 18 13
v 11 18 10
v 11 18 8
v 11 18 4
v 11 19 13
v 11 19 10
v 11 19 8
v 11 19 4
v 11 20 13
v 11 20 10
v 11 20 8
v 11 20 4
v 11 21 13
v 11 21 10
v 11 21 8
v 11 21 4
v 11 22 13
v 11 22 10
v 11 22 8
v 11 22 4
v 11 23 13
v 11 23 10
v 11 23 8
v 11 23 4
v 11 24 13
v 11 24 10
v 11 24 8
v 11 24 4
v 11 25 13
v 11 25 10
v 11 25 8
v 11 25 4
v 11 26 13
v 11 26 4
v 11 27 13
v 11 27 4
v 11 34 14
v 11 34 3
v 11 35 14
v 11 35 3
v 13 18 10
v 13 18 8
v 13 20 10
v 13 20 8
v 13 21 10
v 13 21 8
v 13 22 10
v 13 22 8
v 13 23 10
v 13 23 8
v 13 24 10
v 13 24 8
v 13 25 10
v 13 25 8
v -3 34 14
v -3 35 14
v -1 0 14
v -1 1 14
v 2 0 14
v 2 1 14
v 6 0 14
v 6 1 14
v 9 0 14
v 9 1 14
v 11 34 14
v 11 35 14
v -3 13 13
v -3 16 13
v -3 17 13
v -3 18 13
v -3 19 13
v -3 20 13
v -3 21 13
v -3 22 13
v -3 23 13
v -3 24 13
v -3 25 13
v -3 26 13
v -3 27 13
v -2 27 13
v -2 34 13
v -2 35 13
v -2 37 13
v 0 16 13
v 0 17 13
v 0 18 13
v 0 19 13
v 0 20 13
v 0 21 13
v 0 22 13
v 0 23 13
v 0 24 13
v 0 25 13
v 0 26 13
v 0 27 13
v 0 31 13
v 0 33 13
v 1 16 13
v 1 17 13
v 1 18 13
v 1 19 13
v 1 20 13
v 1 21 13
v 1 22 13
v 1 23 13
v 1 24 13
v 1 25 13
v 1 26 13
v 1 27 13
v 1 31 13
v 1 33 13
v 2 29 13
v 2 30 13
v 6 29 13
v 6 30 13
v 7 16 13
v 7 17 13
v 7 18 13
v 7 19 13
v 7 20 13
v 7 21 13
v 7 22 13
v 7 23 13
v 7 24 13
v 7 25 13
v 7 26 13
v 7 27 13
v 7 31 13
v 7 33 13
v 8 16 13
v 8 17 13
v 8 18 13
v 8 19 13
v 8 20 13
v 8 21 13
v 8 22 13
v 8 23 13
v 8 24 13
v 8 25 13
v 8 26 13
v 8 27 13
v 8 31 13
v 8 33 13
v 10 27 13
v 10 34 13
v 10 35 13
v 10 37 13
v 11 13 13
v 11 16 13
v 11 17 13
v 11 18 13
v 11 19 13
v 11 20 13
v 11 21 13
v 11 22 13
v 11 23 13
v 11 24 13
v 11 25 13
v 11 26 13
v 11 27 13
v 0 37 12
v 0 39 12
v 8 37 12
v 8 39 12
v -1 1 11
v -1 13 11
v 1 39 11
v 1 40 11
v 2 1 11
v 2 13 11
v 6 1 11
v 6 13 11
v 7 39 11
v 7 40 11
v 9 1 11
v 9 13 11
v -5 18 10
v -5 20 10
v -5 21 10
v -5 22 10
v -5 23 10
v -5 24 10
v -5 25 10
v -3 18 10
v -3 19 10
v -3 20 10
v -3 21 10
v -3 22 10
v -3 23 10
v -3 24 10
v -3 25 10
v 11 18 10
v 11 19 10
v 11 20 10
v 11 21 10
v 11 22 10
v 11 23 10
v 11 24 10
v 11 25 10
v 13 18 10
v 13 20 10
v 13 21 10
v 13 22 10
v 13 23 10
v 13 24 10
v 13 25 10
v -5 18 8
v -5 20 8
v -5 21 8
v -5 22 8
v -5 23 8
v -5 24 8
v -5 25 8
v -3 18 8
v -3 19 8
v -3 20 8
v -3 21 8
v -3 22 8
v -3 23 8
v -3 24 8
v -3 25 8
v 11 18 8
v 11 19 8
v 11 20 8
v 11 21 8
v 11 22 8
v 11 23 8
v 11 24 8
v 11 25 8
v 13 18 8
v 13 20 8
v 13 21 8
v 13 22 8
v 13 23 8
v 13 24 8
v 13 25 8
v -1 0 7
v -1 13 7
v 1 39 7
v 1 40 7
v 2 0 7
v 2 13 7
v 6 0 7
v 6 13 7
v 7 39 7
v 7 40 7
v 9 0 7
v 9 13 7
v 0 37 6
v 0 39 6
v 8 37 6
v 8 39 6
v -3 13 4
v -3 16 4
v -3 17 4
v -3 18 4
v -3 19 4
v -3 20 4
v -3 21 4
v -3 22 4
v -3 23 4
v -3 24 4
v -3 25 4
v -3 26 4
v -3 27 4
v -2 27 4
v -2 34 4
v -2 35 4
v -2 37 4
v 0 16 4
v 0 17 4
v 0 18 4
v 0 19 4
v 0 20 4
v 0 21 4
v 0 22 4
v 0 23 4
v 0 24 4
v 0 25 4
v 0 26 4
v 0 27 4
v 1 16 4
v 1 17 4
v 1 18 4
v 1 19 4
v 1 20 4
v 1 21 4
v 1 22 4
v 1 23 4
v 1 24 4
v 1 25 4
v 1 26 4
v 1 27 4
v 7 16 4
v 7 17 4
v 7 18 4
v 7 19 4
v 7 20 4
v 7 21 4
v 7 22 4
v 7 23 4
v 7 24 4
v 7 25 4
v 7 26 4
v 7 27 4
v 8 16 4
v 8 17 4
v 8 18 4
v 8 19 4
v 8 20 4
v 8 21 4
v 8 22 4
v 8 23 4
v 8 24 4
v 8 25 4
v 8 26 4
v 8 27 4
v 10 27 4
v 10 34 4
v 10 35 4
v 10 37 4
v 11 13 4
v 11 16 4
v 11 17 4
v 11 18 4
v 11 19 4
v 11 20 4
v 11 21 4
v 11 22 4
v 11 23 4
v 11 24 4
v 11 25 4
v 11 26 4
v 11 27 4
v -3 34 3
v -3 35 3
v 11 34 3
v 11 35 3
v -1 0 14
v 2 0 14
v 6 0 14
v 9 0 14
v -1 0 7
v 2 0 7
v 6 0 7
v 9 0 7
v -3 13 13
v 11 13 13
v -1 13 11
v 2 13 11
v 6 13 11
v 9 13 11
v -1 13 7
v 2 13 7
v 6 13 7
v 9 13 7
v -3 13 4
v 11 13 4
v -5 18 10
v -3 18 10
v 11 18 10
v 13 18 10
v -5 18 8
v -3 18 8
v 11 18 8
v 13 18 8
v -3 34 14
v 11 34 14
v -2 34 13
v 10 34 13
v -2 34 4
v 10 34 4
v -3 34 3
v 11 34 3
v -1 1 14
v 2 1 14
v 6 1 14
v 9 1 14
v -1 1 11
v 2 1 11
v 6 1 11
v 9 1 11
v -5 25 10
v -3 25 10
v 11 25 10
v 13 25 10
v -5 25 8
v -3 25 8
v 11 25 8
v 13 25 8
v -3 27 13
v -2 27 13
v 10 27 13
v 11 27 13
v -3 27 4
v -2 27 4
v 10 27 4
v 11 27 4
v -3 35 14
v 11 35 14
v -2 35 13
v 10 35 13
v -2 35 4
v 10 35 4
v -3 35 3
v 11 35 3
v -2 37 13
v 10 37 13
v 0 37 12
v 8 37 12
v 0 37 6
v 8 37 6
v -2 37 4
v 10 37 4
v 0 39 12
v 8 39 12
v 1 39 11
v 7 39 11
v 1 39 7
v 7 39 7
v 0 39 6
v 8 39 6
v 1 40 11
v 7 40 11
v 1 40 7
v 7 40 7

# faces
f 3/7/1 2/7/1 1/7/1
f 4/7/1 2/7/1 3/7/1
f 5/8/1 4/8/1 3/8/1
f 6/8/1 4/8/1 5/8/1
f 7/7/1 6/7/1 5/7/1
f 8/7/1 6/7/1 7/7/1
f 9/8/1 8/8/1 7/8/1
f 10/8/1 8/8/1 9/8/1
f 11/7/1 10/7/1 9/7/1
f 12/7/1 10/7/1 11/7/1
f 13/8/1 12/8/1 11/8/1
f 14/8/1 12/8/1 13/8/1
f 17/8/1 16/8/1 15/8/1
f 18/8/1 16/8/1 17/8/1
f 19/7/1 18/7/1 17/7/1
f 20/7/1 18/7/1 19/7/1
f 21/8/1 20/8/1 19/8/1
f 22/8/1 20/8/1 21/8/1
f 23/8/1 20/8/1 22/8/1
f 24/8/1 20/8/1 23/8/1
f 25/7/1 22/7/1 21/7/1
f 26/7/1 22/7/1 25/7/1
f 27/7/1 24/7/1 23/7/1
f 28/7/1 24/7/1 27/7/1
f 29/8/1 26/8/1 25/8/1
f 30/8/1 26/8/1 29/8/1
f 31/8/1 28/8/1 27/8/1
f 32/8/1 28/8/1 31/8/1
f 33/7/1 30/7/1 29/7/1
f 34/7/1 30/7/1 33/7/1
f 35/7/1 32/7/1 31/7/1
f 36/7/1 32/7/1 35/7/1
f 37/8/1 34/8/1 33/8/1
f 38/8/1 34/8/1 37/8/1
f 39/8/1 36/8/1 35/8/1
f 40/8/1 36/8/1 39/8/1
f 41/7/1 38/7/1 37/7/1
f 42/7/1 38/7/1 41/7/1
f 43/7/1 40/7/1 39/7/1
f 44/7/1 40/7/1 43/7/1
f 45/8/1 42/8/1 41/8/1
f 46/8/1 42/8/1 45/8/1
f 47/8/1 44/8/1 43/8/1
f 48/8/1 44/8/1 47/8/1
f 49/7/1 46/7/1 45/7/1
f 50/7/1 46/7/1 49/7/1
f 51/7/1 48/7/1 47/7/1
f 52/7/1 48/7/1 51/7/1
f 53/8/1 50/8/1 49/8/1
f 53/8/1 51/8/1 50/8/1
f 53/8/1 52/8/1 51/8/1
f 54/8/1 52/8/1 53/8/1
f 55/7/1 54/7/1 53/7/1
f 56/7/1 54/7/1 55/7/1
f 59/8/1 58/8/1 57/8/1
f 60/8/1 58/8/1 59/8/1
f 63/7/1 62/7/1 61/7/1
f 64/7/1 62/7/1 63/7/1
f 67/8/1 66/8/1 65/8/1
f 68/8/1 66/8/1 67/8/1
f 71/8/1 70/8/1 69/8/1
f 72/8/1 70/8/1 71/8/1
f 73/8/1 70/8/1 72/8/1
f 74/8/1 70/8/1 73/8/1
f 77/8/1 76/8/1 75/8/1
f 78/8/1 76/8/1 77/8/1
f 81/8/1 80/8/1 79/8/1
f 82/8/1 80/8/1 81/8/1
f 85/8/1 84/8/1 83/8/1
f 86/8/1 84/8/1 85/8/1
f 87/8/1 84/8/1 86/8/1
f 88/8/1 84/8/1 87/8/1
f 89/8/2 90/8/2 91/8/2
f 91/8/2 90/8/2 92/8/2
f 92/8/2 90/8/2 93/8/2
f 93/8/2 90/8/2 94/8/2
f 95/8/2 96/8/2 97/8/2
f 97/8/2 96/8/2 98/8/2
f 99/8/2 100/8/2 101/8/2
f 101/8/2 100/8/2 102/8/2
f 103/8/2 104/8/2 105/8/2
f 105/8/2 104/8/2 106/8/2
f 106/8/2 104/8/2 107/8/2
f 107/8/2 104/8/2 108/8/2
f 109/7/2 110/7/2 111/7/2
f 111/7/2 110/7/2 112/7/2
f 113/8/2 114/8/2 115/8/2
f 115/8/2 114/8/2 116/8/2
f 117/8/2 118/8/2 119/8/2
f 119/8/2 118/8/2 120/8/2
f 119/7/2 120/7/2 121/7/2
f 121/7/2 120/7/2 122/7/2
f 121/8/2 122/8/2 123/8/2
f 123/8/2 122/8/2 124/8/2
f 124/8/2 122/8/2 125/8/2
f 125/8/2 122/8/2 126/8/2
f 123/7/2 124/7/2 127/7/2
f 127/7/2 124/7/2 128/7/2
f 125/7/2 126/7/2 129/7/2
f 129/7/2 126/7/2 130/7/2
f 127/8/2 128/8/2 131/8/2
f 131/8/2 128/8/2 132/8/2
f 129/8/2 130/8/2 133/8/2
f 133/8/2 130/8/2 134/8/2
f 131/7/2 132/7/2 135/7/2
f 135/7/2 132/7/2 136/7/2
f 133/7/2 134/7/2 137/7/2
f 137/7/2 134/7/2 138/7/2
f 135/8/2 136/8/2 139/8/2
f 139/8/2 136/8/2 140/8/2
f 137/8/2 138/8/2 141/8/2
f 141/8/2 138/8/2 142/8/2
f 139/7/2 140/7/2 143/7/2
f 143/7/2 140/7/2 144/7/2
f 141/7/2 142/7/2 145/7/2
f 145/7/2 142/7/2 146/7/2
f 143/8/2 144/8/2 147/8/2
f 147/8/2 144/8/2 148/8/2
f 145/8/2 146/8/2 149/8/2
f 149/8/2 146/8/2 150/8/2
f 147/7/2 148/7/2 151/7/2
f 151/7/2 148/7/2 152/7/2
f 149/7/2 150/7/2 153/7/2
f 153/7/2 150/7/2 154/7/2
f 151/8/2 152/8/2 155/8/2
f 152/8/2 153/8/2 155/8/2
f 153/8/2 154/8/2 155/8/2
f 155/8/2 154/8/2 156/8/2
f 155/7/2 156/7/2 157/7/2
f 157/7/2 156/7/2 158/7/2
f 159/8/2 160/8/2 161/8/2
f 161/8/2 160/8/2 162/8/2
f 163/7/2 164/7/2 165/7/2
f 165/7/2 164/7/2 166/7/2
f 165/8/2 166/8/2 167/8/2
f 167/8/2 166/8/2 168/8/2
f 167/7/2 168/7/2 169/7/2
f 169/7/2 168/7/2 170/7/2
f 169/8/2 170/8/2 171/8/2
f 171/8/2 170/8/2 172/8/2
f 171/7/2 172/7/2 173/7/2
f 173/7/2 172/7/2 174/7/2
f 173/8/2 174/8/2 175/8/2
f 175/8/2 174/8/2 176/8/2
f 181/8/3 180/8/3 179/8/3
f 182/8/3 180/8/3 181/8/3
f 185/8/3 184/8/3 183/8/3
f 186/8/3 184/8/3 185/8/3
f 187/8/3 178/8/3 177/8/3
f 188/8/3 178/8/3 187/8/3
f 202/7/3 201/7/3 200/7/3
f 206/8/3 190/8/3 189/8/3
f 206/7/3 191/7/3 190/7/3
f 207/8/3 192/8/3 191/8/3
f 207/7/3 191/7/3 206/7/3
f 208/7/3 193/7/3 192/7/3
f 208/8/3 192/8/3 207/8/3
f 209/8/3 194/8/3 193/8/3
f 209/7/3 193/7/3 208/7/3
f 210/7/3 195/7/3 194/7/3
f 210/8/3 194/8/3 209/8/3
f 211/8/3 196/8/3 195/8/3
f 211/7/3 195/7/3 210/7/3
f 212/7/3 197/7/3 196/7/3
f 212/8/3 196/8/3 211/8/3
f 213/8/3 198/8/3 197/8/3
f 213/7/3 197/7/3 212/7/3
f 214/7/3 199/7/3 198/7/3
f 214/8/3 198/8/3 213/8/3
f 215/8/3 200/8/3 199/8/3
f 215/7/3 199/7/3 214/7/3
f 216/7/3 203/7/3 202/7/3
f 216/8/3 200/8/3 215/8/3
f 216/7/3 202/7/3 200/7/3
f 217/7/3 203/7/3 216/7/3
f 218/7/3 203/7/3 217/7/3
f 219/7/3 203/7/3 218/7/3
f 220/5/3 215/5/3 214/5/3
f 220/8/3 206/8/3 189/8/3
f 220/5/3 207/5/3 206/5/3
f 220/5/3 208/5/3 207/5/3
f 220/5/3 217/5/3 216/5/3
f 220/5/3 216/5/3 215/5/3
f 220/5/3 214/5/3 213/5/3
f 220/5/3 213/5/3 212/5/3
f 220/5/3 212/5/3 211/5/3
f 220/5/3 211/5/3 210/5/3
f 220/5/3 210/5/3 209/5/3
f 220/5/3 209/5/3 208/5/3
f 221/5/3 217/5/3 220/5/3
f 222/5/3 217/5/3 221/5/3
f 223/5/3 217/5/3 222/5/3
f 224/5/3 217/5/3 223/5/3
f 225/5/3 217/5/3 224/5/3
f 226/5/3 217/5/3 225/5/3
f 227/5/3 217/5/3 226/5/3
f 228/5/3 217/5/3 227/5/3
f 229/5/3 217/5/3 228/5/3
f 230/5/3 217/5/3 229/5/3
f 231/7/3 218/7/3 217/7/3
f 231/5/3 217/5/3 230/5/3
f 232/6/3 219/6/3 218/6/3
f 232/7/3 218/7/3 231/7/3
f 233/7/3 203/7/3 219/7/3
f 233/6/3 219/6/3 232/6/3
f 234/7/3 232/7/3 231/7/3
f 234/7/3 231/7/3 230/7/3
f 234/7/3 233/7/3 232/7/3
f 235/7/3 233/7/3 234/7/3
f 236/7/3 234/7/3 230/7/3
f 236/5/3 235/5/3 234/5/3
f 237/7/3 233/7/3 235/7/3
f 237/5/3 235/5/3 236/5/3
f 238/8/3 220/8/3 189/8/3
f 238/7/3 221/7/3 220/7/3
f 239/8/3 222/8/3 221/8/3
f 239/7/3 221/7/3 238/7/3
f 240/7/3 223/7/3 222/7/3
f 240/8/3 222/8/3 239/8/3
f 241/8/3 224/8/3 223/8/3
f 241/7/3 223/7/3 240/7/3
f 242/7/3 225/7/3 224/7/3
f 242/8/3 224/8/3 241/8/3
f 243/8/3 226/8/3 225/8/3
f 243/7/3 225/7/3 242/7/3
f 244/7/3 227/7/3 226/7/3
f 244/8/3 226/8/3 243/8/3
f 245/8/3 228/8/3 227/8/3
f 245/7/3 227/7/3 244/7/3
f 246/7/3 229/7/3 228/7/3
f 246/8/3 228/8/3 245/8/3
f 247/8/3 230/8/3 229/8/3
f 247/7/3 229/7/3 246/7/3
f 248/7/3 237/7/3 236/7/3
f 248/8/3 230/8/3 247/8/3
f 248/7/3 236/7/3 230/7/3
f 249/7/3 237/7/3 248/7/3
f 250/7/3 233/7/3 237/7/3
f 250/7/3 237/7/3 249/7/3
f 251/7/3 203/7/3 233/7/3
f 251/7/3 233/7/3 250/7/3
f 252/5/3 245/5/3 244/5/3
f 252/5/3 246/5/3 245/5/3
f 252/5/3 249/5/3 248/5/3
f 252/5/3 248/5/3 247/5/3
f 252/5/3 244/5/3 243/5/3
f 252/5/3 243/5/3 242/5/3
f 252/5/3 242/5/3 241/5/3
f 252/5/3 241/5/3 240/5/3
f 252/5/3 240/5/3 239/5/3
f 252/5/3 239/5/3 238/5/3
f 252/8/3 238/8/3 189/8/3
f 252/5/3 247/5/3 246/5/3
f 253/5/3 249/5/3 252/5/3
f 254/5/3 249/5/3 253/5/3
f 255/5/3 249/5/3 254/5/3
f 256/5/3 249/5/3 255/5/3
f 257/5/3 249/5/3 256/5/3
f 258/5/3 249/5/3 257/5/3
f 259/5/3 249/5/3 258/5/3
f 260/5/3 249/5/3 259/5/3
f 261/5/3 249/5/3 260/5/3
f 262/5/3 249/5/3 261/5/3
f 263/7/3 250/7/3 249/7/3
f 263/5/3 249/5/3 262/5/3
f 264/6/3 251/6/3 250/6/3
f 264/7/3 250/7/3 263/7/3
f 265/7/3 203/7/3 251/7/3
f 265/6/3 251/6/3 264/6/3
f 266/7/3 264/7/3 263/7/3
f 266/7/3 263/7/3 262/7/3
f 266/7/3 265/7/3 264/7/3
f 267/7/3 203/7/3 265/7/3
f 267/7/3 265/7/3 266/7/3
f 268/8/3 205/8/3 204/8/3
f 269/8/3 205/8/3 268/8/3
f 270/8/3 252/8/3 189/8/3
f 271/7/3 253/7/3 252/7/3
f 271/8/3 252/8/3 270/8/3
f 272/8/3 254/8/3 253/8/3
f 272/7/3 253/7/3 271/7/3
f 273/7/3 255/7/3 254/7/3
f 273/8/3 254/8/3 272/8/3
f 274/8/3 256/8/3 255/8/3
f 274/7/3 255/7/3 273/7/3
f 275/7/3 257/7/3 256/7/3
f 275/8/3 256/8/3 274/8/3
f 276/8/3 258/8/3 257/8/3
f 276/7/3 257/7/3 275/7/3
f 277/7/3 259/7/3 258/7/3
f 277/8/3 258/8/3 276/8/3
f 278/8/3 260/8/3 259/8/3
f 278/7/3 259/7/3 277/7/3
f 279/7/3 261/7/3 260/7/3
f 279/8/3 260/8/3 278/8/3
f 280/8/3 262/8/3 261/8/3
f 280/7/3 261/7/3 279/7/3
f 281/7/3 266/7/3 262/7/3
f 281/8/3 262/8/3 280/8/3
f 282/7/3 266/7/3 281/7/3
f 285/8/3 284/8/3 283/8/3
f 286/8/3 284/8/3 285/8/3
f 291/8/3 288/8/3 287/8/3
f 292/8/3 288/8/3 291/8/3
f 295/8/3 290/8/3 289/8/3
f 296/8/3 290/8/3 295/8/3
f 297/8/3 294/8/3 293/8/3
f 298/8/3 294/8/3 297/8/3
f 306/7/3 300/7/3 299/7/3
f 307/7/3 300/7/3 306/7/3
f 308/8/3 301/8/3 300/8/3
f 308/7/3 300/7/3 307/7/3
f 309/7/3 302/7/3 301/7/3
f 309/8/3 301/8/3 308/8/3
f 310/8/3 303/8/3 302/8/3
f 310/7/3 302/7/3 309/7/3
f 311/7/3 304/7/3 303/7/3
f 311/8/3 303/8/3 310/8/3
f 312/8/3 305/8/3 304/8/3
f 312/7/3 304/7/3 311/7/3
f 313/8/3 305/8/3 312/8/3
f 322/7/3 315/7/3 314/7/3
f 322/7/3 316/7/3 315/7/3
f 323/8/3 317/8/3 316/8/3
f 323/7/3 316/7/3 322/7/3
f 324/7/3 318/7/3 317/7/3
f 324/8/3 317/8/3 323/8/3
f 325/8/3 319/8/3 318/8/3
f 325/7/3 318/7/3 324/7/3
f 326/7/3 320/7/3 319/7/3
f 326/8/3 319/8/3 325/8/3
f 327/8/3 321/8/3 320/8/3
f 327/7/3 320/7/3 326/7/3
f 328/8/3 321/8/3 327/8/3
f 329/7/4 330/7/4 336/7/4
f 336/7/4 330/7/4 337/7/4
f 330/8/4 331/8/4 338/8/4
f 337/7/4 330/7/4 338/7/4
f 331/7/4 332/7/4 339/7/4
f 338/8/4 331/8/4 339/8/4
f 332/8/4 333/8/4 340/8/4
f 339/7/4 332/7/4 340/7/4
f 333/7/4 334/7/4 341/7/4
f 340/8/4 333/8/4 341/8/4
f 334/8/4 335/8/4 342/8/4
f 341/7/4 334/7/4 342/7/4
f 342/8/4 335/8/4 343/8/4
f 344/7/4 345/7/4 352/7/4
f 345/7/4 346/7/4 352/7/4
f 346/8/4 347/8/4 353/8/4
f 352/7/4 346/7/4 353/7/4
f 347/7/4 348/7/4 354/7/4
f 353/8/4 347/8/4 354/8/4
f 348/8/4 349/8/4 355/8/4
f 354/7/4 348/7/4 355/7/4
f 349/7/4 350/7/4 356/7/4
f 355/8/4 349/8/4 356/8/4
f 350/8/4 351/8/4 357/8/4
f 356/7/4 350/7/4 357/7/4
f 357/8/4 351/8/4 358/8/4
f 359/8/4 360/8/4 363/8/4
f 363/8/4 360/8/4 364/8/4
f 361/8/4 362/8/4 367/8/4
f 367/8/4 362/8/4 368/8/4
f 365/8/4 366/8/4 369/8/4
f 369/8/4 366/8/4 370/8/4
f 371/8/4 372/8/4 373/8/4
f 373/8/4 372/8/4 374/8/4
f 386/7/4 387/7/4 388/7/4
f 375/8/4 376/8/4 392/8/4
f 376/7/4 377/7/4 392/7/4
f 377/8/4 378/8/4 393/8/4
f 392/7/4 377/7/4 393/7/4
f 378/7/4 379/7/4 394/7/4
f 393/8/4 378/8/4 394/8/4
f 379/8/4 380/8/4 395/8/4
f 394/7/4 379/7/4 395/7/4
f 380/7/4 381/7/4 396/7/4
f 395/8/4 380/8/4 396/8/4
f 381/8/4 382/8/4 397/8/4
f 396/7/4 381/7/4 397/7/4
f 382/7/4 383/7/4 398/7/4
f 397/8/4 382/8/4 398/8/4
f 383/8/4 384/8/4 399/8/4
f 398/7/4 383/7/4 399/7/4
f 384/7/4 385/7/4 400/7/4
f 399/8/4 384/8/4 400/8/4
f 385/8/4 386/8/4 401/8/4
f 400/7/4 385/7/4 401/7/4
f 388/7/4 389/7/4 402/7/4
f 401/8/4 386/8/4 402/8/4
f 386/7/4 388/7/4 402/7/4
f 402/7/4 389/7/4 403/7/4
f 400/5/4 401/5/4 404/5/4
f 375/8/4 392/8/4 404/8/4
f 402/5/4 403/5/4 404/5/4
f 401/5/4 402/5/4 404/5/4
f 399/5/4 400/5/4 404/5/4
f 398/5/4 399/5/4 404/5/4
f 397/5/4 398/5/4 404/5/4
f 396/5/4 397/5/4 404/5/4
f 395/5/4 396/5/4 404/5/4
f 394/5/4 395/5/4 404/5/4
f 393/5/4 394/5/4 404/5/4
f 392/5/4 393/5/4 404/5/4
f 404/5/4 403/5/4 405/5/4
f 405/5/4 403/5/4 406/5/4
f 406/5/4 403/5/4 407/5/4
f 407/5/4 403/5/4 408/5/4
f 408/5/4 403/5/4 409/5/4
f 409/5/4 403/5/4 410/5/4
f 410/5/4 403/5/4 411/5/4
f 411/5/4 403/5/4 412/5/4
f 412/5/4 403/5/4 413/5/4
f 413/5/4 403/5/4 414/5/4
f 403/7/4 389/7/4 415/7/4
f 414/5/4 403/5/4 415/5/4
f 375/8/4 404/8/4 416/8/4
f 404/7/4 405/7/4 416/7/4
f 405/8/4 406/8/4 417/8/4
f 416/7/4 405/7/4 417/7/4
f 406/7/4 407/7/4 418/7/4
f 417/8/4 406/8/4 418/8/4
f 407/8/4 408/8/4 419/8/4
f 418/7/4 407/7/4 419/7/4
f 408/7/4 409/7/4 420/7/4
f 419/8/4 408/8/4 420/8/4
f 409/8/4 410/8/4 421/8/4
f 420/7/4 409/7/4 421/7/4
f 410/7/4 411/7/4 422/7/4
f 421/8/4 410/8/4 422/8/4
f 411/8/4 412/8/4 423/8/4
f 422/7/4 411/7/4 423/7/4
f 412/7/4 413/7/4 424/7/4
f 423/8/4 412/8/4 424/8/4
f 413/8/4 414/8/4 425/8/4
f 424/7/4 413/7/4 425/7/4
f 414/7/4 415/7/4 426/7/4
f 425/8/4 414/8/4 426/8/4
f 415/7/4 389/7/4 427/7/4
f 426/7/4 415/7/4 427/7/4
f 423/5/4 424/5/4 428/5/4
f 425/5/4 426/5/4 428/5/4
f 426/5/4 427/5/4 428/5/4
f 422/5/4 423/5/4 428/5/4
f 421/5/4 422/5/4 428/5/4
f 420/5/4 421/5/4 428/5/4
f 419/5/4 420/5/4 428/5/4
f 418/5/4 419/5/4 428/5/4
f 417/5/4 418/5/4 428/5/4
f 416/5/4 417/5/4 428/5/4
f 375/8/4 416/8/4 428/8/4
f 424/5/4 425/5/4 428/5/4
f 428/5/4 427/5/4 429/5/4
f 429/5/4 427/5/4 430/5/4
f 430/5/4 427/5/4 431/5/4
f 431/5/4 427/5/4 432/5/4
f 432/5/4 427/5/4 433/5/4
f 433/5/4 427/5/4 434/5/4
f 434/5/4 427/5/4 435/5/4
f 435/5/4 427/5/4 436/5/4
f 436/5/4 427/5/4 437/5/4
f 437/5/4 427/5/4 438/5/4
f 427/7/4 389/7/4 439/7/4
f 438/5/4 427/5/4 439/5/4
f 438/7/4 439/7/4 440/7/4
f 439/7/4 389/7/4 440/7/4
f 440/7/4 389/7/4 441/7/4
f 390/8/4 391/8/4 442/8/4
f 442/8/4 391/8/4 443/8/4
f 375/8/4 428/8/4 444/8/4
f 428/7/4 429/7/4 445/7/4
f 444/8/4 428/8/4 445/8/4
f 429/8/4 430/8/4 446/8/4
f 445/7/4 429/7/4 446/7/4
f 430/7/4 431/7/4 447/7/4
f 446/8/4 430/8/4 447/8/4
f 431/8/4 432/8/4 448/8/4
f 447/7/4 431/7/4 448/7/4
f 432/7/4 433/7/4 449/7/4
f 448/8/4 432/8/4 449/8/4
f 433/8/4 434/8/4 450/8/4
f 449/7/4 433/7/4 450/7/4
f 434/7/4 435/7/4 451/7/4
f 450/8/4 434/8/4 451/8/4
f 435/8/4 436/8/4 452/8/4
f 451/7/4 435/7/4 452/7/4
f 436/7/4 437/7/4 453/7/4
f 452/8/4 436/8/4 453/8/4
f 437/8/4 438/8/4 454/8/4
f 453/7/4 437/7/4 454/7/4
f 438/7/4 440/7/4 455/7/4
f 454/8/4 438/8/4 455/8/4
f 455/7/4 440/7/4 456/7/4
f 457/8/4 458/8/4 459/8/4
f 459/8/4 458/8/4 460/8/4
f 465/8/5 462/8/5 461/8/5
f 466/8/5 462/8/5 465/8/5
f 467/8/5 464/8/5 463/8/5
f 468/8/5 464/8/5 467/8/5
f 471/8/5 470/8/5 469/8/5
f 472/8/5 470/8/5 471/8/5
f 473/8/5 470/8/5 472/8/5
f 474/8/5 470/8/5 473/8/5
f 475/8/5 471/8/5 469/8/5
f 476/8/5 473/8/5 472/8/5
f 477/8/5 473/8/5 476/8/5
f 478/8/5 470/8/5 474/8/5
f 479/8/5 477/8/5 476/8/5
f 479/8/5 478/8/5 477/8/5
f 479/8/5 475/8/5 469/8/5
f 479/8/5 476/8/5 475/8/5
f 480/8/5 470/8/5 478/8/5
f 480/8/5 478/8/5 479/8/5
f 485/7/5 482/7/5 481/7/5
f 486/7/5 482/7/5 485/7/5
f 487/7/5 484/7/5 483/7/5
f 488/7/5 484/7/5 487/7/5
f 491/8/5 490/8/5 489/8/5
f 492/8/5 490/8/5 491/8/5
f 493/8/5 491/8/5 489/8/5
f 494/8/5 490/8/5 492/8/5
f 495/8/5 493/8/5 489/8/5
f 495/8/5 494/8/5 493/8/5
f 496/8/5 490/8/5 494/8/5
f 496/8/5 494/8/5 495/8/5
f 497/8/6 498/8/6 501/8/6
f 501/8/6 498/8/6 502/8/6
f 499/8/6 500/8/6 503/8/6
f 503/8/6 500/8/6 504/8/6
f 505/8/6 506/8/6 509/8/6
f 509/8/6 506/8/6 510/8/6
f 507/8/6 508/8/6 511/8/6
f 511/8/6 508/8/6 512/8/6
f 513/7/6 514/7/6 517/7/6
f 517/7/6 514/7/6 518/7/6
f 515/7/6 516/7/6 519/7/6
f 519/7/6 516/7/6 520/7/6
f 521/8/6 522/8/6 523/8/6
f 523/8/6 522/8/6 524/8/6
f 521/8/6 523/8/6 525/8/6
f 524/8/6 522/8/6 526/8/6
f 521/8/6 525/8/6 527/8/6
f 525/8/6 526/8/6 527/8/6
f 526/8/6 522/8/6 528/8/6
f 527/8/6 526/8/6 528/8/6
f 529/8/6 530/8/6 531/8/6
f 531/8/6 530/8/6 532/8/6
f 529/8/6 531/8/6 533/8/6
f 532/8/6 530/8/6 534/8/6
f 529/8/6 533/8/6 535/8/6
f 533/8/6 534/8/6 535/8/6
f 534/8/6 530/8/6 536/8/6
f 535/8/6 534/8/6 536/8/6
f 537/8/6 538/8/6 539/8/6
f 539/8/6 538/8/6 540/8/6
f 537/8/6 539/8/6 541/8/6
f 540/8/6 538/8/6 542/8/6
f 537/8/6 541/8/6 543/8/6
f 541/8/6 542/8/6 543/8/6
f 542/8/6 538/8/6 544/8/6
f 543/8/6 542/8/6 544/8/6
f 545/8/6 546/8/6 547/8/6
f 547/8/6 546/8/6 548/8/6
