# MagicaVoxel @ Ephtracy

# group
g Player16

# material
mtllib Player16.mtl
usemtl palette

# normals
vn -1 0 0
vn 1 0 0
vn 0 0 1
vn 0 0 -1
vn 0 -1 0
vn 0 1 0

# texcoords
vt 0.111328 0.5
vt 0.115234 0.5
vt 0.294922 0.5
vt 0.419922 0.5
vt 0.955078 0.5
vt 0.970703 0.5
vt 0.978516 0.5
vt 0.994141 0.5

# verts
v -5 18 10
v -5 18 8
v -5 21 10
v -5 21 8
v -5 25 10
v -5 25 8
v -3 13 13
v -3 13 4
v -3 16 13
v -3 16 4
v -3 17 13
v -3 17 4
v -3 18 13
v -3 18 10
v -3 18 8
v -3 18 4
v -3 19 13
v -3 19 10
v -3 19 8
v -3 19 4
v -3 21 10
v -3 21 8
v -3 25 10
v -3 25 8
v -3 27 13
v -3 27 4
v -2 27 13
v -2 27 4
v -2 35 13
v -2 35 4
v -2 36 13
v -2 36 4
v -2 37 13
v -2 37 4
v -1 0 14
v -1 0 7
v -1 1 14
v -1 1 11
v -1 6 11
v -1 6 7
v -1 9 11
v -1 9 7
v -1 10 11
v -1 10 7
v -1 11 11
v -1 11 7
v -1 12 11
v -1 12 7
v -1 13 11
v -1 13 7
v 1 15 3
v 1 15 1
v 1 16 4
v 1 16 3
v 1 16 1
v 1 16 -0
v 1 17 4
v 1 18 4
v 1 19 4
v 1 24 4
v 1 24 3
v 1 24 1
v 1 24 -0
v 1 25 3
v 1 25 1
v 2 15 4
v 2 15 3
v 2 15 1
v 2 15 -0
v 2 16 4
v 2 16 3
v 2 16 1
v 2 16 -0
v 2 24 4
v 2 24 3
v 2 24 1
v 2 24 -0
v 2 25 4
v 2 25 3
v 2 25 1
v 2 25 -0
v 6 0 14
v 6 0 7
v 6 1 14
v 6 1 11
v 6 6 11
v 6 6 7
v 6 9 11
v 6 9 7
v 6 10 11
v 6 10 7
v 6 11 11
v 6 11 7
v 6 12 11
v 6 12 7
v 6 13 11
v 6 13 7
v 2 0 14
v 2 0 7
v 2 1 14
v 2 1 11
v 2 6 11
v 2 6 7
v 2 9 11
v 2 9 7
v 2 10 11
v 2 10 7
v 2 11 11
v 2 11 7
v 2 12 11
v 2 12 7
v 2 13 11
v 2 13 7
v 5 15 4
v 5 15 3
v 5 15 1
v 5 15 -0
v 5 16 4
v 5 16 3
v 5 16 1
v 5 16 -0
v 5 24 4
v 5 24 3
v 5 24 1
v 5 24 -0
v 5 25 4
v 5 25 3
v 5 25 1
v 5 25 -0
v 6 15 3
v 6 15 1
v 6 16 4
v 6 16 3
v 6 16 1
v 6 16 -0
v 6 17 4
v 6 18 4
v 6 19 4
v 6 24 4
v 6 24 3
v 6 24 1
v 6 24 -0
v 6 25 3
v 6 25 1
v 9 0 14
v 9 0 7
v 9 1 14
v 9 1 11
v 9 6 11
v 9 6 7
v 9 9 11
v 9 9 7
v 9 10 11
v 9 10 7
v 9 11 11
v 9 11 7
v 9 12 11
v 9 12 7
v 9 13 11
v 9 13 7
v 10 27 13
v 10 27 4
v 10 35 13
v 10 35 4
v 10 36 13
v 10 36 4
v 10 37 13
v 10 37 4
v 11 13 13
v 11 13 4
v 11 16 13
v 11 16 4
v 11 17 13
v 11 17 4
v 11 18 13
v 11 18 10
v 11 18 8
v 11 18 4
v 11 19 13
v 11 19 10
v 11 19 8
v 11 19 4
v 11 21 10
v 11 21 8
v 11 25 10
v 11 25 8
v 11 27 13
v 11 27 4
v 13 18 10
v 13 18 8
v 13 21 10
v 13 21 8
v 13 25 10
v 13 25 8
v -1 0 14
v -1 1 14
v 2 0 14
v 2 1 14
v 6 0 14
v 6 1 14
v 9 0 14
v 9 1 14
v -3 13 13
v -3 16 13
v -3 17 13
v -3 18 13
v -3 19 13
v -3 27 13
v -2 27 13
v -2 35 13
v -2 36 13
v -2 37 13
v -1 28 13
v -1 34 13
v 0 31 13
v 0 33 13
v 1 31 13
v 1 33 13
v 2 29 13
v 2 30 13
v 6 29 13
v 6 30 13
v 7 31 13
v 7 33 13
v 8 31 13
v 8 33 13
v 9 28 13
v 9 34 13
v 10 27 13
v 10 35 13
v 10 36 13
v 10 37 13
v 11 13 13
v 11 16 13
v 11 17 13
v 11 18 13
v 11 19 13
v 11 27 13
v -1 1 11
v -1 6 11
v -1 9 11
v -1 10 11
v -1 11 11
v -1 12 11
v -1 13 11
v 2 1 11
v 2 6 11
v 2 9 11
v 2 10 11
v 2 11 11
v 2 12 11
v 2 13 11
v 6 1 11
v 6 6 11
v 6 9 11
v 6 10 11
v 6 11 11
v 6 12 11
v 6 13 11
v 9 1 11
v 9 6 11
v 9 9 11
v 9 10 11
v 9 11 11
v 9 12 11
v 9 13 11
v -5 18 10
v -5 21 10
v -5 25 10
v -3 18 10
v -3 19 10
v -3 21 10
v -3 25 10
v 11 18 10
v 11 19 10
v 11 21 10
v 11 25 10
v 13 18 10
v 13 21 10
v 13 25 10
v 1 15 3
v 1 16 3
v 1 24 3
v 1 25 3
v 2 15 3
v 2 16 3
v 2 24 3
v 2 25 3
v 5 15 3
v 5 16 3
v 5 24 3
v 5 25 3
v 6 15 3
v 6 16 3
v 6 24 3
v 6 25 3
v -5 18 8
v -5 21 8
v -5 25 8
v -3 18 8
v -3 19 8
v -3 21 8
v -3 25 8
v 11 18 8
v 11 19 8
v 11 21 8
v 11 25 8
v 13 18 8
v 13 21 8
v 13 25 8
v -1 0 7
v -1 6 7
v -1 9 7
v -1 10 7
v -1 11 7
v -1 12 7
v -1 13 7
v 2 0 7
v 2 6 7
v 2 9 7
v 2 10 7
v 2 11 7
v 2 12 7
v 2 13 7
v 6 0 7
v 6 6 7
v 6 9 7
v 6 10 7
v 6 11 7
v 6 12 7
v 6 13 7
v 9 0 7
v 9 6 7
v 9 9 7
v 9 10 7
v 9 11 7
v 9 12 7
v 9 13 7
v -3 13 4
v -3 16 4
v -3 17 4
v -3 18 4
v -3 19 4
v -3 27 4
v -2 27 4
v -2 35 4
v -2 36 4
v -2 37 4
v 1 16 4
v 1 17 4
v 1 18 4
v 1 19 4
v 1 24 4
v 2 15 4
v 2 16 4
v 2 24 4
v 2 25 4
v 3 15 4
v 3 25 4
v 4 15 4
v 4 25 4
v 5 15 4
v 5 16 4
v 5 24 4
v 5 25 4
v 6 16 4
v 6 17 4
v 6 18 4
v 6 19 4
v 6 24 4
v 10 27 4
v 10 35 4
v 10 36 4
v 10 37 4
v 11 13 4
v 11 16 4
v 11 17 4
v 11 18 4
v 11 19 4
v 11 27 4
v 1 15 1
v 1 16 1
v 1 24 1
v 1 25 1
v 2 15 1
v 2 16 1
v 2 24 1
v 2 25 1
v 5 15 1
v 5 16 1
v 5 24 1
v 5 25 1
v 6 15 1
v 6 16 1
v 6 24 1
v 6 25 1
v 1 16 -0
v 1 24 -0
v 2 15 -0
v 2 16 -0
v 2 24 -0
v 2 25 -0
v 3 15 -0
v 3 25 -0
v 4 15 -0
v 4 25 -0
v 5 15 -0
v 5 16 -0
v 5 24 -0
v 5 25 -0
v 6 16 -0
v 6 24 -0
v -1 0 14
v 2 0 14
v 6 0 14
v 9 0 14
v -1 0 7
v 2 0 7
v 6 0 7
v 9 0 7
v -3 13 13
v 11 13 13
v -1 13 11
v 2 13 11
v 6 13 11
v 9 13 11
v -1 13 7
v 2 13 7
v 6 13 7
v 9 13 7
v -3 13 4
v 11 13 4
v 2 15 4
v 3 15 4
v 4 15 4
v 5 15 4
v 1 15 3
v 2 15 3
v 5 15 3
v 6 15 3
v 1 15 1
v 2 15 1
v 5 15 1
v 6 15 1
v 2 15 -0
v 3 15 -0
v 4 15 -0
v 5 15 -0
v 1 16 4
v 2 16 4
v 5 16 4
v 6 16 4
v 1 16 3
v 2 16 3
v 5 16 3
v 6 16 3
v 1 16 1
v 2 16 1
v 5 16 1
v 6 16 1
v 1 16 -0
v 2 16 -0
v 5 16 -0
v 6 16 -0
v -5 18 10
v -3 18 10
v 11 18 10
v 13 18 10
v -5 18 8
v -3 18 8
v 11 18 8
v 13 18 8
v -1 1 14
v 2 1 14
v 6 1 14
v 9 1 14
v -1 1 11
v 2 1 11
v 6 1 11
v 9 1 11
v 1 24 4
v 2 24 4
v 5 24 4
v 6 24 4
v 1 24 3
v 2 24 3
v 5 24 3
v 6 24 3
v 1 24 1
v 2 24 1
v 5 24 1
v 6 24 1
v 1 24 -0
v 2 24 -0
v 5 24 -0
v 6 24 -0
v -5 25 10
v -3 25 10
v 11 25 10
v 13 25 10
v -5 25 8
v -3 25 8
v 11 25 8
v 13 25 8
v 2 25 4
v 3 25 4
v 4 25 4
v 5 25 4
v 1 25 3
v 2 25 3
v 5 25 3
v 6 25 3
v 1 25 1
v 2 25 1
v 5 25 1
v 6 25 1
v 2 25 -0
v 3 25 -0
v 4 25 -0
v 5 25 -0
v -3 27 13
v -2 27 13
v 10 27 13
v 11 27 13
v -3 27 4
v -2 27 4
v 10 27 4
v 11 27 4
v -2 37 13
v 10 37 13
v -2 37 4
v 10 37 4

# faces
f 3/1/1 2/1/1 1/1/1
f 4/1/1 2/1/1 3/1/1
f 5/2/1 4/2/1 3/2/1
f 6/2/1 4/2/1 5/2/1
f 9/2/1 8/2/1 7/2/1
f 10/2/1 8/2/1 9/2/1
f 11/8/1 10/8/1 9/8/1
f 12/8/1 10/8/1 11/8/1
f 13/2/1 12/2/1 11/2/1
f 14/2/1 12/2/1 13/2/1
f 15/2/1 12/2/1 14/2/1
f 16/2/1 12/2/1 15/2/1
f 17/8/1 14/8/1 13/8/1
f 18/8/1 14/8/1 17/8/1
f 19/8/1 16/8/1 15/8/1
f 20/8/1 16/8/1 19/8/1
f 21/2/1 18/2/1 17/2/1
f 22/2/1 20/2/1 19/2/1
f 23/2/1 21/2/1 17/2/1
f 24/2/1 20/2/1 22/2/1
f 25/2/1 23/2/1 17/2/1
f 25/2/1 24/2/1 23/2/1
f 26/2/1 20/2/1 24/2/1
f 26/2/1 24/2/1 25/2/1
f 29/2/1 28/2/1 27/2/1
f 30/2/1 28/2/1 29/2/1
f 31/8/1 30/8/1 29/8/1
f 32/8/1 30/8/1 31/8/1
f 33/2/1 32/2/1 31/2/1
f 34/2/1 32/2/1 33/2/1
f 37/8/1 36/8/1 35/8/1
f 38/8/1 36/8/1 37/8/1
f 39/8/1 36/8/1 38/8/1
f 40/8/1 36/8/1 39/8/1
f 41/2/1 40/2/1 39/2/1
f 42/2/1 40/2/1 41/2/1
f 43/8/1 42/8/1 41/8/1
f 44/8/1 42/8/1 43/8/1
f 45/2/1 44/2/1 43/2/1
f 46/2/1 44/2/1 45/2/1
f 47/8/1 46/8/1 45/8/1
f 48/8/1 46/8/1 47/8/1
f 49/2/1 48/2/1 47/2/1
f 50/2/1 48/2/1 49/2/1
f 54/2/1 52/2/1 51/2/1
f 55/2/1 52/2/1 54/2/1
f 57/2/1 54/2/1 53/2/1
f 57/2/1 56/2/1 55/2/1
f 57/2/1 55/2/1 54/2/1
f 58/2/1 56/2/1 57/2/1
f 59/2/1 56/2/1 58/2/1
f 60/2/1 56/2/1 59/2/1
f 61/2/1 56/2/1 60/2/1
f 62/2/1 56/2/1 61/2/1
f 63/2/1 56/2/1 62/2/1
f 64/2/1 62/2/1 61/2/1
f 65/2/1 62/2/1 64/2/1
f 70/2/1 67/2/1 66/2/1
f 71/2/1 67/2/1 70/2/1
f 72/2/1 69/2/1 68/2/1
f 73/2/1 69/2/1 72/2/1
f 78/2/1 75/2/1 74/2/1
f 79/2/1 75/2/1 78/2/1
f 80/2/1 77/2/1 76/2/1
f 81/2/1 77/2/1 80/2/1
f 84/8/1 83/8/1 82/8/1
f 85/8/1 83/8/1 84/8/1
f 86/8/1 83/8/1 85/8/1
f 87/8/1 83/8/1 86/8/1
f 88/2/1 87/2/1 86/2/1
f 89/2/1 87/2/1 88/2/1
f 90/8/1 89/8/1 88/8/1
f 91/8/1 89/8/1 90/8/1
f 92/2/1 91/2/1 90/2/1
f 93/2/1 91/2/1 92/2/1
f 94/8/1 93/8/1 92/8/1
f 95/8/1 93/8/1 94/8/1
f 96/2/1 95/2/1 94/2/1
f 97/2/1 95/2/1 96/2/1
f 98/8/2 99/8/2 100/8/2
f 100/8/2 99/8/2 101/8/2
f 101/8/2 99/8/2 102/8/2
f 102/8/2 99/8/2 103/8/2
f 102/2/2 103/2/2 104/2/2
f 104/2/2 103/2/2 105/2/2
f 104/8/2 105/8/2 106/8/2
f 106/8/2 105/8/2 107/8/2
f 106/2/2 107/2/2 108/2/2
f 108/2/2 107/2/2 109/2/2
f 108/8/2 109/8/2 110/8/2
f 110/8/2 109/8/2 111/8/2
f 110/2/2 111/2/2 112/2/2
f 112/2/2 111/2/2 113/2/2
f 114/2/2 115/2/2 118/2/2
f 118/2/2 115/2/2 119/2/2
f 116/2/2 117/2/2 120/2/2
f 120/2/2 117/2/2 121/2/2
f 122/2/2 123/2/2 126/2/2
f 126/2/2 123/2/2 127/2/2
f 124/2/2 125/2/2 128/2/2
f 128/2/2 125/2/2 129/2/2
f 130/2/2 131/2/2 133/2/2
f 133/2/2 131/2/2 134/2/2
f 132/2/2 133/2/2 136/2/2
f 134/2/2 135/2/2 136/2/2
f 133/2/2 134/2/2 136/2/2
f 136/2/2 135/2/2 137/2/2
f 137/2/2 135/2/2 138/2/2
f 138/2/2 135/2/2 139/2/2
f 139/2/2 135/2/2 140/2/2
f 140/2/2 135/2/2 141/2/2
f 141/2/2 135/2/2 142/2/2
f 140/2/2 141/2/2 143/2/2
f 143/2/2 141/2/2 144/2/2
f 145/8/2 146/8/2 147/8/2
f 147/8/2 146/8/2 148/8/2
f 148/8/2 146/8/2 149/8/2
f 149/8/2 146/8/2 150/8/2
f 149/2/2 150/2/2 151/2/2
f 151/2/2 150/2/2 152/2/2
f 151/8/2 152/8/2 153/8/2
f 153/8/2 152/8/2 154/8/2
f 153/2/2 154/2/2 155/2/2
f 155/2/2 154/2/2 156/2/2
f 155/8/2 156/8/2 157/8/2
f 157/8/2 156/8/2 158/8/2
f 157/2/2 158/2/2 159/2/2
f 159/2/2 158/2/2 160/2/2
f 161/2/2 162/2/2 163/2/2
f 163/2/2 162/2/2 164/2/2
f 163/8/2 164/8/2 165/8/2
f 165/8/2 164/8/2 166/8/2
f 165/2/2 166/2/2 167/2/2
f 167/2/2 166/2/2 168/2/2
f 169/2/2 170/2/2 171/2/2
f 171/2/2 170/2/2 172/2/2
f 171/8/2 172/8/2 173/8/2
f 173/8/2 172/8/2 174/8/2
f 173/2/2 174/2/2 175/2/2
f 175/2/2 174/2/2 176/2/2
f 176/2/2 174/2/2 177/2/2
f 177/2/2 174/2/2 178/2/2
f 175/8/2 176/8/2 179/8/2
f 179/8/2 176/8/2 180/8/2
f 177/8/2 178/8/2 181/8/2
f 181/8/2 178/8/2 182/8/2
f 179/2/2 180/2/2 183/2/2
f 181/2/2 182/2/2 184/2/2
f 179/2/2 183/2/2 185/2/2
f 184/2/2 182/2/2 186/2/2
f 179/2/2 185/2/2 187/2/2
f 185/2/2 186/2/2 187/2/2
f 186/2/2 182/2/2 188/2/2
f 187/2/2 186/2/2 188/2/2
f 189/1/2 190/1/2 191/1/2
f 191/1/2 190/1/2 192/1/2
f 191/2/2 192/2/2 193/2/2
f 193/2/2 192/2/2 194/2/2
f 197/8/3 196/8/3 195/8/3
f 198/8/3 196/8/3 197/8/3
f 201/8/3 200/8/3 199/8/3
f 202/8/3 200/8/3 201/8/3
f 209/2/3 208/2/3 207/2/3
f 213/2/3 210/2/3 209/2/3
f 214/2/3 210/2/3 213/2/3
f 215/3/3 214/3/3 213/3/3
f 216/3/3 214/3/3 215/3/3
f 217/3/3 215/3/3 213/3/3
f 217/5/3 216/5/3 215/5/3
f 218/3/3 214/3/3 216/3/3
f 218/5/3 216/5/3 217/5/3
f 219/3/3 217/3/3 213/3/3
f 219/3/3 218/3/3 217/3/3
f 220/3/3 218/3/3 219/3/3
f 221/3/3 219/3/3 213/3/3
f 221/5/3 220/5/3 219/5/3
f 222/3/3 218/3/3 220/3/3
f 222/5/3 220/5/3 221/5/3
f 223/3/3 222/3/3 221/3/3
f 223/3/3 218/3/3 222/3/3
f 224/3/3 214/3/3 218/3/3
f 224/3/3 218/3/3 223/3/3
f 225/3/3 223/3/3 221/3/3
f 225/5/3 224/5/3 223/5/3
f 226/3/3 214/3/3 224/3/3
f 226/5/3 224/5/3 225/5/3
f 227/2/3 213/2/3 209/2/3
f 227/3/3 225/3/3 221/3/3
f 227/3/3 226/3/3 225/3/3
f 227/3/3 221/3/3 213/3/3
f 228/3/3 214/3/3 226/3/3
f 228/3/3 226/3/3 227/3/3
f 228/2/3 210/2/3 214/2/3
f 229/2/3 209/2/3 207/2/3
f 229/2/3 227/2/3 209/2/3
f 229/2/3 228/2/3 227/2/3
f 230/2/3 210/2/3 228/2/3
f 230/2/3 228/2/3 229/2/3
f 230/8/3 211/8/3 210/8/3
f 231/2/3 212/2/3 211/2/3
f 231/8/3 211/8/3 230/8/3
f 232/2/3 212/2/3 231/2/3
f 233/2/3 204/2/3 203/2/3
f 234/8/3 205/8/3 204/8/3
f 234/2/3 204/2/3 233/2/3
f 235/2/3 206/2/3 205/2/3
f 235/8/3 205/8/3 234/8/3
f 236/8/3 207/8/3 206/8/3
f 236/2/3 206/2/3 235/2/3
f 237/2/3 229/2/3 207/2/3
f 237/8/3 207/8/3 236/8/3
f 238/2/3 229/2/3 237/2/3
f 246/8/3 240/8/3 239/8/3
f 247/2/3 241/2/3 240/2/3
f 247/8/3 240/8/3 246/8/3
f 248/8/3 242/8/3 241/8/3
f 248/2/3 241/2/3 247/2/3
f 249/2/3 243/2/3 242/2/3
f 249/8/3 242/8/3 248/8/3
f 250/8/3 244/8/3 243/8/3
f 250/2/3 243/2/3 249/2/3
f 251/2/3 245/2/3 244/2/3
f 251/8/3 244/8/3 250/8/3
f 252/2/3 245/2/3 251/2/3
f 260/8/3 254/8/3 253/8/3
f 261/2/3 255/2/3 254/2/3
f 261/8/3 254/8/3 260/8/3
f 262/8/3 256/8/3 255/8/3
f 262/2/3 255/2/3 261/2/3
f 263/2/3 257/2/3 256/2/3
f 263/8/3 256/8/3 262/8/3
f 264/8/3 258/8/3 257/8/3
f 264/2/3 257/2/3 263/2/3
f 265/2/3 259/2/3 258/2/3
f 265/8/3 258/8/3 264/8/3
f 266/2/3 259/2/3 265/2/3
f 270/1/3 268/1/3 267/1/3
f 271/1/3 268/1/3 270/1/3
f 272/2/3 269/2/3 268/2/3
f 272/1/3 268/1/3 271/1/3
f 273/2/3 269/2/3 272/2/3
f 278/1/3 275/1/3 274/1/3
f 278/1/3 276/1/3 275/1/3
f 279/2/3 277/2/3 276/2/3
f 279/1/3 276/1/3 278/1/3
f 280/2/3 277/2/3 279/2/3
f 285/2/3 282/2/3 281/2/3
f 286/2/3 282/2/3 285/2/3
f 287/2/3 284/2/3 283/2/3
f 288/2/3 284/2/3 287/2/3
f 293/2/3 290/2/3 289/2/3
f 294/2/3 290/2/3 293/2/3
f 295/2/3 292/2/3 291/2/3
f 296/2/3 292/2/3 295/2/3
f 297/1/4 298/1/4 300/1/4
f 300/1/4 298/1/4 301/1/4
f 298/2/4 299/2/4 302/2/4
f 301/1/4 298/1/4 302/1/4
f 302/2/4 299/2/4 303/2/4
f 304/1/4 305/1/4 308/1/4
f 305/1/4 306/1/4 308/1/4
f 306/2/4 307/2/4 309/2/4
f 308/1/4 306/1/4 309/1/4
f 309/2/4 307/2/4 310/2/4
f 311/8/4 312/8/4 318/8/4
f 312/2/4 313/2/4 319/2/4
f 318/8/4 312/8/4 319/8/4
f 313/8/4 314/8/4 320/8/4
f 319/2/4 313/2/4 320/2/4
f 314/2/4 315/2/4 321/2/4
f 320/8/4 314/8/4 321/8/4
f 315/8/4 316/8/4 322/8/4
f 321/2/4 315/2/4 322/2/4
f 316/2/4 317/2/4 323/2/4
f 322/8/4 316/8/4 323/8/4
f 323/2/4 317/2/4 324/2/4
f 325/8/4 326/8/4 332/8/4
f 326/2/4 327/2/4 333/2/4
f 332/8/4 326/8/4 333/8/4
f 327/8/4 328/8/4 334/8/4
f 333/2/4 327/2/4 334/2/4
f 328/2/4 329/2/4 335/2/4
f 334/8/4 328/8/4 335/8/4
f 329/8/4 330/8/4 336/8/4
f 335/2/4 329/2/4 336/2/4
f 330/2/4 331/2/4 337/2/4
f 336/8/4 330/8/4 337/8/4
f 337/2/4 331/2/4 338/2/4
f 343/2/4 344/2/4 345/2/4
f 339/2/4 340/2/4 349/2/4
f 340/8/4 341/8/4 349/8/4
f 341/2/4 342/2/4 350/2/4
f 349/8/4 341/8/4 350/8/4
f 342/8/4 343/8/4 351/8/4
f 350/2/4 342/2/4 351/2/4
f 343/2/4 345/2/4 352/2/4
f 351/8/4 343/8/4 352/8/4
f 345/2/4 346/2/4 352/2/4
f 352/2/4 346/2/4 353/2/4
f 339/2/4 349/2/4 354/2/4
f 354/2/4 349/2/4 355/2/4
f 353/2/4 346/2/4 356/2/4
f 356/2/4 346/2/4 357/2/4
f 339/2/4 354/2/4 358/2/4
f 357/2/4 346/2/4 359/2/4
f 339/2/4 358/2/4 360/2/4
f 359/2/4 346/2/4 361/2/4
f 339/2/4 360/2/4 362/2/4
f 361/2/4 346/2/4 365/2/4
f 362/2/4 363/2/4 366/2/4
f 364/2/4 365/2/4 370/2/4
f 365/2/4 346/2/4 371/2/4
f 369/2/4 370/2/4 371/2/4
f 370/2/4 365/2/4 371/2/4
f 346/8/4 347/8/4 372/8/4
f 371/2/4 346/2/4 372/2/4
f 347/2/4 348/2/4 373/2/4
f 372/8/4 347/8/4 373/8/4
f 373/2/4 348/2/4 374/2/4
f 339/2/4 362/2/4 375/2/4
f 362/2/4 366/2/4 375/2/4
f 366/8/4 367/8/4 376/8/4
f 375/2/4 366/2/4 376/2/4
f 367/2/4 368/2/4 377/2/4
f 376/8/4 367/8/4 377/8/4
f 368/8/4 369/8/4 378/8/4
f 377/2/4 368/2/4 378/2/4
f 369/2/4 371/2/4 379/2/4
f 378/8/4 369/8/4 379/8/4
f 379/2/4 371/2/4 380/2/4
f 381/2/4 382/2/4 385/2/4
f 385/2/4 382/2/4 386/2/4
f 383/2/4 384/2/4 387/2/4
f 387/2/4 384/2/4 388/2/4
f 389/2/4 390/2/4 393/2/4
f 393/2/4 390/2/4 394/2/4
f 391/2/4 392/2/4 395/2/4
f 395/2/4 392/2/4 396/2/4
f 397/2/4 398/2/4 400/2/4
f 400/2/4 398/2/4 401/2/4
f 399/2/4 400/2/4 403/2/4
f 401/2/4 402/2/4 403/2/4
f 400/2/4 401/2/4 403/2/4
f 403/2/4 402/2/4 404/2/4
f 403/8/4 404/8/4 405/8/4
f 405/8/4 404/8/4 406/8/4
f 405/2/4 406/2/4 407/2/4
f 407/2/4 406/2/4 408/2/4
f 408/2/4 406/2/4 409/2/4
f 409/2/4 406/2/4 410/2/4
f 408/2/4 409/2/4 411/2/4
f 411/2/4 409/2/4 412/2/4
f 417/8/5 414/8/5 413/8/5
f 418/8/5 414/8/5 417/8/5
f 419/8/5 416/8/5 415/8/5
f 420/8/5 416/8/5 419/8/5
f 423/2/5 422/2/5 421/2/5
f 424/2/5 422/2/5 423/2/5
f 425/2/5 422/2/5 424/2/5
f 426/2/5 422/2/5 425/2/5
f 427/2/5 423/2/5 421/2/5
f 428/2/5 425/2/5 424/2/5
f 429/2/5 425/2/5 428/2/5
f 430/2/5 422/2/5 426/2/5
f 431/2/5 429/2/5 428/2/5
f 431/2/5 430/2/5 429/2/5
f 431/2/5 427/2/5 421/2/5
f 431/2/5 428/2/5 427/2/5
f 432/2/5 422/2/5 430/2/5
f 432/2/5 430/2/5 431/2/5
f 438/2/5 434/2/5 433/2/5
f 439/2/5 436/2/5 435/2/5
f 441/2/5 438/2/5 437/2/5
f 442/2/5 434/2/5 438/2/5
f 442/2/5 438/2/5 441/2/5
f 443/2/5 440/2/5 439/2/5
f 443/2/5 439/2/5 435/2/5
f 444/2/5 440/2/5 443/2/5
f 445/2/5 434/2/5 442/2/5
f 446/8/5 435/8/5 434/8/5
f 446/2/5 434/2/5 445/2/5
f 447/2/5 443/2/5 435/2/5
f 447/8/5 435/8/5 446/8/5
f 448/2/5 443/2/5 447/2/5
f 453/2/5 450/2/5 449/2/5
f 454/2/5 450/2/5 453/2/5
f 455/2/5 452/2/5 451/2/5
f 456/2/5 452/2/5 455/2/5
f 461/2/5 458/2/5 457/2/5
f 462/2/5 458/2/5 461/2/5
f 463/2/5 460/2/5 459/2/5
f 464/2/5 460/2/5 463/2/5
f 469/1/5 466/1/5 465/1/5
f 470/1/5 466/1/5 469/1/5
f 471/1/5 468/1/5 467/1/5
f 472/1/5 468/1/5 471/1/5
f 473/8/6 474/8/6 477/8/6
f 477/8/6 474/8/6 478/8/6
f 475/8/6 476/8/6 479/8/6
f 479/8/6 476/8/6 480/8/6
f 481/2/6 482/2/6 485/2/6
f 485/2/6 482/2/6 486/2/6
f 483/2/6 484/2/6 487/2/6
f 487/2/6 484/2/6 488/2/6
f 489/2/6 490/2/6 493/2/6
f 493/2/6 490/2/6 494/2/6
f 491/2/6 492/2/6 495/2/6
f 495/2/6 492/2/6 496/2/6
f 497/2/6 498/2/6 501/2/6
f 501/2/6 498/2/6 502/2/6
f 499/2/6 500/2/6 503/2/6
f 503/2/6 500/2/6 504/2/6
f 505/2/6 506/2/6 510/2/6
f 507/2/6 508/2/6 511/2/6
f 509/2/6 510/2/6 513/2/6
f 510/2/6 506/2/6 514/2/6
f 513/2/6 510/2/6 514/2/6
f 511/2/6 512/2/6 515/2/6
f 507/2/6 511/2/6 515/2/6
f 515/2/6 512/2/6 516/2/6
f 514/2/6 506/2/6 517/2/6
f 506/8/6 507/8/6 518/8/6
f 517/2/6 506/2/6 518/2/6
f 507/2/6 515/2/6 519/2/6
f 518/8/6 507/8/6 519/8/6
f 519/2/6 515/2/6 520/2/6
f 521/2/6 522/2/6 525/2/6
f 525/2/6 522/2/6 526/2/6
f 523/2/6 524/2/6 527/2/6
f 527/2/6 524/2/6 528/2/6
f 529/2/6 530/2/6 531/2/6
f 531/2/6 530/2/6 532/2/6
