# MagicaVoxel @ Ephtracy

# group
g Player15

# material
mtllib Player15.mtl
usemtl palette

# normals
vn -1 0 0
vn 1 0 0
vn 0 0 1
vn 0 0 -1
vn 0 -1 0
vn 0 1 0

# texcoords
vt 0.392578 0.5
vt 0.462891 0.5
vt 0.556641 0.5
vt 0.958984 0.5

# verts
v -5 18 10
v -5 18 8
v -5 22 10
v -5 22 8
v -5 23 10
v -5 23 8
v -5 25 10
v -5 25 8
v -3 13 13
v -3 13 4
v -3 15 13
v -3 15 4
v -3 16 13
v -3 16 4
v -3 18 10
v -3 18 8
v -3 22 10
v -3 22 8
v -3 23 10
v -3 23 8
v -3 25 10
v -3 25 8
v -3 27 13
v -3 27 4
v -2 27 13
v -2 27 4
v -2 37 13
v -2 37 4
v -1 0 14
v -1 0 7
v -1 1 14
v -1 1 11
v -1 10 11
v -1 10 7
v -1 11 11
v -1 11 7
v -1 13 11
v -1 13 7
v 6 0 14
v 6 0 7
v 6 1 14
v 6 1 11
v 6 10 11
v 6 10 7
v 6 11 11
v 6 11 7
v 6 13 11
v 6 13 7
v 2 0 14
v 2 0 7
v 2 1 14
v 2 1 11
v 2 10 11
v 2 10 7
v 2 11 11
v 2 11 7
v 2 13 11
v 2 13 7
v 9 0 14
v 9 0 7
v 9 1 14
v 9 1 11
v 9 10 11
v 9 10 7
v 9 11 11
v 9 11 7
v 9 13 11
v 9 13 7
v 10 27 13
v 10 27 4
v 10 37 13
v 10 37 4
v 11 13 13
v 11 13 4
v 11 15 13
v 11 15 4
v 11 16 13
v 11 16 4
v 11 18 10
v 11 18 8
v 11 22 10
v 11 22 8
v 11 23 10
v 11 23 8
v 11 25 10
v 11 25 8
v 11 27 13
v 11 27 4
v 13 18 10
v 13 18 8
v 13 22 10
v 13 22 8
v 13 23 10
v 13 23 8
v 13 25 10
v 13 25 8
v -1 0 14
v -1 1 14
v 2 0 14
v 2 1 14
v 6 0 14
v 6 1 14
v 9 0 14
v 9 1 14
v -3 13 13
v -3 15 13
v -3 16 13
v -3 27 13
v -2 27 13
v -2 37 13
v 0 31 13
v 0 33 13
v 1 31 13
v 1 33 13
v 2 29 13
v 2 30 13
v 3 14 13
v 3 15 13
v 3 16 13
v 3 17 13
v 3 18 13
v 3 19 13
v 3 20 13
v 3 21 13
v 3 22 13
v 3 23 13
v 3 24 13
v 3 25 13
v 3 26 13
v 3 27 13
v 4 14 13
v 4 15 13
v 4 16 13
v 4 17 13
v 4 18 13
v 4 19 13
v 4 20 13
v 4 21 13
v 4 22 13
v 4 23 13
v 4 24 13
v 4 25 13
v 4 26 13
v 4 27 13
v 6 29 13
v 6 30 13
v 7 31 13
v 7 33 13
v 8 31 13
v 8 33 13
v 10 27 13
v 10 37 13
v 11 13 13
v 11 15 13
v 11 16 13
v 11 27 13
v -1 1 11
v -1 10 11
v -1 11 11
v -1 13 11
v 2 1 11
v 2 10 11
v 2 11 11
v 2 13 11
v 6 1 11
v 6 10 11
v 6 11 11
v 6 13 11
v 9 1 11
v 9 10 11
v 9 11 11
v 9 13 11
v -5 18 10
v -5 22 10
v -5 23 10
v -5 25 10
v -3 18 10
v -3 22 10
v -3 23 10
v -3 25 10
v 11 18 10
v 11 22 10
v 11 23 10
v 11 25 10
v 13 18 10
v 13 22 10
v 13 23 10
v 13 25 10
v -5 18 8
v -5 22 8
v -5 23 8
v -5 25 8
v -3 18 8
v -3 22 8
v -3 23 8
v -3 25 8
v 11 18 8
v 11 22 8
v 11 23 8
v 11 25 8
v 13 18 8
v 13 22 8
v 13 23 8
v 13 25 8
v -1 0 7
v -1 10 7
v -1 11 7
v -1 13 7
v 2 0 7
v 2 10 7
v 2 11 7
v 2 13 7
v 6 0 7
v 6 10 7
v 6 11 7
v 6 13 7
v 9 0 7
v 9 10 7
v 9 11 7
v 9 13 7
v -3 13 4
v -3 15 4
v -3 16 4
v -3 27 4
v -2 27 4
v -2 37 4
v 10 27 4
v 10 37 4
v 11 13 4
v 11 15 4
v 11 16 4
v 11 27 4
v -1 0 14
v 2 0 14
v 6 0 14
v 9 0 14
v -1 0 7
v 2 0 7
v 6 0 7
v 9 0 7
v -3 13 13
v 11 13 13
v -1 13 11
v 2 13 11
v 6 13 11
v 9 13 11
v -1 13 7
v 2 13 7
v 6 13 7
v 9 13 7
v -3 13 4
v 11 13 4
v -5 18 10
v -3 18 10
v 11 18 10
v 13 18 10
v -5 18 8
v -3 18 8
v 11 18 8
v 13 18 8
v -1 1 14
v 2 1 14
v 6 1 14
v 9 1 14
v -1 1 11
v 2 1 11
v 6 1 11
v 9 1 11
v -5 25 10
v -3 25 10
v 11 25 10
v 13 25 10
v -5 25 8
v -3 25 8
v 11 25 8
v 13 25 8
v -3 27 13
v -2 27 13
v 10 27 13
v 11 27 13
v -3 27 4
v -2 27 4
v 10 27 4
v 11 27 4
v -2 37 13
v 10 37 13
v -2 37 4
v 10 37 4

# faces
f 3/1/1 2/1/1 1/1/1
f 4/1/1 2/1/1 3/1/1
f 5/4/1 4/4/1 3/4/1
f 6/4/1 4/4/1 5/4/1
f 7/1/1 6/1/1 5/1/1
f 8/1/1 6/1/1 7/1/1
f 11/1/1 10/1/1 9/1/1
f 12/1/1 10/1/1 11/1/1
f 13/4/1 12/4/1 11/4/1
f 14/4/1 12/4/1 13/4/1
f 15/1/1 14/1/1 13/1/1
f 16/1/1 14/1/1 15/1/1
f 17/1/1 15/1/1 13/1/1
f 18/1/1 14/1/1 16/1/1
f 19/1/1 17/1/1 13/1/1
f 20/1/1 14/1/1 18/1/1
f 21/1/1 19/1/1 13/1/1
f 22/1/1 14/1/1 20/1/1
f 23/1/1 21/1/1 13/1/1
f 23/1/1 22/1/1 21/1/1
f 24/1/1 14/1/1 22/1/1
f 24/1/1 22/1/1 23/1/1
f 27/1/1 26/1/1 25/1/1
f 28/1/1 26/1/1 27/1/1
f 31/1/1 30/1/1 29/1/1
f 32/1/1 30/1/1 31/1/1
f 33/1/1 30/1/1 32/1/1
f 34/1/1 30/1/1 33/1/1
f 35/4/1 34/4/1 33/4/1
f 36/4/1 34/4/1 35/4/1
f 37/1/1 36/1/1 35/1/1
f 38/1/1 36/1/1 37/1/1
f 41/1/1 40/1/1 39/1/1
f 42/1/1 40/1/1 41/1/1
f 43/1/1 40/1/1 42/1/1
f 44/1/1 40/1/1 43/1/1
f 45/4/1 44/4/1 43/4/1
f 46/4/1 44/4/1 45/4/1
f 47/1/1 46/1/1 45/1/1
f 48/1/1 46/1/1 47/1/1
f 49/1/2 50/1/2 51/1/2
f 51/1/2 50/1/2 52/1/2
f 52/1/2 50/1/2 53/1/2
f 53/1/2 50/1/2 54/1/2
f 53/4/2 54/4/2 55/4/2
f 55/4/2 54/4/2 56/4/2
f 55/1/2 56/1/2 57/1/2
f 57/1/2 56/1/2 58/1/2
f 59/1/2 60/1/2 61/1/2
f 61/1/2 60/1/2 62/1/2
f 62/1/2 60/1/2 63/1/2
f 63/1/2 60/1/2 64/1/2
f 63/4/2 64/4/2 65/4/2
f 65/4/2 64/4/2 66/4/2
f 65/1/2 66/1/2 67/1/2
f 67/1/2 66/1/2 68/1/2
f 69/1/2 70/1/2 71/1/2
f 71/1/2 70/1/2 72/1/2
f 73/1/2 74/1/2 75/1/2
f 75/1/2 74/1/2 76/1/2
f 75/4/2 76/4/2 77/4/2
f 77/4/2 76/4/2 78/4/2
f 77/1/2 78/1/2 79/1/2
f 79/1/2 78/1/2 80/1/2
f 77/1/2 79/1/2 81/1/2
f 80/1/2 78/1/2 82/1/2
f 77/1/2 81/1/2 83/1/2
f 82/1/2 78/1/2 84/1/2
f 77/1/2 83/1/2 85/1/2
f 84/1/2 78/1/2 86/1/2
f 77/1/2 85/1/2 87/1/2
f 85/1/2 86/1/2 87/1/2
f 86/1/2 78/1/2 88/1/2
f 87/1/2 86/1/2 88/1/2
f 89/1/2 90/1/2 91/1/2
f 91/1/2 90/1/2 92/1/2
f 91/4/2 92/4/2 93/4/2
f 93/4/2 92/4/2 94/4/2
f 93/1/2 94/1/2 95/1/2
f 95/1/2 94/1/2 96/1/2
f 99/1/3 98/1/3 97/1/3
f 100/1/3 98/1/3 99/1/3
f 103/1/3 102/1/3 101/1/3
f 104/1/3 102/1/3 103/1/3
f 109/1/3 108/1/3 107/1/3
f 111/1/3 110/1/3 109/1/3
f 112/1/3 110/1/3 111/1/3
f 113/1/3 111/1/3 109/1/3
f 113/4/3 112/4/3 111/4/3
f 114/1/3 110/1/3 112/1/3
f 114/4/3 112/4/3 113/4/3
f 115/1/3 113/1/3 109/1/3
f 115/1/3 114/1/3 113/1/3
f 116/1/3 114/1/3 115/1/3
f 117/1/3 106/1/3 105/1/3
f 118/4/3 107/4/3 106/4/3
f 118/1/3 106/1/3 117/1/3
f 119/1/3 109/1/3 107/1/3
f 119/4/3 107/4/3 118/4/3
f 119/1/3 115/1/3 109/1/3
f 120/1/3 115/1/3 119/1/3
f 121/1/3 115/1/3 120/1/3
f 122/1/3 115/1/3 121/1/3
f 123/1/3 115/1/3 122/1/3
f 124/1/3 115/1/3 123/1/3
f 125/1/3 115/1/3 124/1/3
f 126/1/3 115/1/3 125/1/3
f 127/1/3 115/1/3 126/1/3
f 128/1/3 115/1/3 127/1/3
f 129/1/3 115/1/3 128/1/3
f 130/1/3 115/1/3 129/1/3
f 131/1/3 117/1/3 105/1/3
f 131/3/3 118/3/3 117/3/3
f 132/4/3 119/4/3 118/4/3
f 132/3/3 118/3/3 131/3/3
f 133/3/3 120/3/3 119/3/3
f 133/4/3 119/4/3 132/4/3
f 134/1/3 121/1/3 120/1/3
f 134/3/3 120/3/3 133/3/3
f 135/3/3 122/3/3 121/3/3
f 135/1/3 121/1/3 134/1/3
f 136/1/3 123/1/3 122/1/3
f 136/3/3 122/3/3 135/3/3
f 137/3/3 124/3/3 123/3/3
f 137/1/3 123/1/3 136/1/3
f 138/1/3 125/1/3 124/1/3
f 138/3/3 124/3/3 137/3/3
f 139/3/3 126/3/3 125/3/3
f 139/1/3 125/1/3 138/1/3
f 140/1/3 127/1/3 126/1/3
f 140/3/3 126/3/3 139/3/3
f 141/3/3 128/3/3 127/3/3
f 141/1/3 127/1/3 140/1/3
f 142/1/3 129/1/3 128/1/3
f 142/3/3 128/3/3 141/3/3
f 143/3/3 130/3/3 129/3/3
f 143/1/3 129/1/3 142/1/3
f 144/1/3 115/1/3 130/1/3
f 144/3/3 130/3/3 143/3/3
f 145/1/3 143/1/3 142/1/3
f 145/1/3 115/1/3 144/1/3
f 145/1/3 144/1/3 143/1/3
f 145/1/3 141/1/3 140/1/3
f 145/1/3 140/1/3 139/1/3
f 145/1/3 139/1/3 138/1/3
f 145/1/3 138/1/3 137/1/3
f 145/1/3 137/1/3 136/1/3
f 145/1/3 136/1/3 135/1/3
f 145/1/3 135/1/3 134/1/3
f 145/1/3 134/1/3 133/1/3
f 145/1/3 142/1/3 141/1/3
f 145/2/3 116/2/3 115/2/3
f 146/1/3 114/1/3 116/1/3
f 146/2/3 116/2/3 145/2/3
f 147/1/3 146/1/3 145/1/3
f 147/1/3 114/1/3 146/1/3
f 148/1/3 110/1/3 114/1/3
f 148/1/3 114/1/3 147/1/3
f 149/1/3 147/1/3 145/1/3
f 149/4/3 148/4/3 147/4/3
f 150/1/3 110/1/3 148/1/3
f 150/4/3 148/4/3 149/4/3
f 151/1/3 145/1/3 133/1/3
f 151/1/3 149/1/3 145/1/3
f 151/1/3 150/1/3 149/1/3
f 152/1/3 110/1/3 150/1/3
f 152/1/3 150/1/3 151/1/3
f 153/1/3 132/1/3 131/1/3
f 153/1/3 131/1/3 105/1/3
f 154/4/3 133/4/3 132/4/3
f 154/1/3 132/1/3 153/1/3
f 155/1/3 151/1/3 133/1/3
f 155/4/3 133/4/3 154/4/3
f 156/1/3 151/1/3 155/1/3
f 161/1/3 158/1/3 157/1/3
f 162/4/3 159/4/3 158/4/3
f 162/1/3 158/1/3 161/1/3
f 163/1/3 160/1/3 159/1/3
f 163/4/3 159/4/3 162/4/3
f 164/1/3 160/1/3 163/1/3
f 169/1/3 166/1/3 165/1/3
f 170/4/3 167/4/3 166/4/3
f 170/1/3 166/1/3 169/1/3
f 171/1/3 168/1/3 167/1/3
f 171/4/3 167/4/3 170/4/3
f 172/1/3 168/1/3 171/1/3
f 177/1/3 174/1/3 173/1/3
f 178/4/3 175/4/3 174/4/3
f 178/1/3 174/1/3 177/1/3
f 179/1/3 176/1/3 175/1/3
f 179/4/3 175/4/3 178/4/3
f 180/1/3 176/1/3 179/1/3
f 185/1/3 182/1/3 181/1/3
f 186/4/3 183/4/3 182/4/3
f 186/1/3 182/1/3 185/1/3
f 187/1/3 184/1/3 183/1/3
f 187/4/3 183/4/3 186/4/3
f 188/1/3 184/1/3 187/1/3
f 189/1/4 190/1/4 193/1/4
f 190/4/4 191/4/4 194/4/4
f 193/1/4 190/1/4 194/1/4
f 191/1/4 192/1/4 195/1/4
f 194/4/4 191/4/4 195/4/4
f 195/1/4 192/1/4 196/1/4
f 197/1/4 198/1/4 201/1/4
f 198/4/4 199/4/4 202/4/4
f 201/1/4 198/1/4 202/1/4
f 199/1/4 200/1/4 203/1/4
f 202/4/4 199/4/4 203/4/4
f 203/1/4 200/1/4 204/1/4
f 205/1/4 206/1/4 209/1/4
f 206/4/4 207/4/4 210/4/4
f 209/1/4 206/1/4 210/1/4
f 207/1/4 208/1/4 211/1/4
f 210/4/4 207/4/4 211/4/4
f 211/1/4 208/1/4 212/1/4
f 213/1/4 214/1/4 217/1/4
f 214/4/4 215/4/4 218/4/4
f 217/1/4 214/1/4 218/1/4
f 215/1/4 216/1/4 219/1/4
f 218/4/4 215/4/4 219/4/4
f 219/1/4 216/1/4 220/1/4
f 223/1/4 224/1/4 225/1/4
f 223/1/4 225/1/4 227/1/4
f 225/1/4 226/1/4 227/1/4
f 227/1/4 226/1/4 228/1/4
f 221/1/4 222/1/4 229/1/4
f 222/4/4 223/4/4 230/4/4
f 229/1/4 222/1/4 230/1/4
f 223/1/4 227/1/4 231/1/4
f 230/4/4 223/4/4 231/4/4
f 231/1/4 227/1/4 232/1/4
f 237/1/5 234/1/5 233/1/5
f 238/1/5 234/1/5 237/1/5
f 239/1/5 236/1/5 235/1/5
f 240/1/5 236/1/5 239/1/5
f 243/1/5 242/1/5 241/1/5
f 244/1/5 242/1/5 243/1/5
f 245/1/5 242/1/5 244/1/5
f 246/1/5 242/1/5 245/1/5
f 247/1/5 243/1/5 241/1/5
f 248/1/5 245/1/5 244/1/5
f 249/1/5 245/1/5 248/1/5
f 250/1/5 242/1/5 246/1/5
f 251/1/5 249/1/5 248/1/5
f 251/1/5 250/1/5 249/1/5
f 251/1/5 247/1/5 241/1/5
f 251/1/5 248/1/5 247/1/5
f 252/1/5 242/1/5 250/1/5
f 252/1/5 250/1/5 251/1/5
f 257/1/5 254/1/5 253/1/5
f 258/1/5 254/1/5 257/1/5
f 259/1/5 256/1/5 255/1/5
f 260/1/5 256/1/5 259/1/5
f 261/1/6 262/1/6 265/1/6
f 265/1/6 262/1/6 266/1/6
f 263/1/6 264/1/6 267/1/6
f 267/1/6 264/1/6 268/1/6
f 269/1/6 270/1/6 273/1/6
f 273/1/6 270/1/6 274/1/6
f 271/1/6 272/1/6 275/1/6
f 275/1/6 272/1/6 276/1/6
f 277/1/6 278/1/6 281/1/6
f 281/1/6 278/1/6 282/1/6
f 279/1/6 280/1/6 283/1/6
f 283/1/6 280/1/6 284/1/6
f 285/1/6 286/1/6 287/1/6
f 287/1/6 286/1/6 288/1/6
