# MagicaVoxel @ Ephtracy

# group
g Player23

# material
mtllib Player23.mtl
usemtl palette

# normals
vn -1 0 0
vn 1 0 0
vn 0 0 1
vn 0 0 -1
vn 0 -1 0
vn 0 1 0

# texcoords
vt 0.294922 0.5
vt 0.298828 0.5
vt 0.419922 0.5
vt 0.955078 0.5
vt 0.958984 0.5
vt 0.970703 0.5
vt 0.978516 0.5
vt 0.982422 0.5
vt 0.994141 0.5

# verts
v -5 18 10
v -5 18 8
v -5 20 10
v -5 20 8
v -5 21 10
v -5 21 8
v -5 25 10
v -5 25 8
v -3 13 13
v -3 13 4
v -3 18 10
v -3 18 8
v -3 20 10
v -3 20 8
v -3 21 10
v -3 21 8
v -3 25 10
v -3 25 8
v -3 27 13
v -3 27 4
v -3 38 14
v -3 38 3
v -3 40 14
v -3 40 3
v -2 27 13
v -2 27 4
v -2 32 13
v -2 32 4
v -2 34 13
v -2 34 4
v -2 38 13
v -2 38 4
v -1 0 14
v -1 0 7
v -1 1 14
v -1 1 11
v -1 3 11
v -1 3 7
v -1 13 11
v -1 13 7
v 6 0 14
v 6 0 7
v 6 1 14
v 6 1 11
v 6 3 11
v 6 3 7
v 6 13 11
v 6 13 7
v 2 0 14
v 2 0 7
v 2 1 14
v 2 1 11
v 2 3 11
v 2 3 7
v 2 13 11
v 2 13 7
v 9 0 14
v 9 0 7
v 9 1 14
v 9 1 11
v 9 3 11
v 9 3 7
v 9 13 11
v 9 13 7
v 10 27 13
v 10 27 4
v 10 32 13
v 10 32 4
v 10 34 13
v 10 34 4
v 10 38 13
v 10 38 4
v 11 13 13
v 11 13 4
v 11 18 10
v 11 18 8
v 11 20 10
v 11 20 8
v 11 21 10
v 11 21 8
v 11 25 10
v 11 25 8
v 11 27 13
v 11 27 4
v 11 38 14
v 11 38 3
v 11 40 14
v 11 40 3
v 13 18 10
v 13 18 8
v 13 20 10
v 13 20 8
v 13 21 10
v 13 21 8
v 13 25 10
v 13 25 8
v -3 38 14
v -3 40 14
v -1 0 14
v -1 1 14
v 2 0 14
v 2 1 14
v 6 0 14
v 6 1 14
v 9 0 14
v 9 1 14
v 11 38 14
v 11 40 14
v -3 13 13
v -3 27 13
v -2 27 13
v -2 32 13
v -2 34 13
v -2 38 13
v -1 32 13
v -1 34 13
v 0 31 13
v 0 33 13
v 1 31 13
v 1 33 13
v 2 15 13
v 2 16 13
v 2 17 13
v 2 18 13
v 2 19 13
v 2 20 13
v 2 21 13
v 2 22 13
v 2 23 13
v 2 24 13
v 2 25 13
v 2 26 13
v 2 29 13
v 2 30 13
v 2 33 13
v 2 34 13
v 3 15 13
v 3 16 13
v 3 17 13
v 3 18 13
v 3 19 13
v 3 20 13
v 3 21 13
v 3 22 13
v 3 23 13
v 3 24 13
v 3 25 13
v 3 26 13
v 4 15 13
v 4 16 13
v 4 17 13
v 4 18 13
v 4 19 13
v 4 20 13
v 4 21 13
v 4 22 13
v 4 23 13
v 4 24 13
v 4 25 13
v 4 26 13
v 5 15 13
v 5 16 13
v 5 17 13
v 5 18 13
v 5 19 13
v 5 20 13
v 5 21 13
v 5 22 13
v 5 23 13
v 5 24 13
v 5 25 13
v 5 26 13
v 6 29 13
v 6 30 13
v 6 33 13
v 6 34 13
v 7 31 13
v 7 33 13
v 8 31 13
v 8 33 13
v 9 32 13
v 9 34 13
v 10 27 13
v 10 32 13
v 10 34 13
v 10 38 13
v 11 13 13
v 11 27 13
v -1 1 11
v -1 3 11
v -1 13 11
v 2 1 11
v 2 3 11
v 2 13 11
v 6 1 11
v 6 3 11
v 6 13 11
v 9 1 11
v 9 3 11
v 9 13 11
v -5 18 10
v -5 20 10
v -5 21 10
v -5 25 10
v -3 18 10
v -3 20 10
v -3 21 10
v -3 25 10
v 11 18 10
v 11 20 10
v 11 21 10
v 11 25 10
v 13 18 10
v 13 20 10
v 13 21 10
v 13 25 10
v -5 18 8
v -5 20 8
v -5 21 8
v -5 25 8
v -3 18 8
v -3 20 8
v -3 21 8
v -3 25 8
v 11 18 8
v 11 20 8
v 11 21 8
v 11 25 8
v 13 18 8
v 13 20 8
v 13 21 8
v 13 25 8
v -1 0 7
v -1 3 7
v -1 13 7
v 2 0 7
v 2 3 7
v 2 13 7
v 6 0 7
v 6 3 7
v 6 13 7
v 9 0 7
v 9 3 7
v 9 13 7
v -3 13 4
v -3 27 4
v -2 27 4
v -2 32 4
v -2 34 4
v -2 38 4
v 10 27 4
v 10 32 4
v 10 34 4
v 10 38 4
v 11 13 4
v 11 27 4
v -3 38 3
v -3 40 3
v 11 38 3
v 11 40 3
v -1 0 14
v 2 0 14
v 6 0 14
v 9 0 14
v -1 0 7
v 2 0 7
v 6 0 7
v 9 0 7
v -3 13 13
v 11 13 13
v -1 13 11
v 2 13 11
v 6 13 11
v 9 13 11
v -1 13 7
v 2 13 7
v 6 13 7
v 9 13 7
v -3 13 4
v 11 13 4
v -5 18 10
v -3 18 10
v 11 18 10
v 13 18 10
v -5 18 8
v -3 18 8
v 11 18 8
v 13 18 8
v -3 38 14
v 11 38 14
v -2 38 13
v 10 38 13
v -2 38 4
v 10 38 4
v -3 38 3
v 11 38 3
v -1 1 14
v 2 1 14
v 6 1 14
v 9 1 14
v -1 1 11
v 2 1 11
v 6 1 11
v 9 1 11
v -5 25 10
v -3 25 10
v 11 25 10
v 13 25 10
v -5 25 8
v -3 25 8
v 11 25 8
v 13 25 8
v -3 27 13
v -2 27 13
v 10 27 13
v 11 27 13
v -3 27 4
v -2 27 4
v 10 27 4
v 11 27 4
v -3 40 14
v 11 40 14
v -3 40 3
v 11 40 3

# faces
f 3/1/1 2/1/1 1/1/1
f 4/1/1 2/1/1 3/1/1
f 5/9/1 4/9/1 3/9/1
f 6/9/1 4/9/1 5/9/1
f 7/5/1 6/5/1 5/5/1
f 8/5/1 6/5/1 7/5/1
f 11/5/1 10/5/1 9/5/1
f 12/5/1 10/5/1 11/5/1
f 13/5/1 11/5/1 9/5/1
f 14/5/1 10/5/1 12/5/1
f 15/5/1 13/5/1 9/5/1
f 16/5/1 10/5/1 14/5/1
f 17/5/1 15/5/1 9/5/1
f 18/5/1 10/5/1 16/5/1
f 19/5/1 17/5/1 9/5/1
f 19/5/1 18/5/1 17/5/1
f 20/5/1 10/5/1 18/5/1
f 20/5/1 18/5/1 19/5/1
f 23/5/1 22/5/1 21/5/1
f 24/5/1 22/5/1 23/5/1
f 27/1/1 26/1/1 25/1/1
f 28/1/1 26/1/1 27/1/1
f 29/2/1 28/2/1 27/2/1
f 30/2/1 28/2/1 29/2/1
f 31/5/1 30/5/1 29/5/1
f 32/5/1 30/5/1 31/5/1
f 35/9/1 34/9/1 33/9/1
f 36/9/1 34/9/1 35/9/1
f 37/9/1 34/9/1 36/9/1
f 38/9/1 34/9/1 37/9/1
f 39/8/1 38/8/1 37/8/1
f 40/8/1 38/8/1 39/8/1
f 43/9/1 42/9/1 41/9/1
f 44/9/1 42/9/1 43/9/1
f 45/9/1 42/9/1 44/9/1
f 46/9/1 42/9/1 45/9/1
f 47/8/1 46/8/1 45/8/1
f 48/8/1 46/8/1 47/8/1
f 49/9/2 50/9/2 51/9/2
f 51/9/2 50/9/2 52/9/2
f 52/9/2 50/9/2 53/9/2
f 53/9/2 50/9/2 54/9/2
f 53/8/2 54/8/2 55/8/2
f 55/8/2 54/8/2 56/8/2
f 57/9/2 58/9/2 59/9/2
f 59/9/2 58/9/2 60/9/2
f 60/9/2 58/9/2 61/9/2
f 61/9/2 58/9/2 62/9/2
f 61/8/2 62/8/2 63/8/2
f 63/8/2 62/8/2 64/8/2
f 65/1/2 66/1/2 67/1/2
f 67/1/2 66/1/2 68/1/2
f 67/2/2 68/2/2 69/2/2
f 69/2/2 68/2/2 70/2/2
f 69/5/2 70/5/2 71/5/2
f 71/5/2 70/5/2 72/5/2
f 73/5/2 74/5/2 75/5/2
f 75/5/2 74/5/2 76/5/2
f 73/5/2 75/5/2 77/5/2
f 76/5/2 74/5/2 78/5/2
f 73/5/2 77/5/2 79/5/2
f 78/5/2 74/5/2 80/5/2
f 73/5/2 79/5/2 81/5/2
f 80/5/2 74/5/2 82/5/2
f 73/5/2 81/5/2 83/5/2
f 81/5/2 82/5/2 83/5/2
f 82/5/2 74/5/2 84/5/2
f 83/5/2 82/5/2 84/5/2
f 85/5/2 86/5/2 87/5/2
f 87/5/2 86/5/2 88/5/2
f 89/1/2 90/1/2 91/1/2
f 91/1/2 90/1/2 92/1/2
f 91/9/2 92/9/2 93/9/2
f 93/9/2 92/9/2 94/9/2
f 93/5/2 94/5/2 95/5/2
f 95/5/2 94/5/2 96/5/2
f 101/9/3 100/9/3 99/9/3
f 102/9/3 100/9/3 101/9/3
f 105/9/3 104/9/3 103/9/3
f 106/9/3 104/9/3 105/9/3
f 107/5/3 98/5/3 97/5/3
f 108/5/3 98/5/3 107/5/3
f 111/5/3 110/5/3 109/5/3
f 115/1/3 112/1/3 111/1/3
f 115/2/3 113/2/3 112/2/3
f 116/5/3 114/5/3 113/5/3
f 116/2/3 113/2/3 115/2/3
f 117/1/3 115/1/3 111/1/3
f 117/1/3 116/1/3 115/1/3
f 118/1/3 116/1/3 117/1/3
f 119/1/3 117/1/3 111/1/3
f 119/4/3 118/4/3 117/4/3
f 120/1/3 116/1/3 118/1/3
f 120/4/3 118/4/3 119/4/3
f 121/5/3 111/5/3 109/5/3
f 122/5/3 111/5/3 121/5/3
f 123/5/3 111/5/3 122/5/3
f 124/5/3 111/5/3 123/5/3
f 125/5/3 111/5/3 124/5/3
f 126/5/3 111/5/3 125/5/3
f 127/5/3 111/5/3 126/5/3
f 128/5/3 111/5/3 127/5/3
f 129/5/3 111/5/3 128/5/3
f 130/5/3 111/5/3 129/5/3
f 131/5/3 111/5/3 130/5/3
f 132/5/3 111/5/3 131/5/3
f 133/1/3 119/1/3 111/1/3
f 133/1/3 120/1/3 119/1/3
f 134/1/3 120/1/3 133/1/3
f 135/1/3 116/1/3 120/1/3
f 135/1/3 120/1/3 134/1/3
f 136/5/3 114/5/3 116/5/3
f 136/1/3 116/1/3 135/1/3
f 137/5/3 121/5/3 109/5/3
f 137/9/3 122/9/3 121/9/3
f 138/5/3 123/5/3 122/5/3
f 138/9/3 122/9/3 137/9/3
f 139/9/3 124/9/3 123/9/3
f 139/5/3 123/5/3 138/5/3
f 140/5/3 125/5/3 124/5/3
f 140/9/3 124/9/3 139/9/3
f 141/9/3 126/9/3 125/9/3
f 141/5/3 125/5/3 140/5/3
f 142/5/3 127/5/3 126/5/3
f 142/9/3 126/9/3 141/9/3
f 143/9/3 128/9/3 127/9/3
f 143/5/3 127/5/3 142/5/3
f 144/5/3 129/5/3 128/5/3
f 144/9/3 128/9/3 143/9/3
f 145/9/3 130/9/3 129/9/3
f 145/5/3 129/5/3 144/5/3
f 146/5/3 131/5/3 130/5/3
f 146/9/3 130/9/3 145/9/3
f 147/9/3 132/9/3 131/9/3
f 147/5/3 131/5/3 146/5/3
f 148/5/3 111/5/3 132/5/3
f 148/9/3 132/9/3 147/9/3
f 149/5/3 147/5/3 146/5/3
f 149/5/3 146/5/3 145/5/3
f 149/5/3 148/5/3 147/5/3
f 149/5/3 137/5/3 109/5/3
f 149/5/3 145/5/3 144/5/3
f 149/5/3 144/5/3 143/5/3
f 149/5/3 143/5/3 142/5/3
f 149/5/3 142/5/3 141/5/3
f 149/5/3 141/5/3 140/5/3
f 149/5/3 140/5/3 139/5/3
f 149/5/3 139/5/3 138/5/3
f 149/5/3 138/5/3 137/5/3
f 150/5/3 148/5/3 149/5/3
f 151/5/3 148/5/3 150/5/3
f 152/5/3 148/5/3 151/5/3
f 153/5/3 148/5/3 152/5/3
f 154/5/3 148/5/3 153/5/3
f 155/5/3 148/5/3 154/5/3
f 156/5/3 148/5/3 155/5/3
f 157/5/3 148/5/3 156/5/3
f 158/5/3 148/5/3 157/5/3
f 159/5/3 148/5/3 158/5/3
f 160/5/3 111/5/3 148/5/3
f 160/5/3 148/5/3 159/5/3
f 161/5/3 149/5/3 109/5/3
f 161/9/3 150/9/3 149/9/3
f 162/5/3 151/5/3 150/5/3
f 162/9/3 150/9/3 161/9/3
f 163/9/3 152/9/3 151/9/3
f 163/5/3 151/5/3 162/5/3
f 164/5/3 153/5/3 152/5/3
f 164/9/3 152/9/3 163/9/3
f 165/9/3 154/9/3 153/9/3
f 165/5/3 153/5/3 164/5/3
f 166/5/3 155/5/3 154/5/3
f 166/9/3 154/9/3 165/9/3
f 167/9/3 156/9/3 155/9/3
f 167/5/3 155/5/3 166/5/3
f 168/5/3 157/5/3 156/5/3
f 168/9/3 156/9/3 167/9/3
f 169/9/3 158/9/3 157/9/3
f 169/5/3 157/5/3 168/5/3
f 170/5/3 159/5/3 158/5/3
f 170/9/3 158/9/3 169/9/3
f 171/9/3 160/9/3 159/9/3
f 171/5/3 159/5/3 170/5/3
f 172/5/3 111/5/3 160/5/3
f 172/9/3 160/9/3 171/9/3
f 173/4/3 134/4/3 133/4/3
f 173/1/3 133/1/3 111/1/3
f 174/1/3 135/1/3 134/1/3
f 174/4/3 134/4/3 173/4/3
f 175/2/3 136/2/3 135/2/3
f 175/1/3 135/1/3 174/1/3
f 176/5/3 114/5/3 136/5/3
f 176/2/3 136/2/3 175/2/3
f 177/1/3 175/1/3 174/1/3
f 177/1/3 174/1/3 173/1/3
f 177/1/3 176/1/3 175/1/3
f 178/1/3 176/1/3 177/1/3
f 179/1/3 177/1/3 173/1/3
f 179/4/3 178/4/3 177/4/3
f 180/1/3 176/1/3 178/1/3
f 180/4/3 178/4/3 179/4/3
f 181/1/3 180/1/3 179/1/3
f 182/5/3 114/5/3 176/5/3
f 182/1/3 180/1/3 181/1/3
f 182/1/3 176/1/3 180/1/3
f 183/5/3 111/5/3 172/5/3
f 183/1/3 173/1/3 111/1/3
f 183/5/3 169/5/3 168/5/3
f 183/1/3 179/1/3 173/1/3
f 183/5/3 167/5/3 166/5/3
f 183/5/3 166/5/3 165/5/3
f 183/5/3 165/5/3 164/5/3
f 183/5/3 164/5/3 163/5/3
f 183/5/3 163/5/3 162/5/3
f 183/5/3 162/5/3 161/5/3
f 183/5/3 172/5/3 171/5/3
f 183/5/3 170/5/3 169/5/3
f 183/5/3 171/5/3 170/5/3
f 183/5/3 168/5/3 167/5/3
f 183/1/3 181/1/3 179/1/3
f 184/2/3 182/2/3 181/2/3
f 184/1/3 181/1/3 183/1/3
f 185/5/3 114/5/3 182/5/3
f 185/2/3 182/2/3 184/2/3
f 186/5/3 114/5/3 185/5/3
f 187/5/3 183/5/3 161/5/3
f 187/5/3 161/5/3 109/5/3
f 188/5/3 183/5/3 187/5/3
f 192/9/3 190/9/3 189/9/3
f 193/8/3 191/8/3 190/8/3
f 193/9/3 190/9/3 192/9/3
f 194/8/3 191/8/3 193/8/3
f 198/9/3 196/9/3 195/9/3
f 199/8/3 197/8/3 196/8/3
f 199/9/3 196/9/3 198/9/3
f 200/8/3 197/8/3 199/8/3
f 205/1/3 202/1/3 201/1/3
f 206/9/3 203/9/3 202/9/3
f 206/1/3 202/1/3 205/1/3
f 207/5/3 204/5/3 203/5/3
f 207/9/3 203/9/3 206/9/3
f 208/5/3 204/5/3 207/5/3
f 213/1/3 210/1/3 209/1/3
f 214/9/3 211/9/3 210/9/3
f 214/1/3 210/1/3 213/1/3
f 215/5/3 212/5/3 211/5/3
f 215/9/3 211/9/3 214/9/3
f 216/5/3 212/5/3 215/5/3
f 217/1/4 218/1/4 221/1/4
f 218/9/4 219/9/4 222/9/4
f 221/1/4 218/1/4 222/1/4
f 219/5/4 220/5/4 223/5/4
f 222/9/4 219/9/4 223/9/4
f 223/5/4 220/5/4 224/5/4
f 225/1/4 226/1/4 229/1/4
f 226/9/4 227/9/4 230/9/4
f 229/1/4 226/1/4 230/1/4
f 227/5/4 228/5/4 231/5/4
f 230/9/4 227/9/4 231/9/4
f 231/5/4 228/5/4 232/5/4
f 233/9/4 234/9/4 236/9/4
f 234/8/4 235/8/4 237/8/4
f 236/9/4 234/9/4 237/9/4
f 237/8/4 235/8/4 238/8/4
f 239/9/4 240/9/4 242/9/4
f 240/8/4 241/8/4 243/8/4
f 242/9/4 240/9/4 243/9/4
f 243/8/4 241/8/4 244/8/4
f 245/5/4 246/5/4 247/5/4
f 245/5/4 247/5/4 251/5/4
f 247/1/4 248/1/4 251/1/4
f 248/2/4 249/2/4 252/2/4
f 251/1/4 248/1/4 252/1/4
f 249/5/4 250/5/4 253/5/4
f 252/2/4 249/2/4 253/2/4
f 253/5/4 250/5/4 254/5/4
f 245/5/4 251/5/4 255/5/4
f 255/5/4 251/5/4 256/5/4
f 257/5/4 258/5/4 259/5/4
f 259/5/4 258/5/4 260/5/4
f 265/9/5 262/9/5 261/9/5
f 266/9/5 262/9/5 265/9/5
f 267/9/5 264/9/5 263/9/5
f 268/9/5 264/9/5 267/9/5
f 271/5/5 270/5/5 269/5/5
f 272/5/5 270/5/5 271/5/5
f 273/5/5 270/5/5 272/5/5
f 274/5/5 270/5/5 273/5/5
f 275/5/5 271/5/5 269/5/5
f 276/5/5 273/5/5 272/5/5
f 277/5/5 273/5/5 276/5/5
f 278/5/5 270/5/5 274/5/5
f 279/5/5 277/5/5 276/5/5
f 279/5/5 278/5/5 277/5/5
f 279/5/5 275/5/5 269/5/5
f 279/5/5 276/5/5 275/5/5
f 280/5/5 270/5/5 278/5/5
f 280/5/5 278/5/5 279/5/5
f 285/1/5 282/1/5 281/1/5
f 286/1/5 282/1/5 285/1/5
f 287/1/5 284/1/5 283/1/5
f 288/1/5 284/1/5 287/1/5
f 291/5/5 290/5/5 289/5/5
f 292/5/5 290/5/5 291/5/5
f 293/5/5 291/5/5 289/5/5
f 294/5/5 290/5/5 292/5/5
f 295/5/5 293/5/5 289/5/5
f 295/5/5 294/5/5 293/5/5
f 296/5/5 290/5/5 294/5/5
f 296/5/5 294/5/5 295/5/5
f 297/9/6 298/9/6 301/9/6
f 301/9/6 298/9/6 302/9/6
f 299/9/6 300/9/6 303/9/6
f 303/9/6 300/9/6 304/9/6
f 305/5/6 306/5/6 309/5/6
f 309/5/6 306/5/6 310/5/6
f 307/5/6 308/5/6 311/5/6
f 311/5/6 308/5/6 312/5/6
f 313/5/6 314/5/6 317/5/6
f 317/5/6 314/5/6 318/5/6
f 315/5/6 316/5/6 319/5/6
f 319/5/6 316/5/6 320/5/6
f 321/5/6 322/5/6 323/5/6
f 323/5/6 322/5/6 324/5/6
