# MagicaVoxel @ Ephtracy

# group
g Settings

# material
mtllib Settings.mtl
usemtl palette

# normals
vn -1 0 0
vn 1 0 0
vn 0 0 1
vn 0 0 -1
vn 0 -1 0
vn 0 1 0

# texcoords
vt 0.0683594 0.5
vt 0.958984 0.5

# verts
v -16 18 -14
v -16 18 -19
v -16 26 -14
v -16 26 -19
v -15 17 -14
v -15 17 -19
v -15 18 -14
v -15 18 -19
v -15 19 -13
v -15 19 -14
v -15 25 -13
v -15 25 -14
v -15 26 -14
v -15 26 -19
v -15 27 -14
v -15 27 -19
v -14 16 -14
v -14 16 -19
v -14 17 -14
v -14 17 -19
v -14 18 -13
v -14 18 -14
v -14 19 -13
v -14 19 -14
v -14 25 -13
v -14 25 -14
v -14 26 -13
v -14 26 -14
v -14 27 -14
v -14 27 -19
v -14 28 -14
v -14 28 -19
v -13 15 -14
v -13 15 -19
v -13 16 -14
v -13 16 -19
v -13 17 -13
v -13 17 -14
v -13 18 -13
v -13 18 -14
v -13 26 -13
v -13 26 -14
v -13 27 -13
v -13 27 -14
v -13 28 -14
v -13 28 -19
v -13 29 -14
v -13 29 -19
v -12 14 -14
v -12 14 -19
v -12 15 -14
v -12 15 -19
v -12 16 -13
v -12 16 -14
v -12 17 -13
v -12 17 -14
v -12 20 -12
v -12 20 -13
v -12 21 -12
v -12 21 -13
v -12 24 -12
v -12 24 -13
v -12 25 -12
v -12 25 -13
v -12 27 -13
v -12 27 -14
v -12 28 -13
v -12 28 -14
v -12 29 -14
v -12 29 -19
v -12 30 -14
v -12 30 -19
v -11 15 -13
v -11 15 -14
v -11 16 -13
v -11 16 -14
v -11 19 -12
v -11 19 -13
v -11 20 -12
v -11 20 -13
v -11 25 -12
v -11 25 -13
v -11 26 -12
v -11 26 -13
v -11 28 -13
v -11 28 -14
v -11 29 -13
v -11 29 -14
v -10 18 -12
v -10 18 -13
v -10 19 -12
v -10 19 -13
v -10 26 -12
v -10 26 -13
v -10 27 -12
v -10 27 -13
v -9 21 -12
v -9 21 -13
v -9 22 -12
v -9 22 -13
v -9 23 -12
v -9 23 -13
v -9 24 -12
v -9 24 -13
v -8 22 -12
v -8 22 -13
v -8 23 -12
v -8 23 -13
v 6 19 -12
v 6 19 -13
v 6 20 -12
v 6 20 -13
v 6 25 -12
v 6 25 -13
v 6 26 -12
v 6 26 -13
v 7 18 -12
v 7 18 -13
v 7 19 -12
v 7 19 -13
v 7 26 -12
v 7 26 -13
v 7 27 -12
v 7 27 -13
v -6 18 -12
v -6 18 -13
v -6 19 -12
v -6 19 -13
v -6 26 -12
v -6 26 -13
v -6 27 -12
v -6 27 -13
v -5 19 -12
v -5 19 -13
v -5 20 -12
v -5 20 -13
v -5 25 -12
v -5 25 -13
v -5 26 -12
v -5 26 -13
v 9 22 -12
v 9 22 -13
v 9 23 -12
v 9 23 -13
v 10 21 -12
v 10 21 -13
v 10 22 -12
v 10 22 -13
v 10 23 -12
v 10 23 -13
v 10 24 -12
v 10 24 -13
v 11 18 -12
v 11 18 -13
v 11 19 -12
v 11 19 -13
v 11 26 -12
v 11 26 -13
v 11 27 -12
v 11 27 -13
v 12 15 -13
v 12 15 -14
v 12 16 -13
v 12 16 -14
v 12 19 -12
v 12 19 -13
v 12 20 -12
v 12 20 -13
v 12 25 -12
v 12 25 -13
v 12 26 -12
v 12 26 -13
v 12 28 -13
v 12 28 -14
v 12 29 -13
v 12 29 -14
v 13 14 -14
v 13 14 -19
v 13 15 -14
v 13 15 -19
v 13 16 -13
v 13 16 -14
v 13 17 -13
v 13 17 -14
v 13 20 -12
v 13 20 -13
v 13 21 -12
v 13 21 -13
v 13 24 -12
v 13 24 -13
v 13 25 -12
v 13 25 -13
v 13 27 -13
v 13 27 -14
v 13 28 -13
v 13 28 -14
v 13 29 -14
v 13 29 -19
v 13 30 -14
v 13 30 -19
v 14 15 -14
v 14 15 -19
v 14 16 -14
v 14 16 -19
v 14 17 -13
v 14 17 -14
v 14 18 -13
v 14 18 -14
v 14 26 -13
v 14 26 -14
v 14 27 -13
v 14 27 -14
v 14 28 -14
v 14 28 -19
v 14 29 -14
v 14 29 -19
v 15 16 -14
v 15 16 -19
v 15 17 -14
v 15 17 -19
v 15 18 -13
v 15 18 -14
v 15 19 -13
v 15 19 -14
v 15 25 -13
v 15 25 -14
v 15 26 -13
v 15 26 -14
v 15 27 -14
v 15 27 -19
v 15 28 -14
v 15 28 -19
v 16 17 -14
v 16 17 -19
v 16 18 -14
v 16 18 -19
v 16 19 -13
v 16 19 -14
v 16 25 -13
v 16 25 -14
v 16 26 -14
v 16 26 -19
v 16 27 -14
v 16 27 -19
v 17 18 -14
v 17 18 -19
v 17 26 -14
v 17 26 -19
v -12 20 -12
v -12 21 -12
v -12 24 -12
v -12 25 -12
v -11 19 -12
v -11 20 -12
v -11 25 -12
v -11 26 -12
v -10 18 -12
v -10 19 -12
v -10 26 -12
v -10 27 -12
v -9 21 -12
v -9 22 -12
v -9 23 -12
v -9 24 -12
v -8 22 -12
v -8 23 -12
v -6 18 -12
v -6 19 -12
v -6 26 -12
v -6 27 -12
v -5 19 -12
v -5 20 -12
v -5 25 -12
v -5 26 -12
v 6 19 -12
v 6 20 -12
v 6 25 -12
v 6 26 -12
v 7 18 -12
v 7 19 -12
v 7 26 -12
v 7 27 -12
v 9 22 -12
v 9 23 -12
v 10 21 -12
v 10 22 -12
v 10 23 -12
v 10 24 -12
v 11 18 -12
v 11 19 -12
v 11 26 -12
v 11 27 -12
v 12 19 -12
v 12 20 -12
v 12 25 -12
v 12 26 -12
v 13 20 -12
v 13 21 -12
v 13 24 -12
v 13 25 -12
v -15 19 -13
v -15 25 -13
v -14 18 -13
v -14 19 -13
v -14 25 -13
v -14 26 -13
v -13 17 -13
v -13 18 -13
v -13 26 -13
v -13 27 -13
v -12 16 -13
v -12 17 -13
v -12 20 -13
v -12 21 -13
v -12 24 -13
v -12 25 -13
v -12 27 -13
v -12 28 -13
v -11 15 -13
v -11 16 -13
v -11 19 -13
v -11 20 -13
v -11 25 -13
v -11 26 -13
v -11 28 -13
v -11 29 -13
v -10 18 -13
v -10 19 -13
v -10 26 -13
v -10 27 -13
v -9 21 -13
v -9 22 -13
v -9 23 -13
v -9 24 -13
v -8 22 -13
v -8 23 -13
v -6 18 -13
v -6 19 -13
v -6 26 -13
v -6 27 -13
v -5 19 -13
v -5 20 -13
v -5 25 -13
v -5 26 -13
v 6 19 -13
v 6 20 -13
v 6 25 -13
v 6 26 -13
v 7 18 -13
v 7 19 -13
v 7 26 -13
v 7 27 -13
v 9 22 -13
v 9 23 -13
v 10 21 -13
v 10 22 -13
v 10 23 -13
v 10 24 -13
v 11 18 -13
v 11 19 -13
v 11 26 -13
v 11 27 -13
v 12 15 -13
v 12 16 -13
v 12 19 -13
v 12 20 -13
v 12 25 -13
v 12 26 -13
v 12 28 -13
v 12 29 -13
v 13 16 -13
v 13 17 -13
v 13 20 -13
v 13 21 -13
v 13 24 -13
v 13 25 -13
v 13 27 -13
v 13 28 -13
v 14 17 -13
v 14 18 -13
v 14 26 -13
v 14 27 -13
v 15 18 -13
v 15 19 -13
v 15 25 -13
v 15 26 -13
v 16 19 -13
v 16 25 -13
v -16 18 -14
v -16 26 -14
v -15 17 -14
v -15 18 -14
v -15 19 -14
v -15 25 -14
v -15 26 -14
v -15 27 -14
v -14 16 -14
v -14 17 -14
v -14 18 -14
v -14 19 -14
v -14 25 -14
v -14 26 -14
v -14 27 -14
v -14 28 -14
v -13 15 -14
v -13 16 -14
v -13 17 -14
v -13 18 -14
v -13 26 -14
v -13 27 -14
v -13 28 -14
v -13 29 -14
v -12 14 -14
v -12 15 -14
v -12 16 -14
v -12 17 -14
v -12 27 -14
v -12 28 -14
v -12 29 -14
v -12 30 -14
v -11 15 -14
v -11 16 -14
v -11 28 -14
v -11 29 -14
v 12 15 -14
v 12 16 -14
v 12 28 -14
v 12 29 -14
v 13 14 -14
v 13 15 -14
v 13 16 -14
v 13 17 -14
v 13 27 -14
v 13 28 -14
v 13 29 -14
v 13 30 -14
v 14 15 -14
v 14 16 -14
v 14 17 -14
v 14 18 -14
v 14 26 -14
v 14 27 -14
v 14 28 -14
v 14 29 -14
v 15 16 -14
v 15 17 -14
v 15 18 -14
v 15 19 -14
v 15 25 -14
v 15 26 -14
v 15 27 -14
v 15 28 -14
v 16 17 -14
v 16 18 -14
v 16 19 -14
v 16 25 -14
v 16 26 -14
v 16 27 -14
v 17 18 -14
v 17 26 -14
v -16 18 -19
v -16 26 -19
v -15 17 -19
v -15 18 -19
v -15 26 -19
v -15 27 -19
v -14 16 -19
v -14 17 -19
v -14 27 -19
v -14 28 -19
v -13 15 -19
v -13 16 -19
v -13 28 -19
v -13 29 -19
v -12 14 -19
v -12 15 -19
v -12 29 -19
v -12 30 -19
v 13 14 -19
v 13 15 -19
v 13 29 -19
v 13 30 -19
v 14 15 -19
v 14 16 -19
v 14 28 -19
v 14 29 -19
v 15 16 -19
v 15 17 -19
v 15 27 -19
v 15 28 -19
v 16 17 -19
v 16 18 -19
v 16 26 -19
v 16 27 -19
v 17 18 -19
v 17 26 -19
v -12 14 -14
v 13 14 -14
v -12 14 -19
v 13 14 -19
v -11 15 -13
v 12 15 -13
v -13 15 -14
v -12 15 -14
v -11 15 -14
v 12 15 -14
v 13 15 -14
v 14 15 -14
v -13 15 -19
v -12 15 -19
v 13 15 -19
v 14 15 -19
v -12 16 -13
v -11 16 -13
v 12 16 -13
v 13 16 -13
v -14 16 -14
v -13 16 -14
v -12 16 -14
v -11 16 -14
v 12 16 -14
v 13 16 -14
v 14 16 -14
v 15 16 -14
v -14 16 -19
v -13 16 -19
v 14 16 -19
v 15 16 -19
v -13 17 -13
v -12 17 -13
v 13 17 -13
v 14 17 -13
v -15 17 -14
v -14 17 -14
v -13 17 -14
v -12 17 -14
v 13 17 -14
v 14 17 -14
v 15 17 -14
v 16 17 -14
v -15 17 -19
v -14 17 -19
v 15 17 -19
v 16 17 -19
v -10 18 -12
v -6 18 -12
v 7 18 -12
v 11 18 -12
v -14 18 -13
v -13 18 -13
v -10 18 -13
v -6 18 -13
v 7 18 -13
v 11 18 -13
v 14 18 -13
v 15 18 -13
v -16 18 -14
v -15 18 -14
v -14 18 -14
v -13 18 -14
v 14 18 -14
v 15 18 -14
v 16 18 -14
v 17 18 -14
v -16 18 -19
v -15 18 -19
v 16 18 -19
v 17 18 -19
v -11 19 -12
v -10 19 -12
v -6 19 -12
v -5 19 -12
v 6 19 -12
v 7 19 -12
v 11 19 -12
v 12 19 -12
v -15 19 -13
v -14 19 -13
v -11 19 -13
v -10 19 -13
v -6 19 -13
v -5 19 -13
v 6 19 -13
v 7 19 -13
v 11 19 -13
v 12 19 -13
v 15 19 -13
v 16 19 -13
v -15 19 -14
v -14 19 -14
v 15 19 -14
v 16 19 -14
v -12 20 -12
v -11 20 -12
v -5 20 -12
v 6 20 -12
v 12 20 -12
v 13 20 -12
v -12 20 -13
v -11 20 -13
v -5 20 -13
v 6 20 -13
v 12 20 -13
v 13 20 -13
v -9 23 -12
v -8 23 -12
v 9 23 -12
v 10 23 -12
v -9 23 -13
v -8 23 -13
v 9 23 -13
v 10 23 -13
v -12 24 -12
v -9 24 -12
v 10 24 -12
v 13 24 -12
v -12 24 -13
v -9 24 -13
v 10 24 -13
v 13 24 -13
v -12 21 -12
v -9 21 -12
v 10 21 -12
v 13 21 -12
v -12 21 -13
v -9 21 -13
v 10 21 -13
v 13 21 -13
v -9 22 -12
v -8 22 -12
v 9 22 -12
v 10 22 -12
v -9 22 -13
v -8 22 -13
v 9 22 -13
v 10 22 -13
v -12 25 -12
v -11 25 -12
v -5 25 -12
v 6 25 -12
v 12 25 -12
v 13 25 -12
v -15 25 -13
v -14 25 -13
v -12 25 -13
v -11 25 -13
v -5 25 -13
v 6 25 -13
v 12 25 -13
v 13 25 -13
v 15 25 -13
v 16 25 -13
v -15 25 -14
v -14 25 -14
v 15 25 -14
v 16 25 -14
v -11 26 -12
v -10 26 -12
v -6 26 -12
v -5 26 -12
v 6 26 -12
v 7 26 -12
v 11 26 -12
v 12 26 -12
v -14 26 -13
v -13 26 -13
v -11 26 -13
v -10 26 -13
v -6 26 -13
v -5 26 -13
v 6 26 -13
v 7 26 -13
v 11 26 -13
v 12 26 -13
v 14 26 -13
v 15 26 -13
v -16 26 -14
v -15 26 -14
v -14 26 -14
v -13 26 -14
v 14 26 -14
v 15 26 -14
v 16 26 -14
v 17 26 -14
v -16 26 -19
v -15 26 -19
v 16 26 -19
v 17 26 -19
v -10 27 -12
v -6 27 -12
v 7 27 -12
v 11 27 -12
v -13 27 -13
v -12 27 -13
v -10 27 -13
v -6 27 -13
v 7 27 -13
v 11 27 -13
v 13 27 -13
v 14 27 -13
v -15 27 -14
v -14 27 -14
v -13 27 -14
v -12 27 -14
v 13 27 -14
v 14 27 -14
v 15 27 -14
v 16 27 -14
v -15 27 -19
v -14 27 -19
v 15 27 -19
v 16 27 -19
v -12 28 -13
v -11 28 -13
v 12 28 -13
v 13 28 -13
v -14 28 -14
v -13 28 -14
v -12 28 -14
v -11 28 -14
v 12 28 -14
v 13 28 -14
v 14 28 -14
v 15 28 -14
v -14 28 -19
v -13 28 -19
v 14 28 -19
v 15 28 -19
v -11 29 -13
v 12 29 -13
v -13 29 -14
v -12 29 -14
v -11 29 -14
v 12 29 -14
v 13 29 -14
v 14 29 -14
v -13 29 -19
v -12 29 -19
v 13 29 -19
v 14 29 -19
v -12 30 -14
v 13 30 -14
v -12 30 -19
v 13 30 -19

# faces
f 3/2/1 2/2/1 1/2/1
f 4/2/1 2/2/1 3/2/1
f 7/2/1 6/2/1 5/2/1
f 8/2/1 6/2/1 7/2/1
f 11/1/1 10/1/1 9/1/1
f 12/1/1 10/1/1 11/1/1
f 15/2/1 14/2/1 13/2/1
f 16/2/1 14/2/1 15/2/1
f 19/2/1 18/2/1 17/2/1
f 20/2/1 18/2/1 19/2/1
f 23/1/1 22/1/1 21/1/1
f 24/1/1 22/1/1 23/1/1
f 27/1/1 26/1/1 25/1/1
f 28/1/1 26/1/1 27/1/1
f 31/2/1 30/2/1 29/2/1
f 32/2/1 30/2/1 31/2/1
f 35/2/1 34/2/1 33/2/1
f 36/2/1 34/2/1 35/2/1
f 39/1/1 38/1/1 37/1/1
f 40/1/1 38/1/1 39/1/1
f 43/1/1 42/1/1 41/1/1
f 44/1/1 42/1/1 43/1/1
f 47/2/1 46/2/1 45/2/1
f 48/2/1 46/2/1 47/2/1
f 51/2/1 50/2/1 49/2/1
f 52/2/1 50/2/1 51/2/1
f 55/1/1 54/1/1 53/1/1
f 56/1/1 54/1/1 55/1/1
f 59/2/1 58/2/1 57/2/1
f 60/2/1 58/2/1 59/2/1
f 63/2/1 62/2/1 61/2/1
f 64/2/1 62/2/1 63/2/1
f 67/1/1 66/1/1 65/1/1
f 68/1/1 66/1/1 67/1/1
f 71/2/1 70/2/1 69/2/1
f 72/2/1 70/2/1 71/2/1
f 75/1/1 74/1/1 73/1/1
f 76/1/1 74/1/1 75/1/1
f 79/2/1 78/2/1 77/2/1
f 80/2/1 78/2/1 79/2/1
f 83/2/1 82/2/1 81/2/1
f 84/2/1 82/2/1 83/2/1
f 87/1/1 86/1/1 85/1/1
f 88/1/1 86/1/1 87/1/1
f 91/2/1 90/2/1 89/2/1
f 92/2/1 90/2/1 91/2/1
f 95/2/1 94/2/1 93/2/1
f 96/2/1 94/2/1 95/2/1
f 99/2/1 98/2/1 97/2/1
f 100/2/1 98/2/1 99/2/1
f 103/2/1 102/2/1 101/2/1
f 104/2/1 102/2/1 103/2/1
f 107/2/1 106/2/1 105/2/1
f 108/2/1 106/2/1 107/2/1
f 111/2/1 110/2/1 109/2/1
f 112/2/1 110/2/1 111/2/1
f 115/2/1 114/2/1 113/2/1
f 116/2/1 114/2/1 115/2/1
f 119/2/1 118/2/1 117/2/1
f 120/2/1 118/2/1 119/2/1
f 123/2/1 122/2/1 121/2/1
f 124/2/1 122/2/1 123/2/1
f 125/2/2 126/2/2 127/2/2
f 127/2/2 126/2/2 128/2/2
f 129/2/2 130/2/2 131/2/2
f 131/2/2 130/2/2 132/2/2
f 133/2/2 134/2/2 135/2/2
f 135/2/2 134/2/2 136/2/2
f 137/2/2 138/2/2 139/2/2
f 139/2/2 138/2/2 140/2/2
f 141/2/2 142/2/2 143/2/2
f 143/2/2 142/2/2 144/2/2
f 145/2/2 146/2/2 147/2/2
f 147/2/2 146/2/2 148/2/2
f 149/2/2 150/2/2 151/2/2
f 151/2/2 150/2/2 152/2/2
f 153/2/2 154/2/2 155/2/2
f 155/2/2 154/2/2 156/2/2
f 157/2/2 158/2/2 159/2/2
f 159/2/2 158/2/2 160/2/2
f 161/1/2 162/1/2 163/1/2
f 163/1/2 162/1/2 164/1/2
f 165/2/2 166/2/2 167/2/2
f 167/2/2 166/2/2 168/2/2
f 169/2/2 170/2/2 171/2/2
f 171/2/2 170/2/2 172/2/2
f 173/1/2 174/1/2 175/1/2
f 175/1/2 174/1/2 176/1/2
f 177/2/2 178/2/2 179/2/2
f 179/2/2 178/2/2 180/2/2
f 181/1/2 182/1/2 183/1/2
f 183/1/2 182/1/2 184/1/2
f 185/2/2 186/2/2 187/2/2
f 187/2/2 186/2/2 188/2/2
f 189/2/2 190/2/2 191/2/2
f 191/2/2 190/2/2 192/2/2
f 193/1/2 194/1/2 195/1/2
f 195/1/2 194/1/2 196/1/2
f 197/2/2 198/2/2 199/2/2
f 199/2/2 198/2/2 200/2/2
f 201/2/2 202/2/2 203/2/2
f 203/2/2 202/2/2 204/2/2
f 205/1/2 206/1/2 207/1/2
f 207/1/2 206/1/2 208/1/2
f 209/1/2 210/1/2 211/1/2
f 211/1/2 210/1/2 212/1/2
f 213/2/2 214/2/2 215/2/2
f 215/2/2 214/2/2 216/2/2
f 217/2/2 218/2/2 219/2/2
f 219/2/2 218/2/2 220/2/2
f 221/1/2 222/1/2 223/1/2
f 223/1/2 222/1/2 224/1/2
f 225/1/2 226/1/2 227/1/2
f 227/1/2 226/1/2 228/1/2
f 229/2/2 230/2/2 231/2/2
f 231/2/2 230/2/2 232/2/2
f 233/2/2 234/2/2 235/2/2
f 235/2/2 234/2/2 236/2/2
f 237/1/2 238/1/2 239/1/2
f 239/1/2 238/1/2 240/1/2
f 241/2/2 242/2/2 243/2/2
f 243/2/2 242/2/2 244/2/2
f 245/2/2 246/2/2 247/2/2
f 247/2/2 246/2/2 248/2/2
f 254/2/3 250/2/3 249/2/3
f 255/2/3 252/2/3 251/2/3
f 258/2/3 254/2/3 253/2/3
f 259/2/3 256/2/3 255/2/3
f 261/2/3 258/2/3 257/2/3
f 261/2/3 250/2/3 254/2/3
f 261/2/3 254/2/3 258/2/3
f 264/2/3 260/2/3 259/2/3
f 264/2/3 259/2/3 255/2/3
f 264/2/3 255/2/3 251/2/3
f 265/2/3 262/2/3 261/2/3
f 266/2/3 264/2/3 263/2/3
f 267/2/3 265/2/3 261/2/3
f 267/2/3 266/2/3 265/2/3
f 267/2/3 261/2/3 257/2/3
f 268/2/3 266/2/3 267/2/3
f 269/2/3 264/2/3 266/2/3
f 269/2/3 266/2/3 268/2/3
f 269/2/3 260/2/3 264/2/3
f 270/2/3 260/2/3 269/2/3
f 271/2/3 269/2/3 268/2/3
f 272/2/3 269/2/3 271/2/3
f 273/2/3 269/2/3 272/2/3
f 274/2/3 269/2/3 273/2/3
f 276/2/3 273/2/3 272/2/3
f 277/2/3 273/2/3 276/2/3
f 280/2/3 276/2/3 275/2/3
f 280/2/3 278/2/3 277/2/3
f 280/2/3 277/2/3 276/2/3
f 281/2/3 278/2/3 280/2/3
f 283/2/3 281/2/3 280/2/3
f 283/2/3 282/2/3 281/2/3
f 283/2/3 280/2/3 279/2/3
f 284/2/3 282/2/3 283/2/3
f 285/2/3 283/2/3 279/2/3
f 286/2/3 283/2/3 285/2/3
f 287/2/3 282/2/3 284/2/3
f 288/2/3 282/2/3 287/2/3
f 289/2/3 285/2/3 279/2/3
f 290/2/3 285/2/3 289/2/3
f 291/2/3 282/2/3 288/2/3
f 292/2/3 282/2/3 291/2/3
f 293/2/3 285/2/3 290/2/3
f 294/2/3 285/2/3 293/2/3
f 295/2/3 291/2/3 288/2/3
f 296/2/3 291/2/3 295/2/3
f 297/2/3 285/2/3 294/2/3
f 298/2/3 285/2/3 297/2/3
f 299/2/3 295/2/3 288/2/3
f 300/2/3 295/2/3 299/2/3
f 304/1/3 302/1/3 301/1/3
f 305/1/3 302/1/3 304/1/3
f 308/1/3 304/1/3 303/1/3
f 308/1/3 306/1/3 305/1/3
f 308/1/3 305/1/3 304/1/3
f 309/1/3 306/1/3 308/1/3
f 312/1/3 308/1/3 307/1/3
f 312/1/3 310/1/3 309/1/3
f 312/1/3 309/1/3 308/1/3
f 313/1/3 310/1/3 312/1/3
f 314/1/3 310/1/3 313/1/3
f 315/1/3 310/1/3 314/1/3
f 316/1/3 310/1/3 315/1/3
f 317/1/3 310/1/3 316/1/3
f 320/1/3 312/1/3 311/1/3
f 320/1/3 313/1/3 312/1/3
f 321/1/3 313/1/3 320/1/3
f 322/1/3 313/1/3 321/1/3
f 323/1/3 317/1/3 316/1/3
f 323/1/3 318/1/3 317/1/3
f 324/1/3 318/1/3 323/1/3
f 325/1/3 318/1/3 324/1/3
f 327/1/3 321/1/3 320/1/3
f 327/1/3 320/1/3 319/1/3
f 328/1/3 321/1/3 327/1/3
f 329/1/3 326/1/3 325/1/3
f 329/1/3 325/1/3 324/1/3
f 330/1/3 326/1/3 329/1/3
f 331/1/3 315/1/3 314/1/3
f 332/1/3 315/1/3 331/1/3
f 333/1/3 315/1/3 332/1/3
f 334/1/3 315/1/3 333/1/3
f 335/1/3 333/1/3 332/1/3
f 336/1/3 333/1/3 335/1/3
f 337/1/3 327/1/3 319/1/3
f 340/1/3 326/1/3 330/1/3
f 341/1/3 338/1/3 337/1/3
f 344/1/3 340/1/3 339/1/3
f 345/1/3 342/1/3 341/1/3
f 345/1/3 341/1/3 337/1/3
f 346/1/3 342/1/3 345/1/3
f 347/1/3 344/1/3 343/1/3
f 348/1/3 340/1/3 344/1/3
f 348/1/3 344/1/3 347/1/3
f 349/1/3 337/1/3 319/1/3
f 349/1/3 345/1/3 337/1/3
f 350/1/3 345/1/3 349/1/3
f 351/1/3 340/1/3 348/1/3
f 352/1/3 326/1/3 340/1/3
f 352/1/3 340/1/3 351/1/3
f 356/1/3 354/1/3 353/1/3
f 357/1/3 354/1/3 356/1/3
f 359/1/3 349/1/3 319/1/3
f 362/1/3 326/1/3 352/1/3
f 363/1/3 360/1/3 359/1/3
f 363/1/3 359/1/3 319/1/3
f 364/1/3 360/1/3 363/1/3
f 365/1/3 360/1/3 364/1/3
f 368/1/3 362/1/3 361/1/3
f 369/1/3 326/1/3 362/1/3
f 369/1/3 362/1/3 368/1/3
f 370/1/3 326/1/3 369/1/3
f 371/1/3 366/1/3 365/1/3
f 371/1/3 365/1/3 364/1/3
f 372/1/3 366/1/3 371/1/3
f 373/1/3 366/1/3 372/1/3
f 374/1/3 358/1/3 357/1/3
f 374/1/3 356/1/3 355/1/3
f 374/1/3 357/1/3 356/1/3
f 375/1/3 358/1/3 374/1/3
f 376/1/3 368/1/3 367/1/3
f 376/1/3 369/1/3 368/1/3
f 377/1/3 369/1/3 376/1/3
f 378/1/3 369/1/3 377/1/3
f 379/1/3 373/1/3 372/1/3
f 379/1/3 377/1/3 376/1/3
f 379/1/3 376/1/3 375/1/3
f 379/1/3 375/1/3 374/1/3
f 379/1/3 374/1/3 373/1/3
f 380/1/3 377/1/3 379/1/3
f 381/1/3 377/1/3 380/1/3
f 382/1/3 377/1/3 381/1/3
f 383/1/3 381/1/3 380/1/3
f 384/1/3 381/1/3 383/1/3
f 385/1/3 381/1/3 384/1/3
f 386/1/3 381/1/3 385/1/3
f 387/1/3 385/1/3 384/1/3
f 388/1/3 385/1/3 387/1/3
f 392/2/3 390/2/3 389/2/3
f 393/2/3 390/2/3 392/2/3
f 394/2/3 390/2/3 393/2/3
f 395/2/3 390/2/3 394/2/3
f 398/2/3 392/2/3 391/2/3
f 398/2/3 393/2/3 392/2/3
f 399/2/3 393/2/3 398/2/3
f 400/2/3 393/2/3 399/2/3
f 401/2/3 395/2/3 394/2/3
f 401/2/3 396/2/3 395/2/3
f 402/2/3 396/2/3 401/2/3
f 403/2/3 396/2/3 402/2/3
f 406/2/3 399/2/3 398/2/3
f 406/2/3 398/2/3 397/2/3
f 407/2/3 399/2/3 406/2/3
f 408/2/3 399/2/3 407/2/3
f 409/2/3 404/2/3 403/2/3
f 409/2/3 403/2/3 402/2/3
f 410/2/3 404/2/3 409/2/3
f 411/2/3 404/2/3 410/2/3
f 414/2/3 407/2/3 406/2/3
f 414/2/3 406/2/3 405/2/3
f 415/2/3 407/2/3 414/2/3
f 416/2/3 407/2/3 415/2/3
f 417/2/3 412/2/3 411/2/3
f 417/2/3 411/2/3 410/2/3
f 418/2/3 412/2/3 417/2/3
f 419/2/3 412/2/3 418/2/3
f 421/2/3 415/2/3 414/2/3
f 421/2/3 414/2/3 413/2/3
f 422/2/3 415/2/3 421/2/3
f 423/2/3 420/2/3 419/2/3
f 423/2/3 419/2/3 418/2/3
f 424/2/3 420/2/3 423/2/3
f 425/2/3 421/2/3 413/2/3
f 428/2/3 420/2/3 424/2/3
f 429/2/3 426/2/3 425/2/3
f 429/2/3 425/2/3 413/2/3
f 430/2/3 426/2/3 429/2/3
f 431/2/3 426/2/3 430/2/3
f 434/2/3 428/2/3 427/2/3
f 435/2/3 420/2/3 428/2/3
f 435/2/3 428/2/3 434/2/3
f 436/2/3 420/2/3 435/2/3
f 437/2/3 432/2/3 431/2/3
f 437/2/3 431/2/3 430/2/3
f 438/2/3 432/2/3 437/2/3
f 439/2/3 432/2/3 438/2/3
f 442/2/3 434/2/3 433/2/3
f 442/2/3 435/2/3 434/2/3
f 443/2/3 435/2/3 442/2/3
f 444/2/3 435/2/3 443/2/3
f 445/2/3 440/2/3 439/2/3
f 445/2/3 439/2/3 438/2/3
f 446/2/3 440/2/3 445/2/3
f 447/2/3 440/2/3 446/2/3
f 450/2/3 443/2/3 442/2/3
f 450/2/3 442/2/3 441/2/3
f 451/2/3 443/2/3 450/2/3
f 452/2/3 443/2/3 451/2/3
f 453/2/3 448/2/3 447/2/3
f 453/2/3 447/2/3 446/2/3
f 454/2/3 448/2/3 453/2/3
f 455/2/3 448/2/3 454/2/3
f 456/2/3 451/2/3 450/2/3
f 456/2/3 450/2/3 449/2/3
f 457/2/3 451/2/3 456/2/3
f 458/2/3 451/2/3 457/2/3
f 459/2/3 455/2/3 454/2/3
f 459/2/3 457/2/3 456/2/3
f 459/2/3 456/2/3 455/2/3
f 460/2/3 457/2/3 459/2/3
f 461/2/4 462/2/4 464/2/4
f 464/2/4 462/2/4 465/2/4
f 463/2/4 464/2/4 468/2/4
f 465/2/4 466/2/4 468/2/4
f 464/2/4 465/2/4 468/2/4
f 468/2/4 466/2/4 469/2/4
f 467/2/4 468/2/4 472/2/4
f 469/2/4 470/2/4 472/2/4
f 468/2/4 469/2/4 472/2/4
f 472/2/4 470/2/4 473/2/4
f 471/2/4 472/2/4 476/2/4
f 473/2/4 474/2/4 476/2/4
f 472/2/4 473/2/4 476/2/4
f 476/2/4 474/2/4 477/2/4
f 475/2/4 476/2/4 479/2/4
f 477/2/4 478/2/4 479/2/4
f 476/2/4 477/2/4 479/2/4
f 479/2/4 478/2/4 480/2/4
f 480/2/4 478/2/4 481/2/4
f 481/2/4 478/2/4 482/2/4
f 480/2/4 481/2/4 483/2/4
f 483/2/4 481/2/4 484/2/4
f 484/2/4 481/2/4 485/2/4
f 485/2/4 481/2/4 486/2/4
f 484/2/4 485/2/4 487/2/4
f 487/2/4 485/2/4 488/2/4
f 488/2/4 485/2/4 489/2/4
f 489/2/4 485/2/4 490/2/4
f 488/2/4 489/2/4 491/2/4
f 491/2/4 489/2/4 492/2/4
f 492/2/4 489/2/4 493/2/4
f 493/2/4 489/2/4 494/2/4
f 492/2/4 493/2/4 495/2/4
f 495/2/4 493/2/4 496/2/4
f 499/2/5 498/2/5 497/2/5
f 500/2/5 498/2/5 499/2/5
f 505/1/5 502/1/5 501/1/5
f 506/1/5 502/1/5 505/1/5
f 509/2/5 504/2/5 503/2/5
f 510/2/5 504/2/5 509/2/5
f 511/2/5 508/2/5 507/2/5
f 512/2/5 508/2/5 511/2/5
f 519/1/5 514/1/5 513/1/5
f 520/1/5 514/1/5 519/1/5
f 521/1/5 516/1/5 515/1/5
f 522/1/5 516/1/5 521/1/5
f 525/2/5 518/2/5 517/2/5
f 526/2/5 518/2/5 525/2/5
f 527/2/5 524/2/5 523/2/5
f 528/2/5 524/2/5 527/2/5
f 535/1/5 530/1/5 529/1/5
f 536/1/5 530/1/5 535/1/5
f 537/1/5 532/1/5 531/1/5
f 538/1/5 532/1/5 537/1/5
f 541/2/5 534/2/5 533/2/5
f 542/2/5 534/2/5 541/2/5
f 543/2/5 540/2/5 539/2/5
f 544/2/5 540/2/5 543/2/5
f 551/2/5 546/2/5 545/2/5
f 552/2/5 546/2/5 551/2/5
f 553/2/5 548/2/5 547/2/5
f 554/2/5 548/2/5 553/2/5
f 559/1/5 550/1/5 549/1/5
f 560/1/5 550/1/5 559/1/5
f 561/1/5 556/1/5 555/1/5
f 562/1/5 556/1/5 561/1/5
f 565/2/5 558/2/5 557/2/5
f 566/2/5 558/2/5 565/2/5
f 567/2/5 564/2/5 563/2/5
f 568/2/5 564/2/5 567/2/5
f 579/2/5 570/2/5 569/2/5
f 580/2/5 570/2/5 579/2/5
f 581/2/5 572/2/5 571/2/5
f 582/2/5 572/2/5 581/2/5
f 583/2/5 574/2/5 573/2/5
f 584/2/5 574/2/5 583/2/5
f 585/2/5 576/2/5 575/2/5
f 586/2/5 576/2/5 585/2/5
f 589/1/5 578/1/5 577/1/5
f 590/1/5 578/1/5 589/1/5
f 591/1/5 588/1/5 587/1/5
f 592/1/5 588/1/5 591/1/5
f 599/2/5 594/2/5 593/2/5
f 600/2/5 594/2/5 599/2/5
f 601/2/5 596/2/5 595/2/5
f 602/2/5 596/2/5 601/2/5
f 603/2/5 598/2/5 597/2/5
f 604/2/5 598/2/5 603/2/5
f 609/2/5 606/2/5 605/2/5
f 610/2/5 606/2/5 609/2/5
f 611/2/5 608/2/5 607/2/5
f 612/2/5 608/2/5 611/2/5
f 617/2/5 614/2/5 613/2/5
f 618/2/5 614/2/5 617/2/5
f 619/2/5 616/2/5 615/2/5
f 620/2/5 616/2/5 619/2/5
f 621/2/6 622/2/6 625/2/6
f 625/2/6 622/2/6 626/2/6
f 623/2/6 624/2/6 627/2/6
f 627/2/6 624/2/6 628/2/6
f 629/2/6 630/2/6 633/2/6
f 633/2/6 630/2/6 634/2/6
f 631/2/6 632/2/6 635/2/6
f 635/2/6 632/2/6 636/2/6
f 637/2/6 638/2/6 645/2/6
f 645/2/6 638/2/6 646/2/6
f 639/2/6 640/2/6 647/2/6
f 647/2/6 640/2/6 648/2/6
f 641/2/6 642/2/6 649/2/6
f 649/2/6 642/2/6 650/2/6
f 643/1/6 644/1/6 653/1/6
f 653/1/6 644/1/6 654/1/6
f 651/1/6 652/1/6 655/1/6
f 655/1/6 652/1/6 656/1/6
f 657/2/6 658/2/6 667/2/6
f 667/2/6 658/2/6 668/2/6
f 659/2/6 660/2/6 669/2/6
f 669/2/6 660/2/6 670/2/6
f 661/2/6 662/2/6 671/2/6
f 671/2/6 662/2/6 672/2/6
f 663/2/6 664/2/6 673/2/6
f 673/2/6 664/2/6 674/2/6
f 665/1/6 666/1/6 679/1/6
f 679/1/6 666/1/6 680/1/6
f 675/1/6 676/1/6 681/1/6
f 681/1/6 676/1/6 682/1/6
f 677/2/6 678/2/6 685/2/6
f 685/2/6 678/2/6 686/2/6
f 683/2/6 684/2/6 687/2/6
f 687/2/6 684/2/6 688/2/6
f 689/2/6 690/2/6 695/2/6
f 695/2/6 690/2/6 696/2/6
f 691/2/6 692/2/6 697/2/6
f 697/2/6 692/2/6 698/2/6
f 693/1/6 694/1/6 703/1/6
f 703/1/6 694/1/6 704/1/6
f 699/1/6 700/1/6 705/1/6
f 705/1/6 700/1/6 706/1/6
f 701/2/6 702/2/6 709/2/6
f 709/2/6 702/2/6 710/2/6
f 707/2/6 708/2/6 711/2/6
f 711/2/6 708/2/6 712/2/6
f 713/1/6 714/1/6 719/1/6
f 719/1/6 714/1/6 720/1/6
f 715/1/6 716/1/6 721/1/6
f 721/1/6 716/1/6 722/1/6
f 717/2/6 718/2/6 725/2/6
f 725/2/6 718/2/6 726/2/6
f 723/2/6 724/2/6 727/2/6
f 727/2/6 724/2/6 728/2/6
f 729/1/6 730/1/6 733/1/6
f 733/1/6 730/1/6 734/1/6
f 731/2/6 732/2/6 737/2/6
f 737/2/6 732/2/6 738/2/6
f 735/2/6 736/2/6 739/2/6
f 739/2/6 736/2/6 740/2/6
f 741/2/6 742/2/6 743/2/6
f 743/2/6 742/2/6 744/2/6
